G04 #@! TF.FileFunction,Soldermask,Top*
%FSLAX46Y46*%
G04 Gerber Fmt 4.6, Leading zero omitted, Abs format (unit mm)*
G04 Created by KiCad (PCBNEW 4.1.0-alpha+201606030946+6874~45~ubuntu14.04.1-product) date Sun Jul  3 18:53:08 2016*
%MOMM*%
%LPD*%
G01*
G04 APERTURE LIST*
%ADD10C,0.100000*%
%ADD11C,0.150000*%
%ADD12C,0.300000*%
%ADD13C,0.400000*%
%ADD14R,1.250000X1.500000*%
%ADD15R,1.500000X1.250000*%
%ADD16R,1.600000X2.000000*%
%ADD17C,1.300000*%
%ADD18C,1.524000*%
%ADD19R,1.900000X2.000000*%
%ADD20C,1.900000*%
%ADD21R,2.000000X0.650000*%
%ADD22R,2.400000X0.550000*%
%ADD23R,0.550000X2.400000*%
%ADD24R,2.000000X0.600000*%
%ADD25R,1.500000X1.300000*%
%ADD26R,1.300000X1.500000*%
%ADD27C,1.000760*%
%ADD28R,1.800860X3.500120*%
%ADD29R,2.700000X0.250000*%
G04 APERTURE END LIST*
D10*
D11*
X177002200Y-166007200D02*
X177002200Y-198007200D01*
X285002200Y-198007200D01*
X285002200Y-166007200D01*
X177002200Y-166007200D01*
D10*
D11*
X10000000Y-10000000D02*
X10000000Y-200007200D01*
X287002200Y-200007200D01*
X287002200Y-10000000D01*
X10000000Y-10000000D01*
D10*
D11*
X12000000Y-12000000D02*
X12000000Y-198007200D01*
X285002200Y-198007200D01*
X285002200Y-12000000D01*
X12000000Y-12000000D01*
D10*
D11*
X60000000Y-12000000D02*
X60000000Y-10000000D01*
D10*
D11*
X110000000Y-12000000D02*
X110000000Y-10000000D01*
D10*
D11*
X160000000Y-12000000D02*
X160000000Y-10000000D01*
D10*
D11*
X210000000Y-12000000D02*
X210000000Y-10000000D01*
D10*
D11*
X260000000Y-12000000D02*
X260000000Y-10000000D01*
D10*
D11*
X36065476Y-11588095D02*
X35322619Y-11588095D01*
X35694047Y-11588095D02*
X35694047Y-10288095D01*
X35570238Y-10473809D01*
X35446428Y-10597619D01*
X35322619Y-10659523D01*
D10*
D11*
X85322619Y-10411904D02*
X85384523Y-10350000D01*
X85508333Y-10288095D01*
X85817857Y-10288095D01*
X85941666Y-10350000D01*
X86003571Y-10411904D01*
X86065476Y-10535714D01*
X86065476Y-10659523D01*
X86003571Y-10845238D01*
X85260714Y-11588095D01*
X86065476Y-11588095D01*
D10*
D11*
X135260714Y-10288095D02*
X136065476Y-10288095D01*
X135632142Y-10783333D01*
X135817857Y-10783333D01*
X135941666Y-10845238D01*
X136003571Y-10907142D01*
X136065476Y-11030952D01*
X136065476Y-11340476D01*
X136003571Y-11464285D01*
X135941666Y-11526190D01*
X135817857Y-11588095D01*
X135446428Y-11588095D01*
X135322619Y-11526190D01*
X135260714Y-11464285D01*
D10*
D11*
X185941666Y-10721428D02*
X185941666Y-11588095D01*
X185632142Y-10226190D02*
X185322619Y-11154761D01*
X186127380Y-11154761D01*
D10*
D11*
X236003571Y-10288095D02*
X235384523Y-10288095D01*
X235322619Y-10907142D01*
X235384523Y-10845238D01*
X235508333Y-10783333D01*
X235817857Y-10783333D01*
X235941666Y-10845238D01*
X236003571Y-10907142D01*
X236065476Y-11030952D01*
X236065476Y-11340476D01*
X236003571Y-11464285D01*
X235941666Y-11526190D01*
X235817857Y-11588095D01*
X235508333Y-11588095D01*
X235384523Y-11526190D01*
X235322619Y-11464285D01*
D10*
D11*
X285941666Y-10288095D02*
X285694047Y-10288095D01*
X285570238Y-10350000D01*
X285508333Y-10411904D01*
X285384523Y-10597619D01*
X285322619Y-10845238D01*
X285322619Y-11340476D01*
X285384523Y-11464285D01*
X285446428Y-11526190D01*
X285570238Y-11588095D01*
X285817857Y-11588095D01*
X285941666Y-11526190D01*
X286003571Y-11464285D01*
X286065476Y-11340476D01*
X286065476Y-11030952D01*
X286003571Y-10907142D01*
X285941666Y-10845238D01*
X285817857Y-10783333D01*
X285570238Y-10783333D01*
X285446428Y-10845238D01*
X285384523Y-10907142D01*
X285322619Y-11030952D01*
D10*
D11*
X60000000Y-198007200D02*
X60000000Y-200007200D01*
D10*
D11*
X110000000Y-198007200D02*
X110000000Y-200007200D01*
D10*
D11*
X160000000Y-198007200D02*
X160000000Y-200007200D01*
D10*
D11*
X210000000Y-198007200D02*
X210000000Y-200007200D01*
D10*
D11*
X260000000Y-198007200D02*
X260000000Y-200007200D01*
D10*
D11*
X36065476Y-199595295D02*
X35322619Y-199595295D01*
X35694047Y-199595295D02*
X35694047Y-198295295D01*
X35570238Y-198481009D01*
X35446428Y-198604819D01*
X35322619Y-198666723D01*
D10*
D11*
X85322619Y-198419104D02*
X85384523Y-198357200D01*
X85508333Y-198295295D01*
X85817857Y-198295295D01*
X85941666Y-198357200D01*
X86003571Y-198419104D01*
X86065476Y-198542914D01*
X86065476Y-198666723D01*
X86003571Y-198852438D01*
X85260714Y-199595295D01*
X86065476Y-199595295D01*
D10*
D11*
X135260714Y-198295295D02*
X136065476Y-198295295D01*
X135632142Y-198790533D01*
X135817857Y-198790533D01*
X135941666Y-198852438D01*
X136003571Y-198914342D01*
X136065476Y-199038152D01*
X136065476Y-199347676D01*
X136003571Y-199471485D01*
X135941666Y-199533390D01*
X135817857Y-199595295D01*
X135446428Y-199595295D01*
X135322619Y-199533390D01*
X135260714Y-199471485D01*
D10*
D11*
X185941666Y-198728628D02*
X185941666Y-199595295D01*
X185632142Y-198233390D02*
X185322619Y-199161961D01*
X186127380Y-199161961D01*
D10*
D11*
X236003571Y-198295295D02*
X235384523Y-198295295D01*
X235322619Y-198914342D01*
X235384523Y-198852438D01*
X235508333Y-198790533D01*
X235817857Y-198790533D01*
X235941666Y-198852438D01*
X236003571Y-198914342D01*
X236065476Y-199038152D01*
X236065476Y-199347676D01*
X236003571Y-199471485D01*
X235941666Y-199533390D01*
X235817857Y-199595295D01*
X235508333Y-199595295D01*
X235384523Y-199533390D01*
X235322619Y-199471485D01*
D10*
D11*
X285941666Y-198295295D02*
X285694047Y-198295295D01*
X285570238Y-198357200D01*
X285508333Y-198419104D01*
X285384523Y-198604819D01*
X285322619Y-198852438D01*
X285322619Y-199347676D01*
X285384523Y-199471485D01*
X285446428Y-199533390D01*
X285570238Y-199595295D01*
X285817857Y-199595295D01*
X285941666Y-199533390D01*
X286003571Y-199471485D01*
X286065476Y-199347676D01*
X286065476Y-199038152D01*
X286003571Y-198914342D01*
X285941666Y-198852438D01*
X285817857Y-198790533D01*
X285570238Y-198790533D01*
X285446428Y-198852438D01*
X285384523Y-198914342D01*
X285322619Y-199038152D01*
D10*
D11*
X10000000Y-60000000D02*
X12000000Y-60000000D01*
D10*
D11*
X10000000Y-110000000D02*
X12000000Y-110000000D01*
D10*
D11*
X10000000Y-160000000D02*
X12000000Y-160000000D01*
D10*
D11*
X10690476Y-35216666D02*
X11309523Y-35216666D01*
X10566666Y-35588095D02*
X11000000Y-34288095D01*
X11433333Y-35588095D01*
D10*
D11*
X11092857Y-84907142D02*
X11278571Y-84969047D01*
X11340476Y-85030952D01*
X11402380Y-85154761D01*
X11402380Y-85340476D01*
X11340476Y-85464285D01*
X11278571Y-85526190D01*
X11154761Y-85588095D01*
X10659523Y-85588095D01*
X10659523Y-84288095D01*
X11092857Y-84288095D01*
X11216666Y-84350000D01*
X11278571Y-84411904D01*
X11340476Y-84535714D01*
X11340476Y-84659523D01*
X11278571Y-84783333D01*
X11216666Y-84845238D01*
X11092857Y-84907142D01*
X10659523Y-84907142D01*
D10*
D11*
X11402380Y-135464285D02*
X11340476Y-135526190D01*
X11154761Y-135588095D01*
X11030952Y-135588095D01*
X10845238Y-135526190D01*
X10721428Y-135402380D01*
X10659523Y-135278571D01*
X10597619Y-135030952D01*
X10597619Y-134845238D01*
X10659523Y-134597619D01*
X10721428Y-134473809D01*
X10845238Y-134350000D01*
X11030952Y-134288095D01*
X11154761Y-134288095D01*
X11340476Y-134350000D01*
X11402380Y-134411904D01*
D10*
D11*
X10659523Y-185588095D02*
X10659523Y-184288095D01*
X10969047Y-184288095D01*
X11154761Y-184350000D01*
X11278571Y-184473809D01*
X11340476Y-184597619D01*
X11402380Y-184845238D01*
X11402380Y-185030952D01*
X11340476Y-185278571D01*
X11278571Y-185402380D01*
X11154761Y-185526190D01*
X10969047Y-185588095D01*
X10659523Y-185588095D01*
D10*
D11*
X287002200Y-60000000D02*
X285002200Y-60000000D01*
D10*
D11*
X287002200Y-110000000D02*
X285002200Y-110000000D01*
D10*
D11*
X287002200Y-160000000D02*
X285002200Y-160000000D01*
D10*
D11*
X285692676Y-35216666D02*
X286311723Y-35216666D01*
X285568866Y-35588095D02*
X286002200Y-34288095D01*
X286435533Y-35588095D01*
D10*
D11*
X286095057Y-84907142D02*
X286280771Y-84969047D01*
X286342676Y-85030952D01*
X286404580Y-85154761D01*
X286404580Y-85340476D01*
X286342676Y-85464285D01*
X286280771Y-85526190D01*
X286156961Y-85588095D01*
X285661723Y-85588095D01*
X285661723Y-84288095D01*
X286095057Y-84288095D01*
X286218866Y-84350000D01*
X286280771Y-84411904D01*
X286342676Y-84535714D01*
X286342676Y-84659523D01*
X286280771Y-84783333D01*
X286218866Y-84845238D01*
X286095057Y-84907142D01*
X285661723Y-84907142D01*
D10*
D11*
X286404580Y-135464285D02*
X286342676Y-135526190D01*
X286156961Y-135588095D01*
X286033152Y-135588095D01*
X285847438Y-135526190D01*
X285723628Y-135402380D01*
X285661723Y-135278571D01*
X285599819Y-135030952D01*
X285599819Y-134845238D01*
X285661723Y-134597619D01*
X285723628Y-134473809D01*
X285847438Y-134350000D01*
X286033152Y-134288095D01*
X286156961Y-134288095D01*
X286342676Y-134350000D01*
X286404580Y-134411904D01*
D10*
D11*
X285661723Y-185588095D02*
X285661723Y-184288095D01*
X285971247Y-184288095D01*
X286156961Y-184350000D01*
X286280771Y-184473809D01*
X286342676Y-184597619D01*
X286404580Y-184845238D01*
X286404580Y-185030952D01*
X286342676Y-185278571D01*
X286280771Y-185402380D01*
X286156961Y-185526190D01*
X285971247Y-185588095D01*
X285661723Y-185588095D01*
D10*
D11*
X200434342Y-193785771D02*
X200434342Y-192285771D01*
X200791485Y-192285771D01*
X201005771Y-192357200D01*
X201148628Y-192500057D01*
X201220057Y-192642914D01*
X201291485Y-192928628D01*
X201291485Y-193142914D01*
X201220057Y-193428628D01*
X201148628Y-193571485D01*
X201005771Y-193714342D01*
X200791485Y-193785771D01*
X200434342Y-193785771D01*
X202577200Y-193785771D02*
X202577200Y-193000057D01*
X202505771Y-192857200D01*
X202362914Y-192785771D01*
X202077200Y-192785771D01*
X201934342Y-192857200D01*
X202577200Y-193714342D02*
X202434342Y-193785771D01*
X202077200Y-193785771D01*
X201934342Y-193714342D01*
X201862914Y-193571485D01*
X201862914Y-193428628D01*
X201934342Y-193285771D01*
X202077200Y-193214342D01*
X202434342Y-193214342D01*
X202577200Y-193142914D01*
X203077200Y-192785771D02*
X203648628Y-192785771D01*
X203291485Y-192285771D02*
X203291485Y-193571485D01*
X203362914Y-193714342D01*
X203505771Y-193785771D01*
X203648628Y-193785771D01*
X204720057Y-193714342D02*
X204577200Y-193785771D01*
X204291485Y-193785771D01*
X204148628Y-193714342D01*
X204077200Y-193571485D01*
X204077200Y-193000057D01*
X204148628Y-192857200D01*
X204291485Y-192785771D01*
X204577200Y-192785771D01*
X204720057Y-192857200D01*
X204791485Y-193000057D01*
X204791485Y-193142914D01*
X204077200Y-193285771D01*
X205434342Y-193642914D02*
X205505771Y-193714342D01*
X205434342Y-193785771D01*
X205362914Y-193714342D01*
X205434342Y-193642914D01*
X205434342Y-193785771D01*
X205434342Y-192857200D02*
X205505771Y-192928628D01*
X205434342Y-193000057D01*
X205362914Y-192928628D01*
X205434342Y-192857200D01*
X205434342Y-193000057D01*
D10*
D11*
X177002200Y-194507200D02*
X285002200Y-194507200D01*
D10*
D11*
X178434342Y-196585771D02*
X178434342Y-195085771D01*
X179291485Y-196585771D02*
X178648628Y-195728628D01*
X179291485Y-195085771D02*
X178434342Y-195942914D01*
X179934342Y-196585771D02*
X179934342Y-195585771D01*
X179934342Y-195085771D02*
X179862914Y-195157200D01*
X179934342Y-195228628D01*
X180005771Y-195157200D01*
X179934342Y-195085771D01*
X179934342Y-195228628D01*
X181505771Y-196442914D02*
X181434342Y-196514342D01*
X181220057Y-196585771D01*
X181077200Y-196585771D01*
X180862914Y-196514342D01*
X180720057Y-196371485D01*
X180648628Y-196228628D01*
X180577200Y-195942914D01*
X180577200Y-195728628D01*
X180648628Y-195442914D01*
X180720057Y-195300057D01*
X180862914Y-195157200D01*
X181077200Y-195085771D01*
X181220057Y-195085771D01*
X181434342Y-195157200D01*
X181505771Y-195228628D01*
X182791485Y-196585771D02*
X182791485Y-195800057D01*
X182720057Y-195657200D01*
X182577200Y-195585771D01*
X182291485Y-195585771D01*
X182148628Y-195657200D01*
X182791485Y-196514342D02*
X182648628Y-196585771D01*
X182291485Y-196585771D01*
X182148628Y-196514342D01*
X182077200Y-196371485D01*
X182077200Y-196228628D01*
X182148628Y-196085771D01*
X182291485Y-196014342D01*
X182648628Y-196014342D01*
X182791485Y-195942914D01*
X184148628Y-196585771D02*
X184148628Y-195085771D01*
X184148628Y-196514342D02*
X184005771Y-196585771D01*
X183720057Y-196585771D01*
X183577200Y-196514342D01*
X183505771Y-196442914D01*
X183434342Y-196300057D01*
X183434342Y-195871485D01*
X183505771Y-195728628D01*
X183577200Y-195657200D01*
X183720057Y-195585771D01*
X184005771Y-195585771D01*
X184148628Y-195657200D01*
X186005771Y-195800057D02*
X186505771Y-195800057D01*
X186720057Y-196585771D02*
X186005771Y-196585771D01*
X186005771Y-195085771D01*
X186720057Y-195085771D01*
X187362914Y-196442914D02*
X187434342Y-196514342D01*
X187362914Y-196585771D01*
X187291485Y-196514342D01*
X187362914Y-196442914D01*
X187362914Y-196585771D01*
X188077200Y-196585771D02*
X188077200Y-195085771D01*
X188434342Y-195085771D01*
X188648628Y-195157200D01*
X188791485Y-195300057D01*
X188862914Y-195442914D01*
X188934342Y-195728628D01*
X188934342Y-195942914D01*
X188862914Y-196228628D01*
X188791485Y-196371485D01*
X188648628Y-196514342D01*
X188434342Y-196585771D01*
X188077200Y-196585771D01*
X189577200Y-196442914D02*
X189648628Y-196514342D01*
X189577200Y-196585771D01*
X189505771Y-196514342D01*
X189577200Y-196442914D01*
X189577200Y-196585771D01*
X190220057Y-196157200D02*
X190934342Y-196157200D01*
X190077200Y-196585771D02*
X190577200Y-195085771D01*
X191077200Y-196585771D01*
X191577200Y-196442914D02*
X191648628Y-196514342D01*
X191577200Y-196585771D01*
X191505771Y-196514342D01*
X191577200Y-196442914D01*
X191577200Y-196585771D01*
X194577200Y-196585771D02*
X194577200Y-195085771D01*
X194720057Y-196014342D02*
X195148628Y-196585771D01*
X195148628Y-195585771D02*
X194577200Y-196157200D01*
X195791485Y-196585771D02*
X195791485Y-195585771D01*
X195791485Y-195085771D02*
X195720057Y-195157200D01*
X195791485Y-195228628D01*
X195862914Y-195157200D01*
X195791485Y-195085771D01*
X195791485Y-195228628D01*
X197148628Y-196514342D02*
X197005771Y-196585771D01*
X196720057Y-196585771D01*
X196577200Y-196514342D01*
X196505771Y-196442914D01*
X196434342Y-196300057D01*
X196434342Y-195871485D01*
X196505771Y-195728628D01*
X196577200Y-195657200D01*
X196720057Y-195585771D01*
X197005771Y-195585771D01*
X197148628Y-195657200D01*
X198434342Y-196585771D02*
X198434342Y-195800057D01*
X198362914Y-195657200D01*
X198220057Y-195585771D01*
X197934342Y-195585771D01*
X197791485Y-195657200D01*
X198434342Y-196514342D02*
X198291485Y-196585771D01*
X197934342Y-196585771D01*
X197791485Y-196514342D01*
X197720057Y-196371485D01*
X197720057Y-196228628D01*
X197791485Y-196085771D01*
X197934342Y-196014342D01*
X198291485Y-196014342D01*
X198434342Y-195942914D01*
X199791485Y-196585771D02*
X199791485Y-195085771D01*
X199791485Y-196514342D02*
X199648628Y-196585771D01*
X199362914Y-196585771D01*
X199220057Y-196514342D01*
X199148628Y-196442914D01*
X199077200Y-196300057D01*
X199077200Y-195871485D01*
X199148628Y-195728628D01*
X199220057Y-195657200D01*
X199362914Y-195585771D01*
X199648628Y-195585771D01*
X199791485Y-195657200D01*
X202291485Y-195585771D02*
X202291485Y-196585771D01*
X201934342Y-195014342D02*
X201577200Y-196085771D01*
X202505771Y-196085771D01*
X203077200Y-196442914D02*
X203148628Y-196514342D01*
X203077200Y-196585771D01*
X203005771Y-196514342D01*
X203077200Y-196442914D01*
X203077200Y-196585771D01*
X204577200Y-196585771D02*
X203720057Y-196585771D01*
X204148628Y-196585771D02*
X204148628Y-195085771D01*
X204005771Y-195300057D01*
X203862914Y-195442914D01*
X203720057Y-195514342D01*
X205220057Y-196442914D02*
X205291485Y-196514342D01*
X205220057Y-196585771D01*
X205148628Y-196514342D01*
X205220057Y-196442914D01*
X205220057Y-196585771D01*
X206220057Y-195085771D02*
X206362914Y-195085771D01*
X206505771Y-195157200D01*
X206577200Y-195228628D01*
X206648628Y-195371485D01*
X206720057Y-195657200D01*
X206720057Y-196014342D01*
X206648628Y-196300057D01*
X206577200Y-196442914D01*
X206505771Y-196514342D01*
X206362914Y-196585771D01*
X206220057Y-196585771D01*
X206077200Y-196514342D01*
X206005771Y-196442914D01*
X205934342Y-196300057D01*
X205862914Y-196014342D01*
X205862914Y-195657200D01*
X205934342Y-195371485D01*
X206005771Y-195228628D01*
X206077200Y-195157200D01*
X206220057Y-195085771D01*
X207362914Y-196014342D02*
X208505771Y-196014342D01*
X209862914Y-196585771D02*
X209862914Y-195800057D01*
X209791485Y-195657200D01*
X209648628Y-195585771D01*
X209362914Y-195585771D01*
X209220057Y-195657200D01*
X209862914Y-196514342D02*
X209720057Y-196585771D01*
X209362914Y-196585771D01*
X209220057Y-196514342D01*
X209148628Y-196371485D01*
X209148628Y-196228628D01*
X209220057Y-196085771D01*
X209362914Y-196014342D01*
X209720057Y-196014342D01*
X209862914Y-195942914D01*
X210791485Y-196585771D02*
X210648628Y-196514342D01*
X210577200Y-196371485D01*
X210577200Y-195085771D01*
X211362914Y-195585771D02*
X211362914Y-197085771D01*
X211362914Y-195657200D02*
X211505771Y-195585771D01*
X211791485Y-195585771D01*
X211934342Y-195657200D01*
X212005771Y-195728628D01*
X212077200Y-195871485D01*
X212077200Y-196300057D01*
X212005771Y-196442914D01*
X211934342Y-196514342D01*
X211791485Y-196585771D01*
X211505771Y-196585771D01*
X211362914Y-196514342D01*
X212720057Y-196585771D02*
X212720057Y-195085771D01*
X213362914Y-196585771D02*
X213362914Y-195800057D01*
X213291485Y-195657200D01*
X213148628Y-195585771D01*
X212934342Y-195585771D01*
X212791485Y-195657200D01*
X212720057Y-195728628D01*
X214720057Y-196585771D02*
X214720057Y-195800057D01*
X214648628Y-195657200D01*
X214505771Y-195585771D01*
X214220057Y-195585771D01*
X214077200Y-195657200D01*
X214720057Y-196514342D02*
X214577200Y-196585771D01*
X214220057Y-196585771D01*
X214077200Y-196514342D01*
X214005771Y-196371485D01*
X214005771Y-196228628D01*
X214077200Y-196085771D01*
X214220057Y-196014342D01*
X214577200Y-196014342D01*
X214720057Y-195942914D01*
X215434342Y-196014342D02*
X216577200Y-196014342D01*
X216005771Y-196585771D02*
X216005771Y-195442914D01*
X217220057Y-195228628D02*
X217291485Y-195157200D01*
X217434342Y-195085771D01*
X217791485Y-195085771D01*
X217934342Y-195157200D01*
X218005771Y-195228628D01*
X218077200Y-195371485D01*
X218077200Y-195514342D01*
X218005771Y-195728628D01*
X217148628Y-196585771D01*
X218077200Y-196585771D01*
X219005771Y-195085771D02*
X219148628Y-195085771D01*
X219291485Y-195157200D01*
X219362914Y-195228628D01*
X219434342Y-195371485D01*
X219505771Y-195657200D01*
X219505771Y-196014342D01*
X219434342Y-196300057D01*
X219362914Y-196442914D01*
X219291485Y-196514342D01*
X219148628Y-196585771D01*
X219005771Y-196585771D01*
X218862914Y-196514342D01*
X218791485Y-196442914D01*
X218720057Y-196300057D01*
X218648628Y-196014342D01*
X218648628Y-195657200D01*
X218720057Y-195371485D01*
X218791485Y-195228628D01*
X218862914Y-195157200D01*
X219005771Y-195085771D01*
X220934342Y-196585771D02*
X220077200Y-196585771D01*
X220505771Y-196585771D02*
X220505771Y-195085771D01*
X220362914Y-195300057D01*
X220220057Y-195442914D01*
X220077200Y-195514342D01*
X222220057Y-195085771D02*
X221934342Y-195085771D01*
X221791485Y-195157200D01*
X221720057Y-195228628D01*
X221577200Y-195442914D01*
X221505771Y-195728628D01*
X221505771Y-196300057D01*
X221577200Y-196442914D01*
X221648628Y-196514342D01*
X221791485Y-196585771D01*
X222077200Y-196585771D01*
X222220057Y-196514342D01*
X222291485Y-196442914D01*
X222362914Y-196300057D01*
X222362914Y-195942914D01*
X222291485Y-195800057D01*
X222220057Y-195728628D01*
X222077200Y-195657200D01*
X221791485Y-195657200D01*
X221648628Y-195728628D01*
X221577200Y-195800057D01*
X221505771Y-195942914D01*
X223291485Y-195085771D02*
X223434342Y-195085771D01*
X223577200Y-195157200D01*
X223648628Y-195228628D01*
X223720057Y-195371485D01*
X223791485Y-195657200D01*
X223791485Y-196014342D01*
X223720057Y-196300057D01*
X223648628Y-196442914D01*
X223577200Y-196514342D01*
X223434342Y-196585771D01*
X223291485Y-196585771D01*
X223148628Y-196514342D01*
X223077200Y-196442914D01*
X223005771Y-196300057D01*
X222934342Y-196014342D01*
X222934342Y-195657200D01*
X223005771Y-195371485D01*
X223077200Y-195228628D01*
X223148628Y-195157200D01*
X223291485Y-195085771D01*
X225077200Y-195085771D02*
X224791485Y-195085771D01*
X224648628Y-195157200D01*
X224577200Y-195228628D01*
X224434342Y-195442914D01*
X224362914Y-195728628D01*
X224362914Y-196300057D01*
X224434342Y-196442914D01*
X224505771Y-196514342D01*
X224648628Y-196585771D01*
X224934342Y-196585771D01*
X225077200Y-196514342D01*
X225148628Y-196442914D01*
X225220057Y-196300057D01*
X225220057Y-195942914D01*
X225148628Y-195800057D01*
X225077200Y-195728628D01*
X224934342Y-195657200D01*
X224648628Y-195657200D01*
X224505771Y-195728628D01*
X224434342Y-195800057D01*
X224362914Y-195942914D01*
X226148628Y-195085771D02*
X226291485Y-195085771D01*
X226434342Y-195157200D01*
X226505771Y-195228628D01*
X226577200Y-195371485D01*
X226648628Y-195657200D01*
X226648628Y-196014342D01*
X226577200Y-196300057D01*
X226505771Y-196442914D01*
X226434342Y-196514342D01*
X226291485Y-196585771D01*
X226148628Y-196585771D01*
X226005771Y-196514342D01*
X225934342Y-196442914D01*
X225862914Y-196300057D01*
X225791485Y-196014342D01*
X225791485Y-195657200D01*
X225862914Y-195371485D01*
X225934342Y-195228628D01*
X226005771Y-195157200D01*
X226148628Y-195085771D01*
X227148628Y-195085771D02*
X228077200Y-195085771D01*
X227577200Y-195657200D01*
X227791485Y-195657200D01*
X227934342Y-195728628D01*
X228005771Y-195800057D01*
X228077200Y-195942914D01*
X228077200Y-196300057D01*
X228005771Y-196442914D01*
X227934342Y-196514342D01*
X227791485Y-196585771D01*
X227362914Y-196585771D01*
X227220057Y-196514342D01*
X227148628Y-196442914D01*
X229005771Y-195085771D02*
X229148628Y-195085771D01*
X229291485Y-195157200D01*
X229362914Y-195228628D01*
X229434342Y-195371485D01*
X229505771Y-195657200D01*
X229505771Y-196014342D01*
X229434342Y-196300057D01*
X229362914Y-196442914D01*
X229291485Y-196514342D01*
X229148628Y-196585771D01*
X229005771Y-196585771D01*
X228862914Y-196514342D01*
X228791485Y-196442914D01*
X228720057Y-196300057D01*
X228648628Y-196014342D01*
X228648628Y-195657200D01*
X228720057Y-195371485D01*
X228791485Y-195228628D01*
X228862914Y-195157200D01*
X229005771Y-195085771D01*
X230220057Y-196585771D02*
X230505771Y-196585771D01*
X230648628Y-196514342D01*
X230720057Y-196442914D01*
X230862914Y-196228628D01*
X230934342Y-195942914D01*
X230934342Y-195371485D01*
X230862914Y-195228628D01*
X230791485Y-195157200D01*
X230648628Y-195085771D01*
X230362914Y-195085771D01*
X230220057Y-195157200D01*
X230148628Y-195228628D01*
X230077199Y-195371485D01*
X230077199Y-195728628D01*
X230148628Y-195871485D01*
X230220057Y-195942914D01*
X230362914Y-196014342D01*
X230648628Y-196014342D01*
X230791485Y-195942914D01*
X230862914Y-195871485D01*
X230934342Y-195728628D01*
X232220057Y-195585771D02*
X232220057Y-196585771D01*
X231862914Y-195014342D02*
X231505771Y-196085771D01*
X232434342Y-196085771D01*
X233648628Y-195085771D02*
X233362914Y-195085771D01*
X233220057Y-195157200D01*
X233148628Y-195228628D01*
X233005771Y-195442914D01*
X232934342Y-195728628D01*
X232934342Y-196300057D01*
X233005771Y-196442914D01*
X233077199Y-196514342D01*
X233220057Y-196585771D01*
X233505771Y-196585771D01*
X233648628Y-196514342D01*
X233720057Y-196442914D01*
X233791485Y-196300057D01*
X233791485Y-195942914D01*
X233720057Y-195800057D01*
X233648628Y-195728628D01*
X233505771Y-195657200D01*
X233220057Y-195657200D01*
X233077199Y-195728628D01*
X233005771Y-195800057D01*
X232934342Y-195942914D01*
X234434342Y-196014342D02*
X235577199Y-196014342D01*
X235005771Y-196585771D02*
X235005771Y-195442914D01*
X236934342Y-195085771D02*
X236648628Y-195085771D01*
X236505771Y-195157200D01*
X236434342Y-195228628D01*
X236291485Y-195442914D01*
X236220057Y-195728628D01*
X236220057Y-196300057D01*
X236291485Y-196442914D01*
X236362914Y-196514342D01*
X236505771Y-196585771D01*
X236791485Y-196585771D01*
X236934342Y-196514342D01*
X237005771Y-196442914D01*
X237077199Y-196300057D01*
X237077199Y-195942914D01*
X237005771Y-195800057D01*
X236934342Y-195728628D01*
X236791485Y-195657200D01*
X236505771Y-195657200D01*
X236362914Y-195728628D01*
X236291485Y-195800057D01*
X236220057Y-195942914D01*
X237934342Y-195728628D02*
X237791485Y-195657200D01*
X237720057Y-195585771D01*
X237648628Y-195442914D01*
X237648628Y-195371485D01*
X237720057Y-195228628D01*
X237791485Y-195157200D01*
X237934342Y-195085771D01*
X238220057Y-195085771D01*
X238362914Y-195157200D01*
X238434342Y-195228628D01*
X238505771Y-195371485D01*
X238505771Y-195442914D01*
X238434342Y-195585771D01*
X238362914Y-195657200D01*
X238220057Y-195728628D01*
X237934342Y-195728628D01*
X237791485Y-195800057D01*
X237720057Y-195871485D01*
X237648628Y-196014342D01*
X237648628Y-196300057D01*
X237720057Y-196442914D01*
X237791485Y-196514342D01*
X237934342Y-196585771D01*
X238220057Y-196585771D01*
X238362914Y-196514342D01*
X238434342Y-196442914D01*
X238505771Y-196300057D01*
X238505771Y-196014342D01*
X238434342Y-195871485D01*
X238362914Y-195800057D01*
X238220057Y-195728628D01*
X239005771Y-195085771D02*
X240005771Y-195085771D01*
X239362914Y-196585771D01*
X241220057Y-195585771D02*
X241220057Y-196585771D01*
X240862914Y-195014342D02*
X240505771Y-196085771D01*
X241434342Y-196085771D01*
X241896128Y-194677200D02*
X243077199Y-194677200D01*
X242648628Y-195585771D02*
X242648628Y-196585771D01*
X242291485Y-195014342D02*
X241934342Y-196085771D01*
X242862914Y-196085771D01*
X243077199Y-194677200D02*
X244505771Y-194677200D01*
X244148628Y-195085771D02*
X243434342Y-195085771D01*
X243362914Y-195800057D01*
X243434342Y-195728628D01*
X243577199Y-195657200D01*
X243934342Y-195657200D01*
X244077199Y-195728628D01*
X244148628Y-195800057D01*
X244220057Y-195942914D01*
X244220057Y-196300057D01*
X244148628Y-196442914D01*
X244077199Y-196514342D01*
X243934342Y-196585771D01*
X243577199Y-196585771D01*
X243434342Y-196514342D01*
X243362914Y-196442914D01*
X245505771Y-195585771D02*
X245505771Y-196585771D01*
X244862914Y-195585771D02*
X244862914Y-196371485D01*
X244934342Y-196514342D01*
X245077199Y-196585771D01*
X245291485Y-196585771D01*
X245434342Y-196514342D01*
X245505771Y-196442914D01*
X246220057Y-196585771D02*
X246220057Y-195085771D01*
X246220057Y-195657200D02*
X246362914Y-195585771D01*
X246648628Y-195585771D01*
X246791485Y-195657200D01*
X246862914Y-195728628D01*
X246934342Y-195871485D01*
X246934342Y-196300057D01*
X246862914Y-196442914D01*
X246791485Y-196514342D01*
X246648628Y-196585771D01*
X246362914Y-196585771D01*
X246220057Y-196514342D01*
X248220057Y-195585771D02*
X248220057Y-196585771D01*
X247577199Y-195585771D02*
X247577199Y-196371485D01*
X247648628Y-196514342D01*
X247791485Y-196585771D01*
X248005771Y-196585771D01*
X248148628Y-196514342D01*
X248220057Y-196442914D01*
X248934342Y-195585771D02*
X248934342Y-196585771D01*
X248934342Y-195728628D02*
X249005771Y-195657200D01*
X249148628Y-195585771D01*
X249362914Y-195585771D01*
X249505771Y-195657200D01*
X249577199Y-195800057D01*
X249577199Y-196585771D01*
X250077199Y-195585771D02*
X250648628Y-195585771D01*
X250291485Y-195085771D02*
X250291485Y-196371485D01*
X250362914Y-196514342D01*
X250505771Y-196585771D01*
X250648628Y-196585771D01*
X251791485Y-195585771D02*
X251791485Y-196585771D01*
X251148628Y-195585771D02*
X251148628Y-196371485D01*
X251220057Y-196514342D01*
X251362914Y-196585771D01*
X251577199Y-196585771D01*
X251720057Y-196514342D01*
X251791485Y-196442914D01*
X253291485Y-196585771D02*
X252434342Y-196585771D01*
X252862914Y-196585771D02*
X252862914Y-195085771D01*
X252720057Y-195300057D01*
X252577199Y-195442914D01*
X252434342Y-195514342D01*
X254577199Y-195585771D02*
X254577199Y-196585771D01*
X254220057Y-195014342D02*
X253862914Y-196085771D01*
X254791485Y-196085771D01*
X255362914Y-196442914D02*
X255434342Y-196514342D01*
X255362914Y-196585771D01*
X255291485Y-196514342D01*
X255362914Y-196442914D01*
X255362914Y-196585771D01*
X256362914Y-195085771D02*
X256505771Y-195085771D01*
X256648628Y-195157200D01*
X256720057Y-195228628D01*
X256791485Y-195371485D01*
X256862914Y-195657200D01*
X256862914Y-196014342D01*
X256791485Y-196300057D01*
X256720057Y-196442914D01*
X256648628Y-196514342D01*
X256505771Y-196585771D01*
X256362914Y-196585771D01*
X256220057Y-196514342D01*
X256148628Y-196442914D01*
X256077199Y-196300057D01*
X256005771Y-196014342D01*
X256005771Y-195657200D01*
X256077199Y-195371485D01*
X256148628Y-195228628D01*
X256220057Y-195157200D01*
X256362914Y-195085771D01*
X258148628Y-195585771D02*
X258148628Y-196585771D01*
X257791485Y-195014342D02*
X257434342Y-196085771D01*
X258362914Y-196085771D01*
X258934342Y-196442914D02*
X259005771Y-196514342D01*
X258934342Y-196585771D01*
X258862914Y-196514342D01*
X258934342Y-196442914D01*
X258934342Y-196585771D01*
X260434342Y-196585771D02*
X259577199Y-196585771D01*
X260005771Y-196585771D02*
X260005771Y-195085771D01*
X259862914Y-195300057D01*
X259720057Y-195442914D01*
X259577199Y-195514342D01*
X261077199Y-196014342D02*
X262220057Y-196014342D01*
X262934342Y-195585771D02*
X262934342Y-197085771D01*
X262934342Y-195657200D02*
X263077199Y-195585771D01*
X263362914Y-195585771D01*
X263505771Y-195657200D01*
X263577199Y-195728628D01*
X263648628Y-195871485D01*
X263648628Y-196300057D01*
X263577199Y-196442914D01*
X263505771Y-196514342D01*
X263362914Y-196585771D01*
X263077199Y-196585771D01*
X262934342Y-196514342D01*
X264291485Y-196585771D02*
X264291485Y-195585771D01*
X264291485Y-195871485D02*
X264362914Y-195728628D01*
X264434342Y-195657200D01*
X264577199Y-195585771D01*
X264720057Y-195585771D01*
X265434342Y-196585771D02*
X265291485Y-196514342D01*
X265220057Y-196442914D01*
X265148628Y-196300057D01*
X265148628Y-195871485D01*
X265220057Y-195728628D01*
X265291485Y-195657200D01*
X265434342Y-195585771D01*
X265648628Y-195585771D01*
X265791485Y-195657200D01*
X265862914Y-195728628D01*
X265934342Y-195871485D01*
X265934342Y-196300057D01*
X265862914Y-196442914D01*
X265791485Y-196514342D01*
X265648628Y-196585771D01*
X265434342Y-196585771D01*
X267220057Y-196585771D02*
X267220057Y-195085771D01*
X267220057Y-196514342D02*
X267077199Y-196585771D01*
X266791485Y-196585771D01*
X266648628Y-196514342D01*
X266577199Y-196442914D01*
X266505771Y-196300057D01*
X266505771Y-195871485D01*
X266577199Y-195728628D01*
X266648628Y-195657200D01*
X266791485Y-195585771D01*
X267077199Y-195585771D01*
X267220057Y-195657200D01*
X268577199Y-195585771D02*
X268577199Y-196585771D01*
X267934342Y-195585771D02*
X267934342Y-196371485D01*
X268005771Y-196514342D01*
X268148628Y-196585771D01*
X268362914Y-196585771D01*
X268505771Y-196514342D01*
X268577199Y-196442914D01*
X269934342Y-196514342D02*
X269791485Y-196585771D01*
X269505771Y-196585771D01*
X269362914Y-196514342D01*
X269291485Y-196442914D01*
X269220057Y-196300057D01*
X269220057Y-195871485D01*
X269291485Y-195728628D01*
X269362914Y-195657200D01*
X269505771Y-195585771D01*
X269791485Y-195585771D01*
X269934342Y-195657200D01*
X270362914Y-195585771D02*
X270934342Y-195585771D01*
X270577199Y-195085771D02*
X270577199Y-196371485D01*
X270648628Y-196514342D01*
X270791485Y-196585771D01*
X270934342Y-196585771D01*
D10*
D11*
X177002200Y-191507200D02*
X285002200Y-191507200D01*
D10*
D12*
X264411485Y-193785771D02*
X263911485Y-193071485D01*
X263554342Y-193785771D02*
X263554342Y-192285771D01*
X264125771Y-192285771D01*
X264268628Y-192357200D01*
X264340057Y-192428628D01*
X264411485Y-192571485D01*
X264411485Y-192785771D01*
X264340057Y-192928628D01*
X264268628Y-193000057D01*
X264125771Y-193071485D01*
X263554342Y-193071485D01*
X265625771Y-193714342D02*
X265482914Y-193785771D01*
X265197200Y-193785771D01*
X265054342Y-193714342D01*
X264982914Y-193571485D01*
X264982914Y-193000057D01*
X265054342Y-192857200D01*
X265197200Y-192785771D01*
X265482914Y-192785771D01*
X265625771Y-192857200D01*
X265697200Y-193000057D01*
X265697200Y-193142914D01*
X264982914Y-193285771D01*
X266197200Y-192785771D02*
X266554342Y-193785771D01*
X266911485Y-192785771D01*
X267482914Y-193642914D02*
X267554342Y-193714342D01*
X267482914Y-193785771D01*
X267411485Y-193714342D01*
X267482914Y-193642914D01*
X267482914Y-193785771D01*
X267482914Y-192857200D02*
X267554342Y-192928628D01*
X267482914Y-193000057D01*
X267411485Y-192928628D01*
X267482914Y-192857200D01*
X267482914Y-193000057D01*
D10*
D11*
X178362914Y-193714342D02*
X178577200Y-193785771D01*
X178934342Y-193785771D01*
X179077200Y-193714342D01*
X179148628Y-193642914D01*
X179220057Y-193500057D01*
X179220057Y-193357200D01*
X179148628Y-193214342D01*
X179077200Y-193142914D01*
X178934342Y-193071485D01*
X178648628Y-193000057D01*
X178505771Y-192928628D01*
X178434342Y-192857200D01*
X178362914Y-192714342D01*
X178362914Y-192571485D01*
X178434342Y-192428628D01*
X178505771Y-192357200D01*
X178648628Y-192285771D01*
X179005771Y-192285771D01*
X179220057Y-192357200D01*
X179862914Y-193785771D02*
X179862914Y-192785771D01*
X179862914Y-192285771D02*
X179791485Y-192357200D01*
X179862914Y-192428628D01*
X179934342Y-192357200D01*
X179862914Y-192285771D01*
X179862914Y-192428628D01*
X180434342Y-192785771D02*
X181220057Y-192785771D01*
X180434342Y-193785771D01*
X181220057Y-193785771D01*
X182362914Y-193714342D02*
X182220057Y-193785771D01*
X181934342Y-193785771D01*
X181791485Y-193714342D01*
X181720057Y-193571485D01*
X181720057Y-193000057D01*
X181791485Y-192857200D01*
X181934342Y-192785771D01*
X182220057Y-192785771D01*
X182362914Y-192857200D01*
X182434342Y-193000057D01*
X182434342Y-193142914D01*
X181720057Y-193285771D01*
X183077200Y-193642914D02*
X183148628Y-193714342D01*
X183077200Y-193785771D01*
X183005771Y-193714342D01*
X183077200Y-193642914D01*
X183077200Y-193785771D01*
X183077200Y-192857200D02*
X183148628Y-192928628D01*
X183077200Y-193000057D01*
X183005771Y-192928628D01*
X183077200Y-192857200D01*
X183077200Y-193000057D01*
X184862914Y-193357200D02*
X185577200Y-193357200D01*
X184720057Y-193785771D02*
X185220057Y-192285771D01*
X185720057Y-193785771D01*
X186862914Y-192785771D02*
X186862914Y-193785771D01*
X186505771Y-192214342D02*
X186148628Y-193285771D01*
X187077200Y-193285771D01*
D10*
D11*
X263434342Y-196585771D02*
X263434342Y-195085771D01*
X264791485Y-196585771D02*
X264791485Y-195085771D01*
X264791485Y-196514342D02*
X264648628Y-196585771D01*
X264362914Y-196585771D01*
X264220057Y-196514342D01*
X264148628Y-196442914D01*
X264077200Y-196300057D01*
X264077200Y-195871485D01*
X264148628Y-195728628D01*
X264220057Y-195657200D01*
X264362914Y-195585771D01*
X264648628Y-195585771D01*
X264791485Y-195657200D01*
X265505771Y-196442914D02*
X265577200Y-196514342D01*
X265505771Y-196585771D01*
X265434342Y-196514342D01*
X265505771Y-196442914D01*
X265505771Y-196585771D01*
X265505771Y-195657200D02*
X265577200Y-195728628D01*
X265505771Y-195800057D01*
X265434342Y-195728628D01*
X265505771Y-195657200D01*
X265505771Y-195800057D01*
X268148628Y-196585771D02*
X267291485Y-196585771D01*
X267720057Y-196585771D02*
X267720057Y-195085771D01*
X267577200Y-195300057D01*
X267434342Y-195442914D01*
X267291485Y-195514342D01*
X269862914Y-195014342D02*
X268577200Y-196942914D01*
X271148628Y-196585771D02*
X270291485Y-196585771D01*
X270720057Y-196585771D02*
X270720057Y-195085771D01*
X270577200Y-195300057D01*
X270434342Y-195442914D01*
X270291485Y-195514342D01*
D10*
D11*
X177002200Y-187507200D02*
X285002200Y-187507200D01*
D10*
D13*
X178714580Y-188211961D02*
X179857438Y-188211961D01*
X179036009Y-190211961D02*
X179286009Y-188211961D01*
X180274104Y-190211961D02*
X180440771Y-188878628D01*
X180524104Y-188211961D02*
X180416961Y-188307200D01*
X180500295Y-188402438D01*
X180607438Y-188307200D01*
X180524104Y-188211961D01*
X180500295Y-188402438D01*
X181107438Y-188878628D02*
X181869342Y-188878628D01*
X181476485Y-188211961D02*
X181262200Y-189926247D01*
X181333628Y-190116723D01*
X181512200Y-190211961D01*
X181702676Y-190211961D01*
X182655057Y-190211961D02*
X182476485Y-190116723D01*
X182405057Y-189926247D01*
X182619342Y-188211961D01*
X184190771Y-190116723D02*
X183988390Y-190211961D01*
X183607438Y-190211961D01*
X183428866Y-190116723D01*
X183357438Y-189926247D01*
X183452676Y-189164342D01*
X183571723Y-188973866D01*
X183774104Y-188878628D01*
X184155057Y-188878628D01*
X184333628Y-188973866D01*
X184405057Y-189164342D01*
X184381247Y-189354819D01*
X183405057Y-189545295D01*
X185155057Y-190021485D02*
X185238390Y-190116723D01*
X185131247Y-190211961D01*
X185047914Y-190116723D01*
X185155057Y-190021485D01*
X185131247Y-190211961D01*
X185286009Y-188973866D02*
X185369342Y-189069104D01*
X185262200Y-189164342D01*
X185178866Y-189069104D01*
X185286009Y-188973866D01*
X185262200Y-189164342D01*
D10*
D11*
X178934342Y-185600057D02*
X178434342Y-185600057D01*
X178434342Y-186385771D02*
X178434342Y-184885771D01*
X179148628Y-184885771D01*
X179720057Y-186385771D02*
X179720057Y-185385771D01*
X179720057Y-184885771D02*
X179648628Y-184957200D01*
X179720057Y-185028628D01*
X179791485Y-184957200D01*
X179720057Y-184885771D01*
X179720057Y-185028628D01*
X180648628Y-186385771D02*
X180505771Y-186314342D01*
X180434342Y-186171485D01*
X180434342Y-184885771D01*
X181791485Y-186314342D02*
X181648628Y-186385771D01*
X181362914Y-186385771D01*
X181220057Y-186314342D01*
X181148628Y-186171485D01*
X181148628Y-185600057D01*
X181220057Y-185457200D01*
X181362914Y-185385771D01*
X181648628Y-185385771D01*
X181791485Y-185457200D01*
X181862914Y-185600057D01*
X181862914Y-185742914D01*
X181148628Y-185885771D01*
X182505771Y-186242914D02*
X182577200Y-186314342D01*
X182505771Y-186385771D01*
X182434342Y-186314342D01*
X182505771Y-186242914D01*
X182505771Y-186385771D01*
X182505771Y-185457200D02*
X182577200Y-185528628D01*
X182505771Y-185600057D01*
X182434342Y-185528628D01*
X182505771Y-185457200D01*
X182505771Y-185600057D01*
X185005771Y-186314342D02*
X184862914Y-186385771D01*
X184577200Y-186385771D01*
X184434342Y-186314342D01*
X184362914Y-186242914D01*
X184291485Y-186100057D01*
X184291485Y-185671485D01*
X184362914Y-185528628D01*
X184434342Y-185457200D01*
X184577200Y-185385771D01*
X184862914Y-185385771D01*
X185005771Y-185457200D01*
X186291485Y-186385771D02*
X186291485Y-185600057D01*
X186220057Y-185457200D01*
X186077200Y-185385771D01*
X185791485Y-185385771D01*
X185648628Y-185457200D01*
X186291485Y-186314342D02*
X186148628Y-186385771D01*
X185791485Y-186385771D01*
X185648628Y-186314342D01*
X185577200Y-186171485D01*
X185577200Y-186028628D01*
X185648628Y-185885771D01*
X185791485Y-185814342D01*
X186148628Y-185814342D01*
X186291485Y-185742914D01*
X187005771Y-186385771D02*
X187005771Y-185385771D01*
X187005771Y-185671485D02*
X187077200Y-185528628D01*
X187148628Y-185457200D01*
X187291485Y-185385771D01*
X187434342Y-185385771D01*
X187577200Y-186528628D02*
X188720057Y-186528628D01*
X189077200Y-186385771D02*
X189077200Y-184885771D01*
X189077200Y-185457200D02*
X189220057Y-185385771D01*
X189505771Y-185385771D01*
X189648628Y-185457200D01*
X189720057Y-185528628D01*
X189791485Y-185671485D01*
X189791485Y-186100057D01*
X189720057Y-186242914D01*
X189648628Y-186314342D01*
X189505771Y-186385771D01*
X189220057Y-186385771D01*
X189077200Y-186314342D01*
X191077200Y-186385771D02*
X191077200Y-185600057D01*
X191005771Y-185457200D01*
X190862914Y-185385771D01*
X190577200Y-185385771D01*
X190434342Y-185457200D01*
X191077200Y-186314342D02*
X190934342Y-186385771D01*
X190577200Y-186385771D01*
X190434342Y-186314342D01*
X190362914Y-186171485D01*
X190362914Y-186028628D01*
X190434342Y-185885771D01*
X190577200Y-185814342D01*
X190934342Y-185814342D01*
X191077200Y-185742914D01*
X191577200Y-185385771D02*
X192148628Y-185385771D01*
X191791485Y-184885771D02*
X191791485Y-186171485D01*
X191862914Y-186314342D01*
X192005771Y-186385771D01*
X192148628Y-186385771D01*
X192434342Y-185385771D02*
X193005771Y-185385771D01*
X192648628Y-184885771D02*
X192648628Y-186171485D01*
X192720057Y-186314342D01*
X192862914Y-186385771D01*
X193005771Y-186385771D01*
X194077200Y-186314342D02*
X193934342Y-186385771D01*
X193648628Y-186385771D01*
X193505771Y-186314342D01*
X193434342Y-186171485D01*
X193434342Y-185600057D01*
X193505771Y-185457200D01*
X193648628Y-185385771D01*
X193934342Y-185385771D01*
X194077200Y-185457200D01*
X194148628Y-185600057D01*
X194148628Y-185742914D01*
X193434342Y-185885771D01*
X194791485Y-186385771D02*
X194791485Y-185385771D01*
X194791485Y-185671485D02*
X194862914Y-185528628D01*
X194934342Y-185457200D01*
X195077200Y-185385771D01*
X195220057Y-185385771D01*
X195577200Y-185385771D02*
X195934342Y-186385771D01*
X196291485Y-185385771D02*
X195934342Y-186385771D01*
X195791485Y-186742914D01*
X195720057Y-186814342D01*
X195577200Y-186885771D01*
X196505771Y-186528628D02*
X197648628Y-186528628D01*
X198220057Y-186385771D02*
X198077200Y-186314342D01*
X198005771Y-186171485D01*
X198005771Y-184885771D01*
X199005771Y-186385771D02*
X198862914Y-186314342D01*
X198791485Y-186242914D01*
X198720057Y-186100057D01*
X198720057Y-185671485D01*
X198791485Y-185528628D01*
X198862914Y-185457200D01*
X199005771Y-185385771D01*
X199220057Y-185385771D01*
X199362914Y-185457200D01*
X199434342Y-185528628D01*
X199505771Y-185671485D01*
X199505771Y-186100057D01*
X199434342Y-186242914D01*
X199362914Y-186314342D01*
X199220057Y-186385771D01*
X199005771Y-186385771D01*
X200791485Y-185385771D02*
X200791485Y-186600057D01*
X200720057Y-186742914D01*
X200648628Y-186814342D01*
X200505771Y-186885771D01*
X200291485Y-186885771D01*
X200148628Y-186814342D01*
X200791485Y-186314342D02*
X200648628Y-186385771D01*
X200362914Y-186385771D01*
X200220057Y-186314342D01*
X200148628Y-186242914D01*
X200077200Y-186100057D01*
X200077200Y-185671485D01*
X200148628Y-185528628D01*
X200220057Y-185457200D01*
X200362914Y-185385771D01*
X200648628Y-185385771D01*
X200791485Y-185457200D01*
X202148628Y-185385771D02*
X202148628Y-186600057D01*
X202077200Y-186742914D01*
X202005771Y-186814342D01*
X201862914Y-186885771D01*
X201648628Y-186885771D01*
X201505771Y-186814342D01*
X202148628Y-186314342D02*
X202005771Y-186385771D01*
X201720057Y-186385771D01*
X201577200Y-186314342D01*
X201505771Y-186242914D01*
X201434342Y-186100057D01*
X201434342Y-185671485D01*
X201505771Y-185528628D01*
X201577200Y-185457200D01*
X201720057Y-185385771D01*
X202005771Y-185385771D01*
X202148628Y-185457200D01*
X203434342Y-186314342D02*
X203291485Y-186385771D01*
X203005771Y-186385771D01*
X202862914Y-186314342D01*
X202791485Y-186171485D01*
X202791485Y-185600057D01*
X202862914Y-185457200D01*
X203005771Y-185385771D01*
X203291485Y-185385771D01*
X203434342Y-185457200D01*
X203505771Y-185600057D01*
X203505771Y-185742914D01*
X202791485Y-185885771D01*
X204148628Y-186385771D02*
X204148628Y-185385771D01*
X204148628Y-185671485D02*
X204220057Y-185528628D01*
X204291485Y-185457200D01*
X204434342Y-185385771D01*
X204577200Y-185385771D01*
X205077200Y-186242914D02*
X205148628Y-186314342D01*
X205077200Y-186385771D01*
X205005771Y-186314342D01*
X205077200Y-186242914D01*
X205077200Y-186385771D01*
X205791485Y-186385771D02*
X205791485Y-184885771D01*
X205934342Y-185814342D02*
X206362914Y-186385771D01*
X206362914Y-185385771D02*
X205791485Y-185957200D01*
X207005771Y-186385771D02*
X207005771Y-185385771D01*
X207005771Y-184885771D02*
X206934342Y-184957200D01*
X207005771Y-185028628D01*
X207077200Y-184957200D01*
X207005771Y-184885771D01*
X207005771Y-185028628D01*
X208362914Y-186314342D02*
X208220057Y-186385771D01*
X207934342Y-186385771D01*
X207791485Y-186314342D01*
X207720057Y-186242914D01*
X207648628Y-186100057D01*
X207648628Y-185671485D01*
X207720057Y-185528628D01*
X207791485Y-185457200D01*
X207934342Y-185385771D01*
X208220057Y-185385771D01*
X208362914Y-185457200D01*
X209648628Y-186385771D02*
X209648628Y-185600057D01*
X209577200Y-185457200D01*
X209434342Y-185385771D01*
X209148628Y-185385771D01*
X209005771Y-185457200D01*
X209648628Y-186314342D02*
X209505771Y-186385771D01*
X209148628Y-186385771D01*
X209005771Y-186314342D01*
X208934342Y-186171485D01*
X208934342Y-186028628D01*
X209005771Y-185885771D01*
X209148628Y-185814342D01*
X209505771Y-185814342D01*
X209648628Y-185742914D01*
X211005771Y-186385771D02*
X211005771Y-184885771D01*
X211005771Y-186314342D02*
X210862914Y-186385771D01*
X210577200Y-186385771D01*
X210434342Y-186314342D01*
X210362914Y-186242914D01*
X210291485Y-186100057D01*
X210291485Y-185671485D01*
X210362914Y-185528628D01*
X210434342Y-185457200D01*
X210577200Y-185385771D01*
X210862914Y-185385771D01*
X211005771Y-185457200D01*
X211362914Y-186528628D02*
X212505771Y-186528628D01*
X212862914Y-185385771D02*
X212862914Y-186885771D01*
X212862914Y-185457200D02*
X213005771Y-185385771D01*
X213291485Y-185385771D01*
X213434342Y-185457200D01*
X213505771Y-185528628D01*
X213577200Y-185671485D01*
X213577200Y-186100057D01*
X213505771Y-186242914D01*
X213434342Y-186314342D01*
X213291485Y-186385771D01*
X213005771Y-186385771D01*
X212862914Y-186314342D01*
X214862914Y-186314342D02*
X214720057Y-186385771D01*
X214434342Y-186385771D01*
X214291485Y-186314342D01*
X214220057Y-186242914D01*
X214148628Y-186100057D01*
X214148628Y-185671485D01*
X214220057Y-185528628D01*
X214291485Y-185457200D01*
X214434342Y-185385771D01*
X214720057Y-185385771D01*
X214862914Y-185457200D01*
X215505771Y-186385771D02*
X215505771Y-184885771D01*
X215505771Y-185457200D02*
X215648628Y-185385771D01*
X215934342Y-185385771D01*
X216077200Y-185457200D01*
X216148628Y-185528628D01*
X216220057Y-185671485D01*
X216220057Y-186100057D01*
X216148628Y-186242914D01*
X216077200Y-186314342D01*
X215934342Y-186385771D01*
X215648628Y-186385771D01*
X215505771Y-186314342D01*
D10*
D11*
X177002200Y-181507200D02*
X285002200Y-181507200D01*
D10*
D11*
X178362914Y-183614342D02*
X178577200Y-183685771D01*
X178934342Y-183685771D01*
X179077200Y-183614342D01*
X179148628Y-183542914D01*
X179220057Y-183400057D01*
X179220057Y-183257200D01*
X179148628Y-183114342D01*
X179077200Y-183042914D01*
X178934342Y-182971485D01*
X178648628Y-182900057D01*
X178505771Y-182828628D01*
X178434342Y-182757200D01*
X178362914Y-182614342D01*
X178362914Y-182471485D01*
X178434342Y-182328628D01*
X178505771Y-182257200D01*
X178648628Y-182185771D01*
X179005771Y-182185771D01*
X179220057Y-182257200D01*
X179862914Y-183685771D02*
X179862914Y-182185771D01*
X180505771Y-183685771D02*
X180505771Y-182900057D01*
X180434342Y-182757200D01*
X180291485Y-182685771D01*
X180077200Y-182685771D01*
X179934342Y-182757200D01*
X179862914Y-182828628D01*
X181791485Y-183614342D02*
X181648628Y-183685771D01*
X181362914Y-183685771D01*
X181220057Y-183614342D01*
X181148628Y-183471485D01*
X181148628Y-182900057D01*
X181220057Y-182757200D01*
X181362914Y-182685771D01*
X181648628Y-182685771D01*
X181791485Y-182757200D01*
X181862914Y-182900057D01*
X181862914Y-183042914D01*
X181148628Y-183185771D01*
X183077200Y-183614342D02*
X182934342Y-183685771D01*
X182648628Y-183685771D01*
X182505771Y-183614342D01*
X182434342Y-183471485D01*
X182434342Y-182900057D01*
X182505771Y-182757200D01*
X182648628Y-182685771D01*
X182934342Y-182685771D01*
X183077200Y-182757200D01*
X183148628Y-182900057D01*
X183148628Y-183042914D01*
X182434342Y-183185771D01*
X183577200Y-182685771D02*
X184148628Y-182685771D01*
X183791485Y-182185771D02*
X183791485Y-183471485D01*
X183862914Y-183614342D01*
X184005771Y-183685771D01*
X184148628Y-183685771D01*
X184648628Y-183542914D02*
X184720057Y-183614342D01*
X184648628Y-183685771D01*
X184577200Y-183614342D01*
X184648628Y-183542914D01*
X184648628Y-183685771D01*
X184648628Y-182757200D02*
X184720057Y-182828628D01*
X184648628Y-182900057D01*
X184577200Y-182828628D01*
X184648628Y-182757200D01*
X184648628Y-182900057D01*
D10*
D11*
X197002200Y-191507200D02*
X197002200Y-194507200D01*
D10*
D11*
X261002200Y-191507200D02*
X261002200Y-198007200D01*
D10*
X131826000Y-113792000D02*
X131826000Y-63881000D01*
X181737000Y-113792000D02*
X131826000Y-113792000D01*
X181737000Y-63881000D02*
X181737000Y-113792000D01*
X131826000Y-63881000D02*
X181737000Y-63881000D01*
X180165166Y-110744000D02*
G75*
G03X180165166Y-110744000I-1666666J0D01*
G01*
X175998500Y-110744000D02*
X180998500Y-110744000D01*
X178498500Y-108244000D02*
X178498500Y-113244000D01*
D12*
X153861142Y-103654714D02*
X153789714Y-103726142D01*
X153575428Y-103797571D01*
X153432571Y-103797571D01*
X153218285Y-103726142D01*
X153075428Y-103583285D01*
X153004000Y-103440428D01*
X152932571Y-103154714D01*
X152932571Y-102940428D01*
X153004000Y-102654714D01*
X153075428Y-102511857D01*
X153218285Y-102369000D01*
X153432571Y-102297571D01*
X153575428Y-102297571D01*
X153789714Y-102369000D01*
X153861142Y-102440428D01*
X155146857Y-103797571D02*
X155146857Y-103011857D01*
X155075428Y-102869000D01*
X154932571Y-102797571D01*
X154646857Y-102797571D01*
X154504000Y-102869000D01*
X155146857Y-103726142D02*
X155004000Y-103797571D01*
X154646857Y-103797571D01*
X154504000Y-103726142D01*
X154432571Y-103583285D01*
X154432571Y-103440428D01*
X154504000Y-103297571D01*
X154646857Y-103226142D01*
X155004000Y-103226142D01*
X155146857Y-103154714D01*
X155861142Y-103797571D02*
X155861142Y-102797571D01*
X155861142Y-103083285D02*
X155932571Y-102940428D01*
X156004000Y-102869000D01*
X156146857Y-102797571D01*
X156289714Y-102797571D01*
X157932571Y-103797571D02*
X157932571Y-102297571D01*
X157932571Y-102869000D02*
X158075428Y-102797571D01*
X158361142Y-102797571D01*
X158504000Y-102869000D01*
X158575428Y-102940428D01*
X158646857Y-103083285D01*
X158646857Y-103511857D01*
X158575428Y-103654714D01*
X158504000Y-103726142D01*
X158361142Y-103797571D01*
X158075428Y-103797571D01*
X157932571Y-103726142D01*
X159932571Y-103797571D02*
X159932571Y-103011857D01*
X159861142Y-102869000D01*
X159718285Y-102797571D01*
X159432571Y-102797571D01*
X159289714Y-102869000D01*
X159932571Y-103726142D02*
X159789714Y-103797571D01*
X159432571Y-103797571D01*
X159289714Y-103726142D01*
X159218285Y-103583285D01*
X159218285Y-103440428D01*
X159289714Y-103297571D01*
X159432571Y-103226142D01*
X159789714Y-103226142D01*
X159932571Y-103154714D01*
X160432571Y-102797571D02*
X161004000Y-102797571D01*
X160646857Y-102297571D02*
X160646857Y-103583285D01*
X160718285Y-103726142D01*
X160861142Y-103797571D01*
X161004000Y-103797571D01*
X161289714Y-102797571D02*
X161861142Y-102797571D01*
X161504000Y-102297571D02*
X161504000Y-103583285D01*
X161575428Y-103726142D01*
X161718285Y-103797571D01*
X161861142Y-103797571D01*
X162932571Y-103726142D02*
X162789714Y-103797571D01*
X162504000Y-103797571D01*
X162361142Y-103726142D01*
X162289714Y-103583285D01*
X162289714Y-103011857D01*
X162361142Y-102869000D01*
X162504000Y-102797571D01*
X162789714Y-102797571D01*
X162932571Y-102869000D01*
X163004000Y-103011857D01*
X163004000Y-103154714D01*
X162289714Y-103297571D01*
X163646857Y-103797571D02*
X163646857Y-102797571D01*
X163646857Y-103083285D02*
X163718285Y-102940428D01*
X163789714Y-102869000D01*
X163932571Y-102797571D01*
X164075428Y-102797571D01*
X164432571Y-102797571D02*
X164789714Y-103797571D01*
X165146857Y-102797571D02*
X164789714Y-103797571D01*
X164646857Y-104154714D01*
X164575428Y-104226142D01*
X164432571Y-104297571D01*
X153039714Y-106347571D02*
X152896857Y-106276142D01*
X152825428Y-106133285D01*
X152825428Y-104847571D01*
X153825428Y-106347571D02*
X153682571Y-106276142D01*
X153611142Y-106204714D01*
X153539714Y-106061857D01*
X153539714Y-105633285D01*
X153611142Y-105490428D01*
X153682571Y-105419000D01*
X153825428Y-105347571D01*
X154039714Y-105347571D01*
X154182571Y-105419000D01*
X154254000Y-105490428D01*
X154325428Y-105633285D01*
X154325428Y-106061857D01*
X154254000Y-106204714D01*
X154182571Y-106276142D01*
X154039714Y-106347571D01*
X153825428Y-106347571D01*
X155611142Y-105347571D02*
X155611142Y-106561857D01*
X155539714Y-106704714D01*
X155468285Y-106776142D01*
X155325428Y-106847571D01*
X155111142Y-106847571D01*
X154968285Y-106776142D01*
X155611142Y-106276142D02*
X155468285Y-106347571D01*
X155182571Y-106347571D01*
X155039714Y-106276142D01*
X154968285Y-106204714D01*
X154896857Y-106061857D01*
X154896857Y-105633285D01*
X154968285Y-105490428D01*
X155039714Y-105419000D01*
X155182571Y-105347571D01*
X155468285Y-105347571D01*
X155611142Y-105419000D01*
X156968285Y-105347571D02*
X156968285Y-106561857D01*
X156896857Y-106704714D01*
X156825428Y-106776142D01*
X156682571Y-106847571D01*
X156468285Y-106847571D01*
X156325428Y-106776142D01*
X156968285Y-106276142D02*
X156825428Y-106347571D01*
X156539714Y-106347571D01*
X156396857Y-106276142D01*
X156325428Y-106204714D01*
X156254000Y-106061857D01*
X156254000Y-105633285D01*
X156325428Y-105490428D01*
X156396857Y-105419000D01*
X156539714Y-105347571D01*
X156825428Y-105347571D01*
X156968285Y-105419000D01*
X158254000Y-106276142D02*
X158111142Y-106347571D01*
X157825428Y-106347571D01*
X157682571Y-106276142D01*
X157611142Y-106133285D01*
X157611142Y-105561857D01*
X157682571Y-105419000D01*
X157825428Y-105347571D01*
X158111142Y-105347571D01*
X158254000Y-105419000D01*
X158325428Y-105561857D01*
X158325428Y-105704714D01*
X157611142Y-105847571D01*
X158968285Y-106347571D02*
X158968285Y-105347571D01*
X158968285Y-105633285D02*
X159039714Y-105490428D01*
X159111142Y-105419000D01*
X159254000Y-105347571D01*
X159396857Y-105347571D01*
X160825428Y-104847571D02*
X161325428Y-106347571D01*
X161825428Y-104847571D01*
X162611142Y-104847571D02*
X162754000Y-104847571D01*
X162896857Y-104919000D01*
X162968285Y-104990428D01*
X163039714Y-105133285D01*
X163111142Y-105419000D01*
X163111142Y-105776142D01*
X163039714Y-106061857D01*
X162968285Y-106204714D01*
X162896857Y-106276142D01*
X162754000Y-106347571D01*
X162611142Y-106347571D01*
X162468285Y-106276142D01*
X162396857Y-106204714D01*
X162325428Y-106061857D01*
X162254000Y-105776142D01*
X162254000Y-105419000D01*
X162325428Y-105133285D01*
X162396857Y-104990428D01*
X162468285Y-104919000D01*
X162611142Y-104847571D01*
X163754000Y-106204714D02*
X163825428Y-106276142D01*
X163754000Y-106347571D01*
X163682571Y-106276142D01*
X163754000Y-106204714D01*
X163754000Y-106347571D01*
X164396857Y-104990428D02*
X164468285Y-104919000D01*
X164611142Y-104847571D01*
X164968285Y-104847571D01*
X165111142Y-104919000D01*
X165182571Y-104990428D01*
X165254000Y-105133285D01*
X165254000Y-105276142D01*
X165182571Y-105490428D01*
X164325428Y-106347571D01*
X165254000Y-106347571D01*
D14*
X146050000Y-72306500D03*
X146050000Y-69806500D03*
X146050000Y-67607500D03*
X146050000Y-65107500D03*
D15*
X150094000Y-87630000D03*
X147594000Y-87630000D03*
D14*
X167386000Y-93579000D03*
X167386000Y-91079000D03*
D15*
X180066000Y-72644000D03*
X177566000Y-72644000D03*
D16*
X150431500Y-84232500D03*
X150431500Y-80232500D03*
D10*
G36*
X137444239Y-91440000D02*
X136525000Y-92359239D01*
X135605761Y-91440000D01*
X136525000Y-90520761D01*
X137444239Y-91440000D01*
X137444239Y-91440000D01*
G37*
D17*
X135110786Y-90025786D03*
D15*
X145435000Y-91821000D03*
X147935000Y-91821000D03*
X145435000Y-98171000D03*
X147935000Y-98171000D03*
X143657000Y-78740000D03*
X146157000Y-78740000D03*
D18*
X175768000Y-102806500D03*
X175768000Y-105346500D03*
X175768000Y-100266500D03*
X173228000Y-100266500D03*
X173228000Y-102806500D03*
X173228000Y-105346500D03*
D19*
X139446000Y-108839000D03*
D20*
X141986000Y-108839000D03*
D19*
X146431000Y-108839000D03*
D20*
X148971000Y-108839000D03*
D21*
X168666000Y-75565000D03*
X168666000Y-76835000D03*
X168666000Y-78105000D03*
X168666000Y-79375000D03*
X176266000Y-79375000D03*
X176266000Y-78105000D03*
X176266000Y-76835000D03*
X176266000Y-75565000D03*
D22*
X153719000Y-88767000D03*
X153719000Y-89567000D03*
X153719000Y-90367000D03*
X153719000Y-91167000D03*
X153719000Y-91967000D03*
X153719000Y-92767000D03*
X153719000Y-93567000D03*
X153719000Y-94367000D03*
D23*
X155569000Y-96217000D03*
X156369000Y-96217000D03*
X157169000Y-96217000D03*
X157969000Y-96217000D03*
X158769000Y-96217000D03*
X159569000Y-96217000D03*
X160369000Y-96217000D03*
X161169000Y-96217000D03*
D22*
X163019000Y-94367000D03*
X163019000Y-93567000D03*
X163019000Y-92767000D03*
X163019000Y-91967000D03*
X163019000Y-91167000D03*
X163019000Y-90367000D03*
X163019000Y-89567000D03*
X163019000Y-88767000D03*
D23*
X161169000Y-86917000D03*
X160369000Y-86917000D03*
X159569000Y-86917000D03*
X158769000Y-86917000D03*
X157969000Y-86917000D03*
X157169000Y-86917000D03*
X156369000Y-86917000D03*
X155569000Y-86917000D03*
D24*
X146054000Y-84709000D03*
X146054000Y-83439000D03*
X146054000Y-82169000D03*
X146054000Y-80899000D03*
X140204000Y-80899000D03*
X140204000Y-82169000D03*
X140204000Y-83439000D03*
X140204000Y-84709000D03*
D18*
X136144000Y-67183000D03*
X136144000Y-69723000D03*
X136144000Y-72263000D03*
X136144000Y-74803000D03*
D25*
X143082000Y-73533000D03*
X140382000Y-73533000D03*
X143082000Y-68580000D03*
X140382000Y-68580000D03*
D26*
X139192000Y-103839000D03*
X139192000Y-101139000D03*
X143256000Y-103839000D03*
X143256000Y-101139000D03*
X135001000Y-95805000D03*
X135001000Y-98505000D03*
X139192000Y-95805000D03*
X139192000Y-98505000D03*
X179832000Y-84662000D03*
X179832000Y-81962000D03*
X173609000Y-84662000D03*
X173609000Y-81962000D03*
D25*
X162480000Y-75565000D03*
X165180000Y-75565000D03*
D26*
X150241000Y-76915000D03*
X150241000Y-74215000D03*
D25*
X158543000Y-70739000D03*
X161243000Y-70739000D03*
X165180000Y-77978000D03*
X162480000Y-77978000D03*
X158543000Y-66802000D03*
X161243000Y-66802000D03*
D26*
X154051000Y-111967000D03*
X154051000Y-109267000D03*
D25*
X154733000Y-77597000D03*
X157433000Y-77597000D03*
X164766000Y-66802000D03*
X167466000Y-66802000D03*
X154733000Y-73660000D03*
X157433000Y-73660000D03*
X140255000Y-89852500D03*
X142955000Y-89852500D03*
X164766000Y-70739000D03*
X167466000Y-70739000D03*
D26*
X153987500Y-80438000D03*
X153987500Y-83138000D03*
D27*
X150114000Y-95110300D03*
X150114000Y-93611700D03*
D28*
X135509000Y-85176360D03*
X135509000Y-80177640D03*
D25*
X176196000Y-88011000D03*
X178896000Y-88011000D03*
X162480000Y-83820000D03*
X165180000Y-83820000D03*
X170227000Y-91948000D03*
X172927000Y-91948000D03*
X176196000Y-91948000D03*
X178896000Y-91948000D03*
X170227000Y-95885000D03*
X172927000Y-95885000D03*
X176196000Y-95885000D03*
X178896000Y-95885000D03*
D18*
X134988300Y-103289100D03*
X134988300Y-105829100D03*
X134988300Y-108889800D03*
X134988300Y-111429800D03*
X172847000Y-67564000D03*
X175387000Y-67564000D03*
X177927000Y-67564000D03*
D29*
X155223000Y-67675000D03*
X155223000Y-67175000D03*
X155223000Y-66675000D03*
X155223000Y-66175000D03*
X155223000Y-65675000D03*
X149323000Y-65675000D03*
X149323000Y-66175000D03*
X149323000Y-66675000D03*
X149323000Y-67175000D03*
X149323000Y-67675000D03*
M02*
