%FSLAX45Y45*%
G04 Gerber Fmt 4.5, Leading zero omitted, Abs format (unit mm)*
G04 Created by KiCad (PCBNEW 4.1.0-alpha+201606030946+6874~45~ubuntu14.04.1-product) date Sun Jul  3 18:53:12 2016*
%MOMM*%
%LPD*%
G01*
G04 APERTURE LIST*
%ADD10C,0.127000*%
%ADD11C,0.100000*%
%ADD12C,0.200000*%
%ADD13C,0.300000*%
G04 APERTURE END LIST*
D10*
D11*
X13182600Y-11379200D02*
X13182600Y-6388100D01*
X18173700Y-11379200D02*
X13182600Y-11379200D01*
X18173700Y-6388100D02*
X18173700Y-11379200D01*
X13182600Y-6388100D02*
X18173700Y-6388100D01*
D12*
X14586350Y-10281050D02*
X14636350Y-10331050D01*
X14636350Y-10281050D02*
X14586350Y-10331050D01*
X14694300Y-10281050D02*
X14744300Y-10331050D01*
X14744300Y-10281050D02*
X14694300Y-10331050D01*
X14700650Y-6617100D02*
X14750650Y-6667100D01*
X14750650Y-6617100D02*
X14700650Y-6667100D01*
X14700650Y-7455300D02*
X14750650Y-7505300D01*
X14750650Y-7455300D02*
X14700650Y-7505300D01*
X14770500Y-6439300D02*
X14820500Y-6489300D01*
X14820500Y-6439300D02*
X14770500Y-6489300D01*
X14770500Y-7633100D02*
X14820500Y-7683100D01*
X14820500Y-7633100D02*
X14770500Y-7683100D01*
X14808600Y-10281050D02*
X14858600Y-10331050D01*
X14858600Y-10281050D02*
X14808600Y-10331050D01*
X14941950Y-6953650D02*
X14991950Y-7003650D01*
X14991950Y-6953650D02*
X14941950Y-7003650D01*
X15056250Y-11125600D02*
X15106250Y-11175600D01*
X15106250Y-11125600D02*
X15056250Y-11175600D01*
X15081650Y-6960000D02*
X15131650Y-7010000D01*
X15131650Y-6960000D02*
X15081650Y-7010000D01*
X15297550Y-8439550D02*
X15347550Y-8489550D01*
X15347550Y-8439550D02*
X15297550Y-8489550D01*
X15354700Y-7182250D02*
X15404700Y-7232250D01*
X15404700Y-7182250D02*
X15354700Y-7232250D01*
X15367400Y-6966350D02*
X15417400Y-7016350D01*
X15417400Y-6966350D02*
X15367400Y-7016350D01*
X15380100Y-8553850D02*
X15430100Y-8603850D01*
X15430100Y-8553850D02*
X15380100Y-8603850D01*
X15456300Y-6890150D02*
X15506300Y-6940150D01*
X15506300Y-6890150D02*
X15456300Y-6940150D01*
X15519800Y-8439550D02*
X15569800Y-8489550D01*
X15569800Y-8439550D02*
X15519800Y-8489550D01*
X15526150Y-8268100D02*
X15576150Y-8318100D01*
X15576150Y-8268100D02*
X15526150Y-8318100D01*
X15557900Y-9328550D02*
X15607900Y-9378550D01*
X15607900Y-9328550D02*
X15557900Y-9378550D01*
X15564250Y-10890650D02*
X15614250Y-10940650D01*
X15614250Y-10890650D02*
X15564250Y-10940650D01*
X15589650Y-8858650D02*
X15639650Y-8908650D01*
X15639650Y-8858650D02*
X15589650Y-8908650D01*
X15596000Y-6877450D02*
X15646000Y-6927450D01*
X15646000Y-6877450D02*
X15596000Y-6927450D01*
X15596000Y-8166500D02*
X15646000Y-8216500D01*
X15646000Y-8166500D02*
X15596000Y-8216500D01*
X15646800Y-9398400D02*
X15696800Y-9448400D01*
X15696800Y-9398400D02*
X15646800Y-9448400D01*
X15684900Y-9125350D02*
X15734900Y-9175350D01*
X15734900Y-9125350D02*
X15684900Y-9175350D01*
X15691250Y-9881000D02*
X15741250Y-9931000D01*
X15741250Y-9881000D02*
X15691250Y-9931000D01*
X15710300Y-8947550D02*
X15760300Y-8997550D01*
X15760300Y-8947550D02*
X15710300Y-8997550D01*
X15710300Y-9995300D02*
X15760300Y-10045300D01*
X15760300Y-9995300D02*
X15710300Y-10045300D01*
X15716650Y-7537850D02*
X15766650Y-7587850D01*
X15766650Y-7537850D02*
X15716650Y-7587850D01*
X15716650Y-7925200D02*
X15766650Y-7975200D01*
X15766650Y-7925200D02*
X15716650Y-7975200D01*
X15748400Y-8147450D02*
X15798400Y-8197450D01*
X15798400Y-8147450D02*
X15748400Y-8197450D01*
X15773800Y-8268100D02*
X15823800Y-8318100D01*
X15823800Y-8268100D02*
X15773800Y-8318100D01*
X15792850Y-9036450D02*
X15842850Y-9086450D01*
X15842850Y-9036450D02*
X15792850Y-9086450D01*
X15830950Y-6813950D02*
X15880950Y-6863950D01*
X15880950Y-6813950D02*
X15830950Y-6863950D01*
X15850000Y-9988950D02*
X15900000Y-10038950D01*
X15900000Y-9988950D02*
X15850000Y-10038950D01*
X15875400Y-7734700D02*
X15925400Y-7784700D01*
X15925400Y-7734700D02*
X15875400Y-7784700D01*
X15977000Y-7722000D02*
X16027000Y-7772000D01*
X16027000Y-7722000D02*
X15977000Y-7772000D01*
X16091300Y-8191900D02*
X16141300Y-8241900D01*
X16141300Y-8191900D02*
X16091300Y-8241900D01*
X16123050Y-9855600D02*
X16173050Y-9905600D01*
X16173050Y-9855600D02*
X16123050Y-9905600D01*
X16243700Y-8649100D02*
X16293700Y-8699100D01*
X16293700Y-8649100D02*
X16243700Y-8699100D01*
X16281800Y-6807600D02*
X16331800Y-6857600D01*
X16331800Y-6807600D02*
X16281800Y-6857600D01*
X16345300Y-7239400D02*
X16395300Y-7289400D01*
X16395300Y-7239400D02*
X16345300Y-7289400D01*
X16453250Y-8553850D02*
X16503250Y-8603850D01*
X16503250Y-8553850D02*
X16453250Y-8603850D01*
X16478650Y-9030100D02*
X16528650Y-9080100D01*
X16528650Y-9030100D02*
X16478650Y-9080100D01*
X16561200Y-9099950D02*
X16611200Y-9149950D01*
X16611200Y-9099950D02*
X16561200Y-9149950D01*
X16719950Y-10700150D02*
X16769950Y-10750150D01*
X16769950Y-10700150D02*
X16719950Y-10750150D01*
X16726300Y-9830200D02*
X16776300Y-9880200D01*
X16776300Y-9830200D02*
X16726300Y-9880200D01*
X16846950Y-10001650D02*
X16896950Y-10051650D01*
X16896950Y-10001650D02*
X16846950Y-10051650D01*
X16846950Y-10865250D02*
X16896950Y-10915250D01*
X16896950Y-10865250D02*
X16846950Y-10915250D01*
X16866000Y-8617350D02*
X16916000Y-8667350D01*
X16916000Y-8617350D02*
X16866000Y-8667350D01*
X16866000Y-10389000D02*
X16916000Y-10439000D01*
X16916000Y-10389000D02*
X16866000Y-10439000D01*
X16904100Y-8318900D02*
X16954100Y-8368900D01*
X16954100Y-8318900D02*
X16904100Y-8368900D01*
X16910450Y-8122050D02*
X16960450Y-8172050D01*
X16960450Y-8122050D02*
X16910450Y-8172050D01*
X16980300Y-8865000D02*
X17030300Y-8915000D01*
X17030300Y-8865000D02*
X16980300Y-8915000D01*
X16980300Y-9398400D02*
X17030300Y-9448400D01*
X17030300Y-9398400D02*
X16980300Y-9448400D01*
X17081900Y-8744350D02*
X17131900Y-8794350D01*
X17131900Y-8744350D02*
X17081900Y-8794350D01*
X17113650Y-8122050D02*
X17163650Y-8172050D01*
X17163650Y-8122050D02*
X17113650Y-8172050D01*
X17113650Y-9011050D02*
X17163650Y-9061050D01*
X17163650Y-9011050D02*
X17113650Y-9061050D01*
X17132700Y-8871350D02*
X17182700Y-8921350D01*
X17182700Y-8871350D02*
X17132700Y-8921350D01*
X17278750Y-8757050D02*
X17328750Y-8807050D01*
X17328750Y-8757050D02*
X17278750Y-8807050D01*
X17532750Y-8445900D02*
X17582750Y-8495900D01*
X17582750Y-8445900D02*
X17532750Y-8495900D01*
X17551800Y-9747650D02*
X17601800Y-9797650D01*
X17601800Y-9747650D02*
X17551800Y-9797650D01*
X17862950Y-9011050D02*
X17912950Y-9061050D01*
X17912950Y-9011050D02*
X17862950Y-9061050D01*
X17862950Y-9392050D02*
X17912950Y-9442050D01*
X17912950Y-9392050D02*
X17862950Y-9442050D01*
X15041372Y-9361170D02*
G75*
G03X15041372Y-9361170I-29972J0D01*
G01*
X15041372Y-9511030D02*
G75*
G03X15041372Y-9511030I-29972J0D01*
G01*
X13498830Y-10290810D02*
X13498830Y-10367010D01*
X13460730Y-10328910D02*
X13536930Y-10328910D01*
X13498830Y-10544810D02*
X13498830Y-10621010D01*
X13460730Y-10582910D02*
X13536930Y-10582910D01*
X13498830Y-10850880D02*
X13498830Y-10927080D01*
X13460730Y-10888980D02*
X13536930Y-10888980D01*
X13498830Y-11104880D02*
X13498830Y-11181080D01*
X13460730Y-11142980D02*
X13536930Y-11142980D01*
X13614400Y-6680200D02*
X13614400Y-6756400D01*
X13576300Y-6718300D02*
X13652500Y-6718300D01*
X13614400Y-6934200D02*
X13614400Y-7010400D01*
X13576300Y-6972300D02*
X13652500Y-6972300D01*
X13614400Y-7188200D02*
X13614400Y-7264400D01*
X13576300Y-7226300D02*
X13652500Y-7226300D01*
X13614400Y-7442200D02*
X13614400Y-7518400D01*
X13576300Y-7480300D02*
X13652500Y-7480300D01*
X17284700Y-6718300D02*
X17284700Y-6794500D01*
X17246600Y-6756400D02*
X17322800Y-6756400D01*
X17322800Y-9988550D02*
X17322800Y-10064750D01*
X17284700Y-10026650D02*
X17360900Y-10026650D01*
X17322800Y-10242550D02*
X17322800Y-10318750D01*
X17284700Y-10280650D02*
X17360900Y-10280650D01*
X17322800Y-10496550D02*
X17322800Y-10572750D01*
X17284700Y-10534650D02*
X17360900Y-10534650D01*
X17538700Y-6718300D02*
X17538700Y-6794500D01*
X17500600Y-6756400D02*
X17576800Y-6756400D01*
X17576800Y-9988550D02*
X17576800Y-10064750D01*
X17538700Y-10026650D02*
X17614900Y-10026650D01*
X17576800Y-10242550D02*
X17576800Y-10318750D01*
X17538700Y-10280650D02*
X17614900Y-10280650D01*
X17576800Y-10496550D02*
X17576800Y-10572750D01*
X17538700Y-10534650D02*
X17614900Y-10534650D01*
X17792700Y-6718300D02*
X17792700Y-6794500D01*
X17754600Y-6756400D02*
X17830800Y-6756400D01*
X13539363Y-9030863D02*
X13539363Y-8974294D01*
X13482794Y-8974294D01*
X13482794Y-9030863D01*
X13539363Y-9030863D01*
X13680784Y-9172285D02*
X13680784Y-9115716D01*
X13624215Y-9115716D01*
X13624215Y-9172285D01*
X13680784Y-9172285D01*
X13944600Y-10933938D02*
X13994638Y-10883900D01*
X13944600Y-10833862D01*
X13894562Y-10883900D01*
X13944600Y-10933938D01*
X14198600Y-10933938D02*
X14248638Y-10883900D01*
X14198600Y-10833862D01*
X14148562Y-10883900D01*
X14198600Y-10933938D01*
X14643100Y-10933938D02*
X14693138Y-10883900D01*
X14643100Y-10833862D01*
X14593062Y-10883900D01*
X14643100Y-10933938D01*
X14897100Y-10933938D02*
X14947138Y-10883900D01*
X14897100Y-10833862D01*
X14847062Y-10883900D01*
X14897100Y-10933938D01*
D13*
X13464028Y-11849914D02*
X13464028Y-11549914D01*
X13535457Y-11549914D01*
X13578314Y-11564200D01*
X13606886Y-11592771D01*
X13621171Y-11621343D01*
X13635457Y-11678486D01*
X13635457Y-11721343D01*
X13621171Y-11778486D01*
X13606886Y-11807057D01*
X13578314Y-11835629D01*
X13535457Y-11849914D01*
X13464028Y-11849914D01*
X13764028Y-11849914D02*
X13764028Y-11649914D01*
X13764028Y-11707057D02*
X13778314Y-11678486D01*
X13792600Y-11664200D01*
X13821171Y-11649914D01*
X13849743Y-11649914D01*
X13949743Y-11849914D02*
X13949743Y-11649914D01*
X13949743Y-11549914D02*
X13935457Y-11564200D01*
X13949743Y-11578486D01*
X13964028Y-11564200D01*
X13949743Y-11549914D01*
X13949743Y-11578486D01*
X14135457Y-11849914D02*
X14106886Y-11835629D01*
X14092600Y-11807057D01*
X14092600Y-11549914D01*
X14292600Y-11849914D02*
X14264028Y-11835629D01*
X14249743Y-11807057D01*
X14249743Y-11549914D01*
X14635457Y-11849914D02*
X14635457Y-11549914D01*
X14735457Y-11764200D01*
X14835457Y-11549914D01*
X14835457Y-11849914D01*
X15106886Y-11849914D02*
X15106886Y-11692771D01*
X15092600Y-11664200D01*
X15064028Y-11649914D01*
X15006886Y-11649914D01*
X14978314Y-11664200D01*
X15106886Y-11835629D02*
X15078314Y-11849914D01*
X15006886Y-11849914D01*
X14978314Y-11835629D01*
X14964028Y-11807057D01*
X14964028Y-11778486D01*
X14978314Y-11749914D01*
X15006886Y-11735629D01*
X15078314Y-11735629D01*
X15106886Y-11721343D01*
X15249743Y-11649914D02*
X15249743Y-11949914D01*
X15249743Y-11664200D02*
X15278314Y-11649914D01*
X15335457Y-11649914D01*
X15364028Y-11664200D01*
X15378314Y-11678486D01*
X15392600Y-11707057D01*
X15392600Y-11792771D01*
X15378314Y-11821343D01*
X15364028Y-11835629D01*
X15335457Y-11849914D01*
X15278314Y-11849914D01*
X15249743Y-11835629D01*
X15521171Y-11821343D02*
X15535457Y-11835629D01*
X15521171Y-11849914D01*
X15506886Y-11835629D01*
X15521171Y-11821343D01*
X15521171Y-11849914D01*
X15521171Y-11664200D02*
X15535457Y-11678486D01*
X15521171Y-11692771D01*
X15506886Y-11678486D01*
X15521171Y-11664200D01*
X15521171Y-11692771D01*
X13127600Y-12319200D02*
X13177600Y-12369200D01*
X13177600Y-12319200D02*
X13127600Y-12369200D01*
X13521171Y-12179914D02*
X13549743Y-12179914D01*
X13578314Y-12194200D01*
X13592600Y-12208486D01*
X13606886Y-12237057D01*
X13621171Y-12294200D01*
X13621171Y-12365629D01*
X13606886Y-12422771D01*
X13592600Y-12451343D01*
X13578314Y-12465629D01*
X13549743Y-12479914D01*
X13521171Y-12479914D01*
X13492600Y-12465629D01*
X13478314Y-12451343D01*
X13464028Y-12422771D01*
X13449743Y-12365629D01*
X13449743Y-12294200D01*
X13464028Y-12237057D01*
X13478314Y-12208486D01*
X13492600Y-12194200D01*
X13521171Y-12179914D01*
X13749743Y-12451343D02*
X13764028Y-12465629D01*
X13749743Y-12479914D01*
X13735457Y-12465629D01*
X13749743Y-12451343D01*
X13749743Y-12479914D01*
X14035457Y-12179914D02*
X13892600Y-12179914D01*
X13878314Y-12322771D01*
X13892600Y-12308486D01*
X13921171Y-12294200D01*
X13992600Y-12294200D01*
X14021171Y-12308486D01*
X14035457Y-12322771D01*
X14049743Y-12351343D01*
X14049743Y-12422771D01*
X14035457Y-12451343D01*
X14021171Y-12465629D01*
X13992600Y-12479914D01*
X13921171Y-12479914D01*
X13892600Y-12465629D01*
X13878314Y-12451343D01*
X14235457Y-12179914D02*
X14264028Y-12179914D01*
X14292600Y-12194200D01*
X14306886Y-12208486D01*
X14321171Y-12237057D01*
X14335457Y-12294200D01*
X14335457Y-12365629D01*
X14321171Y-12422771D01*
X14306886Y-12451343D01*
X14292600Y-12465629D01*
X14264028Y-12479914D01*
X14235457Y-12479914D01*
X14206886Y-12465629D01*
X14192600Y-12451343D01*
X14178314Y-12422771D01*
X14164028Y-12365629D01*
X14164028Y-12294200D01*
X14178314Y-12237057D01*
X14192600Y-12208486D01*
X14206886Y-12194200D01*
X14235457Y-12179914D01*
X14464028Y-12479914D02*
X14464028Y-12279914D01*
X14464028Y-12308486D02*
X14478314Y-12294200D01*
X14506886Y-12279914D01*
X14549743Y-12279914D01*
X14578314Y-12294200D01*
X14592600Y-12322771D01*
X14592600Y-12479914D01*
X14592600Y-12322771D02*
X14606886Y-12294200D01*
X14635457Y-12279914D01*
X14678314Y-12279914D01*
X14706886Y-12294200D01*
X14721171Y-12322771D01*
X14721171Y-12479914D01*
X14864028Y-12479914D02*
X14864028Y-12279914D01*
X14864028Y-12308486D02*
X14878314Y-12294200D01*
X14906886Y-12279914D01*
X14949743Y-12279914D01*
X14978314Y-12294200D01*
X14992600Y-12322771D01*
X14992600Y-12479914D01*
X14992600Y-12322771D02*
X15006886Y-12294200D01*
X15035457Y-12279914D01*
X15078314Y-12279914D01*
X15106886Y-12294200D01*
X15121171Y-12322771D01*
X15121171Y-12479914D01*
X15706886Y-12165629D02*
X15449743Y-12551343D01*
X16092600Y-12179914D02*
X16121171Y-12179914D01*
X16149743Y-12194200D01*
X16164028Y-12208486D01*
X16178314Y-12237057D01*
X16192600Y-12294200D01*
X16192600Y-12365629D01*
X16178314Y-12422771D01*
X16164028Y-12451343D01*
X16149743Y-12465629D01*
X16121171Y-12479914D01*
X16092600Y-12479914D01*
X16064028Y-12465629D01*
X16049743Y-12451343D01*
X16035457Y-12422771D01*
X16021171Y-12365629D01*
X16021171Y-12294200D01*
X16035457Y-12237057D01*
X16049743Y-12208486D01*
X16064028Y-12194200D01*
X16092600Y-12179914D01*
X16321171Y-12451343D02*
X16335457Y-12465629D01*
X16321171Y-12479914D01*
X16306886Y-12465629D01*
X16321171Y-12451343D01*
X16321171Y-12479914D01*
X16521171Y-12179914D02*
X16549743Y-12179914D01*
X16578314Y-12194200D01*
X16592600Y-12208486D01*
X16606886Y-12237057D01*
X16621171Y-12294200D01*
X16621171Y-12365629D01*
X16606886Y-12422771D01*
X16592600Y-12451343D01*
X16578314Y-12465629D01*
X16549743Y-12479914D01*
X16521171Y-12479914D01*
X16492600Y-12465629D01*
X16478314Y-12451343D01*
X16464028Y-12422771D01*
X16449743Y-12365629D01*
X16449743Y-12294200D01*
X16464028Y-12237057D01*
X16478314Y-12208486D01*
X16492600Y-12194200D01*
X16521171Y-12179914D01*
X16735457Y-12208486D02*
X16749743Y-12194200D01*
X16778314Y-12179914D01*
X16849743Y-12179914D01*
X16878314Y-12194200D01*
X16892600Y-12208486D01*
X16906886Y-12237057D01*
X16906886Y-12265629D01*
X16892600Y-12308486D01*
X16721171Y-12479914D01*
X16906886Y-12479914D01*
X17092600Y-12179914D02*
X17121171Y-12179914D01*
X17149743Y-12194200D01*
X17164028Y-12208486D01*
X17178314Y-12237057D01*
X17192600Y-12294200D01*
X17192600Y-12365629D01*
X17178314Y-12422771D01*
X17164028Y-12451343D01*
X17149743Y-12465629D01*
X17121171Y-12479914D01*
X17092600Y-12479914D01*
X17064028Y-12465629D01*
X17049743Y-12451343D01*
X17035457Y-12422771D01*
X17021171Y-12365629D01*
X17021171Y-12294200D01*
X17035457Y-12237057D01*
X17049743Y-12208486D01*
X17064028Y-12194200D01*
X17092600Y-12179914D01*
X17306886Y-12179914D02*
X17306886Y-12237057D01*
X17421171Y-12179914D02*
X17421171Y-12237057D01*
X17864028Y-12594200D02*
X17849743Y-12579914D01*
X17821171Y-12537057D01*
X17806886Y-12508486D01*
X17792600Y-12465629D01*
X17778314Y-12394200D01*
X17778314Y-12337057D01*
X17792600Y-12265629D01*
X17806886Y-12222771D01*
X17821171Y-12194200D01*
X17849743Y-12151343D01*
X17864028Y-12137057D01*
X18106886Y-12179914D02*
X18049743Y-12179914D01*
X18021171Y-12194200D01*
X18006886Y-12208486D01*
X17978314Y-12251343D01*
X17964028Y-12308486D01*
X17964028Y-12422771D01*
X17978314Y-12451343D01*
X17992600Y-12465629D01*
X18021171Y-12479914D01*
X18078314Y-12479914D01*
X18106886Y-12465629D01*
X18121171Y-12451343D01*
X18135457Y-12422771D01*
X18135457Y-12351343D01*
X18121171Y-12322771D01*
X18106886Y-12308486D01*
X18078314Y-12294200D01*
X18021171Y-12294200D01*
X17992600Y-12308486D01*
X17978314Y-12322771D01*
X17964028Y-12351343D01*
X18235457Y-12179914D02*
X18421171Y-12179914D01*
X18321171Y-12294200D01*
X18364028Y-12294200D01*
X18392600Y-12308486D01*
X18406886Y-12322771D01*
X18421171Y-12351343D01*
X18421171Y-12422771D01*
X18406886Y-12451343D01*
X18392600Y-12465629D01*
X18364028Y-12479914D01*
X18278314Y-12479914D01*
X18249743Y-12465629D01*
X18235457Y-12451343D01*
X18778314Y-12479914D02*
X18778314Y-12179914D01*
X18906886Y-12479914D02*
X18906886Y-12322771D01*
X18892600Y-12294200D01*
X18864028Y-12279914D01*
X18821171Y-12279914D01*
X18792600Y-12294200D01*
X18778314Y-12308486D01*
X19092600Y-12479914D02*
X19064028Y-12465629D01*
X19049743Y-12451343D01*
X19035457Y-12422771D01*
X19035457Y-12337057D01*
X19049743Y-12308486D01*
X19064028Y-12294200D01*
X19092600Y-12279914D01*
X19135457Y-12279914D01*
X19164028Y-12294200D01*
X19178314Y-12308486D01*
X19192600Y-12337057D01*
X19192600Y-12422771D01*
X19178314Y-12451343D01*
X19164028Y-12465629D01*
X19135457Y-12479914D01*
X19092600Y-12479914D01*
X19364028Y-12479914D02*
X19335457Y-12465629D01*
X19321171Y-12437057D01*
X19321171Y-12179914D01*
X19592600Y-12465629D02*
X19564028Y-12479914D01*
X19506886Y-12479914D01*
X19478314Y-12465629D01*
X19464028Y-12437057D01*
X19464028Y-12322771D01*
X19478314Y-12294200D01*
X19506886Y-12279914D01*
X19564028Y-12279914D01*
X19592600Y-12294200D01*
X19606886Y-12322771D01*
X19606886Y-12351343D01*
X19464028Y-12379914D01*
X19721171Y-12465629D02*
X19749743Y-12479914D01*
X19806886Y-12479914D01*
X19835457Y-12465629D01*
X19849743Y-12437057D01*
X19849743Y-12422771D01*
X19835457Y-12394200D01*
X19806886Y-12379914D01*
X19764028Y-12379914D01*
X19735457Y-12365629D01*
X19721171Y-12337057D01*
X19721171Y-12322771D01*
X19735457Y-12294200D01*
X19764028Y-12279914D01*
X19806886Y-12279914D01*
X19835457Y-12294200D01*
X19949743Y-12594200D02*
X19964028Y-12579914D01*
X19992600Y-12537057D01*
X20006886Y-12508486D01*
X20021171Y-12465629D01*
X20035457Y-12394200D01*
X20035457Y-12337057D01*
X20021171Y-12265629D01*
X20006886Y-12222771D01*
X19992600Y-12194200D01*
X19964028Y-12151343D01*
X19949743Y-12137057D01*
X13177600Y-12740200D02*
G75*
G03X13177600Y-12740200I-29972J0D01*
G01*
X13521171Y-12575914D02*
X13549743Y-12575914D01*
X13578314Y-12590200D01*
X13592600Y-12604486D01*
X13606886Y-12633057D01*
X13621171Y-12690200D01*
X13621171Y-12761629D01*
X13606886Y-12818771D01*
X13592600Y-12847343D01*
X13578314Y-12861629D01*
X13549743Y-12875914D01*
X13521171Y-12875914D01*
X13492600Y-12861629D01*
X13478314Y-12847343D01*
X13464028Y-12818771D01*
X13449743Y-12761629D01*
X13449743Y-12690200D01*
X13464028Y-12633057D01*
X13478314Y-12604486D01*
X13492600Y-12590200D01*
X13521171Y-12575914D01*
X13749743Y-12847343D02*
X13764028Y-12861629D01*
X13749743Y-12875914D01*
X13735457Y-12861629D01*
X13749743Y-12847343D01*
X13749743Y-12875914D01*
X14021171Y-12575914D02*
X13964028Y-12575914D01*
X13935457Y-12590200D01*
X13921171Y-12604486D01*
X13892600Y-12647343D01*
X13878314Y-12704486D01*
X13878314Y-12818771D01*
X13892600Y-12847343D01*
X13906886Y-12861629D01*
X13935457Y-12875914D01*
X13992600Y-12875914D01*
X14021171Y-12861629D01*
X14035457Y-12847343D01*
X14049743Y-12818771D01*
X14049743Y-12747343D01*
X14035457Y-12718771D01*
X14021171Y-12704486D01*
X13992600Y-12690200D01*
X13935457Y-12690200D01*
X13906886Y-12704486D01*
X13892600Y-12718771D01*
X13878314Y-12747343D01*
X14235457Y-12575914D02*
X14264028Y-12575914D01*
X14292600Y-12590200D01*
X14306886Y-12604486D01*
X14321171Y-12633057D01*
X14335457Y-12690200D01*
X14335457Y-12761629D01*
X14321171Y-12818771D01*
X14306886Y-12847343D01*
X14292600Y-12861629D01*
X14264028Y-12875914D01*
X14235457Y-12875914D01*
X14206886Y-12861629D01*
X14192600Y-12847343D01*
X14178314Y-12818771D01*
X14164028Y-12761629D01*
X14164028Y-12690200D01*
X14178314Y-12633057D01*
X14192600Y-12604486D01*
X14206886Y-12590200D01*
X14235457Y-12575914D01*
X14464028Y-12875914D02*
X14464028Y-12675914D01*
X14464028Y-12704486D02*
X14478314Y-12690200D01*
X14506886Y-12675914D01*
X14549743Y-12675914D01*
X14578314Y-12690200D01*
X14592600Y-12718771D01*
X14592600Y-12875914D01*
X14592600Y-12718771D02*
X14606886Y-12690200D01*
X14635457Y-12675914D01*
X14678314Y-12675914D01*
X14706886Y-12690200D01*
X14721171Y-12718771D01*
X14721171Y-12875914D01*
X14864028Y-12875914D02*
X14864028Y-12675914D01*
X14864028Y-12704486D02*
X14878314Y-12690200D01*
X14906886Y-12675914D01*
X14949743Y-12675914D01*
X14978314Y-12690200D01*
X14992600Y-12718771D01*
X14992600Y-12875914D01*
X14992600Y-12718771D02*
X15006886Y-12690200D01*
X15035457Y-12675914D01*
X15078314Y-12675914D01*
X15106886Y-12690200D01*
X15121171Y-12718771D01*
X15121171Y-12875914D01*
X15706886Y-12561629D02*
X15449743Y-12947343D01*
X16092600Y-12575914D02*
X16121171Y-12575914D01*
X16149743Y-12590200D01*
X16164028Y-12604486D01*
X16178314Y-12633057D01*
X16192600Y-12690200D01*
X16192600Y-12761629D01*
X16178314Y-12818771D01*
X16164028Y-12847343D01*
X16149743Y-12861629D01*
X16121171Y-12875914D01*
X16092600Y-12875914D01*
X16064028Y-12861629D01*
X16049743Y-12847343D01*
X16035457Y-12818771D01*
X16021171Y-12761629D01*
X16021171Y-12690200D01*
X16035457Y-12633057D01*
X16049743Y-12604486D01*
X16064028Y-12590200D01*
X16092600Y-12575914D01*
X16321171Y-12847343D02*
X16335457Y-12861629D01*
X16321171Y-12875914D01*
X16306886Y-12861629D01*
X16321171Y-12847343D01*
X16321171Y-12875914D01*
X16521171Y-12575914D02*
X16549743Y-12575914D01*
X16578314Y-12590200D01*
X16592600Y-12604486D01*
X16606886Y-12633057D01*
X16621171Y-12690200D01*
X16621171Y-12761629D01*
X16606886Y-12818771D01*
X16592600Y-12847343D01*
X16578314Y-12861629D01*
X16549743Y-12875914D01*
X16521171Y-12875914D01*
X16492600Y-12861629D01*
X16478314Y-12847343D01*
X16464028Y-12818771D01*
X16449743Y-12761629D01*
X16449743Y-12690200D01*
X16464028Y-12633057D01*
X16478314Y-12604486D01*
X16492600Y-12590200D01*
X16521171Y-12575914D01*
X16735457Y-12604486D02*
X16749743Y-12590200D01*
X16778314Y-12575914D01*
X16849743Y-12575914D01*
X16878314Y-12590200D01*
X16892600Y-12604486D01*
X16906886Y-12633057D01*
X16906886Y-12661629D01*
X16892600Y-12704486D01*
X16721171Y-12875914D01*
X16906886Y-12875914D01*
X17164028Y-12675914D02*
X17164028Y-12875914D01*
X17092600Y-12561629D02*
X17021171Y-12775914D01*
X17206886Y-12775914D01*
X17306886Y-12575914D02*
X17306886Y-12633057D01*
X17421171Y-12575914D02*
X17421171Y-12633057D01*
X17864028Y-12990200D02*
X17849743Y-12975914D01*
X17821171Y-12933057D01*
X17806886Y-12904486D01*
X17792600Y-12861629D01*
X17778314Y-12790200D01*
X17778314Y-12733057D01*
X17792600Y-12661629D01*
X17806886Y-12618771D01*
X17821171Y-12590200D01*
X17849743Y-12547343D01*
X17864028Y-12533057D01*
X17964028Y-12604486D02*
X17978314Y-12590200D01*
X18006886Y-12575914D01*
X18078314Y-12575914D01*
X18106886Y-12590200D01*
X18121171Y-12604486D01*
X18135457Y-12633057D01*
X18135457Y-12661629D01*
X18121171Y-12704486D01*
X17949743Y-12875914D01*
X18135457Y-12875914D01*
X18492600Y-12875914D02*
X18492600Y-12575914D01*
X18621171Y-12875914D02*
X18621171Y-12718771D01*
X18606886Y-12690200D01*
X18578314Y-12675914D01*
X18535457Y-12675914D01*
X18506886Y-12690200D01*
X18492600Y-12704486D01*
X18806886Y-12875914D02*
X18778314Y-12861629D01*
X18764028Y-12847343D01*
X18749743Y-12818771D01*
X18749743Y-12733057D01*
X18764028Y-12704486D01*
X18778314Y-12690200D01*
X18806886Y-12675914D01*
X18849743Y-12675914D01*
X18878314Y-12690200D01*
X18892600Y-12704486D01*
X18906886Y-12733057D01*
X18906886Y-12818771D01*
X18892600Y-12847343D01*
X18878314Y-12861629D01*
X18849743Y-12875914D01*
X18806886Y-12875914D01*
X19078314Y-12875914D02*
X19049743Y-12861629D01*
X19035457Y-12833057D01*
X19035457Y-12575914D01*
X19306886Y-12861629D02*
X19278314Y-12875914D01*
X19221171Y-12875914D01*
X19192600Y-12861629D01*
X19178314Y-12833057D01*
X19178314Y-12718771D01*
X19192600Y-12690200D01*
X19221171Y-12675914D01*
X19278314Y-12675914D01*
X19306886Y-12690200D01*
X19321171Y-12718771D01*
X19321171Y-12747343D01*
X19178314Y-12775914D01*
X19435457Y-12861629D02*
X19464028Y-12875914D01*
X19521171Y-12875914D01*
X19549743Y-12861629D01*
X19564028Y-12833057D01*
X19564028Y-12818771D01*
X19549743Y-12790200D01*
X19521171Y-12775914D01*
X19478314Y-12775914D01*
X19449743Y-12761629D01*
X19435457Y-12733057D01*
X19435457Y-12718771D01*
X19449743Y-12690200D01*
X19478314Y-12675914D01*
X19521171Y-12675914D01*
X19549743Y-12690200D01*
X19664028Y-12990200D02*
X19678314Y-12975914D01*
X19706886Y-12933057D01*
X19721171Y-12904486D01*
X19735457Y-12861629D01*
X19749743Y-12790200D01*
X19749743Y-12733057D01*
X19735457Y-12661629D01*
X19721171Y-12618771D01*
X19706886Y-12590200D01*
X19678314Y-12547343D01*
X19664028Y-12533057D01*
X13139500Y-13098100D02*
X13139500Y-13174300D01*
X13101400Y-13136200D02*
X13177600Y-13136200D01*
X13521171Y-12971914D02*
X13549743Y-12971914D01*
X13578314Y-12986200D01*
X13592600Y-13000486D01*
X13606886Y-13029057D01*
X13621171Y-13086200D01*
X13621171Y-13157629D01*
X13606886Y-13214771D01*
X13592600Y-13243343D01*
X13578314Y-13257629D01*
X13549743Y-13271914D01*
X13521171Y-13271914D01*
X13492600Y-13257629D01*
X13478314Y-13243343D01*
X13464028Y-13214771D01*
X13449743Y-13157629D01*
X13449743Y-13086200D01*
X13464028Y-13029057D01*
X13478314Y-13000486D01*
X13492600Y-12986200D01*
X13521171Y-12971914D01*
X13749743Y-13243343D02*
X13764028Y-13257629D01*
X13749743Y-13271914D01*
X13735457Y-13257629D01*
X13749743Y-13243343D01*
X13749743Y-13271914D01*
X13864028Y-12971914D02*
X14064028Y-12971914D01*
X13935457Y-13271914D01*
X14306886Y-12971914D02*
X14249743Y-12971914D01*
X14221171Y-12986200D01*
X14206886Y-13000486D01*
X14178314Y-13043343D01*
X14164028Y-13100486D01*
X14164028Y-13214771D01*
X14178314Y-13243343D01*
X14192600Y-13257629D01*
X14221171Y-13271914D01*
X14278314Y-13271914D01*
X14306886Y-13257629D01*
X14321171Y-13243343D01*
X14335457Y-13214771D01*
X14335457Y-13143343D01*
X14321171Y-13114771D01*
X14306886Y-13100486D01*
X14278314Y-13086200D01*
X14221171Y-13086200D01*
X14192600Y-13100486D01*
X14178314Y-13114771D01*
X14164028Y-13143343D01*
X14464028Y-13271914D02*
X14464028Y-13071914D01*
X14464028Y-13100486D02*
X14478314Y-13086200D01*
X14506886Y-13071914D01*
X14549743Y-13071914D01*
X14578314Y-13086200D01*
X14592600Y-13114771D01*
X14592600Y-13271914D01*
X14592600Y-13114771D02*
X14606886Y-13086200D01*
X14635457Y-13071914D01*
X14678314Y-13071914D01*
X14706886Y-13086200D01*
X14721171Y-13114771D01*
X14721171Y-13271914D01*
X14864028Y-13271914D02*
X14864028Y-13071914D01*
X14864028Y-13100486D02*
X14878314Y-13086200D01*
X14906886Y-13071914D01*
X14949743Y-13071914D01*
X14978314Y-13086200D01*
X14992600Y-13114771D01*
X14992600Y-13271914D01*
X14992600Y-13114771D02*
X15006886Y-13086200D01*
X15035457Y-13071914D01*
X15078314Y-13071914D01*
X15106886Y-13086200D01*
X15121171Y-13114771D01*
X15121171Y-13271914D01*
X15706886Y-12957629D02*
X15449743Y-13343343D01*
X16092600Y-12971914D02*
X16121171Y-12971914D01*
X16149743Y-12986200D01*
X16164028Y-13000486D01*
X16178314Y-13029057D01*
X16192600Y-13086200D01*
X16192600Y-13157629D01*
X16178314Y-13214771D01*
X16164028Y-13243343D01*
X16149743Y-13257629D01*
X16121171Y-13271914D01*
X16092600Y-13271914D01*
X16064028Y-13257629D01*
X16049743Y-13243343D01*
X16035457Y-13214771D01*
X16021171Y-13157629D01*
X16021171Y-13086200D01*
X16035457Y-13029057D01*
X16049743Y-13000486D01*
X16064028Y-12986200D01*
X16092600Y-12971914D01*
X16321171Y-13243343D02*
X16335457Y-13257629D01*
X16321171Y-13271914D01*
X16306886Y-13257629D01*
X16321171Y-13243343D01*
X16321171Y-13271914D01*
X16521171Y-12971914D02*
X16549743Y-12971914D01*
X16578314Y-12986200D01*
X16592600Y-13000486D01*
X16606886Y-13029057D01*
X16621171Y-13086200D01*
X16621171Y-13157629D01*
X16606886Y-13214771D01*
X16592600Y-13243343D01*
X16578314Y-13257629D01*
X16549743Y-13271914D01*
X16521171Y-13271914D01*
X16492600Y-13257629D01*
X16478314Y-13243343D01*
X16464028Y-13214771D01*
X16449743Y-13157629D01*
X16449743Y-13086200D01*
X16464028Y-13029057D01*
X16478314Y-13000486D01*
X16492600Y-12986200D01*
X16521171Y-12971914D01*
X16721171Y-12971914D02*
X16906886Y-12971914D01*
X16806886Y-13086200D01*
X16849743Y-13086200D01*
X16878314Y-13100486D01*
X16892600Y-13114771D01*
X16906886Y-13143343D01*
X16906886Y-13214771D01*
X16892600Y-13243343D01*
X16878314Y-13257629D01*
X16849743Y-13271914D01*
X16764028Y-13271914D01*
X16735457Y-13257629D01*
X16721171Y-13243343D01*
X17092600Y-12971914D02*
X17121171Y-12971914D01*
X17149743Y-12986200D01*
X17164028Y-13000486D01*
X17178314Y-13029057D01*
X17192600Y-13086200D01*
X17192600Y-13157629D01*
X17178314Y-13214771D01*
X17164028Y-13243343D01*
X17149743Y-13257629D01*
X17121171Y-13271914D01*
X17092600Y-13271914D01*
X17064028Y-13257629D01*
X17049743Y-13243343D01*
X17035457Y-13214771D01*
X17021171Y-13157629D01*
X17021171Y-13086200D01*
X17035457Y-13029057D01*
X17049743Y-13000486D01*
X17064028Y-12986200D01*
X17092600Y-12971914D01*
X17306886Y-12971914D02*
X17306886Y-13029057D01*
X17421171Y-12971914D02*
X17421171Y-13029057D01*
X17864028Y-13386200D02*
X17849743Y-13371914D01*
X17821171Y-13329057D01*
X17806886Y-13300486D01*
X17792600Y-13257629D01*
X17778314Y-13186200D01*
X17778314Y-13129057D01*
X17792600Y-13057629D01*
X17806886Y-13014771D01*
X17821171Y-12986200D01*
X17849743Y-12943343D01*
X17864028Y-12929057D01*
X18135457Y-13271914D02*
X17964028Y-13271914D01*
X18049743Y-13271914D02*
X18049743Y-12971914D01*
X18021171Y-13014771D01*
X17992600Y-13043343D01*
X17964028Y-13057629D01*
X18235457Y-12971914D02*
X18435457Y-12971914D01*
X18306886Y-13271914D01*
X18778314Y-13271914D02*
X18778314Y-12971914D01*
X18906886Y-13271914D02*
X18906886Y-13114771D01*
X18892600Y-13086200D01*
X18864028Y-13071914D01*
X18821171Y-13071914D01*
X18792600Y-13086200D01*
X18778314Y-13100486D01*
X19092600Y-13271914D02*
X19064028Y-13257629D01*
X19049743Y-13243343D01*
X19035457Y-13214771D01*
X19035457Y-13129057D01*
X19049743Y-13100486D01*
X19064028Y-13086200D01*
X19092600Y-13071914D01*
X19135457Y-13071914D01*
X19164028Y-13086200D01*
X19178314Y-13100486D01*
X19192600Y-13129057D01*
X19192600Y-13214771D01*
X19178314Y-13243343D01*
X19164028Y-13257629D01*
X19135457Y-13271914D01*
X19092600Y-13271914D01*
X19364028Y-13271914D02*
X19335457Y-13257629D01*
X19321171Y-13229057D01*
X19321171Y-12971914D01*
X19592600Y-13257629D02*
X19564028Y-13271914D01*
X19506886Y-13271914D01*
X19478314Y-13257629D01*
X19464028Y-13229057D01*
X19464028Y-13114771D01*
X19478314Y-13086200D01*
X19506886Y-13071914D01*
X19564028Y-13071914D01*
X19592600Y-13086200D01*
X19606886Y-13114771D01*
X19606886Y-13143343D01*
X19464028Y-13171914D01*
X19721171Y-13257629D02*
X19749743Y-13271914D01*
X19806886Y-13271914D01*
X19835457Y-13257629D01*
X19849743Y-13229057D01*
X19849743Y-13214771D01*
X19835457Y-13186200D01*
X19806886Y-13171914D01*
X19764028Y-13171914D01*
X19735457Y-13157629D01*
X19721171Y-13129057D01*
X19721171Y-13114771D01*
X19735457Y-13086200D01*
X19764028Y-13071914D01*
X19806886Y-13071914D01*
X19835457Y-13086200D01*
X19949743Y-13386200D02*
X19964028Y-13371914D01*
X19992600Y-13329057D01*
X20006886Y-13300486D01*
X20021171Y-13257629D01*
X20035457Y-13186200D01*
X20035457Y-13129057D01*
X20021171Y-13057629D01*
X20006886Y-13014771D01*
X19992600Y-12986200D01*
X19964028Y-12943343D01*
X19949743Y-12929057D01*
X13165884Y-13560485D02*
X13165884Y-13503916D01*
X13109315Y-13503916D01*
X13109315Y-13560485D01*
X13165884Y-13560485D01*
X13521171Y-13367914D02*
X13549743Y-13367914D01*
X13578314Y-13382200D01*
X13592600Y-13396486D01*
X13606886Y-13425057D01*
X13621171Y-13482200D01*
X13621171Y-13553629D01*
X13606886Y-13610771D01*
X13592600Y-13639343D01*
X13578314Y-13653629D01*
X13549743Y-13667914D01*
X13521171Y-13667914D01*
X13492600Y-13653629D01*
X13478314Y-13639343D01*
X13464028Y-13610771D01*
X13449743Y-13553629D01*
X13449743Y-13482200D01*
X13464028Y-13425057D01*
X13478314Y-13396486D01*
X13492600Y-13382200D01*
X13521171Y-13367914D01*
X13749743Y-13639343D02*
X13764028Y-13653629D01*
X13749743Y-13667914D01*
X13735457Y-13653629D01*
X13749743Y-13639343D01*
X13749743Y-13667914D01*
X13935457Y-13496486D02*
X13906886Y-13482200D01*
X13892600Y-13467914D01*
X13878314Y-13439343D01*
X13878314Y-13425057D01*
X13892600Y-13396486D01*
X13906886Y-13382200D01*
X13935457Y-13367914D01*
X13992600Y-13367914D01*
X14021171Y-13382200D01*
X14035457Y-13396486D01*
X14049743Y-13425057D01*
X14049743Y-13439343D01*
X14035457Y-13467914D01*
X14021171Y-13482200D01*
X13992600Y-13496486D01*
X13935457Y-13496486D01*
X13906886Y-13510771D01*
X13892600Y-13525057D01*
X13878314Y-13553629D01*
X13878314Y-13610771D01*
X13892600Y-13639343D01*
X13906886Y-13653629D01*
X13935457Y-13667914D01*
X13992600Y-13667914D01*
X14021171Y-13653629D01*
X14035457Y-13639343D01*
X14049743Y-13610771D01*
X14049743Y-13553629D01*
X14035457Y-13525057D01*
X14021171Y-13510771D01*
X13992600Y-13496486D01*
X14235457Y-13367914D02*
X14264028Y-13367914D01*
X14292600Y-13382200D01*
X14306886Y-13396486D01*
X14321171Y-13425057D01*
X14335457Y-13482200D01*
X14335457Y-13553629D01*
X14321171Y-13610771D01*
X14306886Y-13639343D01*
X14292600Y-13653629D01*
X14264028Y-13667914D01*
X14235457Y-13667914D01*
X14206886Y-13653629D01*
X14192600Y-13639343D01*
X14178314Y-13610771D01*
X14164028Y-13553629D01*
X14164028Y-13482200D01*
X14178314Y-13425057D01*
X14192600Y-13396486D01*
X14206886Y-13382200D01*
X14235457Y-13367914D01*
X14464028Y-13667914D02*
X14464028Y-13467914D01*
X14464028Y-13496486D02*
X14478314Y-13482200D01*
X14506886Y-13467914D01*
X14549743Y-13467914D01*
X14578314Y-13482200D01*
X14592600Y-13510771D01*
X14592600Y-13667914D01*
X14592600Y-13510771D02*
X14606886Y-13482200D01*
X14635457Y-13467914D01*
X14678314Y-13467914D01*
X14706886Y-13482200D01*
X14721171Y-13510771D01*
X14721171Y-13667914D01*
X14864028Y-13667914D02*
X14864028Y-13467914D01*
X14864028Y-13496486D02*
X14878314Y-13482200D01*
X14906886Y-13467914D01*
X14949743Y-13467914D01*
X14978314Y-13482200D01*
X14992600Y-13510771D01*
X14992600Y-13667914D01*
X14992600Y-13510771D02*
X15006886Y-13482200D01*
X15035457Y-13467914D01*
X15078314Y-13467914D01*
X15106886Y-13482200D01*
X15121171Y-13510771D01*
X15121171Y-13667914D01*
X15706886Y-13353629D02*
X15449743Y-13739343D01*
X16092600Y-13367914D02*
X16121171Y-13367914D01*
X16149743Y-13382200D01*
X16164028Y-13396486D01*
X16178314Y-13425057D01*
X16192600Y-13482200D01*
X16192600Y-13553629D01*
X16178314Y-13610771D01*
X16164028Y-13639343D01*
X16149743Y-13653629D01*
X16121171Y-13667914D01*
X16092600Y-13667914D01*
X16064028Y-13653629D01*
X16049743Y-13639343D01*
X16035457Y-13610771D01*
X16021171Y-13553629D01*
X16021171Y-13482200D01*
X16035457Y-13425057D01*
X16049743Y-13396486D01*
X16064028Y-13382200D01*
X16092600Y-13367914D01*
X16321171Y-13639343D02*
X16335457Y-13653629D01*
X16321171Y-13667914D01*
X16306886Y-13653629D01*
X16321171Y-13639343D01*
X16321171Y-13667914D01*
X16521171Y-13367914D02*
X16549743Y-13367914D01*
X16578314Y-13382200D01*
X16592600Y-13396486D01*
X16606886Y-13425057D01*
X16621171Y-13482200D01*
X16621171Y-13553629D01*
X16606886Y-13610771D01*
X16592600Y-13639343D01*
X16578314Y-13653629D01*
X16549743Y-13667914D01*
X16521171Y-13667914D01*
X16492600Y-13653629D01*
X16478314Y-13639343D01*
X16464028Y-13610771D01*
X16449743Y-13553629D01*
X16449743Y-13482200D01*
X16464028Y-13425057D01*
X16478314Y-13396486D01*
X16492600Y-13382200D01*
X16521171Y-13367914D01*
X16721171Y-13367914D02*
X16906886Y-13367914D01*
X16806886Y-13482200D01*
X16849743Y-13482200D01*
X16878314Y-13496486D01*
X16892600Y-13510771D01*
X16906886Y-13539343D01*
X16906886Y-13610771D01*
X16892600Y-13639343D01*
X16878314Y-13653629D01*
X16849743Y-13667914D01*
X16764028Y-13667914D01*
X16735457Y-13653629D01*
X16721171Y-13639343D01*
X17192600Y-13667914D02*
X17021171Y-13667914D01*
X17106886Y-13667914D02*
X17106886Y-13367914D01*
X17078314Y-13410771D01*
X17049743Y-13439343D01*
X17021171Y-13453629D01*
X17306886Y-13367914D02*
X17306886Y-13425057D01*
X17421171Y-13367914D02*
X17421171Y-13425057D01*
X17864028Y-13782200D02*
X17849743Y-13767914D01*
X17821171Y-13725057D01*
X17806886Y-13696486D01*
X17792600Y-13653629D01*
X17778314Y-13582200D01*
X17778314Y-13525057D01*
X17792600Y-13453629D01*
X17806886Y-13410771D01*
X17821171Y-13382200D01*
X17849743Y-13339343D01*
X17864028Y-13325057D01*
X17964028Y-13396486D02*
X17978314Y-13382200D01*
X18006886Y-13367914D01*
X18078314Y-13367914D01*
X18106886Y-13382200D01*
X18121171Y-13396486D01*
X18135457Y-13425057D01*
X18135457Y-13453629D01*
X18121171Y-13496486D01*
X17949743Y-13667914D01*
X18135457Y-13667914D01*
X18492600Y-13667914D02*
X18492600Y-13367914D01*
X18621171Y-13667914D02*
X18621171Y-13510771D01*
X18606886Y-13482200D01*
X18578314Y-13467914D01*
X18535457Y-13467914D01*
X18506886Y-13482200D01*
X18492600Y-13496486D01*
X18806886Y-13667914D02*
X18778314Y-13653629D01*
X18764028Y-13639343D01*
X18749743Y-13610771D01*
X18749743Y-13525057D01*
X18764028Y-13496486D01*
X18778314Y-13482200D01*
X18806886Y-13467914D01*
X18849743Y-13467914D01*
X18878314Y-13482200D01*
X18892600Y-13496486D01*
X18906886Y-13525057D01*
X18906886Y-13610771D01*
X18892600Y-13639343D01*
X18878314Y-13653629D01*
X18849743Y-13667914D01*
X18806886Y-13667914D01*
X19078314Y-13667914D02*
X19049743Y-13653629D01*
X19035457Y-13625057D01*
X19035457Y-13367914D01*
X19306886Y-13653629D02*
X19278314Y-13667914D01*
X19221171Y-13667914D01*
X19192600Y-13653629D01*
X19178314Y-13625057D01*
X19178314Y-13510771D01*
X19192600Y-13482200D01*
X19221171Y-13467914D01*
X19278314Y-13467914D01*
X19306886Y-13482200D01*
X19321171Y-13510771D01*
X19321171Y-13539343D01*
X19178314Y-13567914D01*
X19435457Y-13653629D02*
X19464028Y-13667914D01*
X19521171Y-13667914D01*
X19549743Y-13653629D01*
X19564028Y-13625057D01*
X19564028Y-13610771D01*
X19549743Y-13582200D01*
X19521171Y-13567914D01*
X19478314Y-13567914D01*
X19449743Y-13553629D01*
X19435457Y-13525057D01*
X19435457Y-13510771D01*
X19449743Y-13482200D01*
X19478314Y-13467914D01*
X19521171Y-13467914D01*
X19549743Y-13482200D01*
X19664028Y-13782200D02*
X19678314Y-13767914D01*
X19706886Y-13725057D01*
X19721171Y-13696486D01*
X19735457Y-13653629D01*
X19749743Y-13582200D01*
X19749743Y-13525057D01*
X19735457Y-13453629D01*
X19721171Y-13410771D01*
X19706886Y-13382200D01*
X19678314Y-13339343D01*
X19664028Y-13325057D01*
X13127562Y-13978238D02*
X13177600Y-13928200D01*
X13127562Y-13878162D01*
X13077524Y-13928200D01*
X13127562Y-13978238D01*
X13621171Y-14063914D02*
X13449743Y-14063914D01*
X13535457Y-14063914D02*
X13535457Y-13763914D01*
X13506886Y-13806771D01*
X13478314Y-13835343D01*
X13449743Y-13849629D01*
X13749743Y-14035343D02*
X13764028Y-14049629D01*
X13749743Y-14063914D01*
X13735457Y-14049629D01*
X13749743Y-14035343D01*
X13749743Y-14063914D01*
X13949743Y-13763914D02*
X13978314Y-13763914D01*
X14006886Y-13778200D01*
X14021171Y-13792486D01*
X14035457Y-13821057D01*
X14049743Y-13878200D01*
X14049743Y-13949629D01*
X14035457Y-14006771D01*
X14021171Y-14035343D01*
X14006886Y-14049629D01*
X13978314Y-14063914D01*
X13949743Y-14063914D01*
X13921171Y-14049629D01*
X13906886Y-14035343D01*
X13892600Y-14006771D01*
X13878314Y-13949629D01*
X13878314Y-13878200D01*
X13892600Y-13821057D01*
X13906886Y-13792486D01*
X13921171Y-13778200D01*
X13949743Y-13763914D01*
X14235457Y-13763914D02*
X14264028Y-13763914D01*
X14292600Y-13778200D01*
X14306886Y-13792486D01*
X14321171Y-13821057D01*
X14335457Y-13878200D01*
X14335457Y-13949629D01*
X14321171Y-14006771D01*
X14306886Y-14035343D01*
X14292600Y-14049629D01*
X14264028Y-14063914D01*
X14235457Y-14063914D01*
X14206886Y-14049629D01*
X14192600Y-14035343D01*
X14178314Y-14006771D01*
X14164028Y-13949629D01*
X14164028Y-13878200D01*
X14178314Y-13821057D01*
X14192600Y-13792486D01*
X14206886Y-13778200D01*
X14235457Y-13763914D01*
X14464028Y-14063914D02*
X14464028Y-13863914D01*
X14464028Y-13892486D02*
X14478314Y-13878200D01*
X14506886Y-13863914D01*
X14549743Y-13863914D01*
X14578314Y-13878200D01*
X14592600Y-13906771D01*
X14592600Y-14063914D01*
X14592600Y-13906771D02*
X14606886Y-13878200D01*
X14635457Y-13863914D01*
X14678314Y-13863914D01*
X14706886Y-13878200D01*
X14721171Y-13906771D01*
X14721171Y-14063914D01*
X14864028Y-14063914D02*
X14864028Y-13863914D01*
X14864028Y-13892486D02*
X14878314Y-13878200D01*
X14906886Y-13863914D01*
X14949743Y-13863914D01*
X14978314Y-13878200D01*
X14992600Y-13906771D01*
X14992600Y-14063914D01*
X14992600Y-13906771D02*
X15006886Y-13878200D01*
X15035457Y-13863914D01*
X15078314Y-13863914D01*
X15106886Y-13878200D01*
X15121171Y-13906771D01*
X15121171Y-14063914D01*
X15706886Y-13749629D02*
X15449743Y-14135343D01*
X16092600Y-13763914D02*
X16121171Y-13763914D01*
X16149743Y-13778200D01*
X16164028Y-13792486D01*
X16178314Y-13821057D01*
X16192600Y-13878200D01*
X16192600Y-13949629D01*
X16178314Y-14006771D01*
X16164028Y-14035343D01*
X16149743Y-14049629D01*
X16121171Y-14063914D01*
X16092600Y-14063914D01*
X16064028Y-14049629D01*
X16049743Y-14035343D01*
X16035457Y-14006771D01*
X16021171Y-13949629D01*
X16021171Y-13878200D01*
X16035457Y-13821057D01*
X16049743Y-13792486D01*
X16064028Y-13778200D01*
X16092600Y-13763914D01*
X16321171Y-14035343D02*
X16335457Y-14049629D01*
X16321171Y-14063914D01*
X16306886Y-14049629D01*
X16321171Y-14035343D01*
X16321171Y-14063914D01*
X16521171Y-13763914D02*
X16549743Y-13763914D01*
X16578314Y-13778200D01*
X16592600Y-13792486D01*
X16606886Y-13821057D01*
X16621171Y-13878200D01*
X16621171Y-13949629D01*
X16606886Y-14006771D01*
X16592600Y-14035343D01*
X16578314Y-14049629D01*
X16549743Y-14063914D01*
X16521171Y-14063914D01*
X16492600Y-14049629D01*
X16478314Y-14035343D01*
X16464028Y-14006771D01*
X16449743Y-13949629D01*
X16449743Y-13878200D01*
X16464028Y-13821057D01*
X16478314Y-13792486D01*
X16492600Y-13778200D01*
X16521171Y-13763914D01*
X16721171Y-13763914D02*
X16906886Y-13763914D01*
X16806886Y-13878200D01*
X16849743Y-13878200D01*
X16878314Y-13892486D01*
X16892600Y-13906771D01*
X16906886Y-13935343D01*
X16906886Y-14006771D01*
X16892600Y-14035343D01*
X16878314Y-14049629D01*
X16849743Y-14063914D01*
X16764028Y-14063914D01*
X16735457Y-14049629D01*
X16721171Y-14035343D01*
X17049743Y-14063914D02*
X17106886Y-14063914D01*
X17135457Y-14049629D01*
X17149743Y-14035343D01*
X17178314Y-13992486D01*
X17192600Y-13935343D01*
X17192600Y-13821057D01*
X17178314Y-13792486D01*
X17164028Y-13778200D01*
X17135457Y-13763914D01*
X17078314Y-13763914D01*
X17049743Y-13778200D01*
X17035457Y-13792486D01*
X17021171Y-13821057D01*
X17021171Y-13892486D01*
X17035457Y-13921057D01*
X17049743Y-13935343D01*
X17078314Y-13949629D01*
X17135457Y-13949629D01*
X17164028Y-13935343D01*
X17178314Y-13921057D01*
X17192600Y-13892486D01*
X17306886Y-13763914D02*
X17306886Y-13821057D01*
X17421171Y-13763914D02*
X17421171Y-13821057D01*
X17864028Y-14178200D02*
X17849743Y-14163914D01*
X17821171Y-14121057D01*
X17806886Y-14092486D01*
X17792600Y-14049629D01*
X17778314Y-13978200D01*
X17778314Y-13921057D01*
X17792600Y-13849629D01*
X17806886Y-13806771D01*
X17821171Y-13778200D01*
X17849743Y-13735343D01*
X17864028Y-13721057D01*
X18106886Y-13863914D02*
X18106886Y-14063914D01*
X18035457Y-13749629D02*
X17964028Y-13963914D01*
X18149743Y-13963914D01*
X18492600Y-14063914D02*
X18492600Y-13763914D01*
X18621171Y-14063914D02*
X18621171Y-13906771D01*
X18606886Y-13878200D01*
X18578314Y-13863914D01*
X18535457Y-13863914D01*
X18506886Y-13878200D01*
X18492600Y-13892486D01*
X18806886Y-14063914D02*
X18778314Y-14049629D01*
X18764028Y-14035343D01*
X18749743Y-14006771D01*
X18749743Y-13921057D01*
X18764028Y-13892486D01*
X18778314Y-13878200D01*
X18806886Y-13863914D01*
X18849743Y-13863914D01*
X18878314Y-13878200D01*
X18892600Y-13892486D01*
X18906886Y-13921057D01*
X18906886Y-14006771D01*
X18892600Y-14035343D01*
X18878314Y-14049629D01*
X18849743Y-14063914D01*
X18806886Y-14063914D01*
X19078314Y-14063914D02*
X19049743Y-14049629D01*
X19035457Y-14021057D01*
X19035457Y-13763914D01*
X19306886Y-14049629D02*
X19278314Y-14063914D01*
X19221171Y-14063914D01*
X19192600Y-14049629D01*
X19178314Y-14021057D01*
X19178314Y-13906771D01*
X19192600Y-13878200D01*
X19221171Y-13863914D01*
X19278314Y-13863914D01*
X19306886Y-13878200D01*
X19321171Y-13906771D01*
X19321171Y-13935343D01*
X19178314Y-13963914D01*
X19435457Y-14049629D02*
X19464028Y-14063914D01*
X19521171Y-14063914D01*
X19549743Y-14049629D01*
X19564028Y-14021057D01*
X19564028Y-14006771D01*
X19549743Y-13978200D01*
X19521171Y-13963914D01*
X19478314Y-13963914D01*
X19449743Y-13949629D01*
X19435457Y-13921057D01*
X19435457Y-13906771D01*
X19449743Y-13878200D01*
X19478314Y-13863914D01*
X19521171Y-13863914D01*
X19549743Y-13878200D01*
X19664028Y-14178200D02*
X19678314Y-14163914D01*
X19706886Y-14121057D01*
X19721171Y-14092486D01*
X19735457Y-14049629D01*
X19749743Y-13978200D01*
X19749743Y-13921057D01*
X19735457Y-13849629D01*
X19721171Y-13806771D01*
X19706886Y-13778200D01*
X19678314Y-13735343D01*
X19664028Y-13721057D01*
M02*
