M48
;DRILL file {KiCad 4.1.0-alpha+201606030946+6874~45~ubuntu14.04.1-product} date Sun Jul  3 18:38:01 2016
;FORMAT={-:-/ absolute / metric / decimal}
FMAT,2
METRIC,TZ
T1C0.500
T2C0.599
T3C0.762
T4C0.800
T5C1.001
%
G90
G05
M71
T1
X146.113Y-103.06
X147.193Y-103.06
X147.256Y-66.421
X147.256Y-74.803
X147.955Y-64.643
X147.955Y-76.581
X148.336Y-103.06
X149.669Y-69.787
X150.812Y-111.506
X151.066Y-69.85
X153.225Y-84.645
X153.797Y-72.072
X153.924Y-69.913
X154.051Y-85.788
X154.813Y-69.151
X155.448Y-84.645
X155.511Y-82.931
X155.829Y-93.535
X155.892Y-109.156
X156.147Y-88.837
X156.21Y-69.025
X156.21Y-81.915
X156.718Y-94.234
X157.099Y-91.504
X157.162Y-99.06
X157.353Y-89.725
X157.353Y-100.203
X157.416Y-75.629
X157.416Y-79.502
X157.734Y-81.724
X157.988Y-82.931
X158.178Y-90.614
X158.559Y-68.389
X158.75Y-100.139
X159.004Y-77.597
X160.02Y-77.47
X161.163Y-82.169
X161.481Y-98.806
X162.687Y-86.741
X163.068Y-68.326
X163.703Y-72.644
X164.782Y-85.788
X165.036Y-90.551
X165.862Y-91.249
X167.45Y-107.251
X167.513Y-98.552
X168.719Y-100.266
X168.719Y-108.902
X168.91Y-86.423
X168.91Y-104.14
X169.291Y-83.439
X169.355Y-81.471
X170.053Y-88.9
X170.053Y-94.234
X171.069Y-87.694
X171.386Y-81.471
X171.386Y-90.361
X171.577Y-88.963
X173.037Y-87.82
X175.577Y-84.709
X175.768Y-97.727
X178.879Y-90.361
X178.879Y-94.17
T2
X150.114Y-93.612
X150.114Y-95.11
T3
X134.988Y-103.289
X134.988Y-105.829
X134.988Y-108.89
X134.988Y-111.43
X136.144Y-67.183
X136.144Y-69.723
X136.144Y-72.263
X136.144Y-74.803
X172.847Y-67.564
X173.228Y-100.266
X173.228Y-102.806
X173.228Y-105.346
X175.387Y-67.564
X175.768Y-100.266
X175.768Y-102.806
X175.768Y-105.346
X177.927Y-67.564
T4
X135.111Y-90.026
X136.525Y-91.44
T5
X139.446Y-108.839
X141.986Y-108.839
X146.431Y-108.839
X148.971Y-108.839
T0
M30
