G04 #@! TF.FileFunction,Copper,L2,Bot,Signal*
%FSLAX46Y46*%
G04 Gerber Fmt 4.6, Leading zero omitted, Abs format (unit mm)*
G04 Created by KiCad (PCBNEW 4.0.2-4+6225~38~ubuntu14.04.1-stable) date Fri 13 May 2016 19:11:25 BST*
%MOMM*%
G01*
G04 APERTURE LIST*
%ADD10C,0.100000*%
%ADD11C,0.150000*%
%ADD12C,0.300000*%
%ADD13C,1.524000*%
%ADD14R,2.000000X1.900000*%
%ADD15C,1.900000*%
%ADD16C,1.000760*%
%ADD17C,0.700000*%
%ADD18C,0.500000*%
%ADD19C,0.200000*%
%ADD20C,0.130000*%
G04 APERTURE END LIST*
D10*
D11*
X75192000Y-113481000D02*
X75319000Y-113481000D01*
X75192000Y-65602000D02*
X75192000Y-113481000D01*
X124341000Y-65602000D02*
X75192000Y-65602000D01*
X124341000Y-113481000D02*
X124341000Y-65602000D01*
X75319000Y-113481000D02*
X124341000Y-113481000D01*
D12*
X121900000Y-78492857D02*
X121685714Y-78564286D01*
X121614286Y-78635714D01*
X121542857Y-78778571D01*
X121542857Y-78992857D01*
X121614286Y-79135714D01*
X121685714Y-79207143D01*
X121828572Y-79278571D01*
X122400000Y-79278571D01*
X122400000Y-77778571D01*
X121900000Y-77778571D01*
X121757143Y-77850000D01*
X121685714Y-77921429D01*
X121614286Y-78064286D01*
X121614286Y-78207143D01*
X121685714Y-78350000D01*
X121757143Y-78421429D01*
X121900000Y-78492857D01*
X122400000Y-78492857D01*
X120685714Y-79278571D02*
X120828572Y-79207143D01*
X120900000Y-79135714D01*
X120971429Y-78992857D01*
X120971429Y-78564286D01*
X120900000Y-78421429D01*
X120828572Y-78350000D01*
X120685714Y-78278571D01*
X120471429Y-78278571D01*
X120328572Y-78350000D01*
X120257143Y-78421429D01*
X120185714Y-78564286D01*
X120185714Y-78992857D01*
X120257143Y-79135714D01*
X120328572Y-79207143D01*
X120471429Y-79278571D01*
X120685714Y-79278571D01*
X119757143Y-78278571D02*
X119185714Y-78278571D01*
X119542857Y-77778571D02*
X119542857Y-79064286D01*
X119471429Y-79207143D01*
X119328571Y-79278571D01*
X119185714Y-79278571D01*
D11*
X80406666Y-109474000D02*
G75*
G03X80406666Y-109474000I-1666666J0D01*
G01*
X76240000Y-109474000D02*
X81240000Y-109474000D01*
X78740000Y-106974000D02*
X78740000Y-111974000D01*
X122062666Y-69342000D02*
G75*
G03X122062666Y-69342000I-1666666J0D01*
G01*
X117896000Y-69342000D02*
X122896000Y-69342000D01*
X120396000Y-66842000D02*
X120396000Y-71842000D01*
D13*
X119000000Y-108200000D03*
X119000000Y-110740000D03*
X119000000Y-105660000D03*
X116460000Y-105660000D03*
X116460000Y-108200000D03*
X116460000Y-110740000D03*
D14*
X83800000Y-91800000D03*
D15*
X83800000Y-94340000D03*
D14*
X84400000Y-85700000D03*
D15*
X84400000Y-88240000D03*
D13*
X79600000Y-69860000D03*
X79600000Y-72400000D03*
X79600000Y-74940000D03*
X79600000Y-77480000D03*
X94840000Y-92000000D03*
X92300000Y-92000000D03*
X89760000Y-92000000D03*
X109960000Y-76200000D03*
X112500000Y-76200000D03*
X115040000Y-76200000D03*
X87500000Y-106900000D03*
X90040000Y-106900000D03*
X82000000Y-99500000D03*
X84540000Y-99500000D03*
D16*
X98574650Y-100748913D03*
X97825350Y-99451087D03*
D17*
X118400000Y-94100000D03*
X112200000Y-97300000D03*
X108900000Y-110700000D03*
X93800000Y-105400000D03*
X95800000Y-99100000D03*
X97100000Y-95800000D03*
X97100000Y-87300000D03*
X104700000Y-69300000D03*
X104700000Y-82000000D03*
X90932000Y-73533000D03*
X81700000Y-79400000D03*
X120500000Y-102700000D03*
X120500000Y-95900000D03*
X104900000Y-93600000D03*
X122500000Y-99700000D03*
X113300000Y-108100000D03*
X116600000Y-85800000D03*
X105900000Y-79800000D03*
X107300000Y-80720000D03*
X112900000Y-85900000D03*
X108600000Y-85800000D03*
X108600000Y-81580000D03*
X113200000Y-93400000D03*
X107000000Y-93400000D03*
X105600000Y-104700000D03*
X105600000Y-108300000D03*
X102400000Y-102000000D03*
X97800000Y-108300000D03*
X104000000Y-102100000D03*
X101700000Y-108300000D03*
X103900000Y-71700000D03*
X103900000Y-87300000D03*
X105600000Y-70800000D03*
X102800000Y-71700000D03*
X102800000Y-87800000D03*
D18*
X116460000Y-105660000D02*
X109859000Y-105660000D01*
X109859000Y-105660000D02*
X109855000Y-105664000D01*
X115400000Y-94100000D02*
X118400000Y-94100000D01*
X112200000Y-97300000D02*
X115400000Y-94100000D01*
X108940000Y-110740000D02*
X116460000Y-110740000D01*
X108900000Y-110700000D02*
X108940000Y-110740000D01*
X93800000Y-101100000D02*
X93800000Y-105400000D01*
X95800000Y-99100000D02*
X93800000Y-101100000D01*
X97100000Y-87300000D02*
X97100000Y-95800000D01*
X104700000Y-69300000D02*
X104700000Y-82000000D01*
D19*
X90922000Y-77480000D02*
X79600000Y-77480000D01*
X90932000Y-77470000D02*
X90922000Y-77480000D01*
X90932000Y-73533000D02*
X90932000Y-77470000D01*
D18*
X81700000Y-79400000D02*
X79830000Y-77530000D01*
X120500000Y-102700000D02*
X120500000Y-95900000D01*
X119000000Y-103700000D02*
X119000000Y-105660000D01*
X115000000Y-103700000D02*
X119000000Y-103700000D01*
X104900000Y-93600000D02*
X115000000Y-103700000D01*
X116460000Y-108200000D02*
X116500000Y-108200000D01*
X116500000Y-108200000D02*
X117700000Y-107000000D01*
X122500000Y-107000000D02*
X122500000Y-99700000D01*
X117700000Y-107000000D02*
X122500000Y-107000000D01*
X113400000Y-108200000D02*
X116460000Y-108200000D01*
X113300000Y-108100000D02*
X113400000Y-108200000D01*
D19*
X116600000Y-79800000D02*
X116600000Y-85800000D01*
X105900000Y-79800000D02*
X116600000Y-79800000D01*
X112900000Y-80820000D02*
X112900000Y-85900000D01*
X112900000Y-80720000D02*
X112900000Y-80820000D01*
X107300000Y-80720000D02*
X112900000Y-80720000D01*
X108600000Y-81580000D02*
X108600000Y-85800000D01*
D18*
X107000000Y-93400000D02*
X113200000Y-93400000D01*
X105600000Y-108300000D02*
X105600000Y-104700000D01*
X84540000Y-99500000D02*
X85800000Y-99500000D01*
X94600000Y-108300000D02*
X97800000Y-108300000D01*
X85800000Y-99500000D02*
X94600000Y-108300000D01*
X102400000Y-103700000D02*
X102400000Y-102000000D01*
X97800000Y-108300000D02*
X102400000Y-103700000D01*
X93900000Y-109100000D02*
X100900000Y-109100000D01*
X91700000Y-106900000D02*
X93900000Y-109100000D01*
X90040000Y-106900000D02*
X91700000Y-106900000D01*
X100900000Y-109100000D02*
X101700000Y-108300000D01*
X104000000Y-106000000D02*
X104000000Y-102100000D01*
X101700000Y-108300000D02*
X104000000Y-106000000D01*
X103900000Y-87300000D02*
X103900000Y-71700000D01*
X112500000Y-76200000D02*
X112500000Y-70800000D01*
X112500000Y-70800000D02*
X105600000Y-70800000D01*
X102800000Y-71700000D02*
X102800000Y-87800000D01*
D20*
G36*
X123835000Y-113035000D02*
X75765000Y-113035000D01*
X75765000Y-110807932D01*
X108354906Y-110807932D01*
X108437702Y-111008314D01*
X108590879Y-111161759D01*
X108791117Y-111244905D01*
X109007932Y-111245094D01*
X109153371Y-111185000D01*
X115608395Y-111185000D01*
X115648222Y-111281389D01*
X115917195Y-111550832D01*
X116268806Y-111696834D01*
X116649524Y-111697166D01*
X117001389Y-111551778D01*
X117270832Y-111282805D01*
X117416834Y-110931194D01*
X117416835Y-110929524D01*
X118042834Y-110929524D01*
X118188222Y-111281389D01*
X118457195Y-111550832D01*
X118808806Y-111696834D01*
X119189524Y-111697166D01*
X119541389Y-111551778D01*
X119810832Y-111282805D01*
X119956834Y-110931194D01*
X119957166Y-110550476D01*
X119811778Y-110198611D01*
X119542805Y-109929168D01*
X119191194Y-109783166D01*
X118810476Y-109782834D01*
X118458611Y-109928222D01*
X118189168Y-110197195D01*
X118043166Y-110548806D01*
X118042834Y-110929524D01*
X117416835Y-110929524D01*
X117417166Y-110550476D01*
X117271778Y-110198611D01*
X117002805Y-109929168D01*
X116651194Y-109783166D01*
X116270476Y-109782834D01*
X115918611Y-109928222D01*
X115649168Y-110197195D01*
X115608556Y-110295000D01*
X109265781Y-110295000D01*
X109209121Y-110238241D01*
X109008883Y-110155095D01*
X108792068Y-110154906D01*
X108591686Y-110237702D01*
X108438241Y-110390879D01*
X108355095Y-110591117D01*
X108354906Y-110807932D01*
X75765000Y-110807932D01*
X75765000Y-107884399D01*
X86782888Y-107884399D01*
X86860588Y-108101621D01*
X87369101Y-108254846D01*
X87897542Y-108201807D01*
X88139412Y-108101621D01*
X88217112Y-107884399D01*
X87500000Y-107167286D01*
X86782888Y-107884399D01*
X75765000Y-107884399D01*
X75765000Y-106769101D01*
X86145154Y-106769101D01*
X86198193Y-107297542D01*
X86298379Y-107539412D01*
X86515601Y-107617112D01*
X87232714Y-106900000D01*
X87767286Y-106900000D01*
X88484399Y-107617112D01*
X88701621Y-107539412D01*
X88854846Y-107030899D01*
X88801807Y-106502458D01*
X88701621Y-106260588D01*
X88484399Y-106182888D01*
X87767286Y-106900000D01*
X87232714Y-106900000D01*
X86515601Y-106182888D01*
X86298379Y-106260588D01*
X86145154Y-106769101D01*
X75765000Y-106769101D01*
X75765000Y-105915601D01*
X86782888Y-105915601D01*
X87500000Y-106632714D01*
X88217112Y-105915601D01*
X88139412Y-105698379D01*
X87630899Y-105545154D01*
X87102458Y-105598193D01*
X86860588Y-105698379D01*
X86782888Y-105915601D01*
X75765000Y-105915601D01*
X75765000Y-100484399D01*
X81282888Y-100484399D01*
X81360588Y-100701621D01*
X81869101Y-100854846D01*
X82397542Y-100801807D01*
X82639412Y-100701621D01*
X82717112Y-100484399D01*
X82000000Y-99767286D01*
X81282888Y-100484399D01*
X75765000Y-100484399D01*
X75765000Y-99369101D01*
X80645154Y-99369101D01*
X80698193Y-99897542D01*
X80798379Y-100139412D01*
X81015601Y-100217112D01*
X81732714Y-99500000D01*
X82267286Y-99500000D01*
X82984399Y-100217112D01*
X83201621Y-100139412D01*
X83337181Y-99689524D01*
X83582834Y-99689524D01*
X83728222Y-100041389D01*
X83997195Y-100310832D01*
X84348806Y-100456834D01*
X84729524Y-100457166D01*
X85081389Y-100311778D01*
X85350832Y-100042805D01*
X85391444Y-99945000D01*
X85615674Y-99945000D01*
X94285335Y-108614660D01*
X94285337Y-108614663D01*
X94345706Y-108655000D01*
X94084325Y-108655000D01*
X92014663Y-106585337D01*
X91870294Y-106488874D01*
X91700000Y-106454999D01*
X91699995Y-106455000D01*
X90891605Y-106455000D01*
X90851778Y-106358611D01*
X90582805Y-106089168D01*
X90231194Y-105943166D01*
X89850476Y-105942834D01*
X89498611Y-106088222D01*
X89229168Y-106357195D01*
X89083166Y-106708806D01*
X89082834Y-107089524D01*
X89228222Y-107441389D01*
X89497195Y-107710832D01*
X89848806Y-107856834D01*
X90229524Y-107857166D01*
X90581389Y-107711778D01*
X90850832Y-107442805D01*
X90891444Y-107345000D01*
X91515674Y-107345000D01*
X93585335Y-109414660D01*
X93585337Y-109414663D01*
X93729706Y-109511126D01*
X93900000Y-109545001D01*
X93900005Y-109545000D01*
X100899995Y-109545000D01*
X100900000Y-109545001D01*
X101070294Y-109511126D01*
X101214663Y-109414663D01*
X101784252Y-108845073D01*
X101807932Y-108845094D01*
X102008314Y-108762298D01*
X102161759Y-108609121D01*
X102244905Y-108408883D01*
X102244926Y-108384400D01*
X104314660Y-106314665D01*
X104314663Y-106314663D01*
X104411126Y-106170294D01*
X104424114Y-106105000D01*
X104445001Y-106000000D01*
X104445000Y-105999995D01*
X104445000Y-104807932D01*
X105054906Y-104807932D01*
X105137702Y-105008314D01*
X105155000Y-105025642D01*
X105155000Y-107974149D01*
X105138241Y-107990879D01*
X105055095Y-108191117D01*
X105054906Y-108407932D01*
X105137702Y-108608314D01*
X105290879Y-108761759D01*
X105491117Y-108844905D01*
X105707932Y-108845094D01*
X105908314Y-108762298D01*
X106061759Y-108609121D01*
X106144905Y-108408883D01*
X106145094Y-108192068D01*
X106062298Y-107991686D01*
X106045000Y-107974358D01*
X106045000Y-106644399D01*
X115742888Y-106644399D01*
X115820588Y-106861621D01*
X116329101Y-107014846D01*
X116857542Y-106961807D01*
X117099412Y-106861621D01*
X117177112Y-106644399D01*
X116460000Y-105927286D01*
X115742888Y-106644399D01*
X106045000Y-106644399D01*
X106045000Y-105529101D01*
X115105154Y-105529101D01*
X115158193Y-106057542D01*
X115258379Y-106299412D01*
X115475601Y-106377112D01*
X116192714Y-105660000D01*
X116727286Y-105660000D01*
X117444399Y-106377112D01*
X117661621Y-106299412D01*
X117814846Y-105790899D01*
X117761807Y-105262458D01*
X117661621Y-105020588D01*
X117444399Y-104942888D01*
X116727286Y-105660000D01*
X116192714Y-105660000D01*
X115475601Y-104942888D01*
X115258379Y-105020588D01*
X115105154Y-105529101D01*
X106045000Y-105529101D01*
X106045000Y-105025851D01*
X106061759Y-105009121D01*
X106144905Y-104808883D01*
X106145021Y-104675601D01*
X115742888Y-104675601D01*
X116460000Y-105392714D01*
X117177112Y-104675601D01*
X117099412Y-104458379D01*
X116590899Y-104305154D01*
X116062458Y-104358193D01*
X115820588Y-104458379D01*
X115742888Y-104675601D01*
X106145021Y-104675601D01*
X106145094Y-104592068D01*
X106062298Y-104391686D01*
X105909121Y-104238241D01*
X105708883Y-104155095D01*
X105492068Y-104154906D01*
X105291686Y-104237702D01*
X105138241Y-104390879D01*
X105055095Y-104591117D01*
X105054906Y-104807932D01*
X104445000Y-104807932D01*
X104445000Y-102425851D01*
X104461759Y-102409121D01*
X104544905Y-102208883D01*
X104545094Y-101992068D01*
X104462298Y-101791686D01*
X104309121Y-101638241D01*
X104108883Y-101555095D01*
X103892068Y-101554906D01*
X103691686Y-101637702D01*
X103538241Y-101790879D01*
X103455095Y-101991117D01*
X103454906Y-102207932D01*
X103537702Y-102408314D01*
X103555000Y-102425642D01*
X103555000Y-105815675D01*
X101615747Y-107754927D01*
X101592068Y-107754906D01*
X101391686Y-107837702D01*
X101238241Y-107990879D01*
X101155095Y-108191117D01*
X101155074Y-108215601D01*
X100715674Y-108655000D01*
X98215800Y-108655000D01*
X98261759Y-108609121D01*
X98344905Y-108408883D01*
X98344926Y-108384400D01*
X102714660Y-104014665D01*
X102714663Y-104014663D01*
X102811126Y-103870294D01*
X102845000Y-103700000D01*
X102845000Y-102325851D01*
X102861759Y-102309121D01*
X102944905Y-102108883D01*
X102945094Y-101892068D01*
X102862298Y-101691686D01*
X102709121Y-101538241D01*
X102508883Y-101455095D01*
X102292068Y-101454906D01*
X102091686Y-101537702D01*
X101938241Y-101690879D01*
X101855095Y-101891117D01*
X101854906Y-102107932D01*
X101937702Y-102308314D01*
X101955000Y-102325642D01*
X101955000Y-103515675D01*
X97715747Y-107754927D01*
X97692068Y-107754906D01*
X97491686Y-107837702D01*
X97474358Y-107855000D01*
X94784325Y-107855000D01*
X92437258Y-105507932D01*
X93254906Y-105507932D01*
X93337702Y-105708314D01*
X93490879Y-105861759D01*
X93691117Y-105944905D01*
X93907932Y-105945094D01*
X94108314Y-105862298D01*
X94261759Y-105709121D01*
X94344905Y-105508883D01*
X94345094Y-105292068D01*
X94262298Y-105091686D01*
X94245000Y-105074358D01*
X94245000Y-101284326D01*
X94642699Y-100886626D01*
X97879150Y-100886626D01*
X97984792Y-101142299D01*
X98180235Y-101338083D01*
X98435724Y-101444172D01*
X98712363Y-101444413D01*
X98968036Y-101338771D01*
X99163820Y-101143328D01*
X99269909Y-100887839D01*
X99270150Y-100611200D01*
X99164508Y-100355527D01*
X98969065Y-100159743D01*
X98713576Y-100053654D01*
X98436937Y-100053413D01*
X98181264Y-100159055D01*
X97985480Y-100354498D01*
X97879391Y-100609987D01*
X97879150Y-100886626D01*
X94642699Y-100886626D01*
X95884252Y-99645073D01*
X95907932Y-99645094D01*
X96044174Y-99588800D01*
X97129850Y-99588800D01*
X97235492Y-99844473D01*
X97430935Y-100040257D01*
X97686424Y-100146346D01*
X97963063Y-100146587D01*
X98218736Y-100040945D01*
X98414520Y-99845502D01*
X98520609Y-99590013D01*
X98520850Y-99313374D01*
X98415208Y-99057701D01*
X98219765Y-98861917D01*
X97964276Y-98755828D01*
X97687637Y-98755587D01*
X97431964Y-98861229D01*
X97236180Y-99056672D01*
X97130091Y-99312161D01*
X97129850Y-99588800D01*
X96044174Y-99588800D01*
X96108314Y-99562298D01*
X96261759Y-99409121D01*
X96344905Y-99208883D01*
X96345094Y-98992068D01*
X96262298Y-98791686D01*
X96109121Y-98638241D01*
X95908883Y-98555095D01*
X95692068Y-98554906D01*
X95491686Y-98637702D01*
X95338241Y-98790879D01*
X95255095Y-98991117D01*
X95255074Y-99015601D01*
X93485337Y-100785337D01*
X93388874Y-100929706D01*
X93354999Y-101100000D01*
X93355000Y-101100005D01*
X93355000Y-105074149D01*
X93338241Y-105090879D01*
X93255095Y-105291117D01*
X93254906Y-105507932D01*
X92437258Y-105507932D01*
X86114663Y-99185337D01*
X85970294Y-99088874D01*
X85800000Y-99054999D01*
X85799995Y-99055000D01*
X85391605Y-99055000D01*
X85351778Y-98958611D01*
X85082805Y-98689168D01*
X84731194Y-98543166D01*
X84350476Y-98542834D01*
X83998611Y-98688222D01*
X83729168Y-98957195D01*
X83583166Y-99308806D01*
X83582834Y-99689524D01*
X83337181Y-99689524D01*
X83354846Y-99630899D01*
X83301807Y-99102458D01*
X83201621Y-98860588D01*
X82984399Y-98782888D01*
X82267286Y-99500000D01*
X81732714Y-99500000D01*
X81015601Y-98782888D01*
X80798379Y-98860588D01*
X80645154Y-99369101D01*
X75765000Y-99369101D01*
X75765000Y-98515601D01*
X81282888Y-98515601D01*
X82000000Y-99232714D01*
X82717112Y-98515601D01*
X82639412Y-98298379D01*
X82130899Y-98145154D01*
X81602458Y-98198193D01*
X81360588Y-98298379D01*
X81282888Y-98515601D01*
X75765000Y-98515601D01*
X75765000Y-94566755D01*
X82654802Y-94566755D01*
X82828750Y-94987743D01*
X83150563Y-95310118D01*
X83571246Y-95484801D01*
X84026755Y-95485198D01*
X84447743Y-95311250D01*
X84770118Y-94989437D01*
X84944801Y-94568754D01*
X84945198Y-94113245D01*
X84771250Y-93692257D01*
X84449437Y-93369882D01*
X84028754Y-93195199D01*
X83573245Y-93194802D01*
X83152257Y-93368750D01*
X82829882Y-93690563D01*
X82655199Y-94111246D01*
X82654802Y-94566755D01*
X75765000Y-94566755D01*
X75765000Y-90850000D01*
X82601180Y-90850000D01*
X82601180Y-92750000D01*
X82614777Y-92822263D01*
X82657484Y-92888631D01*
X82722648Y-92933156D01*
X82800000Y-92948820D01*
X84800000Y-92948820D01*
X84872263Y-92935223D01*
X84938631Y-92892516D01*
X84983156Y-92827352D01*
X84998820Y-92750000D01*
X84998820Y-92189524D01*
X88802834Y-92189524D01*
X88948222Y-92541389D01*
X89217195Y-92810832D01*
X89568806Y-92956834D01*
X89949524Y-92957166D01*
X90301389Y-92811778D01*
X90570832Y-92542805D01*
X90716834Y-92191194D01*
X90716835Y-92189524D01*
X91342834Y-92189524D01*
X91488222Y-92541389D01*
X91757195Y-92810832D01*
X92108806Y-92956834D01*
X92489524Y-92957166D01*
X92841389Y-92811778D01*
X93110832Y-92542805D01*
X93256834Y-92191194D01*
X93256835Y-92189524D01*
X93882834Y-92189524D01*
X94028222Y-92541389D01*
X94297195Y-92810832D01*
X94648806Y-92956834D01*
X95029524Y-92957166D01*
X95381389Y-92811778D01*
X95650832Y-92542805D01*
X95796834Y-92191194D01*
X95797166Y-91810476D01*
X95651778Y-91458611D01*
X95382805Y-91189168D01*
X95031194Y-91043166D01*
X94650476Y-91042834D01*
X94298611Y-91188222D01*
X94029168Y-91457195D01*
X93883166Y-91808806D01*
X93882834Y-92189524D01*
X93256835Y-92189524D01*
X93257166Y-91810476D01*
X93111778Y-91458611D01*
X92842805Y-91189168D01*
X92491194Y-91043166D01*
X92110476Y-91042834D01*
X91758611Y-91188222D01*
X91489168Y-91457195D01*
X91343166Y-91808806D01*
X91342834Y-92189524D01*
X90716835Y-92189524D01*
X90717166Y-91810476D01*
X90571778Y-91458611D01*
X90302805Y-91189168D01*
X89951194Y-91043166D01*
X89570476Y-91042834D01*
X89218611Y-91188222D01*
X88949168Y-91457195D01*
X88803166Y-91808806D01*
X88802834Y-92189524D01*
X84998820Y-92189524D01*
X84998820Y-90850000D01*
X84985223Y-90777737D01*
X84942516Y-90711369D01*
X84877352Y-90666844D01*
X84800000Y-90651180D01*
X82800000Y-90651180D01*
X82727737Y-90664777D01*
X82661369Y-90707484D01*
X82616844Y-90772648D01*
X82601180Y-90850000D01*
X75765000Y-90850000D01*
X75765000Y-88466755D01*
X83254802Y-88466755D01*
X83428750Y-88887743D01*
X83750563Y-89210118D01*
X84171246Y-89384801D01*
X84626755Y-89385198D01*
X85047743Y-89211250D01*
X85370118Y-88889437D01*
X85544801Y-88468754D01*
X85545198Y-88013245D01*
X85371250Y-87592257D01*
X85187247Y-87407932D01*
X96554906Y-87407932D01*
X96637702Y-87608314D01*
X96655000Y-87625642D01*
X96655000Y-95474149D01*
X96638241Y-95490879D01*
X96555095Y-95691117D01*
X96554906Y-95907932D01*
X96637702Y-96108314D01*
X96790879Y-96261759D01*
X96991117Y-96344905D01*
X97207932Y-96345094D01*
X97408314Y-96262298D01*
X97561759Y-96109121D01*
X97644905Y-95908883D01*
X97645094Y-95692068D01*
X97562298Y-95491686D01*
X97545000Y-95474358D01*
X97545000Y-93707932D01*
X104354906Y-93707932D01*
X104437702Y-93908314D01*
X104590879Y-94061759D01*
X104791117Y-94144905D01*
X104815600Y-94144926D01*
X114685337Y-104014663D01*
X114829706Y-104111126D01*
X115000000Y-104145001D01*
X115000005Y-104145000D01*
X118555000Y-104145000D01*
X118555000Y-104808395D01*
X118458611Y-104848222D01*
X118189168Y-105117195D01*
X118043166Y-105468806D01*
X118042834Y-105849524D01*
X118188222Y-106201389D01*
X118457195Y-106470832D01*
X118659894Y-106555000D01*
X117700000Y-106555000D01*
X117529706Y-106588874D01*
X117385337Y-106685337D01*
X117385335Y-106685340D01*
X116775777Y-107294898D01*
X116651194Y-107243166D01*
X116270476Y-107242834D01*
X115918611Y-107388222D01*
X115649168Y-107657195D01*
X115608556Y-107755000D01*
X113725676Y-107755000D01*
X113609121Y-107638241D01*
X113408883Y-107555095D01*
X113192068Y-107554906D01*
X112991686Y-107637702D01*
X112838241Y-107790879D01*
X112755095Y-107991117D01*
X112754906Y-108207932D01*
X112837702Y-108408314D01*
X112990879Y-108561759D01*
X113191117Y-108644905D01*
X113407932Y-108645094D01*
X113408159Y-108645000D01*
X115608395Y-108645000D01*
X115648222Y-108741389D01*
X115917195Y-109010832D01*
X116268806Y-109156834D01*
X116649524Y-109157166D01*
X117001389Y-109011778D01*
X117270832Y-108742805D01*
X117416834Y-108391194D01*
X117417166Y-108010476D01*
X117388420Y-107940906D01*
X117884325Y-107445000D01*
X118401734Y-107445000D01*
X118189168Y-107657195D01*
X118043166Y-108008806D01*
X118042834Y-108389524D01*
X118188222Y-108741389D01*
X118457195Y-109010832D01*
X118808806Y-109156834D01*
X119189524Y-109157166D01*
X119541389Y-109011778D01*
X119810832Y-108742805D01*
X119956834Y-108391194D01*
X119957166Y-108010476D01*
X119811778Y-107658611D01*
X119598540Y-107445000D01*
X122500000Y-107445000D01*
X122670294Y-107411126D01*
X122814663Y-107314663D01*
X122911126Y-107170294D01*
X122945000Y-107000000D01*
X122945000Y-100025851D01*
X122961759Y-100009121D01*
X123044905Y-99808883D01*
X123045094Y-99592068D01*
X122962298Y-99391686D01*
X122809121Y-99238241D01*
X122608883Y-99155095D01*
X122392068Y-99154906D01*
X122191686Y-99237702D01*
X122038241Y-99390879D01*
X121955095Y-99591117D01*
X121954906Y-99807932D01*
X122037702Y-100008314D01*
X122055000Y-100025642D01*
X122055000Y-106555000D01*
X119339977Y-106555000D01*
X119541389Y-106471778D01*
X119810832Y-106202805D01*
X119956834Y-105851194D01*
X119957166Y-105470476D01*
X119811778Y-105118611D01*
X119542805Y-104849168D01*
X119445000Y-104808556D01*
X119445000Y-103700000D01*
X119411126Y-103529706D01*
X119314663Y-103385337D01*
X119170294Y-103288874D01*
X119000000Y-103255000D01*
X115184326Y-103255000D01*
X109337258Y-97407932D01*
X111654906Y-97407932D01*
X111737702Y-97608314D01*
X111890879Y-97761759D01*
X112091117Y-97844905D01*
X112307932Y-97845094D01*
X112508314Y-97762298D01*
X112661759Y-97609121D01*
X112744905Y-97408883D01*
X112744926Y-97384400D01*
X114121393Y-96007932D01*
X119954906Y-96007932D01*
X120037702Y-96208314D01*
X120055000Y-96225642D01*
X120055000Y-102374149D01*
X120038241Y-102390879D01*
X119955095Y-102591117D01*
X119954906Y-102807932D01*
X120037702Y-103008314D01*
X120190879Y-103161759D01*
X120391117Y-103244905D01*
X120607932Y-103245094D01*
X120808314Y-103162298D01*
X120961759Y-103009121D01*
X121044905Y-102808883D01*
X121045094Y-102592068D01*
X120962298Y-102391686D01*
X120945000Y-102374358D01*
X120945000Y-96225851D01*
X120961759Y-96209121D01*
X121044905Y-96008883D01*
X121045094Y-95792068D01*
X120962298Y-95591686D01*
X120809121Y-95438241D01*
X120608883Y-95355095D01*
X120392068Y-95354906D01*
X120191686Y-95437702D01*
X120038241Y-95590879D01*
X119955095Y-95791117D01*
X119954906Y-96007932D01*
X114121393Y-96007932D01*
X115584325Y-94545000D01*
X118074149Y-94545000D01*
X118090879Y-94561759D01*
X118291117Y-94644905D01*
X118507932Y-94645094D01*
X118708314Y-94562298D01*
X118861759Y-94409121D01*
X118944905Y-94208883D01*
X118945094Y-93992068D01*
X118862298Y-93791686D01*
X118709121Y-93638241D01*
X118508883Y-93555095D01*
X118292068Y-93554906D01*
X118091686Y-93637702D01*
X118074358Y-93655000D01*
X115400000Y-93655000D01*
X115229706Y-93688874D01*
X115085337Y-93785337D01*
X115085335Y-93785340D01*
X112115747Y-96754927D01*
X112092068Y-96754906D01*
X111891686Y-96837702D01*
X111738241Y-96990879D01*
X111655095Y-97191117D01*
X111654906Y-97407932D01*
X109337258Y-97407932D01*
X105445073Y-93515747D01*
X105445079Y-93507932D01*
X106454906Y-93507932D01*
X106537702Y-93708314D01*
X106690879Y-93861759D01*
X106891117Y-93944905D01*
X107107932Y-93945094D01*
X107308314Y-93862298D01*
X107325642Y-93845000D01*
X112874149Y-93845000D01*
X112890879Y-93861759D01*
X113091117Y-93944905D01*
X113307932Y-93945094D01*
X113508314Y-93862298D01*
X113661759Y-93709121D01*
X113744905Y-93508883D01*
X113745094Y-93292068D01*
X113662298Y-93091686D01*
X113509121Y-92938241D01*
X113308883Y-92855095D01*
X113092068Y-92854906D01*
X112891686Y-92937702D01*
X112874358Y-92955000D01*
X107325851Y-92955000D01*
X107309121Y-92938241D01*
X107108883Y-92855095D01*
X106892068Y-92854906D01*
X106691686Y-92937702D01*
X106538241Y-93090879D01*
X106455095Y-93291117D01*
X106454906Y-93507932D01*
X105445079Y-93507932D01*
X105445094Y-93492068D01*
X105362298Y-93291686D01*
X105209121Y-93138241D01*
X105008883Y-93055095D01*
X104792068Y-93054906D01*
X104591686Y-93137702D01*
X104438241Y-93290879D01*
X104355095Y-93491117D01*
X104354906Y-93707932D01*
X97545000Y-93707932D01*
X97545000Y-87625851D01*
X97561759Y-87609121D01*
X97644905Y-87408883D01*
X97645094Y-87192068D01*
X97562298Y-86991686D01*
X97409121Y-86838241D01*
X97208883Y-86755095D01*
X96992068Y-86754906D01*
X96791686Y-86837702D01*
X96638241Y-86990879D01*
X96555095Y-87191117D01*
X96554906Y-87407932D01*
X85187247Y-87407932D01*
X85049437Y-87269882D01*
X84628754Y-87095199D01*
X84173245Y-87094802D01*
X83752257Y-87268750D01*
X83429882Y-87590563D01*
X83255199Y-88011246D01*
X83254802Y-88466755D01*
X75765000Y-88466755D01*
X75765000Y-84750000D01*
X83201180Y-84750000D01*
X83201180Y-86650000D01*
X83214777Y-86722263D01*
X83257484Y-86788631D01*
X83322648Y-86833156D01*
X83400000Y-86848820D01*
X85400000Y-86848820D01*
X85472263Y-86835223D01*
X85538631Y-86792516D01*
X85583156Y-86727352D01*
X85598820Y-86650000D01*
X85598820Y-84750000D01*
X85585223Y-84677737D01*
X85542516Y-84611369D01*
X85477352Y-84566844D01*
X85400000Y-84551180D01*
X83400000Y-84551180D01*
X83327737Y-84564777D01*
X83261369Y-84607484D01*
X83216844Y-84672648D01*
X83201180Y-84750000D01*
X75765000Y-84750000D01*
X75765000Y-77669524D01*
X78642834Y-77669524D01*
X78788222Y-78021389D01*
X79057195Y-78290832D01*
X79408806Y-78436834D01*
X79789524Y-78437166D01*
X80014770Y-78344096D01*
X81154927Y-79484252D01*
X81154906Y-79507932D01*
X81237702Y-79708314D01*
X81390879Y-79861759D01*
X81591117Y-79944905D01*
X81807932Y-79945094D01*
X82008314Y-79862298D01*
X82161759Y-79709121D01*
X82244905Y-79508883D01*
X82245094Y-79292068D01*
X82162298Y-79091686D01*
X82009121Y-78938241D01*
X81808883Y-78855095D01*
X81784399Y-78855074D01*
X80704326Y-77775000D01*
X90921995Y-77775000D01*
X90922000Y-77775001D01*
X91016161Y-77756270D01*
X91034892Y-77752544D01*
X91130597Y-77688597D01*
X91140594Y-77678599D01*
X91140597Y-77678597D01*
X91204544Y-77582892D01*
X91215065Y-77530000D01*
X91227001Y-77470000D01*
X91227000Y-77469995D01*
X91227000Y-74000799D01*
X91240314Y-73995298D01*
X91393759Y-73842121D01*
X91476905Y-73641883D01*
X91477094Y-73425068D01*
X91394298Y-73224686D01*
X91241121Y-73071241D01*
X91040883Y-72988095D01*
X90824068Y-72987906D01*
X90623686Y-73070702D01*
X90470241Y-73223879D01*
X90387095Y-73424117D01*
X90386906Y-73640932D01*
X90469702Y-73841314D01*
X90622879Y-73994759D01*
X90637000Y-74000623D01*
X90637000Y-77185000D01*
X80513584Y-77185000D01*
X80411778Y-76938611D01*
X80142805Y-76669168D01*
X79791194Y-76523166D01*
X79410476Y-76522834D01*
X79058611Y-76668222D01*
X78789168Y-76937195D01*
X78643166Y-77288806D01*
X78642834Y-77669524D01*
X75765000Y-77669524D01*
X75765000Y-75129524D01*
X78642834Y-75129524D01*
X78788222Y-75481389D01*
X79057195Y-75750832D01*
X79408806Y-75896834D01*
X79789524Y-75897166D01*
X80141389Y-75751778D01*
X80410832Y-75482805D01*
X80556834Y-75131194D01*
X80557166Y-74750476D01*
X80411778Y-74398611D01*
X80142805Y-74129168D01*
X79791194Y-73983166D01*
X79410476Y-73982834D01*
X79058611Y-74128222D01*
X78789168Y-74397195D01*
X78643166Y-74748806D01*
X78642834Y-75129524D01*
X75765000Y-75129524D01*
X75765000Y-72589524D01*
X78642834Y-72589524D01*
X78788222Y-72941389D01*
X79057195Y-73210832D01*
X79408806Y-73356834D01*
X79789524Y-73357166D01*
X80141389Y-73211778D01*
X80410832Y-72942805D01*
X80556834Y-72591194D01*
X80557166Y-72210476D01*
X80411778Y-71858611D01*
X80361188Y-71807932D01*
X102254906Y-71807932D01*
X102337702Y-72008314D01*
X102355000Y-72025642D01*
X102355000Y-87474149D01*
X102338241Y-87490879D01*
X102255095Y-87691117D01*
X102254906Y-87907932D01*
X102337702Y-88108314D01*
X102490879Y-88261759D01*
X102691117Y-88344905D01*
X102907932Y-88345094D01*
X103108314Y-88262298D01*
X103261759Y-88109121D01*
X103344905Y-87908883D01*
X103345094Y-87692068D01*
X103262298Y-87491686D01*
X103245000Y-87474358D01*
X103245000Y-72025851D01*
X103261759Y-72009121D01*
X103344905Y-71808883D01*
X103344905Y-71807932D01*
X103354906Y-71807932D01*
X103437702Y-72008314D01*
X103455000Y-72025642D01*
X103455000Y-86974149D01*
X103438241Y-86990879D01*
X103355095Y-87191117D01*
X103354906Y-87407932D01*
X103437702Y-87608314D01*
X103590879Y-87761759D01*
X103791117Y-87844905D01*
X104007932Y-87845094D01*
X104208314Y-87762298D01*
X104361759Y-87609121D01*
X104444905Y-87408883D01*
X104445094Y-87192068D01*
X104362298Y-86991686D01*
X104345000Y-86974358D01*
X104345000Y-82415800D01*
X104390879Y-82461759D01*
X104591117Y-82544905D01*
X104807932Y-82545094D01*
X105008314Y-82462298D01*
X105161759Y-82309121D01*
X105244905Y-82108883D01*
X105245094Y-81892068D01*
X105162298Y-81691686D01*
X105158551Y-81687932D01*
X108054906Y-81687932D01*
X108137702Y-81888314D01*
X108290879Y-82041759D01*
X108305000Y-82047623D01*
X108305000Y-85332201D01*
X108291686Y-85337702D01*
X108138241Y-85490879D01*
X108055095Y-85691117D01*
X108054906Y-85907932D01*
X108137702Y-86108314D01*
X108290879Y-86261759D01*
X108491117Y-86344905D01*
X108707932Y-86345094D01*
X108908314Y-86262298D01*
X109061759Y-86109121D01*
X109144905Y-85908883D01*
X109145094Y-85692068D01*
X109062298Y-85491686D01*
X108909121Y-85338241D01*
X108895000Y-85332377D01*
X108895000Y-82047799D01*
X108908314Y-82042298D01*
X109061759Y-81889121D01*
X109144905Y-81688883D01*
X109145094Y-81472068D01*
X109062298Y-81271686D01*
X108909121Y-81118241D01*
X108708883Y-81035095D01*
X108492068Y-81034906D01*
X108291686Y-81117702D01*
X108138241Y-81270879D01*
X108055095Y-81471117D01*
X108054906Y-81687932D01*
X105158551Y-81687932D01*
X105145000Y-81674358D01*
X105145000Y-80827932D01*
X106754906Y-80827932D01*
X106837702Y-81028314D01*
X106990879Y-81181759D01*
X107191117Y-81264905D01*
X107407932Y-81265094D01*
X107608314Y-81182298D01*
X107761759Y-81029121D01*
X107767623Y-81015000D01*
X112605000Y-81015000D01*
X112605000Y-85432201D01*
X112591686Y-85437702D01*
X112438241Y-85590879D01*
X112355095Y-85791117D01*
X112354906Y-86007932D01*
X112437702Y-86208314D01*
X112590879Y-86361759D01*
X112791117Y-86444905D01*
X113007932Y-86445094D01*
X113208314Y-86362298D01*
X113361759Y-86209121D01*
X113444905Y-86008883D01*
X113445094Y-85792068D01*
X113362298Y-85591686D01*
X113209121Y-85438241D01*
X113195000Y-85432377D01*
X113195000Y-80720000D01*
X113172544Y-80607108D01*
X113108597Y-80511403D01*
X113012892Y-80447456D01*
X112900000Y-80425000D01*
X107767799Y-80425000D01*
X107762298Y-80411686D01*
X107609121Y-80258241D01*
X107408883Y-80175095D01*
X107192068Y-80174906D01*
X106991686Y-80257702D01*
X106838241Y-80410879D01*
X106755095Y-80611117D01*
X106754906Y-80827932D01*
X105145000Y-80827932D01*
X105145000Y-79907932D01*
X105354906Y-79907932D01*
X105437702Y-80108314D01*
X105590879Y-80261759D01*
X105791117Y-80344905D01*
X106007932Y-80345094D01*
X106208314Y-80262298D01*
X106361759Y-80109121D01*
X106367623Y-80095000D01*
X116305000Y-80095000D01*
X116305000Y-85332201D01*
X116291686Y-85337702D01*
X116138241Y-85490879D01*
X116055095Y-85691117D01*
X116054906Y-85907932D01*
X116137702Y-86108314D01*
X116290879Y-86261759D01*
X116491117Y-86344905D01*
X116707932Y-86345094D01*
X116908314Y-86262298D01*
X117061759Y-86109121D01*
X117144905Y-85908883D01*
X117145094Y-85692068D01*
X117062298Y-85491686D01*
X116909121Y-85338241D01*
X116895000Y-85332377D01*
X116895000Y-79800000D01*
X116872544Y-79687108D01*
X116808597Y-79591403D01*
X116712892Y-79527456D01*
X116600000Y-79505000D01*
X106367799Y-79505000D01*
X106362298Y-79491686D01*
X106209121Y-79338241D01*
X106008883Y-79255095D01*
X105792068Y-79254906D01*
X105591686Y-79337702D01*
X105438241Y-79490879D01*
X105355095Y-79691117D01*
X105354906Y-79907932D01*
X105145000Y-79907932D01*
X105145000Y-77184399D01*
X109242888Y-77184399D01*
X109320588Y-77401621D01*
X109829101Y-77554846D01*
X110357542Y-77501807D01*
X110599412Y-77401621D01*
X110677112Y-77184399D01*
X109960000Y-76467286D01*
X109242888Y-77184399D01*
X105145000Y-77184399D01*
X105145000Y-76069101D01*
X108605154Y-76069101D01*
X108658193Y-76597542D01*
X108758379Y-76839412D01*
X108975601Y-76917112D01*
X109692714Y-76200000D01*
X110227286Y-76200000D01*
X110944399Y-76917112D01*
X111161621Y-76839412D01*
X111314846Y-76330899D01*
X111261807Y-75802458D01*
X111161621Y-75560588D01*
X110944399Y-75482888D01*
X110227286Y-76200000D01*
X109692714Y-76200000D01*
X108975601Y-75482888D01*
X108758379Y-75560588D01*
X108605154Y-76069101D01*
X105145000Y-76069101D01*
X105145000Y-75215601D01*
X109242888Y-75215601D01*
X109960000Y-75932714D01*
X110677112Y-75215601D01*
X110599412Y-74998379D01*
X110090899Y-74845154D01*
X109562458Y-74898193D01*
X109320588Y-74998379D01*
X109242888Y-75215601D01*
X105145000Y-75215601D01*
X105145000Y-71115625D01*
X105290879Y-71261759D01*
X105491117Y-71344905D01*
X105707932Y-71345094D01*
X105908314Y-71262298D01*
X105925642Y-71245000D01*
X112055000Y-71245000D01*
X112055000Y-75348395D01*
X111958611Y-75388222D01*
X111689168Y-75657195D01*
X111543166Y-76008806D01*
X111542834Y-76389524D01*
X111688222Y-76741389D01*
X111957195Y-77010832D01*
X112308806Y-77156834D01*
X112689524Y-77157166D01*
X113041389Y-77011778D01*
X113310832Y-76742805D01*
X113456834Y-76391194D01*
X113456835Y-76389524D01*
X114082834Y-76389524D01*
X114228222Y-76741389D01*
X114497195Y-77010832D01*
X114848806Y-77156834D01*
X115229524Y-77157166D01*
X115581389Y-77011778D01*
X115850832Y-76742805D01*
X115996834Y-76391194D01*
X115997166Y-76010476D01*
X115851778Y-75658611D01*
X115582805Y-75389168D01*
X115231194Y-75243166D01*
X114850476Y-75242834D01*
X114498611Y-75388222D01*
X114229168Y-75657195D01*
X114083166Y-76008806D01*
X114082834Y-76389524D01*
X113456835Y-76389524D01*
X113457166Y-76010476D01*
X113311778Y-75658611D01*
X113042805Y-75389168D01*
X112945000Y-75348556D01*
X112945000Y-72100000D01*
X118235000Y-72100000D01*
X118235000Y-81300000D01*
X118239445Y-81323625D01*
X118253407Y-81345323D01*
X118274711Y-81359879D01*
X118300000Y-81365000D01*
X123300000Y-81365000D01*
X123323625Y-81360555D01*
X123345323Y-81346593D01*
X123359879Y-81325289D01*
X123365000Y-81300000D01*
X123365000Y-72100000D01*
X123360555Y-72076375D01*
X123346593Y-72054677D01*
X123325289Y-72040121D01*
X123300000Y-72035000D01*
X118300000Y-72035000D01*
X118276375Y-72039445D01*
X118254677Y-72053407D01*
X118240121Y-72074711D01*
X118235000Y-72100000D01*
X112945000Y-72100000D01*
X112945000Y-70800000D01*
X112911126Y-70629706D01*
X112814663Y-70485337D01*
X112670294Y-70388874D01*
X112500000Y-70355000D01*
X105925851Y-70355000D01*
X105909121Y-70338241D01*
X105708883Y-70255095D01*
X105492068Y-70254906D01*
X105291686Y-70337702D01*
X105145000Y-70484132D01*
X105145000Y-69625851D01*
X105161759Y-69609121D01*
X105244905Y-69408883D01*
X105245094Y-69192068D01*
X105162298Y-68991686D01*
X105009121Y-68838241D01*
X104808883Y-68755095D01*
X104592068Y-68754906D01*
X104391686Y-68837702D01*
X104238241Y-68990879D01*
X104155095Y-69191117D01*
X104154906Y-69407932D01*
X104237702Y-69608314D01*
X104255000Y-69625642D01*
X104255000Y-71284200D01*
X104209121Y-71238241D01*
X104008883Y-71155095D01*
X103792068Y-71154906D01*
X103591686Y-71237702D01*
X103438241Y-71390879D01*
X103355095Y-71591117D01*
X103354906Y-71807932D01*
X103344905Y-71807932D01*
X103345094Y-71592068D01*
X103262298Y-71391686D01*
X103109121Y-71238241D01*
X102908883Y-71155095D01*
X102692068Y-71154906D01*
X102491686Y-71237702D01*
X102338241Y-71390879D01*
X102255095Y-71591117D01*
X102254906Y-71807932D01*
X80361188Y-71807932D01*
X80142805Y-71589168D01*
X79791194Y-71443166D01*
X79410476Y-71442834D01*
X79058611Y-71588222D01*
X78789168Y-71857195D01*
X78643166Y-72208806D01*
X78642834Y-72589524D01*
X75765000Y-72589524D01*
X75765000Y-70844399D01*
X78882888Y-70844399D01*
X78960588Y-71061621D01*
X79469101Y-71214846D01*
X79997542Y-71161807D01*
X80239412Y-71061621D01*
X80317112Y-70844399D01*
X79600000Y-70127286D01*
X78882888Y-70844399D01*
X75765000Y-70844399D01*
X75765000Y-69729101D01*
X78245154Y-69729101D01*
X78298193Y-70257542D01*
X78398379Y-70499412D01*
X78615601Y-70577112D01*
X79332714Y-69860000D01*
X79867286Y-69860000D01*
X80584399Y-70577112D01*
X80801621Y-70499412D01*
X80954846Y-69990899D01*
X80901807Y-69462458D01*
X80801621Y-69220588D01*
X80584399Y-69142888D01*
X79867286Y-69860000D01*
X79332714Y-69860000D01*
X78615601Y-69142888D01*
X78398379Y-69220588D01*
X78245154Y-69729101D01*
X75765000Y-69729101D01*
X75765000Y-68875601D01*
X78882888Y-68875601D01*
X79600000Y-69592714D01*
X80317112Y-68875601D01*
X80239412Y-68658379D01*
X79730899Y-68505154D01*
X79202458Y-68558193D01*
X78960588Y-68658379D01*
X78882888Y-68875601D01*
X75765000Y-68875601D01*
X75765000Y-66165000D01*
X123835000Y-66165000D01*
X123835000Y-113035000D01*
X123835000Y-113035000D01*
G37*
X123835000Y-113035000D02*
X75765000Y-113035000D01*
X75765000Y-110807932D01*
X108354906Y-110807932D01*
X108437702Y-111008314D01*
X108590879Y-111161759D01*
X108791117Y-111244905D01*
X109007932Y-111245094D01*
X109153371Y-111185000D01*
X115608395Y-111185000D01*
X115648222Y-111281389D01*
X115917195Y-111550832D01*
X116268806Y-111696834D01*
X116649524Y-111697166D01*
X117001389Y-111551778D01*
X117270832Y-111282805D01*
X117416834Y-110931194D01*
X117416835Y-110929524D01*
X118042834Y-110929524D01*
X118188222Y-111281389D01*
X118457195Y-111550832D01*
X118808806Y-111696834D01*
X119189524Y-111697166D01*
X119541389Y-111551778D01*
X119810832Y-111282805D01*
X119956834Y-110931194D01*
X119957166Y-110550476D01*
X119811778Y-110198611D01*
X119542805Y-109929168D01*
X119191194Y-109783166D01*
X118810476Y-109782834D01*
X118458611Y-109928222D01*
X118189168Y-110197195D01*
X118043166Y-110548806D01*
X118042834Y-110929524D01*
X117416835Y-110929524D01*
X117417166Y-110550476D01*
X117271778Y-110198611D01*
X117002805Y-109929168D01*
X116651194Y-109783166D01*
X116270476Y-109782834D01*
X115918611Y-109928222D01*
X115649168Y-110197195D01*
X115608556Y-110295000D01*
X109265781Y-110295000D01*
X109209121Y-110238241D01*
X109008883Y-110155095D01*
X108792068Y-110154906D01*
X108591686Y-110237702D01*
X108438241Y-110390879D01*
X108355095Y-110591117D01*
X108354906Y-110807932D01*
X75765000Y-110807932D01*
X75765000Y-107884399D01*
X86782888Y-107884399D01*
X86860588Y-108101621D01*
X87369101Y-108254846D01*
X87897542Y-108201807D01*
X88139412Y-108101621D01*
X88217112Y-107884399D01*
X87500000Y-107167286D01*
X86782888Y-107884399D01*
X75765000Y-107884399D01*
X75765000Y-106769101D01*
X86145154Y-106769101D01*
X86198193Y-107297542D01*
X86298379Y-107539412D01*
X86515601Y-107617112D01*
X87232714Y-106900000D01*
X87767286Y-106900000D01*
X88484399Y-107617112D01*
X88701621Y-107539412D01*
X88854846Y-107030899D01*
X88801807Y-106502458D01*
X88701621Y-106260588D01*
X88484399Y-106182888D01*
X87767286Y-106900000D01*
X87232714Y-106900000D01*
X86515601Y-106182888D01*
X86298379Y-106260588D01*
X86145154Y-106769101D01*
X75765000Y-106769101D01*
X75765000Y-105915601D01*
X86782888Y-105915601D01*
X87500000Y-106632714D01*
X88217112Y-105915601D01*
X88139412Y-105698379D01*
X87630899Y-105545154D01*
X87102458Y-105598193D01*
X86860588Y-105698379D01*
X86782888Y-105915601D01*
X75765000Y-105915601D01*
X75765000Y-100484399D01*
X81282888Y-100484399D01*
X81360588Y-100701621D01*
X81869101Y-100854846D01*
X82397542Y-100801807D01*
X82639412Y-100701621D01*
X82717112Y-100484399D01*
X82000000Y-99767286D01*
X81282888Y-100484399D01*
X75765000Y-100484399D01*
X75765000Y-99369101D01*
X80645154Y-99369101D01*
X80698193Y-99897542D01*
X80798379Y-100139412D01*
X81015601Y-100217112D01*
X81732714Y-99500000D01*
X82267286Y-99500000D01*
X82984399Y-100217112D01*
X83201621Y-100139412D01*
X83337181Y-99689524D01*
X83582834Y-99689524D01*
X83728222Y-100041389D01*
X83997195Y-100310832D01*
X84348806Y-100456834D01*
X84729524Y-100457166D01*
X85081389Y-100311778D01*
X85350832Y-100042805D01*
X85391444Y-99945000D01*
X85615674Y-99945000D01*
X94285335Y-108614660D01*
X94285337Y-108614663D01*
X94345706Y-108655000D01*
X94084325Y-108655000D01*
X92014663Y-106585337D01*
X91870294Y-106488874D01*
X91700000Y-106454999D01*
X91699995Y-106455000D01*
X90891605Y-106455000D01*
X90851778Y-106358611D01*
X90582805Y-106089168D01*
X90231194Y-105943166D01*
X89850476Y-105942834D01*
X89498611Y-106088222D01*
X89229168Y-106357195D01*
X89083166Y-106708806D01*
X89082834Y-107089524D01*
X89228222Y-107441389D01*
X89497195Y-107710832D01*
X89848806Y-107856834D01*
X90229524Y-107857166D01*
X90581389Y-107711778D01*
X90850832Y-107442805D01*
X90891444Y-107345000D01*
X91515674Y-107345000D01*
X93585335Y-109414660D01*
X93585337Y-109414663D01*
X93729706Y-109511126D01*
X93900000Y-109545001D01*
X93900005Y-109545000D01*
X100899995Y-109545000D01*
X100900000Y-109545001D01*
X101070294Y-109511126D01*
X101214663Y-109414663D01*
X101784252Y-108845073D01*
X101807932Y-108845094D01*
X102008314Y-108762298D01*
X102161759Y-108609121D01*
X102244905Y-108408883D01*
X102244926Y-108384400D01*
X104314660Y-106314665D01*
X104314663Y-106314663D01*
X104411126Y-106170294D01*
X104424114Y-106105000D01*
X104445001Y-106000000D01*
X104445000Y-105999995D01*
X104445000Y-104807932D01*
X105054906Y-104807932D01*
X105137702Y-105008314D01*
X105155000Y-105025642D01*
X105155000Y-107974149D01*
X105138241Y-107990879D01*
X105055095Y-108191117D01*
X105054906Y-108407932D01*
X105137702Y-108608314D01*
X105290879Y-108761759D01*
X105491117Y-108844905D01*
X105707932Y-108845094D01*
X105908314Y-108762298D01*
X106061759Y-108609121D01*
X106144905Y-108408883D01*
X106145094Y-108192068D01*
X106062298Y-107991686D01*
X106045000Y-107974358D01*
X106045000Y-106644399D01*
X115742888Y-106644399D01*
X115820588Y-106861621D01*
X116329101Y-107014846D01*
X116857542Y-106961807D01*
X117099412Y-106861621D01*
X117177112Y-106644399D01*
X116460000Y-105927286D01*
X115742888Y-106644399D01*
X106045000Y-106644399D01*
X106045000Y-105529101D01*
X115105154Y-105529101D01*
X115158193Y-106057542D01*
X115258379Y-106299412D01*
X115475601Y-106377112D01*
X116192714Y-105660000D01*
X116727286Y-105660000D01*
X117444399Y-106377112D01*
X117661621Y-106299412D01*
X117814846Y-105790899D01*
X117761807Y-105262458D01*
X117661621Y-105020588D01*
X117444399Y-104942888D01*
X116727286Y-105660000D01*
X116192714Y-105660000D01*
X115475601Y-104942888D01*
X115258379Y-105020588D01*
X115105154Y-105529101D01*
X106045000Y-105529101D01*
X106045000Y-105025851D01*
X106061759Y-105009121D01*
X106144905Y-104808883D01*
X106145021Y-104675601D01*
X115742888Y-104675601D01*
X116460000Y-105392714D01*
X117177112Y-104675601D01*
X117099412Y-104458379D01*
X116590899Y-104305154D01*
X116062458Y-104358193D01*
X115820588Y-104458379D01*
X115742888Y-104675601D01*
X106145021Y-104675601D01*
X106145094Y-104592068D01*
X106062298Y-104391686D01*
X105909121Y-104238241D01*
X105708883Y-104155095D01*
X105492068Y-104154906D01*
X105291686Y-104237702D01*
X105138241Y-104390879D01*
X105055095Y-104591117D01*
X105054906Y-104807932D01*
X104445000Y-104807932D01*
X104445000Y-102425851D01*
X104461759Y-102409121D01*
X104544905Y-102208883D01*
X104545094Y-101992068D01*
X104462298Y-101791686D01*
X104309121Y-101638241D01*
X104108883Y-101555095D01*
X103892068Y-101554906D01*
X103691686Y-101637702D01*
X103538241Y-101790879D01*
X103455095Y-101991117D01*
X103454906Y-102207932D01*
X103537702Y-102408314D01*
X103555000Y-102425642D01*
X103555000Y-105815675D01*
X101615747Y-107754927D01*
X101592068Y-107754906D01*
X101391686Y-107837702D01*
X101238241Y-107990879D01*
X101155095Y-108191117D01*
X101155074Y-108215601D01*
X100715674Y-108655000D01*
X98215800Y-108655000D01*
X98261759Y-108609121D01*
X98344905Y-108408883D01*
X98344926Y-108384400D01*
X102714660Y-104014665D01*
X102714663Y-104014663D01*
X102811126Y-103870294D01*
X102845000Y-103700000D01*
X102845000Y-102325851D01*
X102861759Y-102309121D01*
X102944905Y-102108883D01*
X102945094Y-101892068D01*
X102862298Y-101691686D01*
X102709121Y-101538241D01*
X102508883Y-101455095D01*
X102292068Y-101454906D01*
X102091686Y-101537702D01*
X101938241Y-101690879D01*
X101855095Y-101891117D01*
X101854906Y-102107932D01*
X101937702Y-102308314D01*
X101955000Y-102325642D01*
X101955000Y-103515675D01*
X97715747Y-107754927D01*
X97692068Y-107754906D01*
X97491686Y-107837702D01*
X97474358Y-107855000D01*
X94784325Y-107855000D01*
X92437258Y-105507932D01*
X93254906Y-105507932D01*
X93337702Y-105708314D01*
X93490879Y-105861759D01*
X93691117Y-105944905D01*
X93907932Y-105945094D01*
X94108314Y-105862298D01*
X94261759Y-105709121D01*
X94344905Y-105508883D01*
X94345094Y-105292068D01*
X94262298Y-105091686D01*
X94245000Y-105074358D01*
X94245000Y-101284326D01*
X94642699Y-100886626D01*
X97879150Y-100886626D01*
X97984792Y-101142299D01*
X98180235Y-101338083D01*
X98435724Y-101444172D01*
X98712363Y-101444413D01*
X98968036Y-101338771D01*
X99163820Y-101143328D01*
X99269909Y-100887839D01*
X99270150Y-100611200D01*
X99164508Y-100355527D01*
X98969065Y-100159743D01*
X98713576Y-100053654D01*
X98436937Y-100053413D01*
X98181264Y-100159055D01*
X97985480Y-100354498D01*
X97879391Y-100609987D01*
X97879150Y-100886626D01*
X94642699Y-100886626D01*
X95884252Y-99645073D01*
X95907932Y-99645094D01*
X96044174Y-99588800D01*
X97129850Y-99588800D01*
X97235492Y-99844473D01*
X97430935Y-100040257D01*
X97686424Y-100146346D01*
X97963063Y-100146587D01*
X98218736Y-100040945D01*
X98414520Y-99845502D01*
X98520609Y-99590013D01*
X98520850Y-99313374D01*
X98415208Y-99057701D01*
X98219765Y-98861917D01*
X97964276Y-98755828D01*
X97687637Y-98755587D01*
X97431964Y-98861229D01*
X97236180Y-99056672D01*
X97130091Y-99312161D01*
X97129850Y-99588800D01*
X96044174Y-99588800D01*
X96108314Y-99562298D01*
X96261759Y-99409121D01*
X96344905Y-99208883D01*
X96345094Y-98992068D01*
X96262298Y-98791686D01*
X96109121Y-98638241D01*
X95908883Y-98555095D01*
X95692068Y-98554906D01*
X95491686Y-98637702D01*
X95338241Y-98790879D01*
X95255095Y-98991117D01*
X95255074Y-99015601D01*
X93485337Y-100785337D01*
X93388874Y-100929706D01*
X93354999Y-101100000D01*
X93355000Y-101100005D01*
X93355000Y-105074149D01*
X93338241Y-105090879D01*
X93255095Y-105291117D01*
X93254906Y-105507932D01*
X92437258Y-105507932D01*
X86114663Y-99185337D01*
X85970294Y-99088874D01*
X85800000Y-99054999D01*
X85799995Y-99055000D01*
X85391605Y-99055000D01*
X85351778Y-98958611D01*
X85082805Y-98689168D01*
X84731194Y-98543166D01*
X84350476Y-98542834D01*
X83998611Y-98688222D01*
X83729168Y-98957195D01*
X83583166Y-99308806D01*
X83582834Y-99689524D01*
X83337181Y-99689524D01*
X83354846Y-99630899D01*
X83301807Y-99102458D01*
X83201621Y-98860588D01*
X82984399Y-98782888D01*
X82267286Y-99500000D01*
X81732714Y-99500000D01*
X81015601Y-98782888D01*
X80798379Y-98860588D01*
X80645154Y-99369101D01*
X75765000Y-99369101D01*
X75765000Y-98515601D01*
X81282888Y-98515601D01*
X82000000Y-99232714D01*
X82717112Y-98515601D01*
X82639412Y-98298379D01*
X82130899Y-98145154D01*
X81602458Y-98198193D01*
X81360588Y-98298379D01*
X81282888Y-98515601D01*
X75765000Y-98515601D01*
X75765000Y-94566755D01*
X82654802Y-94566755D01*
X82828750Y-94987743D01*
X83150563Y-95310118D01*
X83571246Y-95484801D01*
X84026755Y-95485198D01*
X84447743Y-95311250D01*
X84770118Y-94989437D01*
X84944801Y-94568754D01*
X84945198Y-94113245D01*
X84771250Y-93692257D01*
X84449437Y-93369882D01*
X84028754Y-93195199D01*
X83573245Y-93194802D01*
X83152257Y-93368750D01*
X82829882Y-93690563D01*
X82655199Y-94111246D01*
X82654802Y-94566755D01*
X75765000Y-94566755D01*
X75765000Y-90850000D01*
X82601180Y-90850000D01*
X82601180Y-92750000D01*
X82614777Y-92822263D01*
X82657484Y-92888631D01*
X82722648Y-92933156D01*
X82800000Y-92948820D01*
X84800000Y-92948820D01*
X84872263Y-92935223D01*
X84938631Y-92892516D01*
X84983156Y-92827352D01*
X84998820Y-92750000D01*
X84998820Y-92189524D01*
X88802834Y-92189524D01*
X88948222Y-92541389D01*
X89217195Y-92810832D01*
X89568806Y-92956834D01*
X89949524Y-92957166D01*
X90301389Y-92811778D01*
X90570832Y-92542805D01*
X90716834Y-92191194D01*
X90716835Y-92189524D01*
X91342834Y-92189524D01*
X91488222Y-92541389D01*
X91757195Y-92810832D01*
X92108806Y-92956834D01*
X92489524Y-92957166D01*
X92841389Y-92811778D01*
X93110832Y-92542805D01*
X93256834Y-92191194D01*
X93256835Y-92189524D01*
X93882834Y-92189524D01*
X94028222Y-92541389D01*
X94297195Y-92810832D01*
X94648806Y-92956834D01*
X95029524Y-92957166D01*
X95381389Y-92811778D01*
X95650832Y-92542805D01*
X95796834Y-92191194D01*
X95797166Y-91810476D01*
X95651778Y-91458611D01*
X95382805Y-91189168D01*
X95031194Y-91043166D01*
X94650476Y-91042834D01*
X94298611Y-91188222D01*
X94029168Y-91457195D01*
X93883166Y-91808806D01*
X93882834Y-92189524D01*
X93256835Y-92189524D01*
X93257166Y-91810476D01*
X93111778Y-91458611D01*
X92842805Y-91189168D01*
X92491194Y-91043166D01*
X92110476Y-91042834D01*
X91758611Y-91188222D01*
X91489168Y-91457195D01*
X91343166Y-91808806D01*
X91342834Y-92189524D01*
X90716835Y-92189524D01*
X90717166Y-91810476D01*
X90571778Y-91458611D01*
X90302805Y-91189168D01*
X89951194Y-91043166D01*
X89570476Y-91042834D01*
X89218611Y-91188222D01*
X88949168Y-91457195D01*
X88803166Y-91808806D01*
X88802834Y-92189524D01*
X84998820Y-92189524D01*
X84998820Y-90850000D01*
X84985223Y-90777737D01*
X84942516Y-90711369D01*
X84877352Y-90666844D01*
X84800000Y-90651180D01*
X82800000Y-90651180D01*
X82727737Y-90664777D01*
X82661369Y-90707484D01*
X82616844Y-90772648D01*
X82601180Y-90850000D01*
X75765000Y-90850000D01*
X75765000Y-88466755D01*
X83254802Y-88466755D01*
X83428750Y-88887743D01*
X83750563Y-89210118D01*
X84171246Y-89384801D01*
X84626755Y-89385198D01*
X85047743Y-89211250D01*
X85370118Y-88889437D01*
X85544801Y-88468754D01*
X85545198Y-88013245D01*
X85371250Y-87592257D01*
X85187247Y-87407932D01*
X96554906Y-87407932D01*
X96637702Y-87608314D01*
X96655000Y-87625642D01*
X96655000Y-95474149D01*
X96638241Y-95490879D01*
X96555095Y-95691117D01*
X96554906Y-95907932D01*
X96637702Y-96108314D01*
X96790879Y-96261759D01*
X96991117Y-96344905D01*
X97207932Y-96345094D01*
X97408314Y-96262298D01*
X97561759Y-96109121D01*
X97644905Y-95908883D01*
X97645094Y-95692068D01*
X97562298Y-95491686D01*
X97545000Y-95474358D01*
X97545000Y-93707932D01*
X104354906Y-93707932D01*
X104437702Y-93908314D01*
X104590879Y-94061759D01*
X104791117Y-94144905D01*
X104815600Y-94144926D01*
X114685337Y-104014663D01*
X114829706Y-104111126D01*
X115000000Y-104145001D01*
X115000005Y-104145000D01*
X118555000Y-104145000D01*
X118555000Y-104808395D01*
X118458611Y-104848222D01*
X118189168Y-105117195D01*
X118043166Y-105468806D01*
X118042834Y-105849524D01*
X118188222Y-106201389D01*
X118457195Y-106470832D01*
X118659894Y-106555000D01*
X117700000Y-106555000D01*
X117529706Y-106588874D01*
X117385337Y-106685337D01*
X117385335Y-106685340D01*
X116775777Y-107294898D01*
X116651194Y-107243166D01*
X116270476Y-107242834D01*
X115918611Y-107388222D01*
X115649168Y-107657195D01*
X115608556Y-107755000D01*
X113725676Y-107755000D01*
X113609121Y-107638241D01*
X113408883Y-107555095D01*
X113192068Y-107554906D01*
X112991686Y-107637702D01*
X112838241Y-107790879D01*
X112755095Y-107991117D01*
X112754906Y-108207932D01*
X112837702Y-108408314D01*
X112990879Y-108561759D01*
X113191117Y-108644905D01*
X113407932Y-108645094D01*
X113408159Y-108645000D01*
X115608395Y-108645000D01*
X115648222Y-108741389D01*
X115917195Y-109010832D01*
X116268806Y-109156834D01*
X116649524Y-109157166D01*
X117001389Y-109011778D01*
X117270832Y-108742805D01*
X117416834Y-108391194D01*
X117417166Y-108010476D01*
X117388420Y-107940906D01*
X117884325Y-107445000D01*
X118401734Y-107445000D01*
X118189168Y-107657195D01*
X118043166Y-108008806D01*
X118042834Y-108389524D01*
X118188222Y-108741389D01*
X118457195Y-109010832D01*
X118808806Y-109156834D01*
X119189524Y-109157166D01*
X119541389Y-109011778D01*
X119810832Y-108742805D01*
X119956834Y-108391194D01*
X119957166Y-108010476D01*
X119811778Y-107658611D01*
X119598540Y-107445000D01*
X122500000Y-107445000D01*
X122670294Y-107411126D01*
X122814663Y-107314663D01*
X122911126Y-107170294D01*
X122945000Y-107000000D01*
X122945000Y-100025851D01*
X122961759Y-100009121D01*
X123044905Y-99808883D01*
X123045094Y-99592068D01*
X122962298Y-99391686D01*
X122809121Y-99238241D01*
X122608883Y-99155095D01*
X122392068Y-99154906D01*
X122191686Y-99237702D01*
X122038241Y-99390879D01*
X121955095Y-99591117D01*
X121954906Y-99807932D01*
X122037702Y-100008314D01*
X122055000Y-100025642D01*
X122055000Y-106555000D01*
X119339977Y-106555000D01*
X119541389Y-106471778D01*
X119810832Y-106202805D01*
X119956834Y-105851194D01*
X119957166Y-105470476D01*
X119811778Y-105118611D01*
X119542805Y-104849168D01*
X119445000Y-104808556D01*
X119445000Y-103700000D01*
X119411126Y-103529706D01*
X119314663Y-103385337D01*
X119170294Y-103288874D01*
X119000000Y-103255000D01*
X115184326Y-103255000D01*
X109337258Y-97407932D01*
X111654906Y-97407932D01*
X111737702Y-97608314D01*
X111890879Y-97761759D01*
X112091117Y-97844905D01*
X112307932Y-97845094D01*
X112508314Y-97762298D01*
X112661759Y-97609121D01*
X112744905Y-97408883D01*
X112744926Y-97384400D01*
X114121393Y-96007932D01*
X119954906Y-96007932D01*
X120037702Y-96208314D01*
X120055000Y-96225642D01*
X120055000Y-102374149D01*
X120038241Y-102390879D01*
X119955095Y-102591117D01*
X119954906Y-102807932D01*
X120037702Y-103008314D01*
X120190879Y-103161759D01*
X120391117Y-103244905D01*
X120607932Y-103245094D01*
X120808314Y-103162298D01*
X120961759Y-103009121D01*
X121044905Y-102808883D01*
X121045094Y-102592068D01*
X120962298Y-102391686D01*
X120945000Y-102374358D01*
X120945000Y-96225851D01*
X120961759Y-96209121D01*
X121044905Y-96008883D01*
X121045094Y-95792068D01*
X120962298Y-95591686D01*
X120809121Y-95438241D01*
X120608883Y-95355095D01*
X120392068Y-95354906D01*
X120191686Y-95437702D01*
X120038241Y-95590879D01*
X119955095Y-95791117D01*
X119954906Y-96007932D01*
X114121393Y-96007932D01*
X115584325Y-94545000D01*
X118074149Y-94545000D01*
X118090879Y-94561759D01*
X118291117Y-94644905D01*
X118507932Y-94645094D01*
X118708314Y-94562298D01*
X118861759Y-94409121D01*
X118944905Y-94208883D01*
X118945094Y-93992068D01*
X118862298Y-93791686D01*
X118709121Y-93638241D01*
X118508883Y-93555095D01*
X118292068Y-93554906D01*
X118091686Y-93637702D01*
X118074358Y-93655000D01*
X115400000Y-93655000D01*
X115229706Y-93688874D01*
X115085337Y-93785337D01*
X115085335Y-93785340D01*
X112115747Y-96754927D01*
X112092068Y-96754906D01*
X111891686Y-96837702D01*
X111738241Y-96990879D01*
X111655095Y-97191117D01*
X111654906Y-97407932D01*
X109337258Y-97407932D01*
X105445073Y-93515747D01*
X105445079Y-93507932D01*
X106454906Y-93507932D01*
X106537702Y-93708314D01*
X106690879Y-93861759D01*
X106891117Y-93944905D01*
X107107932Y-93945094D01*
X107308314Y-93862298D01*
X107325642Y-93845000D01*
X112874149Y-93845000D01*
X112890879Y-93861759D01*
X113091117Y-93944905D01*
X113307932Y-93945094D01*
X113508314Y-93862298D01*
X113661759Y-93709121D01*
X113744905Y-93508883D01*
X113745094Y-93292068D01*
X113662298Y-93091686D01*
X113509121Y-92938241D01*
X113308883Y-92855095D01*
X113092068Y-92854906D01*
X112891686Y-92937702D01*
X112874358Y-92955000D01*
X107325851Y-92955000D01*
X107309121Y-92938241D01*
X107108883Y-92855095D01*
X106892068Y-92854906D01*
X106691686Y-92937702D01*
X106538241Y-93090879D01*
X106455095Y-93291117D01*
X106454906Y-93507932D01*
X105445079Y-93507932D01*
X105445094Y-93492068D01*
X105362298Y-93291686D01*
X105209121Y-93138241D01*
X105008883Y-93055095D01*
X104792068Y-93054906D01*
X104591686Y-93137702D01*
X104438241Y-93290879D01*
X104355095Y-93491117D01*
X104354906Y-93707932D01*
X97545000Y-93707932D01*
X97545000Y-87625851D01*
X97561759Y-87609121D01*
X97644905Y-87408883D01*
X97645094Y-87192068D01*
X97562298Y-86991686D01*
X97409121Y-86838241D01*
X97208883Y-86755095D01*
X96992068Y-86754906D01*
X96791686Y-86837702D01*
X96638241Y-86990879D01*
X96555095Y-87191117D01*
X96554906Y-87407932D01*
X85187247Y-87407932D01*
X85049437Y-87269882D01*
X84628754Y-87095199D01*
X84173245Y-87094802D01*
X83752257Y-87268750D01*
X83429882Y-87590563D01*
X83255199Y-88011246D01*
X83254802Y-88466755D01*
X75765000Y-88466755D01*
X75765000Y-84750000D01*
X83201180Y-84750000D01*
X83201180Y-86650000D01*
X83214777Y-86722263D01*
X83257484Y-86788631D01*
X83322648Y-86833156D01*
X83400000Y-86848820D01*
X85400000Y-86848820D01*
X85472263Y-86835223D01*
X85538631Y-86792516D01*
X85583156Y-86727352D01*
X85598820Y-86650000D01*
X85598820Y-84750000D01*
X85585223Y-84677737D01*
X85542516Y-84611369D01*
X85477352Y-84566844D01*
X85400000Y-84551180D01*
X83400000Y-84551180D01*
X83327737Y-84564777D01*
X83261369Y-84607484D01*
X83216844Y-84672648D01*
X83201180Y-84750000D01*
X75765000Y-84750000D01*
X75765000Y-77669524D01*
X78642834Y-77669524D01*
X78788222Y-78021389D01*
X79057195Y-78290832D01*
X79408806Y-78436834D01*
X79789524Y-78437166D01*
X80014770Y-78344096D01*
X81154927Y-79484252D01*
X81154906Y-79507932D01*
X81237702Y-79708314D01*
X81390879Y-79861759D01*
X81591117Y-79944905D01*
X81807932Y-79945094D01*
X82008314Y-79862298D01*
X82161759Y-79709121D01*
X82244905Y-79508883D01*
X82245094Y-79292068D01*
X82162298Y-79091686D01*
X82009121Y-78938241D01*
X81808883Y-78855095D01*
X81784399Y-78855074D01*
X80704326Y-77775000D01*
X90921995Y-77775000D01*
X90922000Y-77775001D01*
X91016161Y-77756270D01*
X91034892Y-77752544D01*
X91130597Y-77688597D01*
X91140594Y-77678599D01*
X91140597Y-77678597D01*
X91204544Y-77582892D01*
X91215065Y-77530000D01*
X91227001Y-77470000D01*
X91227000Y-77469995D01*
X91227000Y-74000799D01*
X91240314Y-73995298D01*
X91393759Y-73842121D01*
X91476905Y-73641883D01*
X91477094Y-73425068D01*
X91394298Y-73224686D01*
X91241121Y-73071241D01*
X91040883Y-72988095D01*
X90824068Y-72987906D01*
X90623686Y-73070702D01*
X90470241Y-73223879D01*
X90387095Y-73424117D01*
X90386906Y-73640932D01*
X90469702Y-73841314D01*
X90622879Y-73994759D01*
X90637000Y-74000623D01*
X90637000Y-77185000D01*
X80513584Y-77185000D01*
X80411778Y-76938611D01*
X80142805Y-76669168D01*
X79791194Y-76523166D01*
X79410476Y-76522834D01*
X79058611Y-76668222D01*
X78789168Y-76937195D01*
X78643166Y-77288806D01*
X78642834Y-77669524D01*
X75765000Y-77669524D01*
X75765000Y-75129524D01*
X78642834Y-75129524D01*
X78788222Y-75481389D01*
X79057195Y-75750832D01*
X79408806Y-75896834D01*
X79789524Y-75897166D01*
X80141389Y-75751778D01*
X80410832Y-75482805D01*
X80556834Y-75131194D01*
X80557166Y-74750476D01*
X80411778Y-74398611D01*
X80142805Y-74129168D01*
X79791194Y-73983166D01*
X79410476Y-73982834D01*
X79058611Y-74128222D01*
X78789168Y-74397195D01*
X78643166Y-74748806D01*
X78642834Y-75129524D01*
X75765000Y-75129524D01*
X75765000Y-72589524D01*
X78642834Y-72589524D01*
X78788222Y-72941389D01*
X79057195Y-73210832D01*
X79408806Y-73356834D01*
X79789524Y-73357166D01*
X80141389Y-73211778D01*
X80410832Y-72942805D01*
X80556834Y-72591194D01*
X80557166Y-72210476D01*
X80411778Y-71858611D01*
X80361188Y-71807932D01*
X102254906Y-71807932D01*
X102337702Y-72008314D01*
X102355000Y-72025642D01*
X102355000Y-87474149D01*
X102338241Y-87490879D01*
X102255095Y-87691117D01*
X102254906Y-87907932D01*
X102337702Y-88108314D01*
X102490879Y-88261759D01*
X102691117Y-88344905D01*
X102907932Y-88345094D01*
X103108314Y-88262298D01*
X103261759Y-88109121D01*
X103344905Y-87908883D01*
X103345094Y-87692068D01*
X103262298Y-87491686D01*
X103245000Y-87474358D01*
X103245000Y-72025851D01*
X103261759Y-72009121D01*
X103344905Y-71808883D01*
X103344905Y-71807932D01*
X103354906Y-71807932D01*
X103437702Y-72008314D01*
X103455000Y-72025642D01*
X103455000Y-86974149D01*
X103438241Y-86990879D01*
X103355095Y-87191117D01*
X103354906Y-87407932D01*
X103437702Y-87608314D01*
X103590879Y-87761759D01*
X103791117Y-87844905D01*
X104007932Y-87845094D01*
X104208314Y-87762298D01*
X104361759Y-87609121D01*
X104444905Y-87408883D01*
X104445094Y-87192068D01*
X104362298Y-86991686D01*
X104345000Y-86974358D01*
X104345000Y-82415800D01*
X104390879Y-82461759D01*
X104591117Y-82544905D01*
X104807932Y-82545094D01*
X105008314Y-82462298D01*
X105161759Y-82309121D01*
X105244905Y-82108883D01*
X105245094Y-81892068D01*
X105162298Y-81691686D01*
X105158551Y-81687932D01*
X108054906Y-81687932D01*
X108137702Y-81888314D01*
X108290879Y-82041759D01*
X108305000Y-82047623D01*
X108305000Y-85332201D01*
X108291686Y-85337702D01*
X108138241Y-85490879D01*
X108055095Y-85691117D01*
X108054906Y-85907932D01*
X108137702Y-86108314D01*
X108290879Y-86261759D01*
X108491117Y-86344905D01*
X108707932Y-86345094D01*
X108908314Y-86262298D01*
X109061759Y-86109121D01*
X109144905Y-85908883D01*
X109145094Y-85692068D01*
X109062298Y-85491686D01*
X108909121Y-85338241D01*
X108895000Y-85332377D01*
X108895000Y-82047799D01*
X108908314Y-82042298D01*
X109061759Y-81889121D01*
X109144905Y-81688883D01*
X109145094Y-81472068D01*
X109062298Y-81271686D01*
X108909121Y-81118241D01*
X108708883Y-81035095D01*
X108492068Y-81034906D01*
X108291686Y-81117702D01*
X108138241Y-81270879D01*
X108055095Y-81471117D01*
X108054906Y-81687932D01*
X105158551Y-81687932D01*
X105145000Y-81674358D01*
X105145000Y-80827932D01*
X106754906Y-80827932D01*
X106837702Y-81028314D01*
X106990879Y-81181759D01*
X107191117Y-81264905D01*
X107407932Y-81265094D01*
X107608314Y-81182298D01*
X107761759Y-81029121D01*
X107767623Y-81015000D01*
X112605000Y-81015000D01*
X112605000Y-85432201D01*
X112591686Y-85437702D01*
X112438241Y-85590879D01*
X112355095Y-85791117D01*
X112354906Y-86007932D01*
X112437702Y-86208314D01*
X112590879Y-86361759D01*
X112791117Y-86444905D01*
X113007932Y-86445094D01*
X113208314Y-86362298D01*
X113361759Y-86209121D01*
X113444905Y-86008883D01*
X113445094Y-85792068D01*
X113362298Y-85591686D01*
X113209121Y-85438241D01*
X113195000Y-85432377D01*
X113195000Y-80720000D01*
X113172544Y-80607108D01*
X113108597Y-80511403D01*
X113012892Y-80447456D01*
X112900000Y-80425000D01*
X107767799Y-80425000D01*
X107762298Y-80411686D01*
X107609121Y-80258241D01*
X107408883Y-80175095D01*
X107192068Y-80174906D01*
X106991686Y-80257702D01*
X106838241Y-80410879D01*
X106755095Y-80611117D01*
X106754906Y-80827932D01*
X105145000Y-80827932D01*
X105145000Y-79907932D01*
X105354906Y-79907932D01*
X105437702Y-80108314D01*
X105590879Y-80261759D01*
X105791117Y-80344905D01*
X106007932Y-80345094D01*
X106208314Y-80262298D01*
X106361759Y-80109121D01*
X106367623Y-80095000D01*
X116305000Y-80095000D01*
X116305000Y-85332201D01*
X116291686Y-85337702D01*
X116138241Y-85490879D01*
X116055095Y-85691117D01*
X116054906Y-85907932D01*
X116137702Y-86108314D01*
X116290879Y-86261759D01*
X116491117Y-86344905D01*
X116707932Y-86345094D01*
X116908314Y-86262298D01*
X117061759Y-86109121D01*
X117144905Y-85908883D01*
X117145094Y-85692068D01*
X117062298Y-85491686D01*
X116909121Y-85338241D01*
X116895000Y-85332377D01*
X116895000Y-79800000D01*
X116872544Y-79687108D01*
X116808597Y-79591403D01*
X116712892Y-79527456D01*
X116600000Y-79505000D01*
X106367799Y-79505000D01*
X106362298Y-79491686D01*
X106209121Y-79338241D01*
X106008883Y-79255095D01*
X105792068Y-79254906D01*
X105591686Y-79337702D01*
X105438241Y-79490879D01*
X105355095Y-79691117D01*
X105354906Y-79907932D01*
X105145000Y-79907932D01*
X105145000Y-77184399D01*
X109242888Y-77184399D01*
X109320588Y-77401621D01*
X109829101Y-77554846D01*
X110357542Y-77501807D01*
X110599412Y-77401621D01*
X110677112Y-77184399D01*
X109960000Y-76467286D01*
X109242888Y-77184399D01*
X105145000Y-77184399D01*
X105145000Y-76069101D01*
X108605154Y-76069101D01*
X108658193Y-76597542D01*
X108758379Y-76839412D01*
X108975601Y-76917112D01*
X109692714Y-76200000D01*
X110227286Y-76200000D01*
X110944399Y-76917112D01*
X111161621Y-76839412D01*
X111314846Y-76330899D01*
X111261807Y-75802458D01*
X111161621Y-75560588D01*
X110944399Y-75482888D01*
X110227286Y-76200000D01*
X109692714Y-76200000D01*
X108975601Y-75482888D01*
X108758379Y-75560588D01*
X108605154Y-76069101D01*
X105145000Y-76069101D01*
X105145000Y-75215601D01*
X109242888Y-75215601D01*
X109960000Y-75932714D01*
X110677112Y-75215601D01*
X110599412Y-74998379D01*
X110090899Y-74845154D01*
X109562458Y-74898193D01*
X109320588Y-74998379D01*
X109242888Y-75215601D01*
X105145000Y-75215601D01*
X105145000Y-71115625D01*
X105290879Y-71261759D01*
X105491117Y-71344905D01*
X105707932Y-71345094D01*
X105908314Y-71262298D01*
X105925642Y-71245000D01*
X112055000Y-71245000D01*
X112055000Y-75348395D01*
X111958611Y-75388222D01*
X111689168Y-75657195D01*
X111543166Y-76008806D01*
X111542834Y-76389524D01*
X111688222Y-76741389D01*
X111957195Y-77010832D01*
X112308806Y-77156834D01*
X112689524Y-77157166D01*
X113041389Y-77011778D01*
X113310832Y-76742805D01*
X113456834Y-76391194D01*
X113456835Y-76389524D01*
X114082834Y-76389524D01*
X114228222Y-76741389D01*
X114497195Y-77010832D01*
X114848806Y-77156834D01*
X115229524Y-77157166D01*
X115581389Y-77011778D01*
X115850832Y-76742805D01*
X115996834Y-76391194D01*
X115997166Y-76010476D01*
X115851778Y-75658611D01*
X115582805Y-75389168D01*
X115231194Y-75243166D01*
X114850476Y-75242834D01*
X114498611Y-75388222D01*
X114229168Y-75657195D01*
X114083166Y-76008806D01*
X114082834Y-76389524D01*
X113456835Y-76389524D01*
X113457166Y-76010476D01*
X113311778Y-75658611D01*
X113042805Y-75389168D01*
X112945000Y-75348556D01*
X112945000Y-72100000D01*
X118235000Y-72100000D01*
X118235000Y-81300000D01*
X118239445Y-81323625D01*
X118253407Y-81345323D01*
X118274711Y-81359879D01*
X118300000Y-81365000D01*
X123300000Y-81365000D01*
X123323625Y-81360555D01*
X123345323Y-81346593D01*
X123359879Y-81325289D01*
X123365000Y-81300000D01*
X123365000Y-72100000D01*
X123360555Y-72076375D01*
X123346593Y-72054677D01*
X123325289Y-72040121D01*
X123300000Y-72035000D01*
X118300000Y-72035000D01*
X118276375Y-72039445D01*
X118254677Y-72053407D01*
X118240121Y-72074711D01*
X118235000Y-72100000D01*
X112945000Y-72100000D01*
X112945000Y-70800000D01*
X112911126Y-70629706D01*
X112814663Y-70485337D01*
X112670294Y-70388874D01*
X112500000Y-70355000D01*
X105925851Y-70355000D01*
X105909121Y-70338241D01*
X105708883Y-70255095D01*
X105492068Y-70254906D01*
X105291686Y-70337702D01*
X105145000Y-70484132D01*
X105145000Y-69625851D01*
X105161759Y-69609121D01*
X105244905Y-69408883D01*
X105245094Y-69192068D01*
X105162298Y-68991686D01*
X105009121Y-68838241D01*
X104808883Y-68755095D01*
X104592068Y-68754906D01*
X104391686Y-68837702D01*
X104238241Y-68990879D01*
X104155095Y-69191117D01*
X104154906Y-69407932D01*
X104237702Y-69608314D01*
X104255000Y-69625642D01*
X104255000Y-71284200D01*
X104209121Y-71238241D01*
X104008883Y-71155095D01*
X103792068Y-71154906D01*
X103591686Y-71237702D01*
X103438241Y-71390879D01*
X103355095Y-71591117D01*
X103354906Y-71807932D01*
X103344905Y-71807932D01*
X103345094Y-71592068D01*
X103262298Y-71391686D01*
X103109121Y-71238241D01*
X102908883Y-71155095D01*
X102692068Y-71154906D01*
X102491686Y-71237702D01*
X102338241Y-71390879D01*
X102255095Y-71591117D01*
X102254906Y-71807932D01*
X80361188Y-71807932D01*
X80142805Y-71589168D01*
X79791194Y-71443166D01*
X79410476Y-71442834D01*
X79058611Y-71588222D01*
X78789168Y-71857195D01*
X78643166Y-72208806D01*
X78642834Y-72589524D01*
X75765000Y-72589524D01*
X75765000Y-70844399D01*
X78882888Y-70844399D01*
X78960588Y-71061621D01*
X79469101Y-71214846D01*
X79997542Y-71161807D01*
X80239412Y-71061621D01*
X80317112Y-70844399D01*
X79600000Y-70127286D01*
X78882888Y-70844399D01*
X75765000Y-70844399D01*
X75765000Y-69729101D01*
X78245154Y-69729101D01*
X78298193Y-70257542D01*
X78398379Y-70499412D01*
X78615601Y-70577112D01*
X79332714Y-69860000D01*
X79867286Y-69860000D01*
X80584399Y-70577112D01*
X80801621Y-70499412D01*
X80954846Y-69990899D01*
X80901807Y-69462458D01*
X80801621Y-69220588D01*
X80584399Y-69142888D01*
X79867286Y-69860000D01*
X79332714Y-69860000D01*
X78615601Y-69142888D01*
X78398379Y-69220588D01*
X78245154Y-69729101D01*
X75765000Y-69729101D01*
X75765000Y-68875601D01*
X78882888Y-68875601D01*
X79600000Y-69592714D01*
X80317112Y-68875601D01*
X80239412Y-68658379D01*
X79730899Y-68505154D01*
X79202458Y-68558193D01*
X78960588Y-68658379D01*
X78882888Y-68875601D01*
X75765000Y-68875601D01*
X75765000Y-66165000D01*
X123835000Y-66165000D01*
X123835000Y-113035000D01*
M02*
