G04 #@! TF.FileFunction,Soldermask,Top*
%FSLAX46Y46*%
G04 Gerber Fmt 4.6, Leading zero omitted, Abs format (unit mm)*
G04 Created by KiCad (PCBNEW 4.0.2-4+6225~38~ubuntu14.04.1-stable) date Sun 15 May 2016 11:33:32 BST*
%MOMM*%
G01*
G04 APERTURE LIST*
%ADD10C,0.100000*%
%ADD11C,0.150000*%
%ADD12R,1.250000X1.500000*%
%ADD13R,1.500000X1.250000*%
%ADD14R,2.000000X1.600000*%
%ADD15R,1.600200X2.999740*%
%ADD16C,1.524000*%
%ADD17R,2.000000X1.900000*%
%ADD18C,1.900000*%
%ADD19R,2.700000X0.250000*%
%ADD20R,2.000000X0.650000*%
%ADD21R,2.400000X0.550000*%
%ADD22R,0.550000X2.400000*%
%ADD23R,2.000000X0.600000*%
%ADD24R,1.500000X1.300000*%
%ADD25R,1.300000X1.500000*%
%ADD26C,1.000760*%
G04 APERTURE END LIST*
D10*
D11*
X75192000Y-113481000D02*
X75319000Y-113481000D01*
X75192000Y-65602000D02*
X75192000Y-113481000D01*
X124341000Y-65602000D02*
X75192000Y-65602000D01*
X124341000Y-113481000D02*
X124341000Y-65602000D01*
X75319000Y-113481000D02*
X124341000Y-113481000D01*
X80406666Y-109474000D02*
G75*
G03X80406666Y-109474000I-1666666J0D01*
G01*
X76240000Y-109474000D02*
X81240000Y-109474000D01*
X78740000Y-106974000D02*
X78740000Y-111974000D01*
X122062666Y-69342000D02*
G75*
G03X122062666Y-69342000I-1666666J0D01*
G01*
X117896000Y-69342000D02*
X122896000Y-69342000D01*
X120396000Y-66842000D02*
X120396000Y-71842000D01*
D12*
X88900000Y-74950000D03*
X88900000Y-72450000D03*
D13*
X91650000Y-69200000D03*
X94150000Y-69200000D03*
X95850000Y-97300000D03*
X93350000Y-97300000D03*
X117250000Y-89800000D03*
X119750000Y-89800000D03*
D14*
X93700000Y-86500000D03*
X89700000Y-86500000D03*
D15*
X99900000Y-83999640D03*
X99900000Y-79600360D03*
D12*
X83800000Y-79750000D03*
X83800000Y-82250000D03*
D16*
X119000000Y-108200000D03*
X119000000Y-110740000D03*
X119000000Y-105660000D03*
X116460000Y-105660000D03*
X116460000Y-108200000D03*
X116460000Y-110740000D03*
D17*
X83800000Y-91800000D03*
D18*
X83800000Y-94340000D03*
D17*
X84400000Y-85700000D03*
D18*
X84400000Y-88240000D03*
D19*
X99250000Y-74800000D03*
X99250000Y-74300000D03*
X99250000Y-73800000D03*
X99250000Y-73300000D03*
X99250000Y-72800000D03*
X93350000Y-72800000D03*
X93350000Y-73300000D03*
X93350000Y-73800000D03*
X93350000Y-74300000D03*
X93350000Y-74800000D03*
D20*
X114900000Y-93395000D03*
X114900000Y-94665000D03*
X114900000Y-95935000D03*
X114900000Y-97205000D03*
X122500000Y-97205000D03*
X122500000Y-95935000D03*
X122500000Y-94665000D03*
X122500000Y-93395000D03*
D21*
X100600000Y-92500000D03*
X100600000Y-93300000D03*
X100600000Y-94100000D03*
X100600000Y-94900000D03*
X100600000Y-95700000D03*
X100600000Y-96500000D03*
X100600000Y-97300000D03*
X100600000Y-98100000D03*
D22*
X102450000Y-99950000D03*
X103250000Y-99950000D03*
X104050000Y-99950000D03*
X104850000Y-99950000D03*
X105650000Y-99950000D03*
X106450000Y-99950000D03*
X107250000Y-99950000D03*
X108050000Y-99950000D03*
D21*
X109900000Y-98100000D03*
X109900000Y-97300000D03*
X109900000Y-96500000D03*
X109900000Y-95700000D03*
X109900000Y-94900000D03*
X109900000Y-94100000D03*
X109900000Y-93300000D03*
X109900000Y-92500000D03*
D22*
X108050000Y-90650000D03*
X107250000Y-90650000D03*
X106450000Y-90650000D03*
X105650000Y-90650000D03*
X104850000Y-90650000D03*
X104050000Y-90650000D03*
X103250000Y-90650000D03*
X102450000Y-90650000D03*
D23*
X94125000Y-83105000D03*
X94125000Y-81835000D03*
X94125000Y-80565000D03*
X94125000Y-79295000D03*
X88275000Y-79295000D03*
X88275000Y-80565000D03*
X88275000Y-81835000D03*
X88275000Y-83105000D03*
D16*
X79600000Y-69860000D03*
X79600000Y-72400000D03*
X79600000Y-74940000D03*
X79600000Y-77480000D03*
X94840000Y-92000000D03*
X92300000Y-92000000D03*
X89760000Y-92000000D03*
X109960000Y-76200000D03*
X112500000Y-76200000D03*
X115040000Y-76200000D03*
D24*
X85950000Y-75800000D03*
X83250000Y-75800000D03*
X85950000Y-71600000D03*
X83250000Y-71600000D03*
D25*
X78400000Y-91350000D03*
X78400000Y-88650000D03*
X78400000Y-85650000D03*
X78400000Y-82950000D03*
X99800000Y-105650000D03*
X99800000Y-108350000D03*
X96000000Y-105650000D03*
X96000000Y-108350000D03*
X118000000Y-83150000D03*
X118000000Y-85850000D03*
X103600000Y-105650000D03*
X103600000Y-108350000D03*
X114200000Y-83150000D03*
X114200000Y-85850000D03*
X110400000Y-83150000D03*
X110400000Y-85850000D03*
X106600000Y-83100000D03*
X106600000Y-85800000D03*
D16*
X87500000Y-106900000D03*
X90040000Y-106900000D03*
X82000000Y-99500000D03*
X84540000Y-99500000D03*
D26*
X98574650Y-100748913D03*
X97825350Y-99451087D03*
M02*
