%FSLAX45Y45*%
G04 Gerber Fmt 4.5, Leading zero omitted, Abs format (unit mm)*
G04 Created by KiCad (PCBNEW 4.0.2-4+6225~38~ubuntu14.04.1-stable) date Fri 13 May 2016 19:31:35 BST*
%MOMM*%
G01*
G04 APERTURE LIST*
%ADD10C,0.127000*%
%ADD11C,0.150000*%
%ADD12C,0.200000*%
%ADD13C,0.300000*%
G04 APERTURE END LIST*
D10*
D11*
X7519200Y-11348100D02*
X7531900Y-11348100D01*
X7519200Y-6560200D02*
X7519200Y-11348100D01*
X12434100Y-6560200D02*
X7519200Y-6560200D01*
X12434100Y-11348100D02*
X12434100Y-6560200D01*
X7531900Y-11348100D02*
X12434100Y-11348100D01*
D12*
X8145000Y-7915000D02*
X8195000Y-7965000D01*
X8195000Y-7915000D02*
X8145000Y-7965000D01*
X9068200Y-7328300D02*
X9118200Y-7378300D01*
X9118200Y-7328300D02*
X9068200Y-7378300D01*
X9355000Y-10515000D02*
X9405000Y-10565000D01*
X9405000Y-10515000D02*
X9355000Y-10565000D01*
X9555000Y-9885000D02*
X9605000Y-9935000D01*
X9605000Y-9885000D02*
X9555000Y-9935000D01*
X9685000Y-8705000D02*
X9735000Y-8755000D01*
X9735000Y-8705000D02*
X9685000Y-8755000D01*
X9685000Y-9555000D02*
X9735000Y-9605000D01*
X9735000Y-9555000D02*
X9685000Y-9605000D01*
X9755000Y-10805000D02*
X9805000Y-10855000D01*
X9805000Y-10805000D02*
X9755000Y-10855000D01*
X10145000Y-10805000D02*
X10195000Y-10855000D01*
X10195000Y-10805000D02*
X10145000Y-10855000D01*
X10215000Y-10175000D02*
X10265000Y-10225000D01*
X10265000Y-10175000D02*
X10215000Y-10225000D01*
X10255000Y-7145000D02*
X10305000Y-7195000D01*
X10305000Y-7145000D02*
X10255000Y-7195000D01*
X10255000Y-8755000D02*
X10305000Y-8805000D01*
X10305000Y-8755000D02*
X10255000Y-8805000D01*
X10365000Y-7145000D02*
X10415000Y-7195000D01*
X10415000Y-7145000D02*
X10365000Y-7195000D01*
X10365000Y-8705000D02*
X10415000Y-8755000D01*
X10415000Y-8705000D02*
X10365000Y-8755000D01*
X10375000Y-10185000D02*
X10425000Y-10235000D01*
X10425000Y-10185000D02*
X10375000Y-10235000D01*
X10445000Y-6905000D02*
X10495000Y-6955000D01*
X10495000Y-6905000D02*
X10445000Y-6955000D01*
X10445000Y-8175000D02*
X10495000Y-8225000D01*
X10495000Y-8175000D02*
X10445000Y-8225000D01*
X10465000Y-9335000D02*
X10515000Y-9385000D01*
X10515000Y-9335000D02*
X10465000Y-9385000D01*
X10535000Y-7055000D02*
X10585000Y-7105000D01*
X10585000Y-7055000D02*
X10535000Y-7105000D01*
X10535000Y-10445000D02*
X10585000Y-10495000D01*
X10585000Y-10445000D02*
X10535000Y-10495000D01*
X10535000Y-10805000D02*
X10585000Y-10855000D01*
X10585000Y-10805000D02*
X10535000Y-10855000D01*
X10565000Y-7955000D02*
X10615000Y-8005000D01*
X10615000Y-7955000D02*
X10565000Y-8005000D01*
X10675000Y-9315000D02*
X10725000Y-9365000D01*
X10725000Y-9315000D02*
X10675000Y-9365000D01*
X10705000Y-8047000D02*
X10755000Y-8097000D01*
X10755000Y-8047000D02*
X10705000Y-8097000D01*
X10835000Y-8133000D02*
X10885000Y-8183000D01*
X10885000Y-8133000D02*
X10835000Y-8183000D01*
X10835000Y-8555000D02*
X10885000Y-8605000D01*
X10885000Y-8555000D02*
X10835000Y-8605000D01*
X10865000Y-11045000D02*
X10915000Y-11095000D01*
X10915000Y-11045000D02*
X10865000Y-11095000D01*
X11195000Y-9705000D02*
X11245000Y-9755000D01*
X11245000Y-9705000D02*
X11195000Y-9755000D01*
X11265000Y-8565000D02*
X11315000Y-8615000D01*
X11315000Y-8565000D02*
X11265000Y-8615000D01*
X11295000Y-9315000D02*
X11345000Y-9365000D01*
X11345000Y-9315000D02*
X11295000Y-9365000D01*
X11305000Y-10785000D02*
X11355000Y-10835000D01*
X11355000Y-10785000D02*
X11305000Y-10835000D01*
X11635000Y-8555000D02*
X11685000Y-8605000D01*
X11685000Y-8555000D02*
X11635000Y-8605000D01*
X11815000Y-9385000D02*
X11865000Y-9435000D01*
X11865000Y-9385000D02*
X11815000Y-9435000D01*
X12025000Y-9565000D02*
X12075000Y-9615000D01*
X12075000Y-9565000D02*
X12025000Y-9615000D01*
X12025000Y-10245000D02*
X12075000Y-10295000D01*
X12075000Y-10245000D02*
X12025000Y-10295000D01*
X12225000Y-9945000D02*
X12275000Y-9995000D01*
X12275000Y-9945000D02*
X12225000Y-9995000D01*
X9812507Y-9945109D02*
G75*
G03X9812507Y-9945109I-29972J0D01*
G01*
X9887437Y-10074891D02*
G75*
G03X9887437Y-10074891I-29972J0D01*
G01*
X7960000Y-6947900D02*
X7960000Y-7024100D01*
X7921900Y-6986000D02*
X7998100Y-6986000D01*
X7960000Y-7201900D02*
X7960000Y-7278100D01*
X7921900Y-7240000D02*
X7998100Y-7240000D01*
X7960000Y-7455900D02*
X7960000Y-7532100D01*
X7921900Y-7494000D02*
X7998100Y-7494000D01*
X7960000Y-7709900D02*
X7960000Y-7786100D01*
X7921900Y-7748000D02*
X7998100Y-7748000D01*
X8200000Y-9911900D02*
X8200000Y-9988100D01*
X8161900Y-9950000D02*
X8238100Y-9950000D01*
X8454000Y-9911900D02*
X8454000Y-9988100D01*
X8415900Y-9950000D02*
X8492100Y-9950000D01*
X8750000Y-10651900D02*
X8750000Y-10728100D01*
X8711900Y-10690000D02*
X8788100Y-10690000D01*
X8976000Y-9161900D02*
X8976000Y-9238100D01*
X8937900Y-9200000D02*
X9014100Y-9200000D01*
X9004000Y-10651900D02*
X9004000Y-10728100D01*
X8965900Y-10690000D02*
X9042100Y-10690000D01*
X9230000Y-9161900D02*
X9230000Y-9238100D01*
X9191900Y-9200000D02*
X9268100Y-9200000D01*
X9484000Y-9161900D02*
X9484000Y-9238100D01*
X9445900Y-9200000D02*
X9522100Y-9200000D01*
X10996000Y-7581900D02*
X10996000Y-7658100D01*
X10957900Y-7620000D02*
X11034100Y-7620000D01*
X11250000Y-7581900D02*
X11250000Y-7658100D01*
X11211900Y-7620000D02*
X11288100Y-7620000D01*
X11504000Y-7581900D02*
X11504000Y-7658100D01*
X11465900Y-7620000D02*
X11542100Y-7620000D01*
X11646000Y-10527900D02*
X11646000Y-10604100D01*
X11607900Y-10566000D02*
X11684100Y-10566000D01*
X11646000Y-10781900D02*
X11646000Y-10858100D01*
X11607900Y-10820000D02*
X11684100Y-10820000D01*
X11646000Y-11035900D02*
X11646000Y-11112100D01*
X11607900Y-11074000D02*
X11684100Y-11074000D01*
X11900000Y-10527900D02*
X11900000Y-10604100D01*
X11861900Y-10566000D02*
X11938100Y-10566000D01*
X11900000Y-10781900D02*
X11900000Y-10858100D01*
X11861900Y-10820000D02*
X11938100Y-10820000D01*
X11900000Y-11035900D02*
X11900000Y-11112100D01*
X11861900Y-11074000D02*
X11938100Y-11074000D01*
X8415383Y-9215383D02*
X8415383Y-9144618D01*
X8344617Y-9144618D01*
X8344617Y-9215383D01*
X8415383Y-9215383D01*
X8415383Y-9469383D02*
X8415383Y-9398618D01*
X8344617Y-9398618D01*
X8344617Y-9469383D01*
X8415383Y-9469383D01*
X8475383Y-8605383D02*
X8475383Y-8534618D01*
X8404618Y-8534618D01*
X8404618Y-8605383D01*
X8475383Y-8605383D01*
X8475383Y-8859383D02*
X8475383Y-8788618D01*
X8404618Y-8788618D01*
X8404618Y-8859383D01*
X8475383Y-8859383D01*
D13*
X7783128Y-11821314D02*
X7783128Y-11521314D01*
X7854557Y-11521314D01*
X7897414Y-11535600D01*
X7925986Y-11564171D01*
X7940271Y-11592743D01*
X7954557Y-11649886D01*
X7954557Y-11692743D01*
X7940271Y-11749886D01*
X7925986Y-11778457D01*
X7897414Y-11807029D01*
X7854557Y-11821314D01*
X7783128Y-11821314D01*
X8083128Y-11821314D02*
X8083128Y-11621314D01*
X8083128Y-11678457D02*
X8097414Y-11649886D01*
X8111700Y-11635600D01*
X8140271Y-11621314D01*
X8168843Y-11621314D01*
X8268843Y-11821314D02*
X8268843Y-11621314D01*
X8268843Y-11521314D02*
X8254557Y-11535600D01*
X8268843Y-11549886D01*
X8283128Y-11535600D01*
X8268843Y-11521314D01*
X8268843Y-11549886D01*
X8454557Y-11821314D02*
X8425986Y-11807029D01*
X8411700Y-11778457D01*
X8411700Y-11521314D01*
X8611700Y-11821314D02*
X8583129Y-11807029D01*
X8568843Y-11778457D01*
X8568843Y-11521314D01*
X8954557Y-11821314D02*
X8954557Y-11521314D01*
X9054557Y-11735600D01*
X9154557Y-11521314D01*
X9154557Y-11821314D01*
X9425986Y-11821314D02*
X9425986Y-11664171D01*
X9411700Y-11635600D01*
X9383129Y-11621314D01*
X9325986Y-11621314D01*
X9297414Y-11635600D01*
X9425986Y-11807029D02*
X9397414Y-11821314D01*
X9325986Y-11821314D01*
X9297414Y-11807029D01*
X9283129Y-11778457D01*
X9283129Y-11749886D01*
X9297414Y-11721314D01*
X9325986Y-11707029D01*
X9397414Y-11707029D01*
X9425986Y-11692743D01*
X9568843Y-11621314D02*
X9568843Y-11921314D01*
X9568843Y-11635600D02*
X9597414Y-11621314D01*
X9654557Y-11621314D01*
X9683129Y-11635600D01*
X9697414Y-11649886D01*
X9711700Y-11678457D01*
X9711700Y-11764171D01*
X9697414Y-11792743D01*
X9683129Y-11807029D01*
X9654557Y-11821314D01*
X9597414Y-11821314D01*
X9568843Y-11807029D01*
X9840271Y-11792743D02*
X9854557Y-11807029D01*
X9840271Y-11821314D01*
X9825986Y-11807029D01*
X9840271Y-11792743D01*
X9840271Y-11821314D01*
X9840271Y-11635600D02*
X9854557Y-11649886D01*
X9840271Y-11664171D01*
X9825986Y-11649886D01*
X9840271Y-11635600D01*
X9840271Y-11664171D01*
X7461700Y-12290600D02*
X7511700Y-12340600D01*
X7511700Y-12290600D02*
X7461700Y-12340600D01*
X7840271Y-12151314D02*
X7868843Y-12151314D01*
X7897414Y-12165600D01*
X7911700Y-12179886D01*
X7925986Y-12208457D01*
X7940271Y-12265600D01*
X7940271Y-12337029D01*
X7925986Y-12394171D01*
X7911700Y-12422743D01*
X7897414Y-12437029D01*
X7868843Y-12451314D01*
X7840271Y-12451314D01*
X7811700Y-12437029D01*
X7797414Y-12422743D01*
X7783128Y-12394171D01*
X7768843Y-12337029D01*
X7768843Y-12265600D01*
X7783128Y-12208457D01*
X7797414Y-12179886D01*
X7811700Y-12165600D01*
X7840271Y-12151314D01*
X8068843Y-12422743D02*
X8083128Y-12437029D01*
X8068843Y-12451314D01*
X8054557Y-12437029D01*
X8068843Y-12422743D01*
X8068843Y-12451314D01*
X8354557Y-12151314D02*
X8211700Y-12151314D01*
X8197414Y-12294171D01*
X8211700Y-12279886D01*
X8240271Y-12265600D01*
X8311700Y-12265600D01*
X8340271Y-12279886D01*
X8354557Y-12294171D01*
X8368843Y-12322743D01*
X8368843Y-12394171D01*
X8354557Y-12422743D01*
X8340271Y-12437029D01*
X8311700Y-12451314D01*
X8240271Y-12451314D01*
X8211700Y-12437029D01*
X8197414Y-12422743D01*
X8554557Y-12151314D02*
X8583129Y-12151314D01*
X8611700Y-12165600D01*
X8625986Y-12179886D01*
X8640271Y-12208457D01*
X8654557Y-12265600D01*
X8654557Y-12337029D01*
X8640271Y-12394171D01*
X8625986Y-12422743D01*
X8611700Y-12437029D01*
X8583129Y-12451314D01*
X8554557Y-12451314D01*
X8525986Y-12437029D01*
X8511700Y-12422743D01*
X8497414Y-12394171D01*
X8483129Y-12337029D01*
X8483129Y-12265600D01*
X8497414Y-12208457D01*
X8511700Y-12179886D01*
X8525986Y-12165600D01*
X8554557Y-12151314D01*
X8783129Y-12451314D02*
X8783129Y-12251314D01*
X8783129Y-12279886D02*
X8797414Y-12265600D01*
X8825986Y-12251314D01*
X8868843Y-12251314D01*
X8897414Y-12265600D01*
X8911700Y-12294171D01*
X8911700Y-12451314D01*
X8911700Y-12294171D02*
X8925986Y-12265600D01*
X8954557Y-12251314D01*
X8997414Y-12251314D01*
X9025986Y-12265600D01*
X9040271Y-12294171D01*
X9040271Y-12451314D01*
X9183129Y-12451314D02*
X9183129Y-12251314D01*
X9183129Y-12279886D02*
X9197414Y-12265600D01*
X9225986Y-12251314D01*
X9268843Y-12251314D01*
X9297414Y-12265600D01*
X9311700Y-12294171D01*
X9311700Y-12451314D01*
X9311700Y-12294171D02*
X9325986Y-12265600D01*
X9354557Y-12251314D01*
X9397414Y-12251314D01*
X9425986Y-12265600D01*
X9440271Y-12294171D01*
X9440271Y-12451314D01*
X10025986Y-12137029D02*
X9768843Y-12522743D01*
X10411700Y-12151314D02*
X10440271Y-12151314D01*
X10468843Y-12165600D01*
X10483128Y-12179886D01*
X10497414Y-12208457D01*
X10511700Y-12265600D01*
X10511700Y-12337029D01*
X10497414Y-12394171D01*
X10483128Y-12422743D01*
X10468843Y-12437029D01*
X10440271Y-12451314D01*
X10411700Y-12451314D01*
X10383128Y-12437029D01*
X10368843Y-12422743D01*
X10354557Y-12394171D01*
X10340271Y-12337029D01*
X10340271Y-12265600D01*
X10354557Y-12208457D01*
X10368843Y-12179886D01*
X10383128Y-12165600D01*
X10411700Y-12151314D01*
X10640271Y-12422743D02*
X10654557Y-12437029D01*
X10640271Y-12451314D01*
X10625986Y-12437029D01*
X10640271Y-12422743D01*
X10640271Y-12451314D01*
X10840271Y-12151314D02*
X10868843Y-12151314D01*
X10897414Y-12165600D01*
X10911700Y-12179886D01*
X10925986Y-12208457D01*
X10940271Y-12265600D01*
X10940271Y-12337029D01*
X10925986Y-12394171D01*
X10911700Y-12422743D01*
X10897414Y-12437029D01*
X10868843Y-12451314D01*
X10840271Y-12451314D01*
X10811700Y-12437029D01*
X10797414Y-12422743D01*
X10783128Y-12394171D01*
X10768843Y-12337029D01*
X10768843Y-12265600D01*
X10783128Y-12208457D01*
X10797414Y-12179886D01*
X10811700Y-12165600D01*
X10840271Y-12151314D01*
X11054557Y-12179886D02*
X11068843Y-12165600D01*
X11097414Y-12151314D01*
X11168843Y-12151314D01*
X11197414Y-12165600D01*
X11211700Y-12179886D01*
X11225985Y-12208457D01*
X11225985Y-12237029D01*
X11211700Y-12279886D01*
X11040271Y-12451314D01*
X11225985Y-12451314D01*
X11411700Y-12151314D02*
X11440271Y-12151314D01*
X11468843Y-12165600D01*
X11483128Y-12179886D01*
X11497414Y-12208457D01*
X11511700Y-12265600D01*
X11511700Y-12337029D01*
X11497414Y-12394171D01*
X11483128Y-12422743D01*
X11468843Y-12437029D01*
X11440271Y-12451314D01*
X11411700Y-12451314D01*
X11383128Y-12437029D01*
X11368843Y-12422743D01*
X11354557Y-12394171D01*
X11340271Y-12337029D01*
X11340271Y-12265600D01*
X11354557Y-12208457D01*
X11368843Y-12179886D01*
X11383128Y-12165600D01*
X11411700Y-12151314D01*
X11625986Y-12151314D02*
X11625986Y-12208457D01*
X11740271Y-12151314D02*
X11740271Y-12208457D01*
X12183128Y-12565600D02*
X12168843Y-12551314D01*
X12140271Y-12508457D01*
X12125985Y-12479886D01*
X12111700Y-12437029D01*
X12097414Y-12365600D01*
X12097414Y-12308457D01*
X12111700Y-12237029D01*
X12125985Y-12194171D01*
X12140271Y-12165600D01*
X12168843Y-12122743D01*
X12183128Y-12108457D01*
X12268843Y-12151314D02*
X12454557Y-12151314D01*
X12354557Y-12265600D01*
X12397414Y-12265600D01*
X12425985Y-12279886D01*
X12440271Y-12294171D01*
X12454557Y-12322743D01*
X12454557Y-12394171D01*
X12440271Y-12422743D01*
X12425985Y-12437029D01*
X12397414Y-12451314D01*
X12311700Y-12451314D01*
X12283128Y-12437029D01*
X12268843Y-12422743D01*
X12725985Y-12151314D02*
X12583128Y-12151314D01*
X12568843Y-12294171D01*
X12583128Y-12279886D01*
X12611700Y-12265600D01*
X12683128Y-12265600D01*
X12711700Y-12279886D01*
X12725985Y-12294171D01*
X12740271Y-12322743D01*
X12740271Y-12394171D01*
X12725985Y-12422743D01*
X12711700Y-12437029D01*
X12683128Y-12451314D01*
X12611700Y-12451314D01*
X12583128Y-12437029D01*
X12568843Y-12422743D01*
X13097414Y-12451314D02*
X13097414Y-12151314D01*
X13225985Y-12451314D02*
X13225985Y-12294171D01*
X13211700Y-12265600D01*
X13183128Y-12251314D01*
X13140271Y-12251314D01*
X13111700Y-12265600D01*
X13097414Y-12279886D01*
X13411700Y-12451314D02*
X13383128Y-12437029D01*
X13368843Y-12422743D01*
X13354557Y-12394171D01*
X13354557Y-12308457D01*
X13368843Y-12279886D01*
X13383128Y-12265600D01*
X13411700Y-12251314D01*
X13454557Y-12251314D01*
X13483128Y-12265600D01*
X13497414Y-12279886D01*
X13511700Y-12308457D01*
X13511700Y-12394171D01*
X13497414Y-12422743D01*
X13483128Y-12437029D01*
X13454557Y-12451314D01*
X13411700Y-12451314D01*
X13683128Y-12451314D02*
X13654557Y-12437029D01*
X13640271Y-12408457D01*
X13640271Y-12151314D01*
X13911700Y-12437029D02*
X13883128Y-12451314D01*
X13825986Y-12451314D01*
X13797414Y-12437029D01*
X13783128Y-12408457D01*
X13783128Y-12294171D01*
X13797414Y-12265600D01*
X13825986Y-12251314D01*
X13883128Y-12251314D01*
X13911700Y-12265600D01*
X13925986Y-12294171D01*
X13925986Y-12322743D01*
X13783128Y-12351314D01*
X14040271Y-12437029D02*
X14068843Y-12451314D01*
X14125986Y-12451314D01*
X14154557Y-12437029D01*
X14168843Y-12408457D01*
X14168843Y-12394171D01*
X14154557Y-12365600D01*
X14125986Y-12351314D01*
X14083128Y-12351314D01*
X14054557Y-12337029D01*
X14040271Y-12308457D01*
X14040271Y-12294171D01*
X14054557Y-12265600D01*
X14083128Y-12251314D01*
X14125986Y-12251314D01*
X14154557Y-12265600D01*
X14268843Y-12565600D02*
X14283128Y-12551314D01*
X14311700Y-12508457D01*
X14325986Y-12479886D01*
X14340271Y-12437029D01*
X14354557Y-12365600D01*
X14354557Y-12308457D01*
X14340271Y-12237029D01*
X14325986Y-12194171D01*
X14311700Y-12165600D01*
X14283128Y-12122743D01*
X14268843Y-12108457D01*
X7511700Y-12711600D02*
G75*
G03X7511700Y-12711600I-29972J0D01*
G01*
X7840271Y-12547314D02*
X7868843Y-12547314D01*
X7897414Y-12561600D01*
X7911700Y-12575886D01*
X7925986Y-12604457D01*
X7940271Y-12661600D01*
X7940271Y-12733029D01*
X7925986Y-12790171D01*
X7911700Y-12818743D01*
X7897414Y-12833029D01*
X7868843Y-12847314D01*
X7840271Y-12847314D01*
X7811700Y-12833029D01*
X7797414Y-12818743D01*
X7783128Y-12790171D01*
X7768843Y-12733029D01*
X7768843Y-12661600D01*
X7783128Y-12604457D01*
X7797414Y-12575886D01*
X7811700Y-12561600D01*
X7840271Y-12547314D01*
X8068843Y-12818743D02*
X8083128Y-12833029D01*
X8068843Y-12847314D01*
X8054557Y-12833029D01*
X8068843Y-12818743D01*
X8068843Y-12847314D01*
X8340271Y-12547314D02*
X8283128Y-12547314D01*
X8254557Y-12561600D01*
X8240271Y-12575886D01*
X8211700Y-12618743D01*
X8197414Y-12675886D01*
X8197414Y-12790171D01*
X8211700Y-12818743D01*
X8225986Y-12833029D01*
X8254557Y-12847314D01*
X8311700Y-12847314D01*
X8340271Y-12833029D01*
X8354557Y-12818743D01*
X8368843Y-12790171D01*
X8368843Y-12718743D01*
X8354557Y-12690171D01*
X8340271Y-12675886D01*
X8311700Y-12661600D01*
X8254557Y-12661600D01*
X8225986Y-12675886D01*
X8211700Y-12690171D01*
X8197414Y-12718743D01*
X8554557Y-12547314D02*
X8583129Y-12547314D01*
X8611700Y-12561600D01*
X8625986Y-12575886D01*
X8640271Y-12604457D01*
X8654557Y-12661600D01*
X8654557Y-12733029D01*
X8640271Y-12790171D01*
X8625986Y-12818743D01*
X8611700Y-12833029D01*
X8583129Y-12847314D01*
X8554557Y-12847314D01*
X8525986Y-12833029D01*
X8511700Y-12818743D01*
X8497414Y-12790171D01*
X8483129Y-12733029D01*
X8483129Y-12661600D01*
X8497414Y-12604457D01*
X8511700Y-12575886D01*
X8525986Y-12561600D01*
X8554557Y-12547314D01*
X8783129Y-12847314D02*
X8783129Y-12647314D01*
X8783129Y-12675886D02*
X8797414Y-12661600D01*
X8825986Y-12647314D01*
X8868843Y-12647314D01*
X8897414Y-12661600D01*
X8911700Y-12690171D01*
X8911700Y-12847314D01*
X8911700Y-12690171D02*
X8925986Y-12661600D01*
X8954557Y-12647314D01*
X8997414Y-12647314D01*
X9025986Y-12661600D01*
X9040271Y-12690171D01*
X9040271Y-12847314D01*
X9183129Y-12847314D02*
X9183129Y-12647314D01*
X9183129Y-12675886D02*
X9197414Y-12661600D01*
X9225986Y-12647314D01*
X9268843Y-12647314D01*
X9297414Y-12661600D01*
X9311700Y-12690171D01*
X9311700Y-12847314D01*
X9311700Y-12690171D02*
X9325986Y-12661600D01*
X9354557Y-12647314D01*
X9397414Y-12647314D01*
X9425986Y-12661600D01*
X9440271Y-12690171D01*
X9440271Y-12847314D01*
X10025986Y-12533029D02*
X9768843Y-12918743D01*
X10411700Y-12547314D02*
X10440271Y-12547314D01*
X10468843Y-12561600D01*
X10483128Y-12575886D01*
X10497414Y-12604457D01*
X10511700Y-12661600D01*
X10511700Y-12733029D01*
X10497414Y-12790171D01*
X10483128Y-12818743D01*
X10468843Y-12833029D01*
X10440271Y-12847314D01*
X10411700Y-12847314D01*
X10383128Y-12833029D01*
X10368843Y-12818743D01*
X10354557Y-12790171D01*
X10340271Y-12733029D01*
X10340271Y-12661600D01*
X10354557Y-12604457D01*
X10368843Y-12575886D01*
X10383128Y-12561600D01*
X10411700Y-12547314D01*
X10640271Y-12818743D02*
X10654557Y-12833029D01*
X10640271Y-12847314D01*
X10625986Y-12833029D01*
X10640271Y-12818743D01*
X10640271Y-12847314D01*
X10840271Y-12547314D02*
X10868843Y-12547314D01*
X10897414Y-12561600D01*
X10911700Y-12575886D01*
X10925986Y-12604457D01*
X10940271Y-12661600D01*
X10940271Y-12733029D01*
X10925986Y-12790171D01*
X10911700Y-12818743D01*
X10897414Y-12833029D01*
X10868843Y-12847314D01*
X10840271Y-12847314D01*
X10811700Y-12833029D01*
X10797414Y-12818743D01*
X10783128Y-12790171D01*
X10768843Y-12733029D01*
X10768843Y-12661600D01*
X10783128Y-12604457D01*
X10797414Y-12575886D01*
X10811700Y-12561600D01*
X10840271Y-12547314D01*
X11054557Y-12575886D02*
X11068843Y-12561600D01*
X11097414Y-12547314D01*
X11168843Y-12547314D01*
X11197414Y-12561600D01*
X11211700Y-12575886D01*
X11225985Y-12604457D01*
X11225985Y-12633029D01*
X11211700Y-12675886D01*
X11040271Y-12847314D01*
X11225985Y-12847314D01*
X11483128Y-12647314D02*
X11483128Y-12847314D01*
X11411700Y-12533029D02*
X11340271Y-12747314D01*
X11525985Y-12747314D01*
X11625986Y-12547314D02*
X11625986Y-12604457D01*
X11740271Y-12547314D02*
X11740271Y-12604457D01*
X12183128Y-12961600D02*
X12168843Y-12947314D01*
X12140271Y-12904457D01*
X12125985Y-12875886D01*
X12111700Y-12833029D01*
X12097414Y-12761600D01*
X12097414Y-12704457D01*
X12111700Y-12633029D01*
X12125985Y-12590171D01*
X12140271Y-12561600D01*
X12168843Y-12518743D01*
X12183128Y-12504457D01*
X12283128Y-12575886D02*
X12297414Y-12561600D01*
X12325985Y-12547314D01*
X12397414Y-12547314D01*
X12425985Y-12561600D01*
X12440271Y-12575886D01*
X12454557Y-12604457D01*
X12454557Y-12633029D01*
X12440271Y-12675886D01*
X12268843Y-12847314D01*
X12454557Y-12847314D01*
X12811700Y-12847314D02*
X12811700Y-12547314D01*
X12940271Y-12847314D02*
X12940271Y-12690171D01*
X12925985Y-12661600D01*
X12897414Y-12647314D01*
X12854557Y-12647314D01*
X12825985Y-12661600D01*
X12811700Y-12675886D01*
X13125985Y-12847314D02*
X13097414Y-12833029D01*
X13083128Y-12818743D01*
X13068843Y-12790171D01*
X13068843Y-12704457D01*
X13083128Y-12675886D01*
X13097414Y-12661600D01*
X13125985Y-12647314D01*
X13168843Y-12647314D01*
X13197414Y-12661600D01*
X13211700Y-12675886D01*
X13225985Y-12704457D01*
X13225985Y-12790171D01*
X13211700Y-12818743D01*
X13197414Y-12833029D01*
X13168843Y-12847314D01*
X13125985Y-12847314D01*
X13397414Y-12847314D02*
X13368843Y-12833029D01*
X13354557Y-12804457D01*
X13354557Y-12547314D01*
X13625986Y-12833029D02*
X13597414Y-12847314D01*
X13540271Y-12847314D01*
X13511700Y-12833029D01*
X13497414Y-12804457D01*
X13497414Y-12690171D01*
X13511700Y-12661600D01*
X13540271Y-12647314D01*
X13597414Y-12647314D01*
X13625986Y-12661600D01*
X13640271Y-12690171D01*
X13640271Y-12718743D01*
X13497414Y-12747314D01*
X13754557Y-12833029D02*
X13783128Y-12847314D01*
X13840271Y-12847314D01*
X13868843Y-12833029D01*
X13883128Y-12804457D01*
X13883128Y-12790171D01*
X13868843Y-12761600D01*
X13840271Y-12747314D01*
X13797414Y-12747314D01*
X13768843Y-12733029D01*
X13754557Y-12704457D01*
X13754557Y-12690171D01*
X13768843Y-12661600D01*
X13797414Y-12647314D01*
X13840271Y-12647314D01*
X13868843Y-12661600D01*
X13983128Y-12961600D02*
X13997414Y-12947314D01*
X14025986Y-12904457D01*
X14040271Y-12875886D01*
X14054557Y-12833029D01*
X14068843Y-12761600D01*
X14068843Y-12704457D01*
X14054557Y-12633029D01*
X14040271Y-12590171D01*
X14025986Y-12561600D01*
X13997414Y-12518743D01*
X13983128Y-12504457D01*
X7473600Y-13069500D02*
X7473600Y-13145700D01*
X7435500Y-13107600D02*
X7511700Y-13107600D01*
X7840271Y-12943314D02*
X7868843Y-12943314D01*
X7897414Y-12957600D01*
X7911700Y-12971886D01*
X7925986Y-13000457D01*
X7940271Y-13057600D01*
X7940271Y-13129029D01*
X7925986Y-13186171D01*
X7911700Y-13214743D01*
X7897414Y-13229029D01*
X7868843Y-13243314D01*
X7840271Y-13243314D01*
X7811700Y-13229029D01*
X7797414Y-13214743D01*
X7783128Y-13186171D01*
X7768843Y-13129029D01*
X7768843Y-13057600D01*
X7783128Y-13000457D01*
X7797414Y-12971886D01*
X7811700Y-12957600D01*
X7840271Y-12943314D01*
X8068843Y-13214743D02*
X8083128Y-13229029D01*
X8068843Y-13243314D01*
X8054557Y-13229029D01*
X8068843Y-13214743D01*
X8068843Y-13243314D01*
X8183128Y-12943314D02*
X8383128Y-12943314D01*
X8254557Y-13243314D01*
X8625986Y-12943314D02*
X8568843Y-12943314D01*
X8540271Y-12957600D01*
X8525986Y-12971886D01*
X8497414Y-13014743D01*
X8483129Y-13071886D01*
X8483129Y-13186171D01*
X8497414Y-13214743D01*
X8511700Y-13229029D01*
X8540271Y-13243314D01*
X8597414Y-13243314D01*
X8625986Y-13229029D01*
X8640271Y-13214743D01*
X8654557Y-13186171D01*
X8654557Y-13114743D01*
X8640271Y-13086171D01*
X8625986Y-13071886D01*
X8597414Y-13057600D01*
X8540271Y-13057600D01*
X8511700Y-13071886D01*
X8497414Y-13086171D01*
X8483129Y-13114743D01*
X8783129Y-13243314D02*
X8783129Y-13043314D01*
X8783129Y-13071886D02*
X8797414Y-13057600D01*
X8825986Y-13043314D01*
X8868843Y-13043314D01*
X8897414Y-13057600D01*
X8911700Y-13086171D01*
X8911700Y-13243314D01*
X8911700Y-13086171D02*
X8925986Y-13057600D01*
X8954557Y-13043314D01*
X8997414Y-13043314D01*
X9025986Y-13057600D01*
X9040271Y-13086171D01*
X9040271Y-13243314D01*
X9183129Y-13243314D02*
X9183129Y-13043314D01*
X9183129Y-13071886D02*
X9197414Y-13057600D01*
X9225986Y-13043314D01*
X9268843Y-13043314D01*
X9297414Y-13057600D01*
X9311700Y-13086171D01*
X9311700Y-13243314D01*
X9311700Y-13086171D02*
X9325986Y-13057600D01*
X9354557Y-13043314D01*
X9397414Y-13043314D01*
X9425986Y-13057600D01*
X9440271Y-13086171D01*
X9440271Y-13243314D01*
X10025986Y-12929029D02*
X9768843Y-13314743D01*
X10411700Y-12943314D02*
X10440271Y-12943314D01*
X10468843Y-12957600D01*
X10483128Y-12971886D01*
X10497414Y-13000457D01*
X10511700Y-13057600D01*
X10511700Y-13129029D01*
X10497414Y-13186171D01*
X10483128Y-13214743D01*
X10468843Y-13229029D01*
X10440271Y-13243314D01*
X10411700Y-13243314D01*
X10383128Y-13229029D01*
X10368843Y-13214743D01*
X10354557Y-13186171D01*
X10340271Y-13129029D01*
X10340271Y-13057600D01*
X10354557Y-13000457D01*
X10368843Y-12971886D01*
X10383128Y-12957600D01*
X10411700Y-12943314D01*
X10640271Y-13214743D02*
X10654557Y-13229029D01*
X10640271Y-13243314D01*
X10625986Y-13229029D01*
X10640271Y-13214743D01*
X10640271Y-13243314D01*
X10840271Y-12943314D02*
X10868843Y-12943314D01*
X10897414Y-12957600D01*
X10911700Y-12971886D01*
X10925986Y-13000457D01*
X10940271Y-13057600D01*
X10940271Y-13129029D01*
X10925986Y-13186171D01*
X10911700Y-13214743D01*
X10897414Y-13229029D01*
X10868843Y-13243314D01*
X10840271Y-13243314D01*
X10811700Y-13229029D01*
X10797414Y-13214743D01*
X10783128Y-13186171D01*
X10768843Y-13129029D01*
X10768843Y-13057600D01*
X10783128Y-13000457D01*
X10797414Y-12971886D01*
X10811700Y-12957600D01*
X10840271Y-12943314D01*
X11040271Y-12943314D02*
X11225985Y-12943314D01*
X11125986Y-13057600D01*
X11168843Y-13057600D01*
X11197414Y-13071886D01*
X11211700Y-13086171D01*
X11225985Y-13114743D01*
X11225985Y-13186171D01*
X11211700Y-13214743D01*
X11197414Y-13229029D01*
X11168843Y-13243314D01*
X11083128Y-13243314D01*
X11054557Y-13229029D01*
X11040271Y-13214743D01*
X11411700Y-12943314D02*
X11440271Y-12943314D01*
X11468843Y-12957600D01*
X11483128Y-12971886D01*
X11497414Y-13000457D01*
X11511700Y-13057600D01*
X11511700Y-13129029D01*
X11497414Y-13186171D01*
X11483128Y-13214743D01*
X11468843Y-13229029D01*
X11440271Y-13243314D01*
X11411700Y-13243314D01*
X11383128Y-13229029D01*
X11368843Y-13214743D01*
X11354557Y-13186171D01*
X11340271Y-13129029D01*
X11340271Y-13057600D01*
X11354557Y-13000457D01*
X11368843Y-12971886D01*
X11383128Y-12957600D01*
X11411700Y-12943314D01*
X11625986Y-12943314D02*
X11625986Y-13000457D01*
X11740271Y-12943314D02*
X11740271Y-13000457D01*
X12183128Y-13357600D02*
X12168843Y-13343314D01*
X12140271Y-13300457D01*
X12125985Y-13271886D01*
X12111700Y-13229029D01*
X12097414Y-13157600D01*
X12097414Y-13100457D01*
X12111700Y-13029029D01*
X12125985Y-12986171D01*
X12140271Y-12957600D01*
X12168843Y-12914743D01*
X12183128Y-12900457D01*
X12283128Y-12971886D02*
X12297414Y-12957600D01*
X12325985Y-12943314D01*
X12397414Y-12943314D01*
X12425985Y-12957600D01*
X12440271Y-12971886D01*
X12454557Y-13000457D01*
X12454557Y-13029029D01*
X12440271Y-13071886D01*
X12268843Y-13243314D01*
X12454557Y-13243314D01*
X12640271Y-12943314D02*
X12668843Y-12943314D01*
X12697414Y-12957600D01*
X12711700Y-12971886D01*
X12725985Y-13000457D01*
X12740271Y-13057600D01*
X12740271Y-13129029D01*
X12725985Y-13186171D01*
X12711700Y-13214743D01*
X12697414Y-13229029D01*
X12668843Y-13243314D01*
X12640271Y-13243314D01*
X12611700Y-13229029D01*
X12597414Y-13214743D01*
X12583128Y-13186171D01*
X12568843Y-13129029D01*
X12568843Y-13057600D01*
X12583128Y-13000457D01*
X12597414Y-12971886D01*
X12611700Y-12957600D01*
X12640271Y-12943314D01*
X13097414Y-13243314D02*
X13097414Y-12943314D01*
X13225985Y-13243314D02*
X13225985Y-13086171D01*
X13211700Y-13057600D01*
X13183128Y-13043314D01*
X13140271Y-13043314D01*
X13111700Y-13057600D01*
X13097414Y-13071886D01*
X13411700Y-13243314D02*
X13383128Y-13229029D01*
X13368843Y-13214743D01*
X13354557Y-13186171D01*
X13354557Y-13100457D01*
X13368843Y-13071886D01*
X13383128Y-13057600D01*
X13411700Y-13043314D01*
X13454557Y-13043314D01*
X13483128Y-13057600D01*
X13497414Y-13071886D01*
X13511700Y-13100457D01*
X13511700Y-13186171D01*
X13497414Y-13214743D01*
X13483128Y-13229029D01*
X13454557Y-13243314D01*
X13411700Y-13243314D01*
X13683128Y-13243314D02*
X13654557Y-13229029D01*
X13640271Y-13200457D01*
X13640271Y-12943314D01*
X13911700Y-13229029D02*
X13883128Y-13243314D01*
X13825986Y-13243314D01*
X13797414Y-13229029D01*
X13783128Y-13200457D01*
X13783128Y-13086171D01*
X13797414Y-13057600D01*
X13825986Y-13043314D01*
X13883128Y-13043314D01*
X13911700Y-13057600D01*
X13925986Y-13086171D01*
X13925986Y-13114743D01*
X13783128Y-13143314D01*
X14040271Y-13229029D02*
X14068843Y-13243314D01*
X14125986Y-13243314D01*
X14154557Y-13229029D01*
X14168843Y-13200457D01*
X14168843Y-13186171D01*
X14154557Y-13157600D01*
X14125986Y-13143314D01*
X14083128Y-13143314D01*
X14054557Y-13129029D01*
X14040271Y-13100457D01*
X14040271Y-13086171D01*
X14054557Y-13057600D01*
X14083128Y-13043314D01*
X14125986Y-13043314D01*
X14154557Y-13057600D01*
X14268843Y-13357600D02*
X14283128Y-13343314D01*
X14311700Y-13300457D01*
X14325986Y-13271886D01*
X14340271Y-13229029D01*
X14354557Y-13157600D01*
X14354557Y-13100457D01*
X14340271Y-13029029D01*
X14325986Y-12986171D01*
X14311700Y-12957600D01*
X14283128Y-12914743D01*
X14268843Y-12900457D01*
X7497044Y-13538983D02*
X7497044Y-13468218D01*
X7426279Y-13468218D01*
X7426279Y-13538983D01*
X7497044Y-13538983D01*
X7940271Y-13639314D02*
X7768843Y-13639314D01*
X7854557Y-13639314D02*
X7854557Y-13339314D01*
X7825986Y-13382171D01*
X7797414Y-13410743D01*
X7768843Y-13425029D01*
X8068843Y-13610743D02*
X8083128Y-13625029D01*
X8068843Y-13639314D01*
X8054557Y-13625029D01*
X8068843Y-13610743D01*
X8068843Y-13639314D01*
X8268843Y-13339314D02*
X8297414Y-13339314D01*
X8325986Y-13353600D01*
X8340271Y-13367886D01*
X8354557Y-13396457D01*
X8368843Y-13453600D01*
X8368843Y-13525029D01*
X8354557Y-13582171D01*
X8340271Y-13610743D01*
X8325986Y-13625029D01*
X8297414Y-13639314D01*
X8268843Y-13639314D01*
X8240271Y-13625029D01*
X8225986Y-13610743D01*
X8211700Y-13582171D01*
X8197414Y-13525029D01*
X8197414Y-13453600D01*
X8211700Y-13396457D01*
X8225986Y-13367886D01*
X8240271Y-13353600D01*
X8268843Y-13339314D01*
X8554557Y-13339314D02*
X8583129Y-13339314D01*
X8611700Y-13353600D01*
X8625986Y-13367886D01*
X8640271Y-13396457D01*
X8654557Y-13453600D01*
X8654557Y-13525029D01*
X8640271Y-13582171D01*
X8625986Y-13610743D01*
X8611700Y-13625029D01*
X8583129Y-13639314D01*
X8554557Y-13639314D01*
X8525986Y-13625029D01*
X8511700Y-13610743D01*
X8497414Y-13582171D01*
X8483129Y-13525029D01*
X8483129Y-13453600D01*
X8497414Y-13396457D01*
X8511700Y-13367886D01*
X8525986Y-13353600D01*
X8554557Y-13339314D01*
X8783129Y-13639314D02*
X8783129Y-13439314D01*
X8783129Y-13467886D02*
X8797414Y-13453600D01*
X8825986Y-13439314D01*
X8868843Y-13439314D01*
X8897414Y-13453600D01*
X8911700Y-13482171D01*
X8911700Y-13639314D01*
X8911700Y-13482171D02*
X8925986Y-13453600D01*
X8954557Y-13439314D01*
X8997414Y-13439314D01*
X9025986Y-13453600D01*
X9040271Y-13482171D01*
X9040271Y-13639314D01*
X9183129Y-13639314D02*
X9183129Y-13439314D01*
X9183129Y-13467886D02*
X9197414Y-13453600D01*
X9225986Y-13439314D01*
X9268843Y-13439314D01*
X9297414Y-13453600D01*
X9311700Y-13482171D01*
X9311700Y-13639314D01*
X9311700Y-13482171D02*
X9325986Y-13453600D01*
X9354557Y-13439314D01*
X9397414Y-13439314D01*
X9425986Y-13453600D01*
X9440271Y-13482171D01*
X9440271Y-13639314D01*
X10025986Y-13325029D02*
X9768843Y-13710743D01*
X10411700Y-13339314D02*
X10440271Y-13339314D01*
X10468843Y-13353600D01*
X10483128Y-13367886D01*
X10497414Y-13396457D01*
X10511700Y-13453600D01*
X10511700Y-13525029D01*
X10497414Y-13582171D01*
X10483128Y-13610743D01*
X10468843Y-13625029D01*
X10440271Y-13639314D01*
X10411700Y-13639314D01*
X10383128Y-13625029D01*
X10368843Y-13610743D01*
X10354557Y-13582171D01*
X10340271Y-13525029D01*
X10340271Y-13453600D01*
X10354557Y-13396457D01*
X10368843Y-13367886D01*
X10383128Y-13353600D01*
X10411700Y-13339314D01*
X10640271Y-13610743D02*
X10654557Y-13625029D01*
X10640271Y-13639314D01*
X10625986Y-13625029D01*
X10640271Y-13610743D01*
X10640271Y-13639314D01*
X10840271Y-13339314D02*
X10868843Y-13339314D01*
X10897414Y-13353600D01*
X10911700Y-13367886D01*
X10925986Y-13396457D01*
X10940271Y-13453600D01*
X10940271Y-13525029D01*
X10925986Y-13582171D01*
X10911700Y-13610743D01*
X10897414Y-13625029D01*
X10868843Y-13639314D01*
X10840271Y-13639314D01*
X10811700Y-13625029D01*
X10797414Y-13610743D01*
X10783128Y-13582171D01*
X10768843Y-13525029D01*
X10768843Y-13453600D01*
X10783128Y-13396457D01*
X10797414Y-13367886D01*
X10811700Y-13353600D01*
X10840271Y-13339314D01*
X11040271Y-13339314D02*
X11225985Y-13339314D01*
X11125986Y-13453600D01*
X11168843Y-13453600D01*
X11197414Y-13467886D01*
X11211700Y-13482171D01*
X11225985Y-13510743D01*
X11225985Y-13582171D01*
X11211700Y-13610743D01*
X11197414Y-13625029D01*
X11168843Y-13639314D01*
X11083128Y-13639314D01*
X11054557Y-13625029D01*
X11040271Y-13610743D01*
X11368843Y-13639314D02*
X11425985Y-13639314D01*
X11454557Y-13625029D01*
X11468843Y-13610743D01*
X11497414Y-13567886D01*
X11511700Y-13510743D01*
X11511700Y-13396457D01*
X11497414Y-13367886D01*
X11483128Y-13353600D01*
X11454557Y-13339314D01*
X11397414Y-13339314D01*
X11368843Y-13353600D01*
X11354557Y-13367886D01*
X11340271Y-13396457D01*
X11340271Y-13467886D01*
X11354557Y-13496457D01*
X11368843Y-13510743D01*
X11397414Y-13525029D01*
X11454557Y-13525029D01*
X11483128Y-13510743D01*
X11497414Y-13496457D01*
X11511700Y-13467886D01*
X11625986Y-13339314D02*
X11625986Y-13396457D01*
X11740271Y-13339314D02*
X11740271Y-13396457D01*
X12183128Y-13753600D02*
X12168843Y-13739314D01*
X12140271Y-13696457D01*
X12125985Y-13667886D01*
X12111700Y-13625029D01*
X12097414Y-13553600D01*
X12097414Y-13496457D01*
X12111700Y-13425029D01*
X12125985Y-13382171D01*
X12140271Y-13353600D01*
X12168843Y-13310743D01*
X12183128Y-13296457D01*
X12425985Y-13439314D02*
X12425985Y-13639314D01*
X12354557Y-13325029D02*
X12283128Y-13539314D01*
X12468843Y-13539314D01*
X12811700Y-13639314D02*
X12811700Y-13339314D01*
X12940271Y-13639314D02*
X12940271Y-13482171D01*
X12925985Y-13453600D01*
X12897414Y-13439314D01*
X12854557Y-13439314D01*
X12825985Y-13453600D01*
X12811700Y-13467886D01*
X13125985Y-13639314D02*
X13097414Y-13625029D01*
X13083128Y-13610743D01*
X13068843Y-13582171D01*
X13068843Y-13496457D01*
X13083128Y-13467886D01*
X13097414Y-13453600D01*
X13125985Y-13439314D01*
X13168843Y-13439314D01*
X13197414Y-13453600D01*
X13211700Y-13467886D01*
X13225985Y-13496457D01*
X13225985Y-13582171D01*
X13211700Y-13610743D01*
X13197414Y-13625029D01*
X13168843Y-13639314D01*
X13125985Y-13639314D01*
X13397414Y-13639314D02*
X13368843Y-13625029D01*
X13354557Y-13596457D01*
X13354557Y-13339314D01*
X13625986Y-13625029D02*
X13597414Y-13639314D01*
X13540271Y-13639314D01*
X13511700Y-13625029D01*
X13497414Y-13596457D01*
X13497414Y-13482171D01*
X13511700Y-13453600D01*
X13540271Y-13439314D01*
X13597414Y-13439314D01*
X13625986Y-13453600D01*
X13640271Y-13482171D01*
X13640271Y-13510743D01*
X13497414Y-13539314D01*
X13754557Y-13625029D02*
X13783128Y-13639314D01*
X13840271Y-13639314D01*
X13868843Y-13625029D01*
X13883128Y-13596457D01*
X13883128Y-13582171D01*
X13868843Y-13553600D01*
X13840271Y-13539314D01*
X13797414Y-13539314D01*
X13768843Y-13525029D01*
X13754557Y-13496457D01*
X13754557Y-13482171D01*
X13768843Y-13453600D01*
X13797414Y-13439314D01*
X13840271Y-13439314D01*
X13868843Y-13453600D01*
X13983128Y-13753600D02*
X13997414Y-13739314D01*
X14025986Y-13696457D01*
X14040271Y-13667886D01*
X14054557Y-13625029D01*
X14068843Y-13553600D01*
X14068843Y-13496457D01*
X14054557Y-13425029D01*
X14040271Y-13382171D01*
X14025986Y-13353600D01*
X13997414Y-13310743D01*
X13983128Y-13296457D01*
M02*
