M48
;DRILL file {KiCad 4.0.2-4+6225~38~ubuntu14.04.1-stable} date Fri 13 May 2016 19:31:33 BST
;FORMAT={-:-/ absolute / metric / decimal}
FMAT,2
METRIC,TZ
T1C0.500
T2C0.599
T3C0.762
T4C1.001
%
G90
G05
M71
T1
X81.7Y-79.4
X90.932Y-73.533
X93.8Y-105.4
X95.8Y-99.1
X97.1Y-87.3
X97.1Y-95.8
X97.8Y-108.3
X101.7Y-108.3
X102.4Y-102.
X102.8Y-71.7
X102.8Y-87.8
X103.9Y-71.7
X103.9Y-87.3
X104.Y-102.1
X104.7Y-69.3
X104.7Y-82.
X104.9Y-93.6
X105.6Y-70.8
X105.6Y-104.7
X105.6Y-108.3
X105.9Y-79.8
X107.Y-93.4
X107.3Y-80.72
X108.6Y-81.58
X108.6Y-85.8
X108.9Y-110.7
X112.2Y-97.3
X112.9Y-85.9
X113.2Y-93.4
X113.3Y-108.1
X116.6Y-85.8
X118.4Y-94.1
X120.5Y-95.9
X120.5Y-102.7
X122.5Y-99.7
T2
X97.825Y-99.451
X98.575Y-100.749
T3
X79.6Y-69.86
X79.6Y-72.4
X79.6Y-74.94
X79.6Y-77.48
X82.Y-99.5
X84.54Y-99.5
X87.5Y-106.9
X89.76Y-92.
X90.04Y-106.9
X92.3Y-92.
X94.84Y-92.
X109.96Y-76.2
X112.5Y-76.2
X115.04Y-76.2
X116.46Y-105.66
X116.46Y-108.2
X116.46Y-110.74
X119.Y-105.66
X119.Y-108.2
X119.Y-110.74
T4
X83.8Y-91.8
X83.8Y-94.34
X84.4Y-85.7
X84.4Y-88.24
T0
M30
