G04 #@! TF.FileFunction,Copper,L2,Bot,Signal*
%FSLAX46Y46*%
G04 Gerber Fmt 4.6, Leading zero omitted, Abs format (unit mm)*
G04 Created by KiCad (PCBNEW 4.1.0-alpha+201606030946+6874~45~ubuntu14.04.1-product) date Sun Jul  3 18:53:08 2016*
%MOMM*%
%LPD*%
G01*
G04 APERTURE LIST*
%ADD10C,0.100000*%
%ADD11C,0.150000*%
%ADD12C,0.300000*%
%ADD13C,0.400000*%
%ADD14C,1.300000*%
%ADD15C,1.524000*%
%ADD16R,1.900000X2.000000*%
%ADD17C,1.900000*%
%ADD18R,3.200000X2.700000*%
%ADD19C,1.000760*%
%ADD20C,0.700000*%
%ADD21C,0.250000*%
%ADD22C,0.550000*%
%ADD23C,1.500000*%
%ADD24C,0.130000*%
G04 APERTURE END LIST*
D10*
D11*
X177002200Y-166007200D02*
X177002200Y-198007200D01*
X285002200Y-198007200D01*
X285002200Y-166007200D01*
X177002200Y-166007200D01*
D10*
D11*
X10000000Y-10000000D02*
X10000000Y-200007200D01*
X287002200Y-200007200D01*
X287002200Y-10000000D01*
X10000000Y-10000000D01*
D10*
D11*
X12000000Y-12000000D02*
X12000000Y-198007200D01*
X285002200Y-198007200D01*
X285002200Y-12000000D01*
X12000000Y-12000000D01*
D10*
D11*
X60000000Y-12000000D02*
X60000000Y-10000000D01*
D10*
D11*
X110000000Y-12000000D02*
X110000000Y-10000000D01*
D10*
D11*
X160000000Y-12000000D02*
X160000000Y-10000000D01*
D10*
D11*
X210000000Y-12000000D02*
X210000000Y-10000000D01*
D10*
D11*
X260000000Y-12000000D02*
X260000000Y-10000000D01*
D10*
D11*
X36065476Y-11588095D02*
X35322619Y-11588095D01*
X35694047Y-11588095D02*
X35694047Y-10288095D01*
X35570238Y-10473809D01*
X35446428Y-10597619D01*
X35322619Y-10659523D01*
D10*
D11*
X85322619Y-10411904D02*
X85384523Y-10350000D01*
X85508333Y-10288095D01*
X85817857Y-10288095D01*
X85941666Y-10350000D01*
X86003571Y-10411904D01*
X86065476Y-10535714D01*
X86065476Y-10659523D01*
X86003571Y-10845238D01*
X85260714Y-11588095D01*
X86065476Y-11588095D01*
D10*
D11*
X135260714Y-10288095D02*
X136065476Y-10288095D01*
X135632142Y-10783333D01*
X135817857Y-10783333D01*
X135941666Y-10845238D01*
X136003571Y-10907142D01*
X136065476Y-11030952D01*
X136065476Y-11340476D01*
X136003571Y-11464285D01*
X135941666Y-11526190D01*
X135817857Y-11588095D01*
X135446428Y-11588095D01*
X135322619Y-11526190D01*
X135260714Y-11464285D01*
D10*
D11*
X185941666Y-10721428D02*
X185941666Y-11588095D01*
X185632142Y-10226190D02*
X185322619Y-11154761D01*
X186127380Y-11154761D01*
D10*
D11*
X236003571Y-10288095D02*
X235384523Y-10288095D01*
X235322619Y-10907142D01*
X235384523Y-10845238D01*
X235508333Y-10783333D01*
X235817857Y-10783333D01*
X235941666Y-10845238D01*
X236003571Y-10907142D01*
X236065476Y-11030952D01*
X236065476Y-11340476D01*
X236003571Y-11464285D01*
X235941666Y-11526190D01*
X235817857Y-11588095D01*
X235508333Y-11588095D01*
X235384523Y-11526190D01*
X235322619Y-11464285D01*
D10*
D11*
X285941666Y-10288095D02*
X285694047Y-10288095D01*
X285570238Y-10350000D01*
X285508333Y-10411904D01*
X285384523Y-10597619D01*
X285322619Y-10845238D01*
X285322619Y-11340476D01*
X285384523Y-11464285D01*
X285446428Y-11526190D01*
X285570238Y-11588095D01*
X285817857Y-11588095D01*
X285941666Y-11526190D01*
X286003571Y-11464285D01*
X286065476Y-11340476D01*
X286065476Y-11030952D01*
X286003571Y-10907142D01*
X285941666Y-10845238D01*
X285817857Y-10783333D01*
X285570238Y-10783333D01*
X285446428Y-10845238D01*
X285384523Y-10907142D01*
X285322619Y-11030952D01*
D10*
D11*
X60000000Y-198007200D02*
X60000000Y-200007200D01*
D10*
D11*
X110000000Y-198007200D02*
X110000000Y-200007200D01*
D10*
D11*
X160000000Y-198007200D02*
X160000000Y-200007200D01*
D10*
D11*
X210000000Y-198007200D02*
X210000000Y-200007200D01*
D10*
D11*
X260000000Y-198007200D02*
X260000000Y-200007200D01*
D10*
D11*
X36065476Y-199595295D02*
X35322619Y-199595295D01*
X35694047Y-199595295D02*
X35694047Y-198295295D01*
X35570238Y-198481009D01*
X35446428Y-198604819D01*
X35322619Y-198666723D01*
D10*
D11*
X85322619Y-198419104D02*
X85384523Y-198357200D01*
X85508333Y-198295295D01*
X85817857Y-198295295D01*
X85941666Y-198357200D01*
X86003571Y-198419104D01*
X86065476Y-198542914D01*
X86065476Y-198666723D01*
X86003571Y-198852438D01*
X85260714Y-199595295D01*
X86065476Y-199595295D01*
D10*
D11*
X135260714Y-198295295D02*
X136065476Y-198295295D01*
X135632142Y-198790533D01*
X135817857Y-198790533D01*
X135941666Y-198852438D01*
X136003571Y-198914342D01*
X136065476Y-199038152D01*
X136065476Y-199347676D01*
X136003571Y-199471485D01*
X135941666Y-199533390D01*
X135817857Y-199595295D01*
X135446428Y-199595295D01*
X135322619Y-199533390D01*
X135260714Y-199471485D01*
D10*
D11*
X185941666Y-198728628D02*
X185941666Y-199595295D01*
X185632142Y-198233390D02*
X185322619Y-199161961D01*
X186127380Y-199161961D01*
D10*
D11*
X236003571Y-198295295D02*
X235384523Y-198295295D01*
X235322619Y-198914342D01*
X235384523Y-198852438D01*
X235508333Y-198790533D01*
X235817857Y-198790533D01*
X235941666Y-198852438D01*
X236003571Y-198914342D01*
X236065476Y-199038152D01*
X236065476Y-199347676D01*
X236003571Y-199471485D01*
X235941666Y-199533390D01*
X235817857Y-199595295D01*
X235508333Y-199595295D01*
X235384523Y-199533390D01*
X235322619Y-199471485D01*
D10*
D11*
X285941666Y-198295295D02*
X285694047Y-198295295D01*
X285570238Y-198357200D01*
X285508333Y-198419104D01*
X285384523Y-198604819D01*
X285322619Y-198852438D01*
X285322619Y-199347676D01*
X285384523Y-199471485D01*
X285446428Y-199533390D01*
X285570238Y-199595295D01*
X285817857Y-199595295D01*
X285941666Y-199533390D01*
X286003571Y-199471485D01*
X286065476Y-199347676D01*
X286065476Y-199038152D01*
X286003571Y-198914342D01*
X285941666Y-198852438D01*
X285817857Y-198790533D01*
X285570238Y-198790533D01*
X285446428Y-198852438D01*
X285384523Y-198914342D01*
X285322619Y-199038152D01*
D10*
D11*
X10000000Y-60000000D02*
X12000000Y-60000000D01*
D10*
D11*
X10000000Y-110000000D02*
X12000000Y-110000000D01*
D10*
D11*
X10000000Y-160000000D02*
X12000000Y-160000000D01*
D10*
D11*
X10690476Y-35216666D02*
X11309523Y-35216666D01*
X10566666Y-35588095D02*
X11000000Y-34288095D01*
X11433333Y-35588095D01*
D10*
D11*
X11092857Y-84907142D02*
X11278571Y-84969047D01*
X11340476Y-85030952D01*
X11402380Y-85154761D01*
X11402380Y-85340476D01*
X11340476Y-85464285D01*
X11278571Y-85526190D01*
X11154761Y-85588095D01*
X10659523Y-85588095D01*
X10659523Y-84288095D01*
X11092857Y-84288095D01*
X11216666Y-84350000D01*
X11278571Y-84411904D01*
X11340476Y-84535714D01*
X11340476Y-84659523D01*
X11278571Y-84783333D01*
X11216666Y-84845238D01*
X11092857Y-84907142D01*
X10659523Y-84907142D01*
D10*
D11*
X11402380Y-135464285D02*
X11340476Y-135526190D01*
X11154761Y-135588095D01*
X11030952Y-135588095D01*
X10845238Y-135526190D01*
X10721428Y-135402380D01*
X10659523Y-135278571D01*
X10597619Y-135030952D01*
X10597619Y-134845238D01*
X10659523Y-134597619D01*
X10721428Y-134473809D01*
X10845238Y-134350000D01*
X11030952Y-134288095D01*
X11154761Y-134288095D01*
X11340476Y-134350000D01*
X11402380Y-134411904D01*
D10*
D11*
X10659523Y-185588095D02*
X10659523Y-184288095D01*
X10969047Y-184288095D01*
X11154761Y-184350000D01*
X11278571Y-184473809D01*
X11340476Y-184597619D01*
X11402380Y-184845238D01*
X11402380Y-185030952D01*
X11340476Y-185278571D01*
X11278571Y-185402380D01*
X11154761Y-185526190D01*
X10969047Y-185588095D01*
X10659523Y-185588095D01*
D10*
D11*
X287002200Y-60000000D02*
X285002200Y-60000000D01*
D10*
D11*
X287002200Y-110000000D02*
X285002200Y-110000000D01*
D10*
D11*
X287002200Y-160000000D02*
X285002200Y-160000000D01*
D10*
D11*
X285692676Y-35216666D02*
X286311723Y-35216666D01*
X285568866Y-35588095D02*
X286002200Y-34288095D01*
X286435533Y-35588095D01*
D10*
D11*
X286095057Y-84907142D02*
X286280771Y-84969047D01*
X286342676Y-85030952D01*
X286404580Y-85154761D01*
X286404580Y-85340476D01*
X286342676Y-85464285D01*
X286280771Y-85526190D01*
X286156961Y-85588095D01*
X285661723Y-85588095D01*
X285661723Y-84288095D01*
X286095057Y-84288095D01*
X286218866Y-84350000D01*
X286280771Y-84411904D01*
X286342676Y-84535714D01*
X286342676Y-84659523D01*
X286280771Y-84783333D01*
X286218866Y-84845238D01*
X286095057Y-84907142D01*
X285661723Y-84907142D01*
D10*
D11*
X286404580Y-135464285D02*
X286342676Y-135526190D01*
X286156961Y-135588095D01*
X286033152Y-135588095D01*
X285847438Y-135526190D01*
X285723628Y-135402380D01*
X285661723Y-135278571D01*
X285599819Y-135030952D01*
X285599819Y-134845238D01*
X285661723Y-134597619D01*
X285723628Y-134473809D01*
X285847438Y-134350000D01*
X286033152Y-134288095D01*
X286156961Y-134288095D01*
X286342676Y-134350000D01*
X286404580Y-134411904D01*
D10*
D11*
X285661723Y-185588095D02*
X285661723Y-184288095D01*
X285971247Y-184288095D01*
X286156961Y-184350000D01*
X286280771Y-184473809D01*
X286342676Y-184597619D01*
X286404580Y-184845238D01*
X286404580Y-185030952D01*
X286342676Y-185278571D01*
X286280771Y-185402380D01*
X286156961Y-185526190D01*
X285971247Y-185588095D01*
X285661723Y-185588095D01*
D10*
D11*
X200434342Y-193785771D02*
X200434342Y-192285771D01*
X200791485Y-192285771D01*
X201005771Y-192357200D01*
X201148628Y-192500057D01*
X201220057Y-192642914D01*
X201291485Y-192928628D01*
X201291485Y-193142914D01*
X201220057Y-193428628D01*
X201148628Y-193571485D01*
X201005771Y-193714342D01*
X200791485Y-193785771D01*
X200434342Y-193785771D01*
X202577200Y-193785771D02*
X202577200Y-193000057D01*
X202505771Y-192857200D01*
X202362914Y-192785771D01*
X202077200Y-192785771D01*
X201934342Y-192857200D01*
X202577200Y-193714342D02*
X202434342Y-193785771D01*
X202077200Y-193785771D01*
X201934342Y-193714342D01*
X201862914Y-193571485D01*
X201862914Y-193428628D01*
X201934342Y-193285771D01*
X202077200Y-193214342D01*
X202434342Y-193214342D01*
X202577200Y-193142914D01*
X203077200Y-192785771D02*
X203648628Y-192785771D01*
X203291485Y-192285771D02*
X203291485Y-193571485D01*
X203362914Y-193714342D01*
X203505771Y-193785771D01*
X203648628Y-193785771D01*
X204720057Y-193714342D02*
X204577200Y-193785771D01*
X204291485Y-193785771D01*
X204148628Y-193714342D01*
X204077200Y-193571485D01*
X204077200Y-193000057D01*
X204148628Y-192857200D01*
X204291485Y-192785771D01*
X204577200Y-192785771D01*
X204720057Y-192857200D01*
X204791485Y-193000057D01*
X204791485Y-193142914D01*
X204077200Y-193285771D01*
X205434342Y-193642914D02*
X205505771Y-193714342D01*
X205434342Y-193785771D01*
X205362914Y-193714342D01*
X205434342Y-193642914D01*
X205434342Y-193785771D01*
X205434342Y-192857200D02*
X205505771Y-192928628D01*
X205434342Y-193000057D01*
X205362914Y-192928628D01*
X205434342Y-192857200D01*
X205434342Y-193000057D01*
D10*
D11*
X177002200Y-194507200D02*
X285002200Y-194507200D01*
D10*
D11*
X178434342Y-196585771D02*
X178434342Y-195085771D01*
X179291485Y-196585771D02*
X178648628Y-195728628D01*
X179291485Y-195085771D02*
X178434342Y-195942914D01*
X179934342Y-196585771D02*
X179934342Y-195585771D01*
X179934342Y-195085771D02*
X179862914Y-195157200D01*
X179934342Y-195228628D01*
X180005771Y-195157200D01*
X179934342Y-195085771D01*
X179934342Y-195228628D01*
X181505771Y-196442914D02*
X181434342Y-196514342D01*
X181220057Y-196585771D01*
X181077200Y-196585771D01*
X180862914Y-196514342D01*
X180720057Y-196371485D01*
X180648628Y-196228628D01*
X180577200Y-195942914D01*
X180577200Y-195728628D01*
X180648628Y-195442914D01*
X180720057Y-195300057D01*
X180862914Y-195157200D01*
X181077200Y-195085771D01*
X181220057Y-195085771D01*
X181434342Y-195157200D01*
X181505771Y-195228628D01*
X182791485Y-196585771D02*
X182791485Y-195800057D01*
X182720057Y-195657200D01*
X182577200Y-195585771D01*
X182291485Y-195585771D01*
X182148628Y-195657200D01*
X182791485Y-196514342D02*
X182648628Y-196585771D01*
X182291485Y-196585771D01*
X182148628Y-196514342D01*
X182077200Y-196371485D01*
X182077200Y-196228628D01*
X182148628Y-196085771D01*
X182291485Y-196014342D01*
X182648628Y-196014342D01*
X182791485Y-195942914D01*
X184148628Y-196585771D02*
X184148628Y-195085771D01*
X184148628Y-196514342D02*
X184005771Y-196585771D01*
X183720057Y-196585771D01*
X183577200Y-196514342D01*
X183505771Y-196442914D01*
X183434342Y-196300057D01*
X183434342Y-195871485D01*
X183505771Y-195728628D01*
X183577200Y-195657200D01*
X183720057Y-195585771D01*
X184005771Y-195585771D01*
X184148628Y-195657200D01*
X186005771Y-195800057D02*
X186505771Y-195800057D01*
X186720057Y-196585771D02*
X186005771Y-196585771D01*
X186005771Y-195085771D01*
X186720057Y-195085771D01*
X187362914Y-196442914D02*
X187434342Y-196514342D01*
X187362914Y-196585771D01*
X187291485Y-196514342D01*
X187362914Y-196442914D01*
X187362914Y-196585771D01*
X188077200Y-196585771D02*
X188077200Y-195085771D01*
X188434342Y-195085771D01*
X188648628Y-195157200D01*
X188791485Y-195300057D01*
X188862914Y-195442914D01*
X188934342Y-195728628D01*
X188934342Y-195942914D01*
X188862914Y-196228628D01*
X188791485Y-196371485D01*
X188648628Y-196514342D01*
X188434342Y-196585771D01*
X188077200Y-196585771D01*
X189577200Y-196442914D02*
X189648628Y-196514342D01*
X189577200Y-196585771D01*
X189505771Y-196514342D01*
X189577200Y-196442914D01*
X189577200Y-196585771D01*
X190220057Y-196157200D02*
X190934342Y-196157200D01*
X190077200Y-196585771D02*
X190577200Y-195085771D01*
X191077200Y-196585771D01*
X191577200Y-196442914D02*
X191648628Y-196514342D01*
X191577200Y-196585771D01*
X191505771Y-196514342D01*
X191577200Y-196442914D01*
X191577200Y-196585771D01*
X194577200Y-196585771D02*
X194577200Y-195085771D01*
X194720057Y-196014342D02*
X195148628Y-196585771D01*
X195148628Y-195585771D02*
X194577200Y-196157200D01*
X195791485Y-196585771D02*
X195791485Y-195585771D01*
X195791485Y-195085771D02*
X195720057Y-195157200D01*
X195791485Y-195228628D01*
X195862914Y-195157200D01*
X195791485Y-195085771D01*
X195791485Y-195228628D01*
X197148628Y-196514342D02*
X197005771Y-196585771D01*
X196720057Y-196585771D01*
X196577200Y-196514342D01*
X196505771Y-196442914D01*
X196434342Y-196300057D01*
X196434342Y-195871485D01*
X196505771Y-195728628D01*
X196577200Y-195657200D01*
X196720057Y-195585771D01*
X197005771Y-195585771D01*
X197148628Y-195657200D01*
X198434342Y-196585771D02*
X198434342Y-195800057D01*
X198362914Y-195657200D01*
X198220057Y-195585771D01*
X197934342Y-195585771D01*
X197791485Y-195657200D01*
X198434342Y-196514342D02*
X198291485Y-196585771D01*
X197934342Y-196585771D01*
X197791485Y-196514342D01*
X197720057Y-196371485D01*
X197720057Y-196228628D01*
X197791485Y-196085771D01*
X197934342Y-196014342D01*
X198291485Y-196014342D01*
X198434342Y-195942914D01*
X199791485Y-196585771D02*
X199791485Y-195085771D01*
X199791485Y-196514342D02*
X199648628Y-196585771D01*
X199362914Y-196585771D01*
X199220057Y-196514342D01*
X199148628Y-196442914D01*
X199077200Y-196300057D01*
X199077200Y-195871485D01*
X199148628Y-195728628D01*
X199220057Y-195657200D01*
X199362914Y-195585771D01*
X199648628Y-195585771D01*
X199791485Y-195657200D01*
X202291485Y-195585771D02*
X202291485Y-196585771D01*
X201934342Y-195014342D02*
X201577200Y-196085771D01*
X202505771Y-196085771D01*
X203077200Y-196442914D02*
X203148628Y-196514342D01*
X203077200Y-196585771D01*
X203005771Y-196514342D01*
X203077200Y-196442914D01*
X203077200Y-196585771D01*
X204577200Y-196585771D02*
X203720057Y-196585771D01*
X204148628Y-196585771D02*
X204148628Y-195085771D01*
X204005771Y-195300057D01*
X203862914Y-195442914D01*
X203720057Y-195514342D01*
X205220057Y-196442914D02*
X205291485Y-196514342D01*
X205220057Y-196585771D01*
X205148628Y-196514342D01*
X205220057Y-196442914D01*
X205220057Y-196585771D01*
X206220057Y-195085771D02*
X206362914Y-195085771D01*
X206505771Y-195157200D01*
X206577200Y-195228628D01*
X206648628Y-195371485D01*
X206720057Y-195657200D01*
X206720057Y-196014342D01*
X206648628Y-196300057D01*
X206577200Y-196442914D01*
X206505771Y-196514342D01*
X206362914Y-196585771D01*
X206220057Y-196585771D01*
X206077200Y-196514342D01*
X206005771Y-196442914D01*
X205934342Y-196300057D01*
X205862914Y-196014342D01*
X205862914Y-195657200D01*
X205934342Y-195371485D01*
X206005771Y-195228628D01*
X206077200Y-195157200D01*
X206220057Y-195085771D01*
X207362914Y-196014342D02*
X208505771Y-196014342D01*
X209862914Y-196585771D02*
X209862914Y-195800057D01*
X209791485Y-195657200D01*
X209648628Y-195585771D01*
X209362914Y-195585771D01*
X209220057Y-195657200D01*
X209862914Y-196514342D02*
X209720057Y-196585771D01*
X209362914Y-196585771D01*
X209220057Y-196514342D01*
X209148628Y-196371485D01*
X209148628Y-196228628D01*
X209220057Y-196085771D01*
X209362914Y-196014342D01*
X209720057Y-196014342D01*
X209862914Y-195942914D01*
X210791485Y-196585771D02*
X210648628Y-196514342D01*
X210577200Y-196371485D01*
X210577200Y-195085771D01*
X211362914Y-195585771D02*
X211362914Y-197085771D01*
X211362914Y-195657200D02*
X211505771Y-195585771D01*
X211791485Y-195585771D01*
X211934342Y-195657200D01*
X212005771Y-195728628D01*
X212077200Y-195871485D01*
X212077200Y-196300057D01*
X212005771Y-196442914D01*
X211934342Y-196514342D01*
X211791485Y-196585771D01*
X211505771Y-196585771D01*
X211362914Y-196514342D01*
X212720057Y-196585771D02*
X212720057Y-195085771D01*
X213362914Y-196585771D02*
X213362914Y-195800057D01*
X213291485Y-195657200D01*
X213148628Y-195585771D01*
X212934342Y-195585771D01*
X212791485Y-195657200D01*
X212720057Y-195728628D01*
X214720057Y-196585771D02*
X214720057Y-195800057D01*
X214648628Y-195657200D01*
X214505771Y-195585771D01*
X214220057Y-195585771D01*
X214077200Y-195657200D01*
X214720057Y-196514342D02*
X214577200Y-196585771D01*
X214220057Y-196585771D01*
X214077200Y-196514342D01*
X214005771Y-196371485D01*
X214005771Y-196228628D01*
X214077200Y-196085771D01*
X214220057Y-196014342D01*
X214577200Y-196014342D01*
X214720057Y-195942914D01*
X215434342Y-196014342D02*
X216577200Y-196014342D01*
X216005771Y-196585771D02*
X216005771Y-195442914D01*
X217220057Y-195228628D02*
X217291485Y-195157200D01*
X217434342Y-195085771D01*
X217791485Y-195085771D01*
X217934342Y-195157200D01*
X218005771Y-195228628D01*
X218077200Y-195371485D01*
X218077200Y-195514342D01*
X218005771Y-195728628D01*
X217148628Y-196585771D01*
X218077200Y-196585771D01*
X219005771Y-195085771D02*
X219148628Y-195085771D01*
X219291485Y-195157200D01*
X219362914Y-195228628D01*
X219434342Y-195371485D01*
X219505771Y-195657200D01*
X219505771Y-196014342D01*
X219434342Y-196300057D01*
X219362914Y-196442914D01*
X219291485Y-196514342D01*
X219148628Y-196585771D01*
X219005771Y-196585771D01*
X218862914Y-196514342D01*
X218791485Y-196442914D01*
X218720057Y-196300057D01*
X218648628Y-196014342D01*
X218648628Y-195657200D01*
X218720057Y-195371485D01*
X218791485Y-195228628D01*
X218862914Y-195157200D01*
X219005771Y-195085771D01*
X220934342Y-196585771D02*
X220077200Y-196585771D01*
X220505771Y-196585771D02*
X220505771Y-195085771D01*
X220362914Y-195300057D01*
X220220057Y-195442914D01*
X220077200Y-195514342D01*
X222220057Y-195085771D02*
X221934342Y-195085771D01*
X221791485Y-195157200D01*
X221720057Y-195228628D01*
X221577200Y-195442914D01*
X221505771Y-195728628D01*
X221505771Y-196300057D01*
X221577200Y-196442914D01*
X221648628Y-196514342D01*
X221791485Y-196585771D01*
X222077200Y-196585771D01*
X222220057Y-196514342D01*
X222291485Y-196442914D01*
X222362914Y-196300057D01*
X222362914Y-195942914D01*
X222291485Y-195800057D01*
X222220057Y-195728628D01*
X222077200Y-195657200D01*
X221791485Y-195657200D01*
X221648628Y-195728628D01*
X221577200Y-195800057D01*
X221505771Y-195942914D01*
X223291485Y-195085771D02*
X223434342Y-195085771D01*
X223577200Y-195157200D01*
X223648628Y-195228628D01*
X223720057Y-195371485D01*
X223791485Y-195657200D01*
X223791485Y-196014342D01*
X223720057Y-196300057D01*
X223648628Y-196442914D01*
X223577200Y-196514342D01*
X223434342Y-196585771D01*
X223291485Y-196585771D01*
X223148628Y-196514342D01*
X223077200Y-196442914D01*
X223005771Y-196300057D01*
X222934342Y-196014342D01*
X222934342Y-195657200D01*
X223005771Y-195371485D01*
X223077200Y-195228628D01*
X223148628Y-195157200D01*
X223291485Y-195085771D01*
X225077200Y-195085771D02*
X224791485Y-195085771D01*
X224648628Y-195157200D01*
X224577200Y-195228628D01*
X224434342Y-195442914D01*
X224362914Y-195728628D01*
X224362914Y-196300057D01*
X224434342Y-196442914D01*
X224505771Y-196514342D01*
X224648628Y-196585771D01*
X224934342Y-196585771D01*
X225077200Y-196514342D01*
X225148628Y-196442914D01*
X225220057Y-196300057D01*
X225220057Y-195942914D01*
X225148628Y-195800057D01*
X225077200Y-195728628D01*
X224934342Y-195657200D01*
X224648628Y-195657200D01*
X224505771Y-195728628D01*
X224434342Y-195800057D01*
X224362914Y-195942914D01*
X226148628Y-195085771D02*
X226291485Y-195085771D01*
X226434342Y-195157200D01*
X226505771Y-195228628D01*
X226577200Y-195371485D01*
X226648628Y-195657200D01*
X226648628Y-196014342D01*
X226577200Y-196300057D01*
X226505771Y-196442914D01*
X226434342Y-196514342D01*
X226291485Y-196585771D01*
X226148628Y-196585771D01*
X226005771Y-196514342D01*
X225934342Y-196442914D01*
X225862914Y-196300057D01*
X225791485Y-196014342D01*
X225791485Y-195657200D01*
X225862914Y-195371485D01*
X225934342Y-195228628D01*
X226005771Y-195157200D01*
X226148628Y-195085771D01*
X227148628Y-195085771D02*
X228077200Y-195085771D01*
X227577200Y-195657200D01*
X227791485Y-195657200D01*
X227934342Y-195728628D01*
X228005771Y-195800057D01*
X228077200Y-195942914D01*
X228077200Y-196300057D01*
X228005771Y-196442914D01*
X227934342Y-196514342D01*
X227791485Y-196585771D01*
X227362914Y-196585771D01*
X227220057Y-196514342D01*
X227148628Y-196442914D01*
X229005771Y-195085771D02*
X229148628Y-195085771D01*
X229291485Y-195157200D01*
X229362914Y-195228628D01*
X229434342Y-195371485D01*
X229505771Y-195657200D01*
X229505771Y-196014342D01*
X229434342Y-196300057D01*
X229362914Y-196442914D01*
X229291485Y-196514342D01*
X229148628Y-196585771D01*
X229005771Y-196585771D01*
X228862914Y-196514342D01*
X228791485Y-196442914D01*
X228720057Y-196300057D01*
X228648628Y-196014342D01*
X228648628Y-195657200D01*
X228720057Y-195371485D01*
X228791485Y-195228628D01*
X228862914Y-195157200D01*
X229005771Y-195085771D01*
X230220057Y-196585771D02*
X230505771Y-196585771D01*
X230648628Y-196514342D01*
X230720057Y-196442914D01*
X230862914Y-196228628D01*
X230934342Y-195942914D01*
X230934342Y-195371485D01*
X230862914Y-195228628D01*
X230791485Y-195157200D01*
X230648628Y-195085771D01*
X230362914Y-195085771D01*
X230220057Y-195157200D01*
X230148628Y-195228628D01*
X230077199Y-195371485D01*
X230077199Y-195728628D01*
X230148628Y-195871485D01*
X230220057Y-195942914D01*
X230362914Y-196014342D01*
X230648628Y-196014342D01*
X230791485Y-195942914D01*
X230862914Y-195871485D01*
X230934342Y-195728628D01*
X232220057Y-195585771D02*
X232220057Y-196585771D01*
X231862914Y-195014342D02*
X231505771Y-196085771D01*
X232434342Y-196085771D01*
X233648628Y-195085771D02*
X233362914Y-195085771D01*
X233220057Y-195157200D01*
X233148628Y-195228628D01*
X233005771Y-195442914D01*
X232934342Y-195728628D01*
X232934342Y-196300057D01*
X233005771Y-196442914D01*
X233077199Y-196514342D01*
X233220057Y-196585771D01*
X233505771Y-196585771D01*
X233648628Y-196514342D01*
X233720057Y-196442914D01*
X233791485Y-196300057D01*
X233791485Y-195942914D01*
X233720057Y-195800057D01*
X233648628Y-195728628D01*
X233505771Y-195657200D01*
X233220057Y-195657200D01*
X233077199Y-195728628D01*
X233005771Y-195800057D01*
X232934342Y-195942914D01*
X234434342Y-196014342D02*
X235577199Y-196014342D01*
X235005771Y-196585771D02*
X235005771Y-195442914D01*
X236934342Y-195085771D02*
X236648628Y-195085771D01*
X236505771Y-195157200D01*
X236434342Y-195228628D01*
X236291485Y-195442914D01*
X236220057Y-195728628D01*
X236220057Y-196300057D01*
X236291485Y-196442914D01*
X236362914Y-196514342D01*
X236505771Y-196585771D01*
X236791485Y-196585771D01*
X236934342Y-196514342D01*
X237005771Y-196442914D01*
X237077199Y-196300057D01*
X237077199Y-195942914D01*
X237005771Y-195800057D01*
X236934342Y-195728628D01*
X236791485Y-195657200D01*
X236505771Y-195657200D01*
X236362914Y-195728628D01*
X236291485Y-195800057D01*
X236220057Y-195942914D01*
X237934342Y-195728628D02*
X237791485Y-195657200D01*
X237720057Y-195585771D01*
X237648628Y-195442914D01*
X237648628Y-195371485D01*
X237720057Y-195228628D01*
X237791485Y-195157200D01*
X237934342Y-195085771D01*
X238220057Y-195085771D01*
X238362914Y-195157200D01*
X238434342Y-195228628D01*
X238505771Y-195371485D01*
X238505771Y-195442914D01*
X238434342Y-195585771D01*
X238362914Y-195657200D01*
X238220057Y-195728628D01*
X237934342Y-195728628D01*
X237791485Y-195800057D01*
X237720057Y-195871485D01*
X237648628Y-196014342D01*
X237648628Y-196300057D01*
X237720057Y-196442914D01*
X237791485Y-196514342D01*
X237934342Y-196585771D01*
X238220057Y-196585771D01*
X238362914Y-196514342D01*
X238434342Y-196442914D01*
X238505771Y-196300057D01*
X238505771Y-196014342D01*
X238434342Y-195871485D01*
X238362914Y-195800057D01*
X238220057Y-195728628D01*
X239005771Y-195085771D02*
X240005771Y-195085771D01*
X239362914Y-196585771D01*
X241220057Y-195585771D02*
X241220057Y-196585771D01*
X240862914Y-195014342D02*
X240505771Y-196085771D01*
X241434342Y-196085771D01*
X241896128Y-194677200D02*
X243077199Y-194677200D01*
X242648628Y-195585771D02*
X242648628Y-196585771D01*
X242291485Y-195014342D02*
X241934342Y-196085771D01*
X242862914Y-196085771D01*
X243077199Y-194677200D02*
X244505771Y-194677200D01*
X244148628Y-195085771D02*
X243434342Y-195085771D01*
X243362914Y-195800057D01*
X243434342Y-195728628D01*
X243577199Y-195657200D01*
X243934342Y-195657200D01*
X244077199Y-195728628D01*
X244148628Y-195800057D01*
X244220057Y-195942914D01*
X244220057Y-196300057D01*
X244148628Y-196442914D01*
X244077199Y-196514342D01*
X243934342Y-196585771D01*
X243577199Y-196585771D01*
X243434342Y-196514342D01*
X243362914Y-196442914D01*
X245505771Y-195585771D02*
X245505771Y-196585771D01*
X244862914Y-195585771D02*
X244862914Y-196371485D01*
X244934342Y-196514342D01*
X245077199Y-196585771D01*
X245291485Y-196585771D01*
X245434342Y-196514342D01*
X245505771Y-196442914D01*
X246220057Y-196585771D02*
X246220057Y-195085771D01*
X246220057Y-195657200D02*
X246362914Y-195585771D01*
X246648628Y-195585771D01*
X246791485Y-195657200D01*
X246862914Y-195728628D01*
X246934342Y-195871485D01*
X246934342Y-196300057D01*
X246862914Y-196442914D01*
X246791485Y-196514342D01*
X246648628Y-196585771D01*
X246362914Y-196585771D01*
X246220057Y-196514342D01*
X248220057Y-195585771D02*
X248220057Y-196585771D01*
X247577199Y-195585771D02*
X247577199Y-196371485D01*
X247648628Y-196514342D01*
X247791485Y-196585771D01*
X248005771Y-196585771D01*
X248148628Y-196514342D01*
X248220057Y-196442914D01*
X248934342Y-195585771D02*
X248934342Y-196585771D01*
X248934342Y-195728628D02*
X249005771Y-195657200D01*
X249148628Y-195585771D01*
X249362914Y-195585771D01*
X249505771Y-195657200D01*
X249577199Y-195800057D01*
X249577199Y-196585771D01*
X250077199Y-195585771D02*
X250648628Y-195585771D01*
X250291485Y-195085771D02*
X250291485Y-196371485D01*
X250362914Y-196514342D01*
X250505771Y-196585771D01*
X250648628Y-196585771D01*
X251791485Y-195585771D02*
X251791485Y-196585771D01*
X251148628Y-195585771D02*
X251148628Y-196371485D01*
X251220057Y-196514342D01*
X251362914Y-196585771D01*
X251577199Y-196585771D01*
X251720057Y-196514342D01*
X251791485Y-196442914D01*
X253291485Y-196585771D02*
X252434342Y-196585771D01*
X252862914Y-196585771D02*
X252862914Y-195085771D01*
X252720057Y-195300057D01*
X252577199Y-195442914D01*
X252434342Y-195514342D01*
X254577199Y-195585771D02*
X254577199Y-196585771D01*
X254220057Y-195014342D02*
X253862914Y-196085771D01*
X254791485Y-196085771D01*
X255362914Y-196442914D02*
X255434342Y-196514342D01*
X255362914Y-196585771D01*
X255291485Y-196514342D01*
X255362914Y-196442914D01*
X255362914Y-196585771D01*
X256362914Y-195085771D02*
X256505771Y-195085771D01*
X256648628Y-195157200D01*
X256720057Y-195228628D01*
X256791485Y-195371485D01*
X256862914Y-195657200D01*
X256862914Y-196014342D01*
X256791485Y-196300057D01*
X256720057Y-196442914D01*
X256648628Y-196514342D01*
X256505771Y-196585771D01*
X256362914Y-196585771D01*
X256220057Y-196514342D01*
X256148628Y-196442914D01*
X256077199Y-196300057D01*
X256005771Y-196014342D01*
X256005771Y-195657200D01*
X256077199Y-195371485D01*
X256148628Y-195228628D01*
X256220057Y-195157200D01*
X256362914Y-195085771D01*
X258148628Y-195585771D02*
X258148628Y-196585771D01*
X257791485Y-195014342D02*
X257434342Y-196085771D01*
X258362914Y-196085771D01*
X258934342Y-196442914D02*
X259005771Y-196514342D01*
X258934342Y-196585771D01*
X258862914Y-196514342D01*
X258934342Y-196442914D01*
X258934342Y-196585771D01*
X260434342Y-196585771D02*
X259577199Y-196585771D01*
X260005771Y-196585771D02*
X260005771Y-195085771D01*
X259862914Y-195300057D01*
X259720057Y-195442914D01*
X259577199Y-195514342D01*
X261077199Y-196014342D02*
X262220057Y-196014342D01*
X262934342Y-195585771D02*
X262934342Y-197085771D01*
X262934342Y-195657200D02*
X263077199Y-195585771D01*
X263362914Y-195585771D01*
X263505771Y-195657200D01*
X263577199Y-195728628D01*
X263648628Y-195871485D01*
X263648628Y-196300057D01*
X263577199Y-196442914D01*
X263505771Y-196514342D01*
X263362914Y-196585771D01*
X263077199Y-196585771D01*
X262934342Y-196514342D01*
X264291485Y-196585771D02*
X264291485Y-195585771D01*
X264291485Y-195871485D02*
X264362914Y-195728628D01*
X264434342Y-195657200D01*
X264577199Y-195585771D01*
X264720057Y-195585771D01*
X265434342Y-196585771D02*
X265291485Y-196514342D01*
X265220057Y-196442914D01*
X265148628Y-196300057D01*
X265148628Y-195871485D01*
X265220057Y-195728628D01*
X265291485Y-195657200D01*
X265434342Y-195585771D01*
X265648628Y-195585771D01*
X265791485Y-195657200D01*
X265862914Y-195728628D01*
X265934342Y-195871485D01*
X265934342Y-196300057D01*
X265862914Y-196442914D01*
X265791485Y-196514342D01*
X265648628Y-196585771D01*
X265434342Y-196585771D01*
X267220057Y-196585771D02*
X267220057Y-195085771D01*
X267220057Y-196514342D02*
X267077199Y-196585771D01*
X266791485Y-196585771D01*
X266648628Y-196514342D01*
X266577199Y-196442914D01*
X266505771Y-196300057D01*
X266505771Y-195871485D01*
X266577199Y-195728628D01*
X266648628Y-195657200D01*
X266791485Y-195585771D01*
X267077199Y-195585771D01*
X267220057Y-195657200D01*
X268577199Y-195585771D02*
X268577199Y-196585771D01*
X267934342Y-195585771D02*
X267934342Y-196371485D01*
X268005771Y-196514342D01*
X268148628Y-196585771D01*
X268362914Y-196585771D01*
X268505771Y-196514342D01*
X268577199Y-196442914D01*
X269934342Y-196514342D02*
X269791485Y-196585771D01*
X269505771Y-196585771D01*
X269362914Y-196514342D01*
X269291485Y-196442914D01*
X269220057Y-196300057D01*
X269220057Y-195871485D01*
X269291485Y-195728628D01*
X269362914Y-195657200D01*
X269505771Y-195585771D01*
X269791485Y-195585771D01*
X269934342Y-195657200D01*
X270362914Y-195585771D02*
X270934342Y-195585771D01*
X270577199Y-195085771D02*
X270577199Y-196371485D01*
X270648628Y-196514342D01*
X270791485Y-196585771D01*
X270934342Y-196585771D01*
D10*
D11*
X177002200Y-191507200D02*
X285002200Y-191507200D01*
D10*
D12*
X264411485Y-193785771D02*
X263911485Y-193071485D01*
X263554342Y-193785771D02*
X263554342Y-192285771D01*
X264125771Y-192285771D01*
X264268628Y-192357200D01*
X264340057Y-192428628D01*
X264411485Y-192571485D01*
X264411485Y-192785771D01*
X264340057Y-192928628D01*
X264268628Y-193000057D01*
X264125771Y-193071485D01*
X263554342Y-193071485D01*
X265625771Y-193714342D02*
X265482914Y-193785771D01*
X265197200Y-193785771D01*
X265054342Y-193714342D01*
X264982914Y-193571485D01*
X264982914Y-193000057D01*
X265054342Y-192857200D01*
X265197200Y-192785771D01*
X265482914Y-192785771D01*
X265625771Y-192857200D01*
X265697200Y-193000057D01*
X265697200Y-193142914D01*
X264982914Y-193285771D01*
X266197200Y-192785771D02*
X266554342Y-193785771D01*
X266911485Y-192785771D01*
X267482914Y-193642914D02*
X267554342Y-193714342D01*
X267482914Y-193785771D01*
X267411485Y-193714342D01*
X267482914Y-193642914D01*
X267482914Y-193785771D01*
X267482914Y-192857200D02*
X267554342Y-192928628D01*
X267482914Y-193000057D01*
X267411485Y-192928628D01*
X267482914Y-192857200D01*
X267482914Y-193000057D01*
D10*
D11*
X178362914Y-193714342D02*
X178577200Y-193785771D01*
X178934342Y-193785771D01*
X179077200Y-193714342D01*
X179148628Y-193642914D01*
X179220057Y-193500057D01*
X179220057Y-193357200D01*
X179148628Y-193214342D01*
X179077200Y-193142914D01*
X178934342Y-193071485D01*
X178648628Y-193000057D01*
X178505771Y-192928628D01*
X178434342Y-192857200D01*
X178362914Y-192714342D01*
X178362914Y-192571485D01*
X178434342Y-192428628D01*
X178505771Y-192357200D01*
X178648628Y-192285771D01*
X179005771Y-192285771D01*
X179220057Y-192357200D01*
X179862914Y-193785771D02*
X179862914Y-192785771D01*
X179862914Y-192285771D02*
X179791485Y-192357200D01*
X179862914Y-192428628D01*
X179934342Y-192357200D01*
X179862914Y-192285771D01*
X179862914Y-192428628D01*
X180434342Y-192785771D02*
X181220057Y-192785771D01*
X180434342Y-193785771D01*
X181220057Y-193785771D01*
X182362914Y-193714342D02*
X182220057Y-193785771D01*
X181934342Y-193785771D01*
X181791485Y-193714342D01*
X181720057Y-193571485D01*
X181720057Y-193000057D01*
X181791485Y-192857200D01*
X181934342Y-192785771D01*
X182220057Y-192785771D01*
X182362914Y-192857200D01*
X182434342Y-193000057D01*
X182434342Y-193142914D01*
X181720057Y-193285771D01*
X183077200Y-193642914D02*
X183148628Y-193714342D01*
X183077200Y-193785771D01*
X183005771Y-193714342D01*
X183077200Y-193642914D01*
X183077200Y-193785771D01*
X183077200Y-192857200D02*
X183148628Y-192928628D01*
X183077200Y-193000057D01*
X183005771Y-192928628D01*
X183077200Y-192857200D01*
X183077200Y-193000057D01*
X184862914Y-193357200D02*
X185577200Y-193357200D01*
X184720057Y-193785771D02*
X185220057Y-192285771D01*
X185720057Y-193785771D01*
X186862914Y-192785771D02*
X186862914Y-193785771D01*
X186505771Y-192214342D02*
X186148628Y-193285771D01*
X187077200Y-193285771D01*
D10*
D11*
X263434342Y-196585771D02*
X263434342Y-195085771D01*
X264791485Y-196585771D02*
X264791485Y-195085771D01*
X264791485Y-196514342D02*
X264648628Y-196585771D01*
X264362914Y-196585771D01*
X264220057Y-196514342D01*
X264148628Y-196442914D01*
X264077200Y-196300057D01*
X264077200Y-195871485D01*
X264148628Y-195728628D01*
X264220057Y-195657200D01*
X264362914Y-195585771D01*
X264648628Y-195585771D01*
X264791485Y-195657200D01*
X265505771Y-196442914D02*
X265577200Y-196514342D01*
X265505771Y-196585771D01*
X265434342Y-196514342D01*
X265505771Y-196442914D01*
X265505771Y-196585771D01*
X265505771Y-195657200D02*
X265577200Y-195728628D01*
X265505771Y-195800057D01*
X265434342Y-195728628D01*
X265505771Y-195657200D01*
X265505771Y-195800057D01*
X268148628Y-196585771D02*
X267291485Y-196585771D01*
X267720057Y-196585771D02*
X267720057Y-195085771D01*
X267577200Y-195300057D01*
X267434342Y-195442914D01*
X267291485Y-195514342D01*
X269862914Y-195014342D02*
X268577200Y-196942914D01*
X271148628Y-196585771D02*
X270291485Y-196585771D01*
X270720057Y-196585771D02*
X270720057Y-195085771D01*
X270577200Y-195300057D01*
X270434342Y-195442914D01*
X270291485Y-195514342D01*
D10*
D11*
X177002200Y-187507200D02*
X285002200Y-187507200D01*
D10*
D13*
X178714580Y-188211961D02*
X179857438Y-188211961D01*
X179036009Y-190211961D02*
X179286009Y-188211961D01*
X180274104Y-190211961D02*
X180440771Y-188878628D01*
X180524104Y-188211961D02*
X180416961Y-188307200D01*
X180500295Y-188402438D01*
X180607438Y-188307200D01*
X180524104Y-188211961D01*
X180500295Y-188402438D01*
X181107438Y-188878628D02*
X181869342Y-188878628D01*
X181476485Y-188211961D02*
X181262200Y-189926247D01*
X181333628Y-190116723D01*
X181512200Y-190211961D01*
X181702676Y-190211961D01*
X182655057Y-190211961D02*
X182476485Y-190116723D01*
X182405057Y-189926247D01*
X182619342Y-188211961D01*
X184190771Y-190116723D02*
X183988390Y-190211961D01*
X183607438Y-190211961D01*
X183428866Y-190116723D01*
X183357438Y-189926247D01*
X183452676Y-189164342D01*
X183571723Y-188973866D01*
X183774104Y-188878628D01*
X184155057Y-188878628D01*
X184333628Y-188973866D01*
X184405057Y-189164342D01*
X184381247Y-189354819D01*
X183405057Y-189545295D01*
X185155057Y-190021485D02*
X185238390Y-190116723D01*
X185131247Y-190211961D01*
X185047914Y-190116723D01*
X185155057Y-190021485D01*
X185131247Y-190211961D01*
X185286009Y-188973866D02*
X185369342Y-189069104D01*
X185262200Y-189164342D01*
X185178866Y-189069104D01*
X185286009Y-188973866D01*
X185262200Y-189164342D01*
D10*
D11*
X178934342Y-185600057D02*
X178434342Y-185600057D01*
X178434342Y-186385771D02*
X178434342Y-184885771D01*
X179148628Y-184885771D01*
X179720057Y-186385771D02*
X179720057Y-185385771D01*
X179720057Y-184885771D02*
X179648628Y-184957200D01*
X179720057Y-185028628D01*
X179791485Y-184957200D01*
X179720057Y-184885771D01*
X179720057Y-185028628D01*
X180648628Y-186385771D02*
X180505771Y-186314342D01*
X180434342Y-186171485D01*
X180434342Y-184885771D01*
X181791485Y-186314342D02*
X181648628Y-186385771D01*
X181362914Y-186385771D01*
X181220057Y-186314342D01*
X181148628Y-186171485D01*
X181148628Y-185600057D01*
X181220057Y-185457200D01*
X181362914Y-185385771D01*
X181648628Y-185385771D01*
X181791485Y-185457200D01*
X181862914Y-185600057D01*
X181862914Y-185742914D01*
X181148628Y-185885771D01*
X182505771Y-186242914D02*
X182577200Y-186314342D01*
X182505771Y-186385771D01*
X182434342Y-186314342D01*
X182505771Y-186242914D01*
X182505771Y-186385771D01*
X182505771Y-185457200D02*
X182577200Y-185528628D01*
X182505771Y-185600057D01*
X182434342Y-185528628D01*
X182505771Y-185457200D01*
X182505771Y-185600057D01*
X185005771Y-186314342D02*
X184862914Y-186385771D01*
X184577200Y-186385771D01*
X184434342Y-186314342D01*
X184362914Y-186242914D01*
X184291485Y-186100057D01*
X184291485Y-185671485D01*
X184362914Y-185528628D01*
X184434342Y-185457200D01*
X184577200Y-185385771D01*
X184862914Y-185385771D01*
X185005771Y-185457200D01*
X186291485Y-186385771D02*
X186291485Y-185600057D01*
X186220057Y-185457200D01*
X186077200Y-185385771D01*
X185791485Y-185385771D01*
X185648628Y-185457200D01*
X186291485Y-186314342D02*
X186148628Y-186385771D01*
X185791485Y-186385771D01*
X185648628Y-186314342D01*
X185577200Y-186171485D01*
X185577200Y-186028628D01*
X185648628Y-185885771D01*
X185791485Y-185814342D01*
X186148628Y-185814342D01*
X186291485Y-185742914D01*
X187005771Y-186385771D02*
X187005771Y-185385771D01*
X187005771Y-185671485D02*
X187077200Y-185528628D01*
X187148628Y-185457200D01*
X187291485Y-185385771D01*
X187434342Y-185385771D01*
X187577200Y-186528628D02*
X188720057Y-186528628D01*
X189077200Y-186385771D02*
X189077200Y-184885771D01*
X189077200Y-185457200D02*
X189220057Y-185385771D01*
X189505771Y-185385771D01*
X189648628Y-185457200D01*
X189720057Y-185528628D01*
X189791485Y-185671485D01*
X189791485Y-186100057D01*
X189720057Y-186242914D01*
X189648628Y-186314342D01*
X189505771Y-186385771D01*
X189220057Y-186385771D01*
X189077200Y-186314342D01*
X191077200Y-186385771D02*
X191077200Y-185600057D01*
X191005771Y-185457200D01*
X190862914Y-185385771D01*
X190577200Y-185385771D01*
X190434342Y-185457200D01*
X191077200Y-186314342D02*
X190934342Y-186385771D01*
X190577200Y-186385771D01*
X190434342Y-186314342D01*
X190362914Y-186171485D01*
X190362914Y-186028628D01*
X190434342Y-185885771D01*
X190577200Y-185814342D01*
X190934342Y-185814342D01*
X191077200Y-185742914D01*
X191577200Y-185385771D02*
X192148628Y-185385771D01*
X191791485Y-184885771D02*
X191791485Y-186171485D01*
X191862914Y-186314342D01*
X192005771Y-186385771D01*
X192148628Y-186385771D01*
X192434342Y-185385771D02*
X193005771Y-185385771D01*
X192648628Y-184885771D02*
X192648628Y-186171485D01*
X192720057Y-186314342D01*
X192862914Y-186385771D01*
X193005771Y-186385771D01*
X194077200Y-186314342D02*
X193934342Y-186385771D01*
X193648628Y-186385771D01*
X193505771Y-186314342D01*
X193434342Y-186171485D01*
X193434342Y-185600057D01*
X193505771Y-185457200D01*
X193648628Y-185385771D01*
X193934342Y-185385771D01*
X194077200Y-185457200D01*
X194148628Y-185600057D01*
X194148628Y-185742914D01*
X193434342Y-185885771D01*
X194791485Y-186385771D02*
X194791485Y-185385771D01*
X194791485Y-185671485D02*
X194862914Y-185528628D01*
X194934342Y-185457200D01*
X195077200Y-185385771D01*
X195220057Y-185385771D01*
X195577200Y-185385771D02*
X195934342Y-186385771D01*
X196291485Y-185385771D02*
X195934342Y-186385771D01*
X195791485Y-186742914D01*
X195720057Y-186814342D01*
X195577200Y-186885771D01*
X196505771Y-186528628D02*
X197648628Y-186528628D01*
X198220057Y-186385771D02*
X198077200Y-186314342D01*
X198005771Y-186171485D01*
X198005771Y-184885771D01*
X199005771Y-186385771D02*
X198862914Y-186314342D01*
X198791485Y-186242914D01*
X198720057Y-186100057D01*
X198720057Y-185671485D01*
X198791485Y-185528628D01*
X198862914Y-185457200D01*
X199005771Y-185385771D01*
X199220057Y-185385771D01*
X199362914Y-185457200D01*
X199434342Y-185528628D01*
X199505771Y-185671485D01*
X199505771Y-186100057D01*
X199434342Y-186242914D01*
X199362914Y-186314342D01*
X199220057Y-186385771D01*
X199005771Y-186385771D01*
X200791485Y-185385771D02*
X200791485Y-186600057D01*
X200720057Y-186742914D01*
X200648628Y-186814342D01*
X200505771Y-186885771D01*
X200291485Y-186885771D01*
X200148628Y-186814342D01*
X200791485Y-186314342D02*
X200648628Y-186385771D01*
X200362914Y-186385771D01*
X200220057Y-186314342D01*
X200148628Y-186242914D01*
X200077200Y-186100057D01*
X200077200Y-185671485D01*
X200148628Y-185528628D01*
X200220057Y-185457200D01*
X200362914Y-185385771D01*
X200648628Y-185385771D01*
X200791485Y-185457200D01*
X202148628Y-185385771D02*
X202148628Y-186600057D01*
X202077200Y-186742914D01*
X202005771Y-186814342D01*
X201862914Y-186885771D01*
X201648628Y-186885771D01*
X201505771Y-186814342D01*
X202148628Y-186314342D02*
X202005771Y-186385771D01*
X201720057Y-186385771D01*
X201577200Y-186314342D01*
X201505771Y-186242914D01*
X201434342Y-186100057D01*
X201434342Y-185671485D01*
X201505771Y-185528628D01*
X201577200Y-185457200D01*
X201720057Y-185385771D01*
X202005771Y-185385771D01*
X202148628Y-185457200D01*
X203434342Y-186314342D02*
X203291485Y-186385771D01*
X203005771Y-186385771D01*
X202862914Y-186314342D01*
X202791485Y-186171485D01*
X202791485Y-185600057D01*
X202862914Y-185457200D01*
X203005771Y-185385771D01*
X203291485Y-185385771D01*
X203434342Y-185457200D01*
X203505771Y-185600057D01*
X203505771Y-185742914D01*
X202791485Y-185885771D01*
X204148628Y-186385771D02*
X204148628Y-185385771D01*
X204148628Y-185671485D02*
X204220057Y-185528628D01*
X204291485Y-185457200D01*
X204434342Y-185385771D01*
X204577200Y-185385771D01*
X205077200Y-186242914D02*
X205148628Y-186314342D01*
X205077200Y-186385771D01*
X205005771Y-186314342D01*
X205077200Y-186242914D01*
X205077200Y-186385771D01*
X205791485Y-186385771D02*
X205791485Y-184885771D01*
X205934342Y-185814342D02*
X206362914Y-186385771D01*
X206362914Y-185385771D02*
X205791485Y-185957200D01*
X207005771Y-186385771D02*
X207005771Y-185385771D01*
X207005771Y-184885771D02*
X206934342Y-184957200D01*
X207005771Y-185028628D01*
X207077200Y-184957200D01*
X207005771Y-184885771D01*
X207005771Y-185028628D01*
X208362914Y-186314342D02*
X208220057Y-186385771D01*
X207934342Y-186385771D01*
X207791485Y-186314342D01*
X207720057Y-186242914D01*
X207648628Y-186100057D01*
X207648628Y-185671485D01*
X207720057Y-185528628D01*
X207791485Y-185457200D01*
X207934342Y-185385771D01*
X208220057Y-185385771D01*
X208362914Y-185457200D01*
X209648628Y-186385771D02*
X209648628Y-185600057D01*
X209577200Y-185457200D01*
X209434342Y-185385771D01*
X209148628Y-185385771D01*
X209005771Y-185457200D01*
X209648628Y-186314342D02*
X209505771Y-186385771D01*
X209148628Y-186385771D01*
X209005771Y-186314342D01*
X208934342Y-186171485D01*
X208934342Y-186028628D01*
X209005771Y-185885771D01*
X209148628Y-185814342D01*
X209505771Y-185814342D01*
X209648628Y-185742914D01*
X211005771Y-186385771D02*
X211005771Y-184885771D01*
X211005771Y-186314342D02*
X210862914Y-186385771D01*
X210577200Y-186385771D01*
X210434342Y-186314342D01*
X210362914Y-186242914D01*
X210291485Y-186100057D01*
X210291485Y-185671485D01*
X210362914Y-185528628D01*
X210434342Y-185457200D01*
X210577200Y-185385771D01*
X210862914Y-185385771D01*
X211005771Y-185457200D01*
X211362914Y-186528628D02*
X212505771Y-186528628D01*
X212862914Y-185385771D02*
X212862914Y-186885771D01*
X212862914Y-185457200D02*
X213005771Y-185385771D01*
X213291485Y-185385771D01*
X213434342Y-185457200D01*
X213505771Y-185528628D01*
X213577200Y-185671485D01*
X213577200Y-186100057D01*
X213505771Y-186242914D01*
X213434342Y-186314342D01*
X213291485Y-186385771D01*
X213005771Y-186385771D01*
X212862914Y-186314342D01*
X214862914Y-186314342D02*
X214720057Y-186385771D01*
X214434342Y-186385771D01*
X214291485Y-186314342D01*
X214220057Y-186242914D01*
X214148628Y-186100057D01*
X214148628Y-185671485D01*
X214220057Y-185528628D01*
X214291485Y-185457200D01*
X214434342Y-185385771D01*
X214720057Y-185385771D01*
X214862914Y-185457200D01*
X215505771Y-186385771D02*
X215505771Y-184885771D01*
X215505771Y-185457200D02*
X215648628Y-185385771D01*
X215934342Y-185385771D01*
X216077200Y-185457200D01*
X216148628Y-185528628D01*
X216220057Y-185671485D01*
X216220057Y-186100057D01*
X216148628Y-186242914D01*
X216077200Y-186314342D01*
X215934342Y-186385771D01*
X215648628Y-186385771D01*
X215505771Y-186314342D01*
D10*
D11*
X177002200Y-181507200D02*
X285002200Y-181507200D01*
D10*
D11*
X178362914Y-183614342D02*
X178577200Y-183685771D01*
X178934342Y-183685771D01*
X179077200Y-183614342D01*
X179148628Y-183542914D01*
X179220057Y-183400057D01*
X179220057Y-183257200D01*
X179148628Y-183114342D01*
X179077200Y-183042914D01*
X178934342Y-182971485D01*
X178648628Y-182900057D01*
X178505771Y-182828628D01*
X178434342Y-182757200D01*
X178362914Y-182614342D01*
X178362914Y-182471485D01*
X178434342Y-182328628D01*
X178505771Y-182257200D01*
X178648628Y-182185771D01*
X179005771Y-182185771D01*
X179220057Y-182257200D01*
X179862914Y-183685771D02*
X179862914Y-182185771D01*
X180505771Y-183685771D02*
X180505771Y-182900057D01*
X180434342Y-182757200D01*
X180291485Y-182685771D01*
X180077200Y-182685771D01*
X179934342Y-182757200D01*
X179862914Y-182828628D01*
X181791485Y-183614342D02*
X181648628Y-183685771D01*
X181362914Y-183685771D01*
X181220057Y-183614342D01*
X181148628Y-183471485D01*
X181148628Y-182900057D01*
X181220057Y-182757200D01*
X181362914Y-182685771D01*
X181648628Y-182685771D01*
X181791485Y-182757200D01*
X181862914Y-182900057D01*
X181862914Y-183042914D01*
X181148628Y-183185771D01*
X183077200Y-183614342D02*
X182934342Y-183685771D01*
X182648628Y-183685771D01*
X182505771Y-183614342D01*
X182434342Y-183471485D01*
X182434342Y-182900057D01*
X182505771Y-182757200D01*
X182648628Y-182685771D01*
X182934342Y-182685771D01*
X183077200Y-182757200D01*
X183148628Y-182900057D01*
X183148628Y-183042914D01*
X182434342Y-183185771D01*
X183577200Y-182685771D02*
X184148628Y-182685771D01*
X183791485Y-182185771D02*
X183791485Y-183471485D01*
X183862914Y-183614342D01*
X184005771Y-183685771D01*
X184148628Y-183685771D01*
X184648628Y-183542914D02*
X184720057Y-183614342D01*
X184648628Y-183685771D01*
X184577200Y-183614342D01*
X184648628Y-183542914D01*
X184648628Y-183685771D01*
X184648628Y-182757200D02*
X184720057Y-182828628D01*
X184648628Y-182900057D01*
X184577200Y-182828628D01*
X184648628Y-182757200D01*
X184648628Y-182900057D01*
D10*
D11*
X197002200Y-191507200D02*
X197002200Y-194507200D01*
D10*
D11*
X261002200Y-191507200D02*
X261002200Y-198007200D01*
D10*
X131826000Y-113792000D02*
X131826000Y-63881000D01*
X181737000Y-113792000D02*
X131826000Y-113792000D01*
X181737000Y-63881000D02*
X181737000Y-113792000D01*
X131826000Y-63881000D02*
X181737000Y-63881000D01*
X180165166Y-110744000D02*
G75*
G03X180165166Y-110744000I-1666666J0D01*
G01*
X175998500Y-110744000D02*
X180998500Y-110744000D01*
X178498500Y-108244000D02*
X178498500Y-113244000D01*
D12*
X174859000Y-111970357D02*
X174644714Y-112041785D01*
X174573285Y-112113214D01*
X174501857Y-112256071D01*
X174501857Y-112470357D01*
X174573285Y-112613214D01*
X174644714Y-112684642D01*
X174787571Y-112756071D01*
X175359000Y-112756071D01*
X175359000Y-111256071D01*
X174859000Y-111256071D01*
X174716142Y-111327500D01*
X174644714Y-111398928D01*
X174573285Y-111541785D01*
X174573285Y-111684642D01*
X174644714Y-111827500D01*
X174716142Y-111898928D01*
X174859000Y-111970357D01*
X175359000Y-111970357D01*
X173573285Y-111256071D02*
X173287571Y-111256071D01*
X173144714Y-111327500D01*
X173001857Y-111470357D01*
X172930428Y-111756071D01*
X172930428Y-112256071D01*
X173001857Y-112541785D01*
X173144714Y-112684642D01*
X173287571Y-112756071D01*
X173573285Y-112756071D01*
X173716142Y-112684642D01*
X173859000Y-112541785D01*
X173930428Y-112256071D01*
X173930428Y-111756071D01*
X173859000Y-111470357D01*
X173716142Y-111327500D01*
X173573285Y-111256071D01*
X172501857Y-111256071D02*
X171644714Y-111256071D01*
X172073285Y-112756071D02*
X172073285Y-111256071D01*
D10*
G36*
X137444239Y-91440000D02*
X136525000Y-92359239D01*
X135605761Y-91440000D01*
X136525000Y-90520761D01*
X137444239Y-91440000D01*
X137444239Y-91440000D01*
G37*
D14*
X135110786Y-90025786D03*
D15*
X175768000Y-102806500D03*
X175768000Y-105346500D03*
X175768000Y-100266500D03*
X173228000Y-100266500D03*
X173228000Y-102806500D03*
X173228000Y-105346500D03*
D16*
X139446000Y-108839000D03*
D17*
X141986000Y-108839000D03*
D16*
X146431000Y-108839000D03*
D17*
X148971000Y-108839000D03*
D15*
X136144000Y-67183000D03*
X136144000Y-69723000D03*
X136144000Y-72263000D03*
X136144000Y-74803000D03*
D18*
X139890500Y-67106500D03*
X139890500Y-75006500D03*
D19*
X150114000Y-95110300D03*
X150114000Y-93611700D03*
D15*
X134988300Y-103289100D03*
X134988300Y-105829100D03*
X134988300Y-108889800D03*
X134988300Y-111429800D03*
X172847000Y-67564000D03*
X175387000Y-67564000D03*
X177927000Y-67564000D03*
D20*
X153924000Y-69913500D03*
X154813000Y-69151500D03*
X151066500Y-69850000D03*
X149669500Y-69786500D03*
X171577000Y-88963500D03*
X171069000Y-87693500D03*
X156718000Y-94234000D03*
X155829000Y-93535500D03*
X169291000Y-83439000D03*
X171386500Y-81470500D03*
X169354500Y-81470500D03*
X148336000Y-103060500D03*
X147193000Y-103060500D03*
X146113500Y-103060500D03*
X168719500Y-108902500D03*
X168719500Y-100266500D03*
X168910000Y-104140000D03*
X173037500Y-87820500D03*
X163703000Y-72644000D03*
X164782500Y-85788500D03*
X154051000Y-85788500D03*
X147955000Y-76581000D03*
X147955000Y-64643000D03*
X147256500Y-74803000D03*
X147256500Y-66421000D03*
X167513000Y-98552000D03*
X161480500Y-98806000D03*
X167449500Y-107251500D03*
X158178500Y-90614500D03*
X165036500Y-90551000D03*
X175768000Y-97726500D03*
X153225500Y-84645500D03*
X155511500Y-82931000D03*
X157988000Y-82931000D03*
X175577500Y-84709000D03*
X157353000Y-100203000D03*
X153797000Y-72072500D03*
X159004000Y-77597000D03*
X178879500Y-90360500D03*
X171386500Y-90360500D03*
X170053000Y-88900000D03*
X156146500Y-88836500D03*
X178879500Y-94170500D03*
X170053000Y-94234000D03*
X157353000Y-89725500D03*
X150812500Y-111506000D03*
X157162500Y-99060000D03*
X157099000Y-91503500D03*
X165862000Y-91249500D03*
X155892500Y-109156500D03*
X158750000Y-100139500D03*
X157416500Y-79502000D03*
X157416500Y-75628500D03*
X156210000Y-69024500D03*
X158559500Y-68389500D03*
X163068000Y-68326000D03*
X157734000Y-81724500D03*
X156210000Y-81915000D03*
X160020000Y-77470000D03*
X162687000Y-86741000D03*
X168910000Y-86423500D03*
X161163000Y-82169000D03*
X155448000Y-84645500D03*
D21*
X153924000Y-69913500D02*
X154686000Y-69151500D01*
X154686000Y-69151500D02*
X154813000Y-69151500D01*
X149733000Y-69850000D02*
X151066500Y-69850000D01*
X149669500Y-69786500D02*
X149733000Y-69850000D01*
D22*
X171577000Y-88201500D02*
X171577000Y-88963500D01*
X171069000Y-87693500D02*
X171577000Y-88201500D01*
X156527500Y-94234000D02*
X156718000Y-94234000D01*
X155829000Y-93535500D02*
X156527500Y-94234000D01*
X169354500Y-81470500D02*
X171386500Y-81470500D01*
X146113500Y-103060500D02*
X147193000Y-103060500D01*
X168910000Y-108712000D02*
X168910000Y-104140000D01*
X168719500Y-108902500D02*
X168910000Y-108712000D01*
X168719500Y-103949500D02*
X168719500Y-100266500D01*
X168910000Y-104140000D02*
X168719500Y-103949500D01*
X164147500Y-85788500D02*
X167513000Y-85788500D01*
X167513000Y-85788500D02*
X168211500Y-85090000D01*
X168211500Y-85090000D02*
X170307000Y-85090000D01*
X170307000Y-85090000D02*
X173037500Y-87820500D01*
X163703000Y-85788500D02*
X163703000Y-72644000D01*
X154051000Y-85788500D02*
X163703000Y-85788500D01*
X163703000Y-85788500D02*
X164147500Y-85788500D01*
X164147500Y-85788500D02*
X164782500Y-85788500D01*
D21*
X147955000Y-64643000D02*
X147955000Y-76581000D01*
X147256500Y-66421000D02*
X147256500Y-74803000D01*
D22*
X178689000Y-102806500D02*
X178752500Y-102743000D01*
X178752500Y-102743000D02*
X178752500Y-98679000D01*
X178752500Y-98679000D02*
X178625500Y-98552000D01*
X178625500Y-98552000D02*
X167513000Y-98552000D01*
X178689000Y-102806500D02*
X175768000Y-102806500D01*
X161480500Y-101282500D02*
X161480500Y-98806000D01*
X167449500Y-107251500D02*
X161480500Y-101282500D01*
X158365098Y-90427902D02*
X158178500Y-90614500D01*
X164913402Y-90427902D02*
X158365098Y-90427902D01*
X165036500Y-90551000D02*
X164913402Y-90427902D01*
X166116000Y-97726500D02*
X175768000Y-97726500D01*
X160718500Y-92329000D02*
X166116000Y-97726500D01*
X156210000Y-92329000D02*
X160718500Y-92329000D01*
X156210000Y-90106500D02*
X156210000Y-92329000D01*
X154559000Y-88455500D02*
X156210000Y-90106500D01*
X154559000Y-86931500D02*
X154559000Y-88455500D01*
X154495500Y-86868000D02*
X154559000Y-86931500D01*
X153225500Y-86868000D02*
X154495500Y-86868000D01*
X153225500Y-84645500D02*
X153225500Y-86868000D01*
X157988000Y-82931000D02*
X155511500Y-82931000D01*
X173228000Y-102806500D02*
X173291500Y-102806500D01*
X173291500Y-102806500D02*
X174498000Y-104013000D01*
X174498000Y-104013000D02*
X180911500Y-104013000D01*
X180911500Y-84899500D02*
X180911500Y-104013000D01*
X180911500Y-104013000D02*
X180911500Y-104140000D01*
X180721000Y-84709000D02*
X180911500Y-84899500D01*
X175577500Y-84709000D02*
X180721000Y-84709000D01*
X145859500Y-112712500D02*
X141986000Y-108839000D01*
X151066500Y-112712500D02*
X145859500Y-112712500D01*
X152019000Y-111760000D02*
X151066500Y-112712500D01*
X152019000Y-105537000D02*
X152019000Y-111760000D01*
X157353000Y-100203000D02*
X152019000Y-105537000D01*
X141986000Y-108839000D02*
X142430500Y-108839000D01*
D21*
X157797500Y-72072500D02*
X153797000Y-72072500D01*
X158686500Y-72961500D02*
X157797500Y-72072500D01*
X158686500Y-77279500D02*
X158686500Y-72961500D01*
X159004000Y-77597000D02*
X158686500Y-77279500D01*
D22*
X171386500Y-90360500D02*
X178879500Y-90360500D01*
X156210000Y-88900000D02*
X170053000Y-88900000D01*
X156146500Y-88836500D02*
X156210000Y-88900000D01*
X170053000Y-94234000D02*
X178816000Y-94234000D01*
X178816000Y-94234000D02*
X178879500Y-94170500D01*
X170053000Y-89789000D02*
X170053000Y-94234000D01*
X170116500Y-89725500D02*
X170053000Y-89789000D01*
X165735000Y-89725500D02*
X170116500Y-89725500D01*
X157353000Y-89725500D02*
X165735000Y-89725500D01*
X151130000Y-111188500D02*
X150812500Y-111506000D01*
X151130000Y-105092500D02*
X151130000Y-111188500D01*
X157162500Y-99060000D02*
X151130000Y-105092500D01*
X165608000Y-91503500D02*
X157099000Y-91503500D01*
X165862000Y-91249500D02*
X165608000Y-91503500D01*
X155892500Y-102997000D02*
X155892500Y-109156500D01*
X158750000Y-100139500D02*
X155892500Y-102997000D01*
X157416500Y-75628500D02*
X157416500Y-79502000D01*
X157924500Y-69024500D02*
X156210000Y-69024500D01*
X158559500Y-68389500D02*
X157924500Y-69024500D01*
X160909000Y-70485000D02*
X163068000Y-68326000D01*
X160909000Y-78549500D02*
X160909000Y-70485000D01*
X157734000Y-81724500D02*
X160909000Y-78549500D01*
X159893000Y-78232000D02*
X156210000Y-81915000D01*
X159893000Y-77597000D02*
X159893000Y-78232000D01*
X160020000Y-77470000D02*
X159893000Y-77597000D01*
X168592500Y-86741000D02*
X162687000Y-86741000D01*
X168910000Y-86423500D02*
X168592500Y-86741000D01*
X161163000Y-82169000D02*
X158686500Y-84645500D01*
X158686500Y-84645500D02*
X155448000Y-84645500D01*
D23*
X136144000Y-69723000D02*
X137274000Y-69723000D01*
X137274000Y-69723000D02*
X139890500Y-67106500D01*
X136144000Y-72263000D02*
X137922000Y-72263000D01*
X137922000Y-72263000D02*
X139890500Y-74231500D01*
X139890500Y-74231500D02*
X139890500Y-75006500D01*
D24*
G36*
X147140142Y-64480175D02*
X147139859Y-64804402D01*
X147263674Y-65104057D01*
X147365000Y-65205560D01*
X147365000Y-65606095D01*
X147095098Y-65605859D01*
X146795443Y-65729674D01*
X146565979Y-65958737D01*
X146441642Y-66258175D01*
X146441359Y-66582402D01*
X146565174Y-66882057D01*
X146666500Y-66983560D01*
X146666500Y-74240392D01*
X146565979Y-74340737D01*
X146441642Y-74640175D01*
X146441359Y-74964402D01*
X146565174Y-75264057D01*
X146794237Y-75493521D01*
X147093675Y-75617858D01*
X147365000Y-75618095D01*
X147365000Y-76018392D01*
X147264479Y-76118737D01*
X147140142Y-76418175D01*
X147139859Y-76742402D01*
X147263674Y-77042057D01*
X147492737Y-77271521D01*
X147792175Y-77395858D01*
X148116402Y-77396141D01*
X148416057Y-77272326D01*
X148645521Y-77043263D01*
X148769858Y-76743825D01*
X148770141Y-76419598D01*
X148646326Y-76119943D01*
X148545000Y-76018440D01*
X148545000Y-72233902D01*
X152981859Y-72233902D01*
X153105674Y-72533557D01*
X153334737Y-72763021D01*
X153634175Y-72887358D01*
X153958402Y-72887641D01*
X154258057Y-72763826D01*
X154359560Y-72662500D01*
X157553114Y-72662500D01*
X158096500Y-73205886D01*
X158096500Y-75156097D01*
X157878763Y-74937979D01*
X157579325Y-74813642D01*
X157255098Y-74813359D01*
X156955443Y-74937174D01*
X156725979Y-75166237D01*
X156601642Y-75465675D01*
X156601359Y-75789902D01*
X156676500Y-75971757D01*
X156676500Y-79158896D01*
X156601642Y-79339175D01*
X156601359Y-79663402D01*
X156725174Y-79963057D01*
X156920129Y-80158353D01*
X155929351Y-81149131D01*
X155748943Y-81223674D01*
X155519479Y-81452737D01*
X155395142Y-81752175D01*
X155394859Y-82076402D01*
X155411184Y-82115912D01*
X155350098Y-82115859D01*
X155050443Y-82239674D01*
X154820979Y-82468737D01*
X154696642Y-82768175D01*
X154696359Y-83092402D01*
X154820174Y-83392057D01*
X155049237Y-83621521D01*
X155348675Y-83745858D01*
X155672902Y-83746141D01*
X155854757Y-83671000D01*
X157644896Y-83671000D01*
X157825175Y-83745858D01*
X158149402Y-83746141D01*
X158449057Y-83622326D01*
X158678521Y-83393263D01*
X158802858Y-83093825D01*
X158803141Y-82769598D01*
X158679326Y-82469943D01*
X158450263Y-82240479D01*
X158394081Y-82217150D01*
X158424521Y-82186763D01*
X158499979Y-82005039D01*
X161432259Y-79072759D01*
X161592671Y-78832686D01*
X161649000Y-78549500D01*
X161649000Y-70791518D01*
X163348649Y-69091869D01*
X163529057Y-69017326D01*
X163758521Y-68788263D01*
X163858120Y-68548399D01*
X172129888Y-68548399D01*
X172207588Y-68765621D01*
X172716101Y-68918846D01*
X173244542Y-68865807D01*
X173486412Y-68765621D01*
X173564112Y-68548399D01*
X172847000Y-67831286D01*
X172129888Y-68548399D01*
X163858120Y-68548399D01*
X163882858Y-68488825D01*
X163883141Y-68164598D01*
X163759326Y-67864943D01*
X163530263Y-67635479D01*
X163230825Y-67511142D01*
X162906598Y-67510859D01*
X162606943Y-67634674D01*
X162377479Y-67863737D01*
X162302021Y-68045461D01*
X160385741Y-69961741D01*
X160225329Y-70201814D01*
X160169000Y-70485000D01*
X160169000Y-76655130D01*
X159858598Y-76654859D01*
X159558943Y-76778674D01*
X159441299Y-76896113D01*
X159276500Y-76827683D01*
X159276500Y-72961500D01*
X159231589Y-72735717D01*
X159103693Y-72544307D01*
X158214693Y-71655307D01*
X158023283Y-71527411D01*
X157797500Y-71482500D01*
X154359608Y-71482500D01*
X154259263Y-71381979D01*
X153959825Y-71257642D01*
X153635598Y-71257359D01*
X153335943Y-71381174D01*
X153106479Y-71610237D01*
X152982142Y-71909675D01*
X152981859Y-72233902D01*
X148545000Y-72233902D01*
X148545000Y-69185902D01*
X155394859Y-69185902D01*
X155518674Y-69485557D01*
X155747737Y-69715021D01*
X156047175Y-69839358D01*
X156371402Y-69839641D01*
X156553257Y-69764500D01*
X157924500Y-69764500D01*
X158207686Y-69708171D01*
X158447759Y-69547759D01*
X158840149Y-69155369D01*
X159020557Y-69080826D01*
X159250021Y-68851763D01*
X159374358Y-68552325D01*
X159374641Y-68228098D01*
X159250826Y-67928443D01*
X159021763Y-67698979D01*
X158722325Y-67574642D01*
X158398098Y-67574359D01*
X158098443Y-67698174D01*
X157868979Y-67927237D01*
X157793521Y-68108961D01*
X157617982Y-68284500D01*
X156553104Y-68284500D01*
X156372825Y-68209642D01*
X156048598Y-68209359D01*
X155748943Y-68333174D01*
X155519479Y-68562237D01*
X155395142Y-68861675D01*
X155394859Y-69185902D01*
X148545000Y-69185902D01*
X148545000Y-67433101D01*
X171492154Y-67433101D01*
X171545193Y-67961542D01*
X171645379Y-68203412D01*
X171862601Y-68281112D01*
X172579714Y-67564000D01*
X173114286Y-67564000D01*
X173831399Y-68281112D01*
X174048621Y-68203412D01*
X174164577Y-67818585D01*
X174346194Y-68258131D01*
X174691053Y-68603593D01*
X175141864Y-68790786D01*
X175629995Y-68791212D01*
X176081131Y-68604806D01*
X176426593Y-68259947D01*
X176613786Y-67809136D01*
X176613787Y-67806995D01*
X176699788Y-67806995D01*
X176886194Y-68258131D01*
X177231053Y-68603593D01*
X177681864Y-68790786D01*
X178169995Y-68791212D01*
X178621131Y-68604806D01*
X178966593Y-68259947D01*
X179153786Y-67809136D01*
X179154212Y-67321005D01*
X178967806Y-66869869D01*
X178622947Y-66524407D01*
X178172136Y-66337214D01*
X177684005Y-66336788D01*
X177232869Y-66523194D01*
X176887407Y-66868053D01*
X176700214Y-67318864D01*
X176699788Y-67806995D01*
X176613787Y-67806995D01*
X176614212Y-67321005D01*
X176427806Y-66869869D01*
X176082947Y-66524407D01*
X175632136Y-66337214D01*
X175144005Y-66336788D01*
X174692869Y-66523194D01*
X174347407Y-66868053D01*
X174163347Y-67311320D01*
X174148807Y-67166458D01*
X174048621Y-66924588D01*
X173831399Y-66846888D01*
X173114286Y-67564000D01*
X172579714Y-67564000D01*
X171862601Y-66846888D01*
X171645379Y-66924588D01*
X171492154Y-67433101D01*
X148545000Y-67433101D01*
X148545000Y-66579601D01*
X172129888Y-66579601D01*
X172847000Y-67296714D01*
X173564112Y-66579601D01*
X173486412Y-66362379D01*
X172977899Y-66209154D01*
X172449458Y-66262193D01*
X172207588Y-66362379D01*
X172129888Y-66579601D01*
X148545000Y-66579601D01*
X148545000Y-65205608D01*
X148645521Y-65105263D01*
X148769858Y-64805825D01*
X148770141Y-64481598D01*
X148734773Y-64396000D01*
X181222000Y-64396000D01*
X181222000Y-84170868D01*
X181004186Y-84025329D01*
X180721000Y-83969000D01*
X175920604Y-83969000D01*
X175740325Y-83894142D01*
X175416098Y-83893859D01*
X175116443Y-84017674D01*
X174886979Y-84246737D01*
X174762642Y-84546175D01*
X174762359Y-84870402D01*
X174886174Y-85170057D01*
X175115237Y-85399521D01*
X175414675Y-85523858D01*
X175738902Y-85524141D01*
X175920757Y-85449000D01*
X180171500Y-85449000D01*
X180171500Y-103273000D01*
X179269018Y-103273000D01*
X179275759Y-103266259D01*
X179347961Y-103158201D01*
X179436171Y-103026186D01*
X179492500Y-102743000D01*
X179492500Y-98679000D01*
X179436171Y-98395814D01*
X179275759Y-98155741D01*
X179148759Y-98028741D01*
X178908686Y-97868329D01*
X178625500Y-97812000D01*
X176582925Y-97812000D01*
X176583141Y-97565098D01*
X176459326Y-97265443D01*
X176230263Y-97035979D01*
X175930825Y-96911642D01*
X175606598Y-96911359D01*
X175424743Y-96986500D01*
X166422518Y-96986500D01*
X161679518Y-92243500D01*
X165608000Y-92243500D01*
X165891186Y-92187171D01*
X166131259Y-92026759D01*
X166142649Y-92015369D01*
X166323057Y-91940826D01*
X166552521Y-91711763D01*
X166676858Y-91412325D01*
X166677141Y-91088098D01*
X166553326Y-90788443D01*
X166324263Y-90558979D01*
X166099140Y-90465500D01*
X169313000Y-90465500D01*
X169313000Y-93890896D01*
X169238142Y-94071175D01*
X169237859Y-94395402D01*
X169361674Y-94695057D01*
X169590737Y-94924521D01*
X169890175Y-95048858D01*
X170214402Y-95049141D01*
X170396257Y-94974000D01*
X178689322Y-94974000D01*
X178716675Y-94985358D01*
X179040902Y-94985641D01*
X179340557Y-94861826D01*
X179570021Y-94632763D01*
X179694358Y-94333325D01*
X179694641Y-94009098D01*
X179570826Y-93709443D01*
X179341763Y-93479979D01*
X179042325Y-93355642D01*
X178718098Y-93355359D01*
X178418443Y-93479174D01*
X178403591Y-93494000D01*
X170793000Y-93494000D01*
X170793000Y-90919554D01*
X170924237Y-91051021D01*
X171223675Y-91175358D01*
X171547902Y-91175641D01*
X171729757Y-91100500D01*
X178536396Y-91100500D01*
X178716675Y-91175358D01*
X179040902Y-91175641D01*
X179340557Y-91051826D01*
X179570021Y-90822763D01*
X179694358Y-90523325D01*
X179694641Y-90199098D01*
X179570826Y-89899443D01*
X179341763Y-89669979D01*
X179042325Y-89545642D01*
X178718098Y-89545359D01*
X178536243Y-89620500D01*
X171729604Y-89620500D01*
X171549325Y-89545642D01*
X171225098Y-89545359D01*
X170925443Y-89669174D01*
X170853398Y-89741093D01*
X170856500Y-89725500D01*
X170800171Y-89442314D01*
X170744733Y-89359345D01*
X170867858Y-89062825D01*
X170868141Y-88738598D01*
X170744326Y-88438943D01*
X170515263Y-88209479D01*
X170215825Y-88085142D01*
X169891598Y-88084859D01*
X169709743Y-88160000D01*
X156622759Y-88160000D01*
X156608763Y-88145979D01*
X156309325Y-88021642D01*
X155985098Y-88021359D01*
X155685443Y-88145174D01*
X155490147Y-88340129D01*
X155299000Y-88148982D01*
X155299000Y-86931500D01*
X155242671Y-86648314D01*
X155162614Y-86528500D01*
X161892769Y-86528500D01*
X161872142Y-86578175D01*
X161871859Y-86902402D01*
X161995674Y-87202057D01*
X162224737Y-87431521D01*
X162524175Y-87555858D01*
X162848402Y-87556141D01*
X163030257Y-87481000D01*
X168592500Y-87481000D01*
X168875686Y-87424671D01*
X169115759Y-87264259D01*
X169190649Y-87189369D01*
X169371057Y-87114826D01*
X169600521Y-86885763D01*
X169724858Y-86586325D01*
X169725141Y-86262098D01*
X169601326Y-85962443D01*
X169469114Y-85830000D01*
X170000482Y-85830000D01*
X172271631Y-88101149D01*
X172346174Y-88281557D01*
X172575237Y-88511021D01*
X172874675Y-88635358D01*
X173198902Y-88635641D01*
X173498557Y-88511826D01*
X173728021Y-88282763D01*
X173852358Y-87983325D01*
X173852641Y-87659098D01*
X173728826Y-87359443D01*
X173499763Y-87129979D01*
X173318039Y-87054521D01*
X170830259Y-84566741D01*
X170590186Y-84406329D01*
X170307000Y-84350000D01*
X168211500Y-84350000D01*
X167928314Y-84406329D01*
X167688241Y-84566741D01*
X167206482Y-85048500D01*
X165125604Y-85048500D01*
X164945325Y-84973642D01*
X164621098Y-84973359D01*
X164443000Y-85046948D01*
X164443000Y-72987104D01*
X164517858Y-72806825D01*
X164518141Y-72482598D01*
X164394326Y-72182943D01*
X164165263Y-71953479D01*
X163865825Y-71829142D01*
X163541598Y-71828859D01*
X163241943Y-71952674D01*
X163012479Y-72181737D01*
X162888142Y-72481175D01*
X162887859Y-72805402D01*
X162963000Y-72987257D01*
X162963000Y-85048500D01*
X159330018Y-85048500D01*
X161443649Y-82934869D01*
X161624057Y-82860326D01*
X161853521Y-82631263D01*
X161977858Y-82331825D01*
X161978141Y-82007598D01*
X161854326Y-81707943D01*
X161625263Y-81478479D01*
X161325825Y-81354142D01*
X161001598Y-81353859D01*
X160701943Y-81477674D01*
X160472479Y-81706737D01*
X160397021Y-81888461D01*
X158379982Y-83905500D01*
X155791104Y-83905500D01*
X155610825Y-83830642D01*
X155286598Y-83830359D01*
X154986943Y-83954174D01*
X154757479Y-84183237D01*
X154633142Y-84482675D01*
X154632859Y-84806902D01*
X154732685Y-85048500D01*
X154394104Y-85048500D01*
X154213825Y-84973642D01*
X153971800Y-84973431D01*
X154040358Y-84808325D01*
X154040641Y-84484098D01*
X153916826Y-84184443D01*
X153687763Y-83954979D01*
X153388325Y-83830642D01*
X153064098Y-83830359D01*
X152764443Y-83954174D01*
X152534979Y-84183237D01*
X152410642Y-84482675D01*
X152410359Y-84806902D01*
X152485500Y-84988757D01*
X152485500Y-86868000D01*
X152541829Y-87151186D01*
X152702241Y-87391259D01*
X152942314Y-87551671D01*
X153225500Y-87608000D01*
X153819000Y-87608000D01*
X153819000Y-88455500D01*
X153875329Y-88738686D01*
X154035741Y-88978759D01*
X155470000Y-90413018D01*
X155470000Y-92329000D01*
X155526329Y-92612186D01*
X155686741Y-92852259D01*
X155926814Y-93012671D01*
X156210000Y-93069000D01*
X160411982Y-93069000D01*
X165592741Y-98249759D01*
X165832814Y-98410171D01*
X166116000Y-98466500D01*
X166698075Y-98466500D01*
X166697859Y-98713402D01*
X166821674Y-99013057D01*
X167050737Y-99242521D01*
X167350175Y-99366858D01*
X167674402Y-99367141D01*
X167856257Y-99292000D01*
X172520787Y-99292000D01*
X173228000Y-99999214D01*
X173935213Y-99292000D01*
X175007447Y-99292000D01*
X174728407Y-99570553D01*
X174544347Y-100013820D01*
X174529807Y-99868958D01*
X174429621Y-99627088D01*
X174212399Y-99549388D01*
X173495286Y-100266500D01*
X174212399Y-100983612D01*
X174429621Y-100905912D01*
X174545577Y-100521085D01*
X174727194Y-100960631D01*
X175072053Y-101306093D01*
X175522864Y-101493286D01*
X176010995Y-101493712D01*
X176462131Y-101307306D01*
X176807593Y-100962447D01*
X176994786Y-100511636D01*
X176995212Y-100023505D01*
X176808806Y-99572369D01*
X176528926Y-99292000D01*
X178012500Y-99292000D01*
X178012500Y-102066500D01*
X176763017Y-102066500D01*
X176463947Y-101766907D01*
X176013136Y-101579714D01*
X175525005Y-101579288D01*
X175073869Y-101765694D01*
X174728407Y-102110553D01*
X174541214Y-102561364D01*
X174540823Y-103009305D01*
X174454898Y-102923380D01*
X174455212Y-102563505D01*
X174268806Y-102112369D01*
X173923947Y-101766907D01*
X173480680Y-101582847D01*
X173625542Y-101568307D01*
X173867412Y-101468121D01*
X173945112Y-101250899D01*
X173228000Y-100533786D01*
X172510888Y-101250899D01*
X172588588Y-101468121D01*
X172973415Y-101584077D01*
X172533869Y-101765694D01*
X172188407Y-102110553D01*
X172001214Y-102561364D01*
X172000788Y-103049495D01*
X172187194Y-103500631D01*
X172532053Y-103846093D01*
X172982864Y-104033286D01*
X173470995Y-104033712D01*
X173471843Y-104033361D01*
X173618596Y-104180114D01*
X173473136Y-104119714D01*
X172985005Y-104119288D01*
X172533869Y-104305694D01*
X172188407Y-104650553D01*
X172001214Y-105101364D01*
X172000788Y-105589495D01*
X172187194Y-106040631D01*
X172532053Y-106386093D01*
X172982864Y-106573286D01*
X173470995Y-106573712D01*
X173922131Y-106387306D01*
X174267593Y-106042447D01*
X174454786Y-105591636D01*
X174455212Y-105103505D01*
X174293585Y-104712340D01*
X174498000Y-104753000D01*
X174685867Y-104753000D01*
X174541214Y-105101364D01*
X174540788Y-105589495D01*
X174727194Y-106040631D01*
X175072053Y-106386093D01*
X175522864Y-106573286D01*
X176010995Y-106573712D01*
X176462131Y-106387306D01*
X176807593Y-106042447D01*
X176994786Y-105591636D01*
X176995212Y-105103505D01*
X176850386Y-104753000D01*
X180522548Y-104753000D01*
X180628314Y-104823671D01*
X180911500Y-104880000D01*
X181194686Y-104823671D01*
X181222000Y-104805420D01*
X181222000Y-113277000D01*
X151528038Y-113277000D01*
X151589759Y-113235759D01*
X152542259Y-112283259D01*
X152702671Y-112043186D01*
X152759000Y-111760000D01*
X152759000Y-105843518D01*
X155152500Y-103450018D01*
X155152500Y-108813396D01*
X155077642Y-108993675D01*
X155077359Y-109317902D01*
X155201174Y-109617557D01*
X155430237Y-109847021D01*
X155729675Y-109971358D01*
X156053902Y-109971641D01*
X156353557Y-109847826D01*
X156583021Y-109618763D01*
X156707358Y-109319325D01*
X156707641Y-108995098D01*
X156632500Y-108813243D01*
X156632500Y-103303518D01*
X159030649Y-100905369D01*
X159211057Y-100830826D01*
X159440521Y-100601763D01*
X159564858Y-100302325D01*
X159565141Y-99978098D01*
X159441326Y-99678443D01*
X159212263Y-99448979D01*
X158912825Y-99324642D01*
X158588598Y-99324359D01*
X158288943Y-99448174D01*
X158059479Y-99677237D01*
X158036052Y-99733655D01*
X157839001Y-99536259D01*
X157853021Y-99522263D01*
X157977358Y-99222825D01*
X157977580Y-98967402D01*
X160665359Y-98967402D01*
X160740500Y-99149257D01*
X160740500Y-101282500D01*
X160796829Y-101565686D01*
X160957241Y-101805759D01*
X166683631Y-107532149D01*
X166758174Y-107712557D01*
X166987237Y-107942021D01*
X167286675Y-108066358D01*
X167610902Y-108066641D01*
X167910557Y-107942826D01*
X168140021Y-107713763D01*
X168170000Y-107641565D01*
X168170000Y-108299462D01*
X168028979Y-108440237D01*
X167904642Y-108739675D01*
X167904359Y-109063902D01*
X168028174Y-109363557D01*
X168257237Y-109593021D01*
X168556675Y-109717358D01*
X168880902Y-109717641D01*
X169180557Y-109593826D01*
X169410021Y-109364763D01*
X169513924Y-109114535D01*
X169593671Y-108995186D01*
X169650000Y-108712000D01*
X169650000Y-108331000D01*
X171258000Y-108331000D01*
X171258000Y-113030000D01*
X171262948Y-113054874D01*
X171277038Y-113075962D01*
X171298126Y-113090052D01*
X171323000Y-113095000D01*
X175768000Y-113095000D01*
X175792874Y-113090052D01*
X175813962Y-113075962D01*
X175828052Y-113054874D01*
X175833000Y-113030000D01*
X175833000Y-108331000D01*
X175828052Y-108306126D01*
X175813962Y-108285038D01*
X175792874Y-108270948D01*
X175768000Y-108266000D01*
X171323000Y-108266000D01*
X171298126Y-108270948D01*
X171277038Y-108285038D01*
X171262948Y-108306126D01*
X171258000Y-108331000D01*
X169650000Y-108331000D01*
X169650000Y-104483104D01*
X169724858Y-104302825D01*
X169725141Y-103978598D01*
X169601326Y-103678943D01*
X169459500Y-103536869D01*
X169459500Y-100609604D01*
X169534358Y-100429325D01*
X169534614Y-100135601D01*
X171873154Y-100135601D01*
X171926193Y-100664042D01*
X172026379Y-100905912D01*
X172243601Y-100983612D01*
X172960714Y-100266500D01*
X172243601Y-99549388D01*
X172026379Y-99627088D01*
X171873154Y-100135601D01*
X169534614Y-100135601D01*
X169534641Y-100105098D01*
X169410826Y-99805443D01*
X169181763Y-99575979D01*
X168882325Y-99451642D01*
X168558098Y-99451359D01*
X168258443Y-99575174D01*
X168028979Y-99804237D01*
X167904642Y-100103675D01*
X167904359Y-100427902D01*
X167979500Y-100609757D01*
X167979500Y-103949500D01*
X168035829Y-104232686D01*
X168116112Y-104352837D01*
X168170000Y-104483257D01*
X168170000Y-106861049D01*
X168140826Y-106790443D01*
X167911763Y-106560979D01*
X167730039Y-106485521D01*
X162220500Y-100975982D01*
X162220500Y-99149104D01*
X162295358Y-98968825D01*
X162295641Y-98644598D01*
X162171826Y-98344943D01*
X161942763Y-98115479D01*
X161643325Y-97991142D01*
X161319098Y-97990859D01*
X161019443Y-98114674D01*
X160789979Y-98343737D01*
X160665642Y-98643175D01*
X160665359Y-98967402D01*
X157977580Y-98967402D01*
X157977641Y-98898598D01*
X157853826Y-98598943D01*
X157624763Y-98369479D01*
X157325325Y-98245142D01*
X157001098Y-98244859D01*
X156701443Y-98368674D01*
X156471979Y-98597737D01*
X156396521Y-98779461D01*
X150606741Y-104569241D01*
X150446329Y-104809314D01*
X150390000Y-105092500D01*
X150390000Y-110798743D01*
X150351443Y-110814674D01*
X150121979Y-111043737D01*
X149997642Y-111343175D01*
X149997359Y-111667402D01*
X150121174Y-111967057D01*
X150126607Y-111972500D01*
X146166018Y-111972500D01*
X143375656Y-109182138D01*
X143400753Y-109121696D01*
X143401245Y-108558774D01*
X143186278Y-108038514D01*
X142987112Y-107839000D01*
X145006891Y-107839000D01*
X145006891Y-109839000D01*
X145042980Y-110020434D01*
X145145754Y-110174246D01*
X145299566Y-110277020D01*
X145481000Y-110313109D01*
X147381000Y-110313109D01*
X147562434Y-110277020D01*
X147716246Y-110174246D01*
X147819020Y-110020434D01*
X147855109Y-109839000D01*
X147855109Y-109724020D01*
X148168421Y-110037879D01*
X148688304Y-110253753D01*
X149251226Y-110254245D01*
X149771486Y-110039278D01*
X150169879Y-109641579D01*
X150385753Y-109121696D01*
X150386245Y-108558774D01*
X150171278Y-108038514D01*
X149773579Y-107640121D01*
X149253696Y-107424247D01*
X148690774Y-107423755D01*
X148170514Y-107638722D01*
X147855109Y-107953578D01*
X147855109Y-107839000D01*
X147819020Y-107657566D01*
X147716246Y-107503754D01*
X147562434Y-107400980D01*
X147381000Y-107364891D01*
X145481000Y-107364891D01*
X145299566Y-107400980D01*
X145145754Y-107503754D01*
X145042980Y-107657566D01*
X145006891Y-107839000D01*
X142987112Y-107839000D01*
X142788579Y-107640121D01*
X142268696Y-107424247D01*
X141705774Y-107423755D01*
X141185514Y-107638722D01*
X140870109Y-107953578D01*
X140870109Y-107839000D01*
X140834020Y-107657566D01*
X140731246Y-107503754D01*
X140577434Y-107400980D01*
X140396000Y-107364891D01*
X138496000Y-107364891D01*
X138314566Y-107400980D01*
X138160754Y-107503754D01*
X138057980Y-107657566D01*
X138021891Y-107839000D01*
X138021891Y-109839000D01*
X138057980Y-110020434D01*
X138160754Y-110174246D01*
X138314566Y-110277020D01*
X138496000Y-110313109D01*
X140396000Y-110313109D01*
X140577434Y-110277020D01*
X140731246Y-110174246D01*
X140834020Y-110020434D01*
X140870109Y-109839000D01*
X140870109Y-109724020D01*
X141183421Y-110037879D01*
X141703304Y-110253753D01*
X142266226Y-110254245D01*
X142328851Y-110228369D01*
X145336241Y-113235759D01*
X145397962Y-113277000D01*
X132341000Y-113277000D01*
X132341000Y-111672795D01*
X133761088Y-111672795D01*
X133947494Y-112123931D01*
X134292353Y-112469393D01*
X134743164Y-112656586D01*
X135231295Y-112657012D01*
X135682431Y-112470606D01*
X136027893Y-112125747D01*
X136215086Y-111674936D01*
X136215512Y-111186805D01*
X136029106Y-110735669D01*
X135684247Y-110390207D01*
X135240980Y-110206147D01*
X135385842Y-110191607D01*
X135627712Y-110091421D01*
X135705412Y-109874199D01*
X134988300Y-109157086D01*
X134271188Y-109874199D01*
X134348888Y-110091421D01*
X134733715Y-110207377D01*
X134294169Y-110388994D01*
X133948707Y-110733853D01*
X133761514Y-111184664D01*
X133761088Y-111672795D01*
X132341000Y-111672795D01*
X132341000Y-108758901D01*
X133633454Y-108758901D01*
X133686493Y-109287342D01*
X133786679Y-109529212D01*
X134003901Y-109606912D01*
X134721014Y-108889800D01*
X135255586Y-108889800D01*
X135972699Y-109606912D01*
X136189921Y-109529212D01*
X136343146Y-109020699D01*
X136290107Y-108492258D01*
X136189921Y-108250388D01*
X135972699Y-108172688D01*
X135255586Y-108889800D01*
X134721014Y-108889800D01*
X134003901Y-108172688D01*
X133786679Y-108250388D01*
X133633454Y-108758901D01*
X132341000Y-108758901D01*
X132341000Y-107905401D01*
X134271188Y-107905401D01*
X134988300Y-108622514D01*
X135705412Y-107905401D01*
X135627712Y-107688179D01*
X135119199Y-107534954D01*
X134590758Y-107587993D01*
X134348888Y-107688179D01*
X134271188Y-107905401D01*
X132341000Y-107905401D01*
X132341000Y-106072095D01*
X133761088Y-106072095D01*
X133947494Y-106523231D01*
X134292353Y-106868693D01*
X134743164Y-107055886D01*
X135231295Y-107056312D01*
X135682431Y-106869906D01*
X136027893Y-106525047D01*
X136215086Y-106074236D01*
X136215512Y-105586105D01*
X136029106Y-105134969D01*
X135684247Y-104789507D01*
X135240980Y-104605447D01*
X135385842Y-104590907D01*
X135627712Y-104490721D01*
X135705412Y-104273499D01*
X134988300Y-103556386D01*
X134271188Y-104273499D01*
X134348888Y-104490721D01*
X134733715Y-104606677D01*
X134294169Y-104788294D01*
X133948707Y-105133153D01*
X133761514Y-105583964D01*
X133761088Y-106072095D01*
X132341000Y-106072095D01*
X132341000Y-103158201D01*
X133633454Y-103158201D01*
X133686493Y-103686642D01*
X133786679Y-103928512D01*
X134003901Y-104006212D01*
X134721014Y-103289100D01*
X135255586Y-103289100D01*
X135972699Y-104006212D01*
X136189921Y-103928512D01*
X136343146Y-103419999D01*
X136290107Y-102891558D01*
X136189921Y-102649688D01*
X135972699Y-102571988D01*
X135255586Y-103289100D01*
X134721014Y-103289100D01*
X134003901Y-102571988D01*
X133786679Y-102649688D01*
X133633454Y-103158201D01*
X132341000Y-103158201D01*
X132341000Y-102304701D01*
X134271188Y-102304701D01*
X134988300Y-103021814D01*
X135705412Y-102304701D01*
X135627712Y-102087479D01*
X135119199Y-101934254D01*
X134590758Y-101987293D01*
X134348888Y-102087479D01*
X134271188Y-102304701D01*
X132341000Y-102304701D01*
X132341000Y-93802884D01*
X149148453Y-93802884D01*
X149295113Y-94157829D01*
X149498046Y-94361116D01*
X149296068Y-94562742D01*
X149148788Y-94917432D01*
X149148453Y-95301484D01*
X149295113Y-95656429D01*
X149566442Y-95928232D01*
X149921132Y-96075512D01*
X150305184Y-96075847D01*
X150660129Y-95929187D01*
X150931932Y-95657858D01*
X151079212Y-95303168D01*
X151079547Y-94919116D01*
X150932887Y-94564171D01*
X150729954Y-94360884D01*
X150931932Y-94159258D01*
X151079212Y-93804568D01*
X151079547Y-93420516D01*
X150932887Y-93065571D01*
X150661558Y-92793768D01*
X150306868Y-92646488D01*
X149922816Y-92646153D01*
X149567871Y-92792813D01*
X149296068Y-93064142D01*
X149148788Y-93418832D01*
X149148453Y-93802884D01*
X132341000Y-93802884D01*
X132341000Y-90405273D01*
X133922973Y-90405273D01*
X134158613Y-90830943D01*
X134539213Y-91134035D01*
X134731299Y-91213599D01*
X134921786Y-91113193D01*
X134921786Y-90307216D01*
X135124927Y-90307216D01*
X135299786Y-90482075D01*
X135299786Y-91075483D01*
X135270515Y-91104754D01*
X135167741Y-91258566D01*
X135131652Y-91440000D01*
X135167741Y-91621434D01*
X135270515Y-91775246D01*
X136189754Y-92694485D01*
X136343566Y-92797259D01*
X136525000Y-92833348D01*
X136706434Y-92797259D01*
X136860246Y-92694485D01*
X137779485Y-91775246D01*
X137882259Y-91621434D01*
X137918348Y-91440000D01*
X137882259Y-91258566D01*
X137779485Y-91104754D01*
X136860246Y-90185515D01*
X136706434Y-90082741D01*
X136525000Y-90046652D01*
X136343566Y-90082741D01*
X136189754Y-90185515D01*
X136160483Y-90214786D01*
X135567075Y-90214786D01*
X135392216Y-90039927D01*
X135124927Y-90307216D01*
X134921786Y-90307216D01*
X134921786Y-90214786D01*
X134023379Y-90214786D01*
X133922973Y-90405273D01*
X132341000Y-90405273D01*
X132341000Y-89646299D01*
X133922973Y-89646299D01*
X134023379Y-89836786D01*
X134921786Y-89836786D01*
X134921786Y-88938379D01*
X135299786Y-88938379D01*
X135299786Y-89836786D01*
X136198193Y-89836786D01*
X136298599Y-89646299D01*
X136062959Y-89220629D01*
X135682359Y-88917537D01*
X135490273Y-88837973D01*
X135299786Y-88938379D01*
X134921786Y-88938379D01*
X134731299Y-88837973D01*
X134305629Y-89073613D01*
X134002537Y-89454213D01*
X133922973Y-89646299D01*
X132341000Y-89646299D01*
X132341000Y-75045995D01*
X134916788Y-75045995D01*
X135103194Y-75497131D01*
X135448053Y-75842593D01*
X135898864Y-76029786D01*
X136386995Y-76030212D01*
X136838131Y-75843806D01*
X137183593Y-75498947D01*
X137370786Y-75048136D01*
X137371212Y-74560005D01*
X137184806Y-74108869D01*
X136839947Y-73763407D01*
X136389136Y-73576214D01*
X135901005Y-73575788D01*
X135449869Y-73762194D01*
X135104407Y-74107053D01*
X134917214Y-74557864D01*
X134916788Y-75045995D01*
X132341000Y-75045995D01*
X132341000Y-72505995D01*
X134916788Y-72505995D01*
X135103194Y-72957131D01*
X135448053Y-73302593D01*
X135898864Y-73489786D01*
X136386995Y-73490212D01*
X136416550Y-73478000D01*
X137418730Y-73478000D01*
X137816391Y-73875661D01*
X137816391Y-76356500D01*
X137852480Y-76537934D01*
X137955254Y-76691746D01*
X138109066Y-76794520D01*
X138290500Y-76830609D01*
X141490500Y-76830609D01*
X141671934Y-76794520D01*
X141825746Y-76691746D01*
X141928520Y-76537934D01*
X141964609Y-76356500D01*
X141964609Y-73656500D01*
X141928520Y-73475066D01*
X141825746Y-73321254D01*
X141671934Y-73218480D01*
X141490500Y-73182391D01*
X140559660Y-73182391D01*
X138781135Y-71403865D01*
X138386961Y-71140486D01*
X137922000Y-71048000D01*
X136417520Y-71048000D01*
X136389136Y-71036214D01*
X135901005Y-71035788D01*
X135449869Y-71222194D01*
X135104407Y-71567053D01*
X134917214Y-72017864D01*
X134916788Y-72505995D01*
X132341000Y-72505995D01*
X132341000Y-69965995D01*
X134916788Y-69965995D01*
X135103194Y-70417131D01*
X135448053Y-70762593D01*
X135898864Y-70949786D01*
X136386995Y-70950212D01*
X136416550Y-70938000D01*
X137274000Y-70938000D01*
X137738961Y-70845514D01*
X138133135Y-70582135D01*
X139784661Y-68930609D01*
X141490500Y-68930609D01*
X141671934Y-68894520D01*
X141825746Y-68791746D01*
X141928520Y-68637934D01*
X141964609Y-68456500D01*
X141964609Y-65756500D01*
X141928520Y-65575066D01*
X141825746Y-65421254D01*
X141671934Y-65318480D01*
X141490500Y-65282391D01*
X138290500Y-65282391D01*
X138109066Y-65318480D01*
X137955254Y-65421254D01*
X137852480Y-65575066D01*
X137816391Y-65756500D01*
X137816391Y-67462339D01*
X136770730Y-68508000D01*
X136417520Y-68508000D01*
X136396680Y-68499347D01*
X136541542Y-68484807D01*
X136783412Y-68384621D01*
X136861112Y-68167399D01*
X136144000Y-67450286D01*
X135426888Y-68167399D01*
X135504588Y-68384621D01*
X135889415Y-68500577D01*
X135449869Y-68682194D01*
X135104407Y-69027053D01*
X134917214Y-69477864D01*
X134916788Y-69965995D01*
X132341000Y-69965995D01*
X132341000Y-67052101D01*
X134789154Y-67052101D01*
X134842193Y-67580542D01*
X134942379Y-67822412D01*
X135159601Y-67900112D01*
X135876714Y-67183000D01*
X136411286Y-67183000D01*
X137128399Y-67900112D01*
X137345621Y-67822412D01*
X137498846Y-67313899D01*
X137445807Y-66785458D01*
X137345621Y-66543588D01*
X137128399Y-66465888D01*
X136411286Y-67183000D01*
X135876714Y-67183000D01*
X135159601Y-66465888D01*
X134942379Y-66543588D01*
X134789154Y-67052101D01*
X132341000Y-67052101D01*
X132341000Y-66198601D01*
X135426888Y-66198601D01*
X136144000Y-66915714D01*
X136861112Y-66198601D01*
X136783412Y-65981379D01*
X136274899Y-65828154D01*
X135746458Y-65881193D01*
X135504588Y-65981379D01*
X135426888Y-66198601D01*
X132341000Y-66198601D01*
X132341000Y-64396000D01*
X147175094Y-64396000D01*
X147140142Y-64480175D01*
X147140142Y-64480175D01*
G37*
X147140142Y-64480175D02*
X147139859Y-64804402D01*
X147263674Y-65104057D01*
X147365000Y-65205560D01*
X147365000Y-65606095D01*
X147095098Y-65605859D01*
X146795443Y-65729674D01*
X146565979Y-65958737D01*
X146441642Y-66258175D01*
X146441359Y-66582402D01*
X146565174Y-66882057D01*
X146666500Y-66983560D01*
X146666500Y-74240392D01*
X146565979Y-74340737D01*
X146441642Y-74640175D01*
X146441359Y-74964402D01*
X146565174Y-75264057D01*
X146794237Y-75493521D01*
X147093675Y-75617858D01*
X147365000Y-75618095D01*
X147365000Y-76018392D01*
X147264479Y-76118737D01*
X147140142Y-76418175D01*
X147139859Y-76742402D01*
X147263674Y-77042057D01*
X147492737Y-77271521D01*
X147792175Y-77395858D01*
X148116402Y-77396141D01*
X148416057Y-77272326D01*
X148645521Y-77043263D01*
X148769858Y-76743825D01*
X148770141Y-76419598D01*
X148646326Y-76119943D01*
X148545000Y-76018440D01*
X148545000Y-72233902D01*
X152981859Y-72233902D01*
X153105674Y-72533557D01*
X153334737Y-72763021D01*
X153634175Y-72887358D01*
X153958402Y-72887641D01*
X154258057Y-72763826D01*
X154359560Y-72662500D01*
X157553114Y-72662500D01*
X158096500Y-73205886D01*
X158096500Y-75156097D01*
X157878763Y-74937979D01*
X157579325Y-74813642D01*
X157255098Y-74813359D01*
X156955443Y-74937174D01*
X156725979Y-75166237D01*
X156601642Y-75465675D01*
X156601359Y-75789902D01*
X156676500Y-75971757D01*
X156676500Y-79158896D01*
X156601642Y-79339175D01*
X156601359Y-79663402D01*
X156725174Y-79963057D01*
X156920129Y-80158353D01*
X155929351Y-81149131D01*
X155748943Y-81223674D01*
X155519479Y-81452737D01*
X155395142Y-81752175D01*
X155394859Y-82076402D01*
X155411184Y-82115912D01*
X155350098Y-82115859D01*
X155050443Y-82239674D01*
X154820979Y-82468737D01*
X154696642Y-82768175D01*
X154696359Y-83092402D01*
X154820174Y-83392057D01*
X155049237Y-83621521D01*
X155348675Y-83745858D01*
X155672902Y-83746141D01*
X155854757Y-83671000D01*
X157644896Y-83671000D01*
X157825175Y-83745858D01*
X158149402Y-83746141D01*
X158449057Y-83622326D01*
X158678521Y-83393263D01*
X158802858Y-83093825D01*
X158803141Y-82769598D01*
X158679326Y-82469943D01*
X158450263Y-82240479D01*
X158394081Y-82217150D01*
X158424521Y-82186763D01*
X158499979Y-82005039D01*
X161432259Y-79072759D01*
X161592671Y-78832686D01*
X161649000Y-78549500D01*
X161649000Y-70791518D01*
X163348649Y-69091869D01*
X163529057Y-69017326D01*
X163758521Y-68788263D01*
X163858120Y-68548399D01*
X172129888Y-68548399D01*
X172207588Y-68765621D01*
X172716101Y-68918846D01*
X173244542Y-68865807D01*
X173486412Y-68765621D01*
X173564112Y-68548399D01*
X172847000Y-67831286D01*
X172129888Y-68548399D01*
X163858120Y-68548399D01*
X163882858Y-68488825D01*
X163883141Y-68164598D01*
X163759326Y-67864943D01*
X163530263Y-67635479D01*
X163230825Y-67511142D01*
X162906598Y-67510859D01*
X162606943Y-67634674D01*
X162377479Y-67863737D01*
X162302021Y-68045461D01*
X160385741Y-69961741D01*
X160225329Y-70201814D01*
X160169000Y-70485000D01*
X160169000Y-76655130D01*
X159858598Y-76654859D01*
X159558943Y-76778674D01*
X159441299Y-76896113D01*
X159276500Y-76827683D01*
X159276500Y-72961500D01*
X159231589Y-72735717D01*
X159103693Y-72544307D01*
X158214693Y-71655307D01*
X158023283Y-71527411D01*
X157797500Y-71482500D01*
X154359608Y-71482500D01*
X154259263Y-71381979D01*
X153959825Y-71257642D01*
X153635598Y-71257359D01*
X153335943Y-71381174D01*
X153106479Y-71610237D01*
X152982142Y-71909675D01*
X152981859Y-72233902D01*
X148545000Y-72233902D01*
X148545000Y-69185902D01*
X155394859Y-69185902D01*
X155518674Y-69485557D01*
X155747737Y-69715021D01*
X156047175Y-69839358D01*
X156371402Y-69839641D01*
X156553257Y-69764500D01*
X157924500Y-69764500D01*
X158207686Y-69708171D01*
X158447759Y-69547759D01*
X158840149Y-69155369D01*
X159020557Y-69080826D01*
X159250021Y-68851763D01*
X159374358Y-68552325D01*
X159374641Y-68228098D01*
X159250826Y-67928443D01*
X159021763Y-67698979D01*
X158722325Y-67574642D01*
X158398098Y-67574359D01*
X158098443Y-67698174D01*
X157868979Y-67927237D01*
X157793521Y-68108961D01*
X157617982Y-68284500D01*
X156553104Y-68284500D01*
X156372825Y-68209642D01*
X156048598Y-68209359D01*
X155748943Y-68333174D01*
X155519479Y-68562237D01*
X155395142Y-68861675D01*
X155394859Y-69185902D01*
X148545000Y-69185902D01*
X148545000Y-67433101D01*
X171492154Y-67433101D01*
X171545193Y-67961542D01*
X171645379Y-68203412D01*
X171862601Y-68281112D01*
X172579714Y-67564000D01*
X173114286Y-67564000D01*
X173831399Y-68281112D01*
X174048621Y-68203412D01*
X174164577Y-67818585D01*
X174346194Y-68258131D01*
X174691053Y-68603593D01*
X175141864Y-68790786D01*
X175629995Y-68791212D01*
X176081131Y-68604806D01*
X176426593Y-68259947D01*
X176613786Y-67809136D01*
X176613787Y-67806995D01*
X176699788Y-67806995D01*
X176886194Y-68258131D01*
X177231053Y-68603593D01*
X177681864Y-68790786D01*
X178169995Y-68791212D01*
X178621131Y-68604806D01*
X178966593Y-68259947D01*
X179153786Y-67809136D01*
X179154212Y-67321005D01*
X178967806Y-66869869D01*
X178622947Y-66524407D01*
X178172136Y-66337214D01*
X177684005Y-66336788D01*
X177232869Y-66523194D01*
X176887407Y-66868053D01*
X176700214Y-67318864D01*
X176699788Y-67806995D01*
X176613787Y-67806995D01*
X176614212Y-67321005D01*
X176427806Y-66869869D01*
X176082947Y-66524407D01*
X175632136Y-66337214D01*
X175144005Y-66336788D01*
X174692869Y-66523194D01*
X174347407Y-66868053D01*
X174163347Y-67311320D01*
X174148807Y-67166458D01*
X174048621Y-66924588D01*
X173831399Y-66846888D01*
X173114286Y-67564000D01*
X172579714Y-67564000D01*
X171862601Y-66846888D01*
X171645379Y-66924588D01*
X171492154Y-67433101D01*
X148545000Y-67433101D01*
X148545000Y-66579601D01*
X172129888Y-66579601D01*
X172847000Y-67296714D01*
X173564112Y-66579601D01*
X173486412Y-66362379D01*
X172977899Y-66209154D01*
X172449458Y-66262193D01*
X172207588Y-66362379D01*
X172129888Y-66579601D01*
X148545000Y-66579601D01*
X148545000Y-65205608D01*
X148645521Y-65105263D01*
X148769858Y-64805825D01*
X148770141Y-64481598D01*
X148734773Y-64396000D01*
X181222000Y-64396000D01*
X181222000Y-84170868D01*
X181004186Y-84025329D01*
X180721000Y-83969000D01*
X175920604Y-83969000D01*
X175740325Y-83894142D01*
X175416098Y-83893859D01*
X175116443Y-84017674D01*
X174886979Y-84246737D01*
X174762642Y-84546175D01*
X174762359Y-84870402D01*
X174886174Y-85170057D01*
X175115237Y-85399521D01*
X175414675Y-85523858D01*
X175738902Y-85524141D01*
X175920757Y-85449000D01*
X180171500Y-85449000D01*
X180171500Y-103273000D01*
X179269018Y-103273000D01*
X179275759Y-103266259D01*
X179347961Y-103158201D01*
X179436171Y-103026186D01*
X179492500Y-102743000D01*
X179492500Y-98679000D01*
X179436171Y-98395814D01*
X179275759Y-98155741D01*
X179148759Y-98028741D01*
X178908686Y-97868329D01*
X178625500Y-97812000D01*
X176582925Y-97812000D01*
X176583141Y-97565098D01*
X176459326Y-97265443D01*
X176230263Y-97035979D01*
X175930825Y-96911642D01*
X175606598Y-96911359D01*
X175424743Y-96986500D01*
X166422518Y-96986500D01*
X161679518Y-92243500D01*
X165608000Y-92243500D01*
X165891186Y-92187171D01*
X166131259Y-92026759D01*
X166142649Y-92015369D01*
X166323057Y-91940826D01*
X166552521Y-91711763D01*
X166676858Y-91412325D01*
X166677141Y-91088098D01*
X166553326Y-90788443D01*
X166324263Y-90558979D01*
X166099140Y-90465500D01*
X169313000Y-90465500D01*
X169313000Y-93890896D01*
X169238142Y-94071175D01*
X169237859Y-94395402D01*
X169361674Y-94695057D01*
X169590737Y-94924521D01*
X169890175Y-95048858D01*
X170214402Y-95049141D01*
X170396257Y-94974000D01*
X178689322Y-94974000D01*
X178716675Y-94985358D01*
X179040902Y-94985641D01*
X179340557Y-94861826D01*
X179570021Y-94632763D01*
X179694358Y-94333325D01*
X179694641Y-94009098D01*
X179570826Y-93709443D01*
X179341763Y-93479979D01*
X179042325Y-93355642D01*
X178718098Y-93355359D01*
X178418443Y-93479174D01*
X178403591Y-93494000D01*
X170793000Y-93494000D01*
X170793000Y-90919554D01*
X170924237Y-91051021D01*
X171223675Y-91175358D01*
X171547902Y-91175641D01*
X171729757Y-91100500D01*
X178536396Y-91100500D01*
X178716675Y-91175358D01*
X179040902Y-91175641D01*
X179340557Y-91051826D01*
X179570021Y-90822763D01*
X179694358Y-90523325D01*
X179694641Y-90199098D01*
X179570826Y-89899443D01*
X179341763Y-89669979D01*
X179042325Y-89545642D01*
X178718098Y-89545359D01*
X178536243Y-89620500D01*
X171729604Y-89620500D01*
X171549325Y-89545642D01*
X171225098Y-89545359D01*
X170925443Y-89669174D01*
X170853398Y-89741093D01*
X170856500Y-89725500D01*
X170800171Y-89442314D01*
X170744733Y-89359345D01*
X170867858Y-89062825D01*
X170868141Y-88738598D01*
X170744326Y-88438943D01*
X170515263Y-88209479D01*
X170215825Y-88085142D01*
X169891598Y-88084859D01*
X169709743Y-88160000D01*
X156622759Y-88160000D01*
X156608763Y-88145979D01*
X156309325Y-88021642D01*
X155985098Y-88021359D01*
X155685443Y-88145174D01*
X155490147Y-88340129D01*
X155299000Y-88148982D01*
X155299000Y-86931500D01*
X155242671Y-86648314D01*
X155162614Y-86528500D01*
X161892769Y-86528500D01*
X161872142Y-86578175D01*
X161871859Y-86902402D01*
X161995674Y-87202057D01*
X162224737Y-87431521D01*
X162524175Y-87555858D01*
X162848402Y-87556141D01*
X163030257Y-87481000D01*
X168592500Y-87481000D01*
X168875686Y-87424671D01*
X169115759Y-87264259D01*
X169190649Y-87189369D01*
X169371057Y-87114826D01*
X169600521Y-86885763D01*
X169724858Y-86586325D01*
X169725141Y-86262098D01*
X169601326Y-85962443D01*
X169469114Y-85830000D01*
X170000482Y-85830000D01*
X172271631Y-88101149D01*
X172346174Y-88281557D01*
X172575237Y-88511021D01*
X172874675Y-88635358D01*
X173198902Y-88635641D01*
X173498557Y-88511826D01*
X173728021Y-88282763D01*
X173852358Y-87983325D01*
X173852641Y-87659098D01*
X173728826Y-87359443D01*
X173499763Y-87129979D01*
X173318039Y-87054521D01*
X170830259Y-84566741D01*
X170590186Y-84406329D01*
X170307000Y-84350000D01*
X168211500Y-84350000D01*
X167928314Y-84406329D01*
X167688241Y-84566741D01*
X167206482Y-85048500D01*
X165125604Y-85048500D01*
X164945325Y-84973642D01*
X164621098Y-84973359D01*
X164443000Y-85046948D01*
X164443000Y-72987104D01*
X164517858Y-72806825D01*
X164518141Y-72482598D01*
X164394326Y-72182943D01*
X164165263Y-71953479D01*
X163865825Y-71829142D01*
X163541598Y-71828859D01*
X163241943Y-71952674D01*
X163012479Y-72181737D01*
X162888142Y-72481175D01*
X162887859Y-72805402D01*
X162963000Y-72987257D01*
X162963000Y-85048500D01*
X159330018Y-85048500D01*
X161443649Y-82934869D01*
X161624057Y-82860326D01*
X161853521Y-82631263D01*
X161977858Y-82331825D01*
X161978141Y-82007598D01*
X161854326Y-81707943D01*
X161625263Y-81478479D01*
X161325825Y-81354142D01*
X161001598Y-81353859D01*
X160701943Y-81477674D01*
X160472479Y-81706737D01*
X160397021Y-81888461D01*
X158379982Y-83905500D01*
X155791104Y-83905500D01*
X155610825Y-83830642D01*
X155286598Y-83830359D01*
X154986943Y-83954174D01*
X154757479Y-84183237D01*
X154633142Y-84482675D01*
X154632859Y-84806902D01*
X154732685Y-85048500D01*
X154394104Y-85048500D01*
X154213825Y-84973642D01*
X153971800Y-84973431D01*
X154040358Y-84808325D01*
X154040641Y-84484098D01*
X153916826Y-84184443D01*
X153687763Y-83954979D01*
X153388325Y-83830642D01*
X153064098Y-83830359D01*
X152764443Y-83954174D01*
X152534979Y-84183237D01*
X152410642Y-84482675D01*
X152410359Y-84806902D01*
X152485500Y-84988757D01*
X152485500Y-86868000D01*
X152541829Y-87151186D01*
X152702241Y-87391259D01*
X152942314Y-87551671D01*
X153225500Y-87608000D01*
X153819000Y-87608000D01*
X153819000Y-88455500D01*
X153875329Y-88738686D01*
X154035741Y-88978759D01*
X155470000Y-90413018D01*
X155470000Y-92329000D01*
X155526329Y-92612186D01*
X155686741Y-92852259D01*
X155926814Y-93012671D01*
X156210000Y-93069000D01*
X160411982Y-93069000D01*
X165592741Y-98249759D01*
X165832814Y-98410171D01*
X166116000Y-98466500D01*
X166698075Y-98466500D01*
X166697859Y-98713402D01*
X166821674Y-99013057D01*
X167050737Y-99242521D01*
X167350175Y-99366858D01*
X167674402Y-99367141D01*
X167856257Y-99292000D01*
X172520787Y-99292000D01*
X173228000Y-99999214D01*
X173935213Y-99292000D01*
X175007447Y-99292000D01*
X174728407Y-99570553D01*
X174544347Y-100013820D01*
X174529807Y-99868958D01*
X174429621Y-99627088D01*
X174212399Y-99549388D01*
X173495286Y-100266500D01*
X174212399Y-100983612D01*
X174429621Y-100905912D01*
X174545577Y-100521085D01*
X174727194Y-100960631D01*
X175072053Y-101306093D01*
X175522864Y-101493286D01*
X176010995Y-101493712D01*
X176462131Y-101307306D01*
X176807593Y-100962447D01*
X176994786Y-100511636D01*
X176995212Y-100023505D01*
X176808806Y-99572369D01*
X176528926Y-99292000D01*
X178012500Y-99292000D01*
X178012500Y-102066500D01*
X176763017Y-102066500D01*
X176463947Y-101766907D01*
X176013136Y-101579714D01*
X175525005Y-101579288D01*
X175073869Y-101765694D01*
X174728407Y-102110553D01*
X174541214Y-102561364D01*
X174540823Y-103009305D01*
X174454898Y-102923380D01*
X174455212Y-102563505D01*
X174268806Y-102112369D01*
X173923947Y-101766907D01*
X173480680Y-101582847D01*
X173625542Y-101568307D01*
X173867412Y-101468121D01*
X173945112Y-101250899D01*
X173228000Y-100533786D01*
X172510888Y-101250899D01*
X172588588Y-101468121D01*
X172973415Y-101584077D01*
X172533869Y-101765694D01*
X172188407Y-102110553D01*
X172001214Y-102561364D01*
X172000788Y-103049495D01*
X172187194Y-103500631D01*
X172532053Y-103846093D01*
X172982864Y-104033286D01*
X173470995Y-104033712D01*
X173471843Y-104033361D01*
X173618596Y-104180114D01*
X173473136Y-104119714D01*
X172985005Y-104119288D01*
X172533869Y-104305694D01*
X172188407Y-104650553D01*
X172001214Y-105101364D01*
X172000788Y-105589495D01*
X172187194Y-106040631D01*
X172532053Y-106386093D01*
X172982864Y-106573286D01*
X173470995Y-106573712D01*
X173922131Y-106387306D01*
X174267593Y-106042447D01*
X174454786Y-105591636D01*
X174455212Y-105103505D01*
X174293585Y-104712340D01*
X174498000Y-104753000D01*
X174685867Y-104753000D01*
X174541214Y-105101364D01*
X174540788Y-105589495D01*
X174727194Y-106040631D01*
X175072053Y-106386093D01*
X175522864Y-106573286D01*
X176010995Y-106573712D01*
X176462131Y-106387306D01*
X176807593Y-106042447D01*
X176994786Y-105591636D01*
X176995212Y-105103505D01*
X176850386Y-104753000D01*
X180522548Y-104753000D01*
X180628314Y-104823671D01*
X180911500Y-104880000D01*
X181194686Y-104823671D01*
X181222000Y-104805420D01*
X181222000Y-113277000D01*
X151528038Y-113277000D01*
X151589759Y-113235759D01*
X152542259Y-112283259D01*
X152702671Y-112043186D01*
X152759000Y-111760000D01*
X152759000Y-105843518D01*
X155152500Y-103450018D01*
X155152500Y-108813396D01*
X155077642Y-108993675D01*
X155077359Y-109317902D01*
X155201174Y-109617557D01*
X155430237Y-109847021D01*
X155729675Y-109971358D01*
X156053902Y-109971641D01*
X156353557Y-109847826D01*
X156583021Y-109618763D01*
X156707358Y-109319325D01*
X156707641Y-108995098D01*
X156632500Y-108813243D01*
X156632500Y-103303518D01*
X159030649Y-100905369D01*
X159211057Y-100830826D01*
X159440521Y-100601763D01*
X159564858Y-100302325D01*
X159565141Y-99978098D01*
X159441326Y-99678443D01*
X159212263Y-99448979D01*
X158912825Y-99324642D01*
X158588598Y-99324359D01*
X158288943Y-99448174D01*
X158059479Y-99677237D01*
X158036052Y-99733655D01*
X157839001Y-99536259D01*
X157853021Y-99522263D01*
X157977358Y-99222825D01*
X157977580Y-98967402D01*
X160665359Y-98967402D01*
X160740500Y-99149257D01*
X160740500Y-101282500D01*
X160796829Y-101565686D01*
X160957241Y-101805759D01*
X166683631Y-107532149D01*
X166758174Y-107712557D01*
X166987237Y-107942021D01*
X167286675Y-108066358D01*
X167610902Y-108066641D01*
X167910557Y-107942826D01*
X168140021Y-107713763D01*
X168170000Y-107641565D01*
X168170000Y-108299462D01*
X168028979Y-108440237D01*
X167904642Y-108739675D01*
X167904359Y-109063902D01*
X168028174Y-109363557D01*
X168257237Y-109593021D01*
X168556675Y-109717358D01*
X168880902Y-109717641D01*
X169180557Y-109593826D01*
X169410021Y-109364763D01*
X169513924Y-109114535D01*
X169593671Y-108995186D01*
X169650000Y-108712000D01*
X169650000Y-108331000D01*
X171258000Y-108331000D01*
X171258000Y-113030000D01*
X171262948Y-113054874D01*
X171277038Y-113075962D01*
X171298126Y-113090052D01*
X171323000Y-113095000D01*
X175768000Y-113095000D01*
X175792874Y-113090052D01*
X175813962Y-113075962D01*
X175828052Y-113054874D01*
X175833000Y-113030000D01*
X175833000Y-108331000D01*
X175828052Y-108306126D01*
X175813962Y-108285038D01*
X175792874Y-108270948D01*
X175768000Y-108266000D01*
X171323000Y-108266000D01*
X171298126Y-108270948D01*
X171277038Y-108285038D01*
X171262948Y-108306126D01*
X171258000Y-108331000D01*
X169650000Y-108331000D01*
X169650000Y-104483104D01*
X169724858Y-104302825D01*
X169725141Y-103978598D01*
X169601326Y-103678943D01*
X169459500Y-103536869D01*
X169459500Y-100609604D01*
X169534358Y-100429325D01*
X169534614Y-100135601D01*
X171873154Y-100135601D01*
X171926193Y-100664042D01*
X172026379Y-100905912D01*
X172243601Y-100983612D01*
X172960714Y-100266500D01*
X172243601Y-99549388D01*
X172026379Y-99627088D01*
X171873154Y-100135601D01*
X169534614Y-100135601D01*
X169534641Y-100105098D01*
X169410826Y-99805443D01*
X169181763Y-99575979D01*
X168882325Y-99451642D01*
X168558098Y-99451359D01*
X168258443Y-99575174D01*
X168028979Y-99804237D01*
X167904642Y-100103675D01*
X167904359Y-100427902D01*
X167979500Y-100609757D01*
X167979500Y-103949500D01*
X168035829Y-104232686D01*
X168116112Y-104352837D01*
X168170000Y-104483257D01*
X168170000Y-106861049D01*
X168140826Y-106790443D01*
X167911763Y-106560979D01*
X167730039Y-106485521D01*
X162220500Y-100975982D01*
X162220500Y-99149104D01*
X162295358Y-98968825D01*
X162295641Y-98644598D01*
X162171826Y-98344943D01*
X161942763Y-98115479D01*
X161643325Y-97991142D01*
X161319098Y-97990859D01*
X161019443Y-98114674D01*
X160789979Y-98343737D01*
X160665642Y-98643175D01*
X160665359Y-98967402D01*
X157977580Y-98967402D01*
X157977641Y-98898598D01*
X157853826Y-98598943D01*
X157624763Y-98369479D01*
X157325325Y-98245142D01*
X157001098Y-98244859D01*
X156701443Y-98368674D01*
X156471979Y-98597737D01*
X156396521Y-98779461D01*
X150606741Y-104569241D01*
X150446329Y-104809314D01*
X150390000Y-105092500D01*
X150390000Y-110798743D01*
X150351443Y-110814674D01*
X150121979Y-111043737D01*
X149997642Y-111343175D01*
X149997359Y-111667402D01*
X150121174Y-111967057D01*
X150126607Y-111972500D01*
X146166018Y-111972500D01*
X143375656Y-109182138D01*
X143400753Y-109121696D01*
X143401245Y-108558774D01*
X143186278Y-108038514D01*
X142987112Y-107839000D01*
X145006891Y-107839000D01*
X145006891Y-109839000D01*
X145042980Y-110020434D01*
X145145754Y-110174246D01*
X145299566Y-110277020D01*
X145481000Y-110313109D01*
X147381000Y-110313109D01*
X147562434Y-110277020D01*
X147716246Y-110174246D01*
X147819020Y-110020434D01*
X147855109Y-109839000D01*
X147855109Y-109724020D01*
X148168421Y-110037879D01*
X148688304Y-110253753D01*
X149251226Y-110254245D01*
X149771486Y-110039278D01*
X150169879Y-109641579D01*
X150385753Y-109121696D01*
X150386245Y-108558774D01*
X150171278Y-108038514D01*
X149773579Y-107640121D01*
X149253696Y-107424247D01*
X148690774Y-107423755D01*
X148170514Y-107638722D01*
X147855109Y-107953578D01*
X147855109Y-107839000D01*
X147819020Y-107657566D01*
X147716246Y-107503754D01*
X147562434Y-107400980D01*
X147381000Y-107364891D01*
X145481000Y-107364891D01*
X145299566Y-107400980D01*
X145145754Y-107503754D01*
X145042980Y-107657566D01*
X145006891Y-107839000D01*
X142987112Y-107839000D01*
X142788579Y-107640121D01*
X142268696Y-107424247D01*
X141705774Y-107423755D01*
X141185514Y-107638722D01*
X140870109Y-107953578D01*
X140870109Y-107839000D01*
X140834020Y-107657566D01*
X140731246Y-107503754D01*
X140577434Y-107400980D01*
X140396000Y-107364891D01*
X138496000Y-107364891D01*
X138314566Y-107400980D01*
X138160754Y-107503754D01*
X138057980Y-107657566D01*
X138021891Y-107839000D01*
X138021891Y-109839000D01*
X138057980Y-110020434D01*
X138160754Y-110174246D01*
X138314566Y-110277020D01*
X138496000Y-110313109D01*
X140396000Y-110313109D01*
X140577434Y-110277020D01*
X140731246Y-110174246D01*
X140834020Y-110020434D01*
X140870109Y-109839000D01*
X140870109Y-109724020D01*
X141183421Y-110037879D01*
X141703304Y-110253753D01*
X142266226Y-110254245D01*
X142328851Y-110228369D01*
X145336241Y-113235759D01*
X145397962Y-113277000D01*
X132341000Y-113277000D01*
X132341000Y-111672795D01*
X133761088Y-111672795D01*
X133947494Y-112123931D01*
X134292353Y-112469393D01*
X134743164Y-112656586D01*
X135231295Y-112657012D01*
X135682431Y-112470606D01*
X136027893Y-112125747D01*
X136215086Y-111674936D01*
X136215512Y-111186805D01*
X136029106Y-110735669D01*
X135684247Y-110390207D01*
X135240980Y-110206147D01*
X135385842Y-110191607D01*
X135627712Y-110091421D01*
X135705412Y-109874199D01*
X134988300Y-109157086D01*
X134271188Y-109874199D01*
X134348888Y-110091421D01*
X134733715Y-110207377D01*
X134294169Y-110388994D01*
X133948707Y-110733853D01*
X133761514Y-111184664D01*
X133761088Y-111672795D01*
X132341000Y-111672795D01*
X132341000Y-108758901D01*
X133633454Y-108758901D01*
X133686493Y-109287342D01*
X133786679Y-109529212D01*
X134003901Y-109606912D01*
X134721014Y-108889800D01*
X135255586Y-108889800D01*
X135972699Y-109606912D01*
X136189921Y-109529212D01*
X136343146Y-109020699D01*
X136290107Y-108492258D01*
X136189921Y-108250388D01*
X135972699Y-108172688D01*
X135255586Y-108889800D01*
X134721014Y-108889800D01*
X134003901Y-108172688D01*
X133786679Y-108250388D01*
X133633454Y-108758901D01*
X132341000Y-108758901D01*
X132341000Y-107905401D01*
X134271188Y-107905401D01*
X134988300Y-108622514D01*
X135705412Y-107905401D01*
X135627712Y-107688179D01*
X135119199Y-107534954D01*
X134590758Y-107587993D01*
X134348888Y-107688179D01*
X134271188Y-107905401D01*
X132341000Y-107905401D01*
X132341000Y-106072095D01*
X133761088Y-106072095D01*
X133947494Y-106523231D01*
X134292353Y-106868693D01*
X134743164Y-107055886D01*
X135231295Y-107056312D01*
X135682431Y-106869906D01*
X136027893Y-106525047D01*
X136215086Y-106074236D01*
X136215512Y-105586105D01*
X136029106Y-105134969D01*
X135684247Y-104789507D01*
X135240980Y-104605447D01*
X135385842Y-104590907D01*
X135627712Y-104490721D01*
X135705412Y-104273499D01*
X134988300Y-103556386D01*
X134271188Y-104273499D01*
X134348888Y-104490721D01*
X134733715Y-104606677D01*
X134294169Y-104788294D01*
X133948707Y-105133153D01*
X133761514Y-105583964D01*
X133761088Y-106072095D01*
X132341000Y-106072095D01*
X132341000Y-103158201D01*
X133633454Y-103158201D01*
X133686493Y-103686642D01*
X133786679Y-103928512D01*
X134003901Y-104006212D01*
X134721014Y-103289100D01*
X135255586Y-103289100D01*
X135972699Y-104006212D01*
X136189921Y-103928512D01*
X136343146Y-103419999D01*
X136290107Y-102891558D01*
X136189921Y-102649688D01*
X135972699Y-102571988D01*
X135255586Y-103289100D01*
X134721014Y-103289100D01*
X134003901Y-102571988D01*
X133786679Y-102649688D01*
X133633454Y-103158201D01*
X132341000Y-103158201D01*
X132341000Y-102304701D01*
X134271188Y-102304701D01*
X134988300Y-103021814D01*
X135705412Y-102304701D01*
X135627712Y-102087479D01*
X135119199Y-101934254D01*
X134590758Y-101987293D01*
X134348888Y-102087479D01*
X134271188Y-102304701D01*
X132341000Y-102304701D01*
X132341000Y-93802884D01*
X149148453Y-93802884D01*
X149295113Y-94157829D01*
X149498046Y-94361116D01*
X149296068Y-94562742D01*
X149148788Y-94917432D01*
X149148453Y-95301484D01*
X149295113Y-95656429D01*
X149566442Y-95928232D01*
X149921132Y-96075512D01*
X150305184Y-96075847D01*
X150660129Y-95929187D01*
X150931932Y-95657858D01*
X151079212Y-95303168D01*
X151079547Y-94919116D01*
X150932887Y-94564171D01*
X150729954Y-94360884D01*
X150931932Y-94159258D01*
X151079212Y-93804568D01*
X151079547Y-93420516D01*
X150932887Y-93065571D01*
X150661558Y-92793768D01*
X150306868Y-92646488D01*
X149922816Y-92646153D01*
X149567871Y-92792813D01*
X149296068Y-93064142D01*
X149148788Y-93418832D01*
X149148453Y-93802884D01*
X132341000Y-93802884D01*
X132341000Y-90405273D01*
X133922973Y-90405273D01*
X134158613Y-90830943D01*
X134539213Y-91134035D01*
X134731299Y-91213599D01*
X134921786Y-91113193D01*
X134921786Y-90307216D01*
X135124927Y-90307216D01*
X135299786Y-90482075D01*
X135299786Y-91075483D01*
X135270515Y-91104754D01*
X135167741Y-91258566D01*
X135131652Y-91440000D01*
X135167741Y-91621434D01*
X135270515Y-91775246D01*
X136189754Y-92694485D01*
X136343566Y-92797259D01*
X136525000Y-92833348D01*
X136706434Y-92797259D01*
X136860246Y-92694485D01*
X137779485Y-91775246D01*
X137882259Y-91621434D01*
X137918348Y-91440000D01*
X137882259Y-91258566D01*
X137779485Y-91104754D01*
X136860246Y-90185515D01*
X136706434Y-90082741D01*
X136525000Y-90046652D01*
X136343566Y-90082741D01*
X136189754Y-90185515D01*
X136160483Y-90214786D01*
X135567075Y-90214786D01*
X135392216Y-90039927D01*
X135124927Y-90307216D01*
X134921786Y-90307216D01*
X134921786Y-90214786D01*
X134023379Y-90214786D01*
X133922973Y-90405273D01*
X132341000Y-90405273D01*
X132341000Y-89646299D01*
X133922973Y-89646299D01*
X134023379Y-89836786D01*
X134921786Y-89836786D01*
X134921786Y-88938379D01*
X135299786Y-88938379D01*
X135299786Y-89836786D01*
X136198193Y-89836786D01*
X136298599Y-89646299D01*
X136062959Y-89220629D01*
X135682359Y-88917537D01*
X135490273Y-88837973D01*
X135299786Y-88938379D01*
X134921786Y-88938379D01*
X134731299Y-88837973D01*
X134305629Y-89073613D01*
X134002537Y-89454213D01*
X133922973Y-89646299D01*
X132341000Y-89646299D01*
X132341000Y-75045995D01*
X134916788Y-75045995D01*
X135103194Y-75497131D01*
X135448053Y-75842593D01*
X135898864Y-76029786D01*
X136386995Y-76030212D01*
X136838131Y-75843806D01*
X137183593Y-75498947D01*
X137370786Y-75048136D01*
X137371212Y-74560005D01*
X137184806Y-74108869D01*
X136839947Y-73763407D01*
X136389136Y-73576214D01*
X135901005Y-73575788D01*
X135449869Y-73762194D01*
X135104407Y-74107053D01*
X134917214Y-74557864D01*
X134916788Y-75045995D01*
X132341000Y-75045995D01*
X132341000Y-72505995D01*
X134916788Y-72505995D01*
X135103194Y-72957131D01*
X135448053Y-73302593D01*
X135898864Y-73489786D01*
X136386995Y-73490212D01*
X136416550Y-73478000D01*
X137418730Y-73478000D01*
X137816391Y-73875661D01*
X137816391Y-76356500D01*
X137852480Y-76537934D01*
X137955254Y-76691746D01*
X138109066Y-76794520D01*
X138290500Y-76830609D01*
X141490500Y-76830609D01*
X141671934Y-76794520D01*
X141825746Y-76691746D01*
X141928520Y-76537934D01*
X141964609Y-76356500D01*
X141964609Y-73656500D01*
X141928520Y-73475066D01*
X141825746Y-73321254D01*
X141671934Y-73218480D01*
X141490500Y-73182391D01*
X140559660Y-73182391D01*
X138781135Y-71403865D01*
X138386961Y-71140486D01*
X137922000Y-71048000D01*
X136417520Y-71048000D01*
X136389136Y-71036214D01*
X135901005Y-71035788D01*
X135449869Y-71222194D01*
X135104407Y-71567053D01*
X134917214Y-72017864D01*
X134916788Y-72505995D01*
X132341000Y-72505995D01*
X132341000Y-69965995D01*
X134916788Y-69965995D01*
X135103194Y-70417131D01*
X135448053Y-70762593D01*
X135898864Y-70949786D01*
X136386995Y-70950212D01*
X136416550Y-70938000D01*
X137274000Y-70938000D01*
X137738961Y-70845514D01*
X138133135Y-70582135D01*
X139784661Y-68930609D01*
X141490500Y-68930609D01*
X141671934Y-68894520D01*
X141825746Y-68791746D01*
X141928520Y-68637934D01*
X141964609Y-68456500D01*
X141964609Y-65756500D01*
X141928520Y-65575066D01*
X141825746Y-65421254D01*
X141671934Y-65318480D01*
X141490500Y-65282391D01*
X138290500Y-65282391D01*
X138109066Y-65318480D01*
X137955254Y-65421254D01*
X137852480Y-65575066D01*
X137816391Y-65756500D01*
X137816391Y-67462339D01*
X136770730Y-68508000D01*
X136417520Y-68508000D01*
X136396680Y-68499347D01*
X136541542Y-68484807D01*
X136783412Y-68384621D01*
X136861112Y-68167399D01*
X136144000Y-67450286D01*
X135426888Y-68167399D01*
X135504588Y-68384621D01*
X135889415Y-68500577D01*
X135449869Y-68682194D01*
X135104407Y-69027053D01*
X134917214Y-69477864D01*
X134916788Y-69965995D01*
X132341000Y-69965995D01*
X132341000Y-67052101D01*
X134789154Y-67052101D01*
X134842193Y-67580542D01*
X134942379Y-67822412D01*
X135159601Y-67900112D01*
X135876714Y-67183000D01*
X136411286Y-67183000D01*
X137128399Y-67900112D01*
X137345621Y-67822412D01*
X137498846Y-67313899D01*
X137445807Y-66785458D01*
X137345621Y-66543588D01*
X137128399Y-66465888D01*
X136411286Y-67183000D01*
X135876714Y-67183000D01*
X135159601Y-66465888D01*
X134942379Y-66543588D01*
X134789154Y-67052101D01*
X132341000Y-67052101D01*
X132341000Y-66198601D01*
X135426888Y-66198601D01*
X136144000Y-66915714D01*
X136861112Y-66198601D01*
X136783412Y-65981379D01*
X136274899Y-65828154D01*
X135746458Y-65881193D01*
X135504588Y-65981379D01*
X135426888Y-66198601D01*
X132341000Y-66198601D01*
X132341000Y-64396000D01*
X147175094Y-64396000D01*
X147140142Y-64480175D01*
M02*
