G04 #@! TF.FileFunction,Legend,Top*
%FSLAX46Y46*%
G04 Gerber Fmt 4.6, Leading zero omitted, Abs format (unit mm)*
G04 Created by KiCad (PCBNEW 4.0.2-4+6225~38~ubuntu14.04.1-stable) date Fri 13 May 2016 19:11:25 BST*
%MOMM*%
G01*
G04 APERTURE LIST*
%ADD10C,0.100000*%
%ADD11C,0.150000*%
%ADD12C,0.300000*%
%ADD13C,0.200000*%
G04 APERTURE END LIST*
D10*
D11*
X75192000Y-113481000D02*
X75319000Y-113481000D01*
X75192000Y-65602000D02*
X75192000Y-113481000D01*
X124341000Y-65602000D02*
X75192000Y-65602000D01*
X124341000Y-113481000D02*
X124341000Y-65602000D01*
X75319000Y-113481000D02*
X124341000Y-113481000D01*
D12*
X107985715Y-68535714D02*
X107914286Y-68607143D01*
X107700000Y-68678571D01*
X107557143Y-68678571D01*
X107342858Y-68607143D01*
X107200000Y-68464286D01*
X107128572Y-68321429D01*
X107057143Y-68035714D01*
X107057143Y-67821429D01*
X107128572Y-67535714D01*
X107200000Y-67392857D01*
X107342858Y-67250000D01*
X107557143Y-67178571D01*
X107700000Y-67178571D01*
X107914286Y-67250000D01*
X107985715Y-67321429D01*
X109271429Y-68678571D02*
X109271429Y-67892857D01*
X109200000Y-67750000D01*
X109057143Y-67678571D01*
X108771429Y-67678571D01*
X108628572Y-67750000D01*
X109271429Y-68607143D02*
X109128572Y-68678571D01*
X108771429Y-68678571D01*
X108628572Y-68607143D01*
X108557143Y-68464286D01*
X108557143Y-68321429D01*
X108628572Y-68178571D01*
X108771429Y-68107143D01*
X109128572Y-68107143D01*
X109271429Y-68035714D01*
X109985715Y-68678571D02*
X109985715Y-67678571D01*
X109985715Y-67964286D02*
X110057143Y-67821429D01*
X110128572Y-67750000D01*
X110271429Y-67678571D01*
X110414286Y-67678571D01*
X112057143Y-68678571D02*
X112057143Y-67178571D01*
X112057143Y-67750000D02*
X112200000Y-67678571D01*
X112485714Y-67678571D01*
X112628571Y-67750000D01*
X112700000Y-67821429D01*
X112771429Y-67964286D01*
X112771429Y-68392857D01*
X112700000Y-68535714D01*
X112628571Y-68607143D01*
X112485714Y-68678571D01*
X112200000Y-68678571D01*
X112057143Y-68607143D01*
X114057143Y-68678571D02*
X114057143Y-67892857D01*
X113985714Y-67750000D01*
X113842857Y-67678571D01*
X113557143Y-67678571D01*
X113414286Y-67750000D01*
X114057143Y-68607143D02*
X113914286Y-68678571D01*
X113557143Y-68678571D01*
X113414286Y-68607143D01*
X113342857Y-68464286D01*
X113342857Y-68321429D01*
X113414286Y-68178571D01*
X113557143Y-68107143D01*
X113914286Y-68107143D01*
X114057143Y-68035714D01*
X114557143Y-67678571D02*
X115128572Y-67678571D01*
X114771429Y-67178571D02*
X114771429Y-68464286D01*
X114842857Y-68607143D01*
X114985715Y-68678571D01*
X115128572Y-68678571D01*
X115414286Y-67678571D02*
X115985715Y-67678571D01*
X115628572Y-67178571D02*
X115628572Y-68464286D01*
X115700000Y-68607143D01*
X115842858Y-68678571D01*
X115985715Y-68678571D01*
X117057143Y-68607143D02*
X116914286Y-68678571D01*
X116628572Y-68678571D01*
X116485715Y-68607143D01*
X116414286Y-68464286D01*
X116414286Y-67892857D01*
X116485715Y-67750000D01*
X116628572Y-67678571D01*
X116914286Y-67678571D01*
X117057143Y-67750000D01*
X117128572Y-67892857D01*
X117128572Y-68035714D01*
X116414286Y-68178571D01*
X117771429Y-68678571D02*
X117771429Y-67678571D01*
X117771429Y-67964286D02*
X117842857Y-67821429D01*
X117914286Y-67750000D01*
X118057143Y-67678571D01*
X118200000Y-67678571D01*
X118557143Y-67678571D02*
X118914286Y-68678571D01*
X119271428Y-67678571D02*
X118914286Y-68678571D01*
X118771428Y-69035714D01*
X118700000Y-69107143D01*
X118557143Y-69178571D01*
X107735716Y-71078571D02*
X107592858Y-71007143D01*
X107521430Y-70864286D01*
X107521430Y-69578571D01*
X108521430Y-71078571D02*
X108378572Y-71007143D01*
X108307144Y-70935714D01*
X108235715Y-70792857D01*
X108235715Y-70364286D01*
X108307144Y-70221429D01*
X108378572Y-70150000D01*
X108521430Y-70078571D01*
X108735715Y-70078571D01*
X108878572Y-70150000D01*
X108950001Y-70221429D01*
X109021430Y-70364286D01*
X109021430Y-70792857D01*
X108950001Y-70935714D01*
X108878572Y-71007143D01*
X108735715Y-71078571D01*
X108521430Y-71078571D01*
X110307144Y-70078571D02*
X110307144Y-71292857D01*
X110235715Y-71435714D01*
X110164287Y-71507143D01*
X110021430Y-71578571D01*
X109807144Y-71578571D01*
X109664287Y-71507143D01*
X110307144Y-71007143D02*
X110164287Y-71078571D01*
X109878573Y-71078571D01*
X109735715Y-71007143D01*
X109664287Y-70935714D01*
X109592858Y-70792857D01*
X109592858Y-70364286D01*
X109664287Y-70221429D01*
X109735715Y-70150000D01*
X109878573Y-70078571D01*
X110164287Y-70078571D01*
X110307144Y-70150000D01*
X111664287Y-70078571D02*
X111664287Y-71292857D01*
X111592858Y-71435714D01*
X111521430Y-71507143D01*
X111378573Y-71578571D01*
X111164287Y-71578571D01*
X111021430Y-71507143D01*
X111664287Y-71007143D02*
X111521430Y-71078571D01*
X111235716Y-71078571D01*
X111092858Y-71007143D01*
X111021430Y-70935714D01*
X110950001Y-70792857D01*
X110950001Y-70364286D01*
X111021430Y-70221429D01*
X111092858Y-70150000D01*
X111235716Y-70078571D01*
X111521430Y-70078571D01*
X111664287Y-70150000D01*
X112950001Y-71007143D02*
X112807144Y-71078571D01*
X112521430Y-71078571D01*
X112378573Y-71007143D01*
X112307144Y-70864286D01*
X112307144Y-70292857D01*
X112378573Y-70150000D01*
X112521430Y-70078571D01*
X112807144Y-70078571D01*
X112950001Y-70150000D01*
X113021430Y-70292857D01*
X113021430Y-70435714D01*
X112307144Y-70578571D01*
X113664287Y-71078571D02*
X113664287Y-70078571D01*
X113664287Y-70364286D02*
X113735715Y-70221429D01*
X113807144Y-70150000D01*
X113950001Y-70078571D01*
X114092858Y-70078571D01*
X115521429Y-69578571D02*
X116021429Y-71078571D01*
X116521429Y-69578571D01*
X117307143Y-69578571D02*
X117450000Y-69578571D01*
X117592857Y-69650000D01*
X117664286Y-69721429D01*
X117735715Y-69864286D01*
X117807143Y-70150000D01*
X117807143Y-70507143D01*
X117735715Y-70792857D01*
X117664286Y-70935714D01*
X117592857Y-71007143D01*
X117450000Y-71078571D01*
X117307143Y-71078571D01*
X117164286Y-71007143D01*
X117092857Y-70935714D01*
X117021429Y-70792857D01*
X116950000Y-70507143D01*
X116950000Y-70150000D01*
X117021429Y-69864286D01*
X117092857Y-69721429D01*
X117164286Y-69650000D01*
X117307143Y-69578571D01*
X118450000Y-70935714D02*
X118521428Y-71007143D01*
X118450000Y-71078571D01*
X118378571Y-71007143D01*
X118450000Y-70935714D01*
X118450000Y-71078571D01*
X119950000Y-71078571D02*
X119092857Y-71078571D01*
X119521429Y-71078571D02*
X119521429Y-69578571D01*
X119378572Y-69792857D01*
X119235714Y-69935714D01*
X119092857Y-70007143D01*
D13*
X118400000Y-81200000D02*
X118400000Y-72200000D01*
X123200000Y-81200000D02*
X118400000Y-81200000D01*
X123200000Y-72200000D02*
X123200000Y-81200000D01*
X118400000Y-72200000D02*
X123200000Y-72200000D01*
D11*
X80406666Y-109474000D02*
G75*
G03X80406666Y-109474000I-1666666J0D01*
G01*
X76240000Y-109474000D02*
X81240000Y-109474000D01*
X78740000Y-106974000D02*
X78740000Y-111974000D01*
X122062666Y-69342000D02*
G75*
G03X122062666Y-69342000I-1666666J0D01*
G01*
X117896000Y-69342000D02*
X122896000Y-69342000D01*
X120396000Y-66842000D02*
X120396000Y-71842000D01*
D12*
X75882714Y-76751571D02*
X75882714Y-75251571D01*
X76597000Y-76751571D02*
X76597000Y-75251571D01*
X77454143Y-76751571D01*
X77454143Y-75251571D01*
X78168429Y-76180143D02*
X79311286Y-76180143D01*
X78739857Y-76751571D02*
X78739857Y-75608714D01*
X75882714Y-71671571D02*
X75882714Y-70171571D01*
X76597000Y-71671571D02*
X76597000Y-70171571D01*
X77454143Y-71671571D01*
X77454143Y-70171571D01*
X78168429Y-71100143D02*
X79311286Y-71100143D01*
X75970144Y-79863143D02*
X77113001Y-79863143D01*
X76541572Y-80434571D02*
X76541572Y-79291714D01*
X78613001Y-80434571D02*
X77755858Y-80434571D01*
X78184430Y-80434571D02*
X78184430Y-78934571D01*
X78041573Y-79148857D01*
X77898715Y-79291714D01*
X77755858Y-79363143D01*
X79184429Y-79077429D02*
X79255858Y-79006000D01*
X79398715Y-78934571D01*
X79755858Y-78934571D01*
X79898715Y-79006000D01*
X79970144Y-79077429D01*
X80041572Y-79220286D01*
X80041572Y-79363143D01*
X79970144Y-79577429D01*
X79113001Y-80434571D01*
X80041572Y-80434571D01*
X80470143Y-78934571D02*
X80970143Y-80434571D01*
X81470143Y-78934571D01*
X77470143Y-66941000D02*
X77327286Y-66869571D01*
X77113000Y-66869571D01*
X76898715Y-66941000D01*
X76755857Y-67083857D01*
X76684429Y-67226714D01*
X76613000Y-67512429D01*
X76613000Y-67726714D01*
X76684429Y-68012429D01*
X76755857Y-68155286D01*
X76898715Y-68298143D01*
X77113000Y-68369571D01*
X77255857Y-68369571D01*
X77470143Y-68298143D01*
X77541572Y-68226714D01*
X77541572Y-67726714D01*
X77255857Y-67726714D01*
X78184429Y-68369571D02*
X78184429Y-66869571D01*
X79041572Y-68369571D01*
X79041572Y-66869571D01*
X79755858Y-68369571D02*
X79755858Y-66869571D01*
X80113001Y-66869571D01*
X80327286Y-66941000D01*
X80470144Y-67083857D01*
X80541572Y-67226714D01*
X80613001Y-67512429D01*
X80613001Y-67726714D01*
X80541572Y-68012429D01*
X80470144Y-68155286D01*
X80327286Y-68298143D01*
X80113001Y-68369571D01*
X79755858Y-68369571D01*
D11*
X88050000Y-73200000D02*
X88050000Y-74200000D01*
X89750000Y-74200000D02*
X89750000Y-73200000D01*
X93400000Y-68350000D02*
X92400000Y-68350000D01*
X92400000Y-70050000D02*
X93400000Y-70050000D01*
X94100000Y-98150000D02*
X95100000Y-98150000D01*
X95100000Y-96450000D02*
X94100000Y-96450000D01*
X119000000Y-88950000D02*
X118000000Y-88950000D01*
X118000000Y-90650000D02*
X119000000Y-90650000D01*
X90700000Y-87525000D02*
X92700000Y-87525000D01*
X92700000Y-85475000D02*
X90700000Y-85475000D01*
X100535000Y-79514000D02*
X99138000Y-79514000D01*
X100789000Y-79641000D02*
X99011000Y-79641000D01*
X101170000Y-79768000D02*
X98630000Y-79768000D01*
X98503000Y-79895000D02*
X101297000Y-79895000D01*
X101424000Y-80022000D02*
X98376000Y-80022000D01*
X98249000Y-80149000D02*
X101551000Y-80149000D01*
X101678000Y-80276000D02*
X98122000Y-80276000D01*
X102567000Y-79133000D02*
X102567000Y-83705000D01*
X102567000Y-83705000D02*
X101805000Y-84467000D01*
X101805000Y-84467000D02*
X97995000Y-84467000D01*
X97995000Y-84467000D02*
X97233000Y-83705000D01*
X97233000Y-83705000D02*
X97233000Y-79133000D01*
X97233000Y-79133000D02*
X102567000Y-79133000D01*
X99900000Y-83959000D02*
X99900000Y-83197000D01*
X100281000Y-83578000D02*
X99519000Y-83578000D01*
X102313000Y-81800000D02*
G75*
G03X102313000Y-81800000I-2413000J0D01*
G01*
X84650000Y-81500000D02*
X84650000Y-80500000D01*
X82950000Y-80500000D02*
X82950000Y-81500000D01*
X120016000Y-108708000D02*
X120016000Y-111756000D01*
X120016000Y-111756000D02*
X115444000Y-111756000D01*
X115444000Y-111756000D02*
X115444000Y-104644000D01*
X115444000Y-104644000D02*
X120016000Y-104644000D01*
X120016000Y-104644000D02*
X120016000Y-107692000D01*
X82275096Y-90585112D02*
G75*
G03X85300000Y-90570000I1524904J-2484888D01*
G01*
X82300000Y-90570000D02*
X85300000Y-90570000D01*
X86317936Y-93070000D02*
G75*
G03X86317936Y-93070000I-2517936J0D01*
G01*
X82875096Y-84485112D02*
G75*
G03X85900000Y-84470000I1524904J-2484888D01*
G01*
X82900000Y-84470000D02*
X85900000Y-84470000D01*
X86917936Y-86970000D02*
G75*
G03X86917936Y-86970000I-2517936J0D01*
G01*
X98508114Y-75550000D02*
G75*
G03X98508114Y-75550000I-158114J0D01*
G01*
X97925000Y-75425000D02*
X97925000Y-75150000D01*
X94675000Y-75425000D02*
X94675000Y-75150000D01*
X94675000Y-72175000D02*
X94675000Y-72450000D01*
X97925000Y-72175000D02*
X97925000Y-72450000D01*
X97925000Y-75425000D02*
X94675000Y-75425000D01*
X97925000Y-72175000D02*
X94675000Y-72175000D01*
X97925000Y-75150000D02*
X99000000Y-75150000D01*
X115860555Y-92150000D02*
G75*
G03X115860555Y-92150000I-360555J0D01*
G01*
X115950000Y-92545000D02*
X115950000Y-92845000D01*
X121450000Y-92545000D02*
X121450000Y-92845000D01*
X121450000Y-98055000D02*
X121450000Y-97755000D01*
X115950000Y-98055000D02*
X115950000Y-97755000D01*
X115950000Y-92545000D02*
X121450000Y-92545000D01*
X115950000Y-98055000D02*
X121450000Y-98055000D01*
X115950000Y-92845000D02*
X114200000Y-92845000D01*
X100830278Y-91400000D02*
G75*
G03X100830278Y-91400000I-180278J0D01*
G01*
X101625000Y-91675000D02*
X101625000Y-92000000D01*
X108875000Y-91675000D02*
X108875000Y-92000000D01*
X108875000Y-98925000D02*
X108875000Y-98600000D01*
X101625000Y-98925000D02*
X101625000Y-98600000D01*
X101625000Y-91675000D02*
X101950000Y-91675000D01*
X101625000Y-98925000D02*
X101950000Y-98925000D01*
X108875000Y-98925000D02*
X108550000Y-98925000D01*
X108875000Y-91675000D02*
X108550000Y-91675000D01*
X101625000Y-92000000D02*
X100200000Y-92000000D01*
X94412132Y-84150000D02*
G75*
G03X94412132Y-84150000I-212132J0D01*
G01*
X93275000Y-83775000D02*
X93275000Y-83630000D01*
X89125000Y-83775000D02*
X89125000Y-83630000D01*
X89125000Y-78625000D02*
X89125000Y-78770000D01*
X93275000Y-78625000D02*
X93275000Y-78770000D01*
X93275000Y-83775000D02*
X89125000Y-83775000D01*
X93275000Y-78625000D02*
X89125000Y-78625000D01*
X93275000Y-83630000D02*
X94675000Y-83630000D01*
X84000000Y-74925000D02*
X85200000Y-74925000D01*
X85200000Y-76675000D02*
X84000000Y-76675000D01*
X84000000Y-70725000D02*
X85200000Y-70725000D01*
X85200000Y-72475000D02*
X84000000Y-72475000D01*
X79275000Y-89400000D02*
X79275000Y-90600000D01*
X77525000Y-90600000D02*
X77525000Y-89400000D01*
X79275000Y-83700000D02*
X79275000Y-84900000D01*
X77525000Y-84900000D02*
X77525000Y-83700000D01*
X98925000Y-107600000D02*
X98925000Y-106400000D01*
X100675000Y-106400000D02*
X100675000Y-107600000D01*
X95125000Y-107600000D02*
X95125000Y-106400000D01*
X96875000Y-106400000D02*
X96875000Y-107600000D01*
X117125000Y-85100000D02*
X117125000Y-83900000D01*
X118875000Y-83900000D02*
X118875000Y-85100000D01*
X102725000Y-107600000D02*
X102725000Y-106400000D01*
X104475000Y-106400000D02*
X104475000Y-107600000D01*
X113325000Y-85100000D02*
X113325000Y-83900000D01*
X115075000Y-83900000D02*
X115075000Y-85100000D01*
X109525000Y-85100000D02*
X109525000Y-83900000D01*
X111275000Y-83900000D02*
X111275000Y-85100000D01*
X105725000Y-85050000D02*
X105725000Y-83850000D01*
X107475000Y-83850000D02*
X107475000Y-85050000D01*
X97267605Y-100984405D02*
X97576701Y-100920334D01*
X96967885Y-100465275D02*
X97177921Y-100229626D01*
X96668165Y-99946145D02*
X92295153Y-102470905D01*
X92295153Y-102470905D02*
X93194313Y-104028295D01*
X93194313Y-104028295D02*
X97567325Y-101503535D01*
X96668165Y-99946145D02*
X97567325Y-101503535D01*
D10*
X119712000Y-108200000D02*
G75*
G03X119712000Y-108200000I-712000J0D01*
G01*
X119712000Y-110740000D02*
G75*
G03X119712000Y-110740000I-712000J0D01*
G01*
X119712000Y-105660000D02*
G75*
G03X119712000Y-105660000I-712000J0D01*
G01*
X117172000Y-105660000D02*
G75*
G03X117172000Y-105660000I-712000J0D01*
G01*
X117172000Y-108200000D02*
G75*
G03X117172000Y-108200000I-712000J0D01*
G01*
X117172000Y-110740000D02*
G75*
G03X117172000Y-110740000I-712000J0D01*
G01*
X84700000Y-94340000D02*
G75*
G03X84700000Y-94340000I-900000J0D01*
G01*
X85300000Y-88240000D02*
G75*
G03X85300000Y-88240000I-900000J0D01*
G01*
X80312000Y-69860000D02*
G75*
G03X80312000Y-69860000I-712000J0D01*
G01*
X80312000Y-72400000D02*
G75*
G03X80312000Y-72400000I-712000J0D01*
G01*
X80312000Y-74940000D02*
G75*
G03X80312000Y-74940000I-712000J0D01*
G01*
X80312000Y-77480000D02*
G75*
G03X80312000Y-77480000I-712000J0D01*
G01*
X95552000Y-92000000D02*
G75*
G03X95552000Y-92000000I-712000J0D01*
G01*
X93012000Y-92000000D02*
G75*
G03X93012000Y-92000000I-712000J0D01*
G01*
X90472000Y-92000000D02*
G75*
G03X90472000Y-92000000I-712000J0D01*
G01*
X110672000Y-76200000D02*
G75*
G03X110672000Y-76200000I-712000J0D01*
G01*
X113212000Y-76200000D02*
G75*
G03X113212000Y-76200000I-712000J0D01*
G01*
X115752000Y-76200000D02*
G75*
G03X115752000Y-76200000I-712000J0D01*
G01*
X88212000Y-106900000D02*
G75*
G03X88212000Y-106900000I-712000J0D01*
G01*
X90752000Y-106900000D02*
G75*
G03X90752000Y-106900000I-712000J0D01*
G01*
X82712000Y-99500000D02*
G75*
G03X82712000Y-99500000I-712000J0D01*
G01*
X85252000Y-99500000D02*
G75*
G03X85252000Y-99500000I-712000J0D01*
G01*
X99025030Y-100748913D02*
G75*
G03X99025030Y-100748913I-450380J0D01*
G01*
X98275730Y-99451087D02*
G75*
G03X98275730Y-99451087I-450380J0D01*
G01*
D11*
X87157143Y-73866666D02*
X87204762Y-73914285D01*
X87252381Y-74057142D01*
X87252381Y-74152380D01*
X87204762Y-74295238D01*
X87109524Y-74390476D01*
X87014286Y-74438095D01*
X86823810Y-74485714D01*
X86680952Y-74485714D01*
X86490476Y-74438095D01*
X86395238Y-74390476D01*
X86300000Y-74295238D01*
X86252381Y-74152380D01*
X86252381Y-74057142D01*
X86300000Y-73914285D01*
X86347619Y-73866666D01*
X87252381Y-72914285D02*
X87252381Y-73485714D01*
X87252381Y-73200000D02*
X86252381Y-73200000D01*
X86395238Y-73295238D01*
X86490476Y-73390476D01*
X86538095Y-73485714D01*
X92733334Y-67457143D02*
X92685715Y-67504762D01*
X92542858Y-67552381D01*
X92447620Y-67552381D01*
X92304762Y-67504762D01*
X92209524Y-67409524D01*
X92161905Y-67314286D01*
X92114286Y-67123810D01*
X92114286Y-66980952D01*
X92161905Y-66790476D01*
X92209524Y-66695238D01*
X92304762Y-66600000D01*
X92447620Y-66552381D01*
X92542858Y-66552381D01*
X92685715Y-66600000D01*
X92733334Y-66647619D01*
X93114286Y-66647619D02*
X93161905Y-66600000D01*
X93257143Y-66552381D01*
X93495239Y-66552381D01*
X93590477Y-66600000D01*
X93638096Y-66647619D01*
X93685715Y-66742857D01*
X93685715Y-66838095D01*
X93638096Y-66980952D01*
X93066667Y-67552381D01*
X93685715Y-67552381D01*
X94433334Y-99757143D02*
X94385715Y-99804762D01*
X94242858Y-99852381D01*
X94147620Y-99852381D01*
X94004762Y-99804762D01*
X93909524Y-99709524D01*
X93861905Y-99614286D01*
X93814286Y-99423810D01*
X93814286Y-99280952D01*
X93861905Y-99090476D01*
X93909524Y-98995238D01*
X94004762Y-98900000D01*
X94147620Y-98852381D01*
X94242858Y-98852381D01*
X94385715Y-98900000D01*
X94433334Y-98947619D01*
X94766667Y-98852381D02*
X95385715Y-98852381D01*
X95052381Y-99233333D01*
X95195239Y-99233333D01*
X95290477Y-99280952D01*
X95338096Y-99328571D01*
X95385715Y-99423810D01*
X95385715Y-99661905D01*
X95338096Y-99757143D01*
X95290477Y-99804762D01*
X95195239Y-99852381D01*
X94909524Y-99852381D01*
X94814286Y-99804762D01*
X94766667Y-99757143D01*
X118333334Y-88057143D02*
X118285715Y-88104762D01*
X118142858Y-88152381D01*
X118047620Y-88152381D01*
X117904762Y-88104762D01*
X117809524Y-88009524D01*
X117761905Y-87914286D01*
X117714286Y-87723810D01*
X117714286Y-87580952D01*
X117761905Y-87390476D01*
X117809524Y-87295238D01*
X117904762Y-87200000D01*
X118047620Y-87152381D01*
X118142858Y-87152381D01*
X118285715Y-87200000D01*
X118333334Y-87247619D01*
X119190477Y-87485714D02*
X119190477Y-88152381D01*
X118952381Y-87104762D02*
X118714286Y-87819048D01*
X119333334Y-87819048D01*
X91533334Y-89157143D02*
X91485715Y-89204762D01*
X91342858Y-89252381D01*
X91247620Y-89252381D01*
X91104762Y-89204762D01*
X91009524Y-89109524D01*
X90961905Y-89014286D01*
X90914286Y-88823810D01*
X90914286Y-88680952D01*
X90961905Y-88490476D01*
X91009524Y-88395238D01*
X91104762Y-88300000D01*
X91247620Y-88252381D01*
X91342858Y-88252381D01*
X91485715Y-88300000D01*
X91533334Y-88347619D01*
X92438096Y-88252381D02*
X91961905Y-88252381D01*
X91914286Y-88728571D01*
X91961905Y-88680952D01*
X92057143Y-88633333D01*
X92295239Y-88633333D01*
X92390477Y-88680952D01*
X92438096Y-88728571D01*
X92485715Y-88823810D01*
X92485715Y-89061905D01*
X92438096Y-89157143D01*
X92390477Y-89204762D01*
X92295239Y-89252381D01*
X92057143Y-89252381D01*
X91961905Y-89204762D01*
X91914286Y-89157143D01*
X104067143Y-81966666D02*
X104114762Y-82014285D01*
X104162381Y-82157142D01*
X104162381Y-82252380D01*
X104114762Y-82395238D01*
X104019524Y-82490476D01*
X103924286Y-82538095D01*
X103733810Y-82585714D01*
X103590952Y-82585714D01*
X103400476Y-82538095D01*
X103305238Y-82490476D01*
X103210000Y-82395238D01*
X103162381Y-82252380D01*
X103162381Y-82157142D01*
X103210000Y-82014285D01*
X103257619Y-81966666D01*
X103162381Y-81109523D02*
X103162381Y-81300000D01*
X103210000Y-81395238D01*
X103257619Y-81442857D01*
X103400476Y-81538095D01*
X103590952Y-81585714D01*
X103971905Y-81585714D01*
X104067143Y-81538095D01*
X104114762Y-81490476D01*
X104162381Y-81395238D01*
X104162381Y-81204761D01*
X104114762Y-81109523D01*
X104067143Y-81061904D01*
X103971905Y-81014285D01*
X103733810Y-81014285D01*
X103638571Y-81061904D01*
X103590952Y-81109523D01*
X103543333Y-81204761D01*
X103543333Y-81395238D01*
X103590952Y-81490476D01*
X103638571Y-81538095D01*
X103733810Y-81585714D01*
X86257143Y-81166666D02*
X86304762Y-81214285D01*
X86352381Y-81357142D01*
X86352381Y-81452380D01*
X86304762Y-81595238D01*
X86209524Y-81690476D01*
X86114286Y-81738095D01*
X85923810Y-81785714D01*
X85780952Y-81785714D01*
X85590476Y-81738095D01*
X85495238Y-81690476D01*
X85400000Y-81595238D01*
X85352381Y-81452380D01*
X85352381Y-81357142D01*
X85400000Y-81214285D01*
X85447619Y-81166666D01*
X85352381Y-80833333D02*
X85352381Y-80166666D01*
X86352381Y-80595238D01*
X116515715Y-112875143D02*
X116468096Y-112922762D01*
X116325239Y-112970381D01*
X116230001Y-112970381D01*
X116087143Y-112922762D01*
X115991905Y-112827524D01*
X115944286Y-112732286D01*
X115896667Y-112541810D01*
X115896667Y-112398952D01*
X115944286Y-112208476D01*
X115991905Y-112113238D01*
X116087143Y-112018000D01*
X116230001Y-111970381D01*
X116325239Y-111970381D01*
X116468096Y-112018000D01*
X116515715Y-112065619D01*
X117134762Y-111970381D02*
X117325239Y-111970381D01*
X117420477Y-112018000D01*
X117515715Y-112113238D01*
X117563334Y-112303714D01*
X117563334Y-112637048D01*
X117515715Y-112827524D01*
X117420477Y-112922762D01*
X117325239Y-112970381D01*
X117134762Y-112970381D01*
X117039524Y-112922762D01*
X116944286Y-112827524D01*
X116896667Y-112637048D01*
X116896667Y-112303714D01*
X116944286Y-112113238D01*
X117039524Y-112018000D01*
X117134762Y-111970381D01*
X117991905Y-112970381D02*
X117991905Y-111970381D01*
X118563334Y-112970381D01*
X118563334Y-111970381D01*
X119563334Y-112970381D02*
X118991905Y-112970381D01*
X119277619Y-112970381D02*
X119277619Y-111970381D01*
X119182381Y-112113238D01*
X119087143Y-112208476D01*
X118991905Y-112256095D01*
X121246381Y-106112381D02*
X120913047Y-105636190D01*
X120674952Y-106112381D02*
X120674952Y-105112381D01*
X121055905Y-105112381D01*
X121151143Y-105160000D01*
X121198762Y-105207619D01*
X121246381Y-105302857D01*
X121246381Y-105445714D01*
X121198762Y-105540952D01*
X121151143Y-105588571D01*
X121055905Y-105636190D01*
X120674952Y-105636190D01*
X121627333Y-106064762D02*
X121770190Y-106112381D01*
X122008286Y-106112381D01*
X122103524Y-106064762D01*
X122151143Y-106017143D01*
X122198762Y-105921905D01*
X122198762Y-105826667D01*
X122151143Y-105731429D01*
X122103524Y-105683810D01*
X122008286Y-105636190D01*
X121817809Y-105588571D01*
X121722571Y-105540952D01*
X121674952Y-105493333D01*
X121627333Y-105398095D01*
X121627333Y-105302857D01*
X121674952Y-105207619D01*
X121722571Y-105160000D01*
X121817809Y-105112381D01*
X122055905Y-105112381D01*
X122198762Y-105160000D01*
X122484476Y-105112381D02*
X123055905Y-105112381D01*
X122770190Y-106112381D02*
X122770190Y-105112381D01*
X120508286Y-108604762D02*
X120651143Y-108652381D01*
X120889239Y-108652381D01*
X120984477Y-108604762D01*
X121032096Y-108557143D01*
X121079715Y-108461905D01*
X121079715Y-108366667D01*
X121032096Y-108271429D01*
X120984477Y-108223810D01*
X120889239Y-108176190D01*
X120698762Y-108128571D01*
X120603524Y-108080952D01*
X120555905Y-108033333D01*
X120508286Y-107938095D01*
X120508286Y-107842857D01*
X120555905Y-107747619D01*
X120603524Y-107700000D01*
X120698762Y-107652381D01*
X120936858Y-107652381D01*
X121079715Y-107700000D01*
X122079715Y-108557143D02*
X122032096Y-108604762D01*
X121889239Y-108652381D01*
X121794001Y-108652381D01*
X121651143Y-108604762D01*
X121555905Y-108509524D01*
X121508286Y-108414286D01*
X121460667Y-108223810D01*
X121460667Y-108080952D01*
X121508286Y-107890476D01*
X121555905Y-107795238D01*
X121651143Y-107700000D01*
X121794001Y-107652381D01*
X121889239Y-107652381D01*
X122032096Y-107700000D01*
X122079715Y-107747619D01*
X122508286Y-108652381D02*
X122508286Y-107652381D01*
X123079715Y-108652381D02*
X122651143Y-108080952D01*
X123079715Y-107652381D02*
X122508286Y-108223810D01*
X120476572Y-111192381D02*
X120476572Y-110192381D01*
X120809906Y-110906667D01*
X121143239Y-110192381D01*
X121143239Y-111192381D01*
X121619429Y-111192381D02*
X121619429Y-110192381D01*
X122048000Y-111144762D02*
X122190857Y-111192381D01*
X122428953Y-111192381D01*
X122524191Y-111144762D01*
X122571810Y-111097143D01*
X122619429Y-111001905D01*
X122619429Y-110906667D01*
X122571810Y-110811429D01*
X122524191Y-110763810D01*
X122428953Y-110716190D01*
X122238476Y-110668571D01*
X122143238Y-110620952D01*
X122095619Y-110573333D01*
X122048000Y-110478095D01*
X122048000Y-110382857D01*
X122095619Y-110287619D01*
X122143238Y-110240000D01*
X122238476Y-110192381D01*
X122476572Y-110192381D01*
X122619429Y-110240000D01*
X123238476Y-110192381D02*
X123428953Y-110192381D01*
X123524191Y-110240000D01*
X123619429Y-110335238D01*
X123667048Y-110525714D01*
X123667048Y-110859048D01*
X123619429Y-111049524D01*
X123524191Y-111144762D01*
X123428953Y-111192381D01*
X123238476Y-111192381D01*
X123143238Y-111144762D01*
X123048000Y-111049524D01*
X123000381Y-110859048D01*
X123000381Y-110525714D01*
X123048000Y-110335238D01*
X123143238Y-110240000D01*
X123238476Y-110192381D01*
X112904096Y-105160000D02*
X112808858Y-105112381D01*
X112666001Y-105112381D01*
X112523143Y-105160000D01*
X112427905Y-105255238D01*
X112380286Y-105350476D01*
X112332667Y-105540952D01*
X112332667Y-105683810D01*
X112380286Y-105874286D01*
X112427905Y-105969524D01*
X112523143Y-106064762D01*
X112666001Y-106112381D01*
X112761239Y-106112381D01*
X112904096Y-106064762D01*
X112951715Y-106017143D01*
X112951715Y-105683810D01*
X112761239Y-105683810D01*
X113380286Y-106112381D02*
X113380286Y-105112381D01*
X113951715Y-106112381D01*
X113951715Y-105112381D01*
X114427905Y-106112381D02*
X114427905Y-105112381D01*
X114666000Y-105112381D01*
X114808858Y-105160000D01*
X114904096Y-105255238D01*
X114951715Y-105350476D01*
X114999334Y-105540952D01*
X114999334Y-105683810D01*
X114951715Y-105874286D01*
X114904096Y-105969524D01*
X114808858Y-106064762D01*
X114666000Y-106112381D01*
X114427905Y-106112381D01*
X111840572Y-108652381D02*
X111840572Y-107652381D01*
X112173906Y-108366667D01*
X112507239Y-107652381D01*
X112507239Y-108652381D01*
X113173905Y-107652381D02*
X113364382Y-107652381D01*
X113459620Y-107700000D01*
X113554858Y-107795238D01*
X113602477Y-107985714D01*
X113602477Y-108319048D01*
X113554858Y-108509524D01*
X113459620Y-108604762D01*
X113364382Y-108652381D01*
X113173905Y-108652381D01*
X113078667Y-108604762D01*
X112983429Y-108509524D01*
X112935810Y-108319048D01*
X112935810Y-107985714D01*
X112983429Y-107795238D01*
X113078667Y-107700000D01*
X113173905Y-107652381D01*
X113983429Y-108604762D02*
X114126286Y-108652381D01*
X114364382Y-108652381D01*
X114459620Y-108604762D01*
X114507239Y-108557143D01*
X114554858Y-108461905D01*
X114554858Y-108366667D01*
X114507239Y-108271429D01*
X114459620Y-108223810D01*
X114364382Y-108176190D01*
X114173905Y-108128571D01*
X114078667Y-108080952D01*
X114031048Y-108033333D01*
X113983429Y-107938095D01*
X113983429Y-107842857D01*
X114031048Y-107747619D01*
X114078667Y-107700000D01*
X114173905Y-107652381D01*
X114412001Y-107652381D01*
X114554858Y-107700000D01*
X114983429Y-108652381D02*
X114983429Y-107652381D01*
X112475524Y-110192381D02*
X112808857Y-111192381D01*
X113142191Y-110192381D01*
X113904096Y-111144762D02*
X113808858Y-111192381D01*
X113618381Y-111192381D01*
X113523143Y-111144762D01*
X113475524Y-111097143D01*
X113427905Y-111001905D01*
X113427905Y-110716190D01*
X113475524Y-110620952D01*
X113523143Y-110573333D01*
X113618381Y-110525714D01*
X113808858Y-110525714D01*
X113904096Y-110573333D01*
X114761239Y-111144762D02*
X114666001Y-111192381D01*
X114475524Y-111192381D01*
X114380286Y-111144762D01*
X114332667Y-111097143D01*
X114285048Y-111001905D01*
X114285048Y-110716190D01*
X114332667Y-110620952D01*
X114380286Y-110573333D01*
X114475524Y-110525714D01*
X114666001Y-110525714D01*
X114761239Y-110573333D01*
X80188381Y-94062095D02*
X79188381Y-94062095D01*
X79188381Y-93824000D01*
X79236000Y-93681142D01*
X79331238Y-93585904D01*
X79426476Y-93538285D01*
X79616952Y-93490666D01*
X79759810Y-93490666D01*
X79950286Y-93538285D01*
X80045524Y-93585904D01*
X80140762Y-93681142D01*
X80188381Y-93824000D01*
X80188381Y-94062095D01*
X80188381Y-92538285D02*
X80188381Y-93109714D01*
X80188381Y-92824000D02*
X79188381Y-92824000D01*
X79331238Y-92919238D01*
X79426476Y-93014476D01*
X79474095Y-93109714D01*
X82347381Y-90156905D02*
X81347381Y-90156905D01*
X82347381Y-89585476D02*
X81775952Y-90014048D01*
X81347381Y-89585476D02*
X81918810Y-90156905D01*
X80788381Y-87962095D02*
X79788381Y-87962095D01*
X79788381Y-87724000D01*
X79836000Y-87581142D01*
X79931238Y-87485904D01*
X80026476Y-87438285D01*
X80216952Y-87390666D01*
X80359810Y-87390666D01*
X80550286Y-87438285D01*
X80645524Y-87485904D01*
X80740762Y-87581142D01*
X80788381Y-87724000D01*
X80788381Y-87962095D01*
X79883619Y-87009714D02*
X79836000Y-86962095D01*
X79788381Y-86866857D01*
X79788381Y-86628761D01*
X79836000Y-86533523D01*
X79883619Y-86485904D01*
X79978857Y-86438285D01*
X80074095Y-86438285D01*
X80216952Y-86485904D01*
X80788381Y-87057333D01*
X80788381Y-86438285D01*
X82947381Y-84056905D02*
X81947381Y-84056905D01*
X82947381Y-83485476D02*
X82375952Y-83914048D01*
X81947381Y-83485476D02*
X82518810Y-84056905D01*
X95323810Y-76802381D02*
X95323810Y-75802381D01*
X96371429Y-76707143D02*
X96323810Y-76754762D01*
X96180953Y-76802381D01*
X96085715Y-76802381D01*
X95942857Y-76754762D01*
X95847619Y-76659524D01*
X95800000Y-76564286D01*
X95752381Y-76373810D01*
X95752381Y-76230952D01*
X95800000Y-76040476D01*
X95847619Y-75945238D01*
X95942857Y-75850000D01*
X96085715Y-75802381D01*
X96180953Y-75802381D01*
X96323810Y-75850000D01*
X96371429Y-75897619D01*
X97323810Y-76802381D02*
X96752381Y-76802381D01*
X97038095Y-76802381D02*
X97038095Y-75802381D01*
X96942857Y-75945238D01*
X96847619Y-76040476D01*
X96752381Y-76088095D01*
X117723810Y-92072381D02*
X117723810Y-91072381D01*
X118771429Y-91977143D02*
X118723810Y-92024762D01*
X118580953Y-92072381D01*
X118485715Y-92072381D01*
X118342857Y-92024762D01*
X118247619Y-91929524D01*
X118200000Y-91834286D01*
X118152381Y-91643810D01*
X118152381Y-91500952D01*
X118200000Y-91310476D01*
X118247619Y-91215238D01*
X118342857Y-91120000D01*
X118485715Y-91072381D01*
X118580953Y-91072381D01*
X118723810Y-91120000D01*
X118771429Y-91167619D01*
X119152381Y-91167619D02*
X119200000Y-91120000D01*
X119295238Y-91072381D01*
X119533334Y-91072381D01*
X119628572Y-91120000D01*
X119676191Y-91167619D01*
X119723810Y-91262857D01*
X119723810Y-91358095D01*
X119676191Y-91500952D01*
X119104762Y-92072381D01*
X119723810Y-92072381D01*
X104273810Y-88672381D02*
X104273810Y-87672381D01*
X105321429Y-88577143D02*
X105273810Y-88624762D01*
X105130953Y-88672381D01*
X105035715Y-88672381D01*
X104892857Y-88624762D01*
X104797619Y-88529524D01*
X104750000Y-88434286D01*
X104702381Y-88243810D01*
X104702381Y-88100952D01*
X104750000Y-87910476D01*
X104797619Y-87815238D01*
X104892857Y-87720000D01*
X105035715Y-87672381D01*
X105130953Y-87672381D01*
X105273810Y-87720000D01*
X105321429Y-87767619D01*
X105654762Y-87672381D02*
X106273810Y-87672381D01*
X105940476Y-88053333D01*
X106083334Y-88053333D01*
X106178572Y-88100952D01*
X106226191Y-88148571D01*
X106273810Y-88243810D01*
X106273810Y-88481905D01*
X106226191Y-88577143D01*
X106178572Y-88624762D01*
X106083334Y-88672381D01*
X105797619Y-88672381D01*
X105702381Y-88624762D01*
X105654762Y-88577143D01*
X90223810Y-85152381D02*
X90223810Y-84152381D01*
X91271429Y-85057143D02*
X91223810Y-85104762D01*
X91080953Y-85152381D01*
X90985715Y-85152381D01*
X90842857Y-85104762D01*
X90747619Y-85009524D01*
X90700000Y-84914286D01*
X90652381Y-84723810D01*
X90652381Y-84580952D01*
X90700000Y-84390476D01*
X90747619Y-84295238D01*
X90842857Y-84200000D01*
X90985715Y-84152381D01*
X91080953Y-84152381D01*
X91223810Y-84200000D01*
X91271429Y-84247619D01*
X92128572Y-84485714D02*
X92128572Y-85152381D01*
X91890476Y-84104762D02*
X91652381Y-84819048D01*
X92271429Y-84819048D01*
X83352381Y-68538095D02*
X82352381Y-68538095D01*
X82352381Y-68157142D01*
X82400000Y-68061904D01*
X82447619Y-68014285D01*
X82542857Y-67966666D01*
X82685714Y-67966666D01*
X82780952Y-68014285D01*
X82828571Y-68061904D01*
X82876190Y-68157142D01*
X82876190Y-68538095D01*
X83352381Y-67014285D02*
X83352381Y-67585714D01*
X83352381Y-67300000D02*
X82352381Y-67300000D01*
X82495238Y-67395238D01*
X82590476Y-67490476D01*
X82638095Y-67585714D01*
X91561905Y-95754381D02*
X91561905Y-94754381D01*
X91942858Y-94754381D01*
X92038096Y-94802000D01*
X92085715Y-94849619D01*
X92133334Y-94944857D01*
X92133334Y-95087714D01*
X92085715Y-95182952D01*
X92038096Y-95230571D01*
X91942858Y-95278190D01*
X91561905Y-95278190D01*
X92514286Y-94849619D02*
X92561905Y-94802000D01*
X92657143Y-94754381D01*
X92895239Y-94754381D01*
X92990477Y-94802000D01*
X93038096Y-94849619D01*
X93085715Y-94944857D01*
X93085715Y-95040095D01*
X93038096Y-95182952D01*
X92466667Y-95754381D01*
X93085715Y-95754381D01*
X112015905Y-79954381D02*
X112015905Y-78954381D01*
X112396858Y-78954381D01*
X112492096Y-79002000D01*
X112539715Y-79049619D01*
X112587334Y-79144857D01*
X112587334Y-79287714D01*
X112539715Y-79382952D01*
X112492096Y-79430571D01*
X112396858Y-79478190D01*
X112015905Y-79478190D01*
X112920667Y-78954381D02*
X113539715Y-78954381D01*
X113206381Y-79335333D01*
X113349239Y-79335333D01*
X113444477Y-79382952D01*
X113492096Y-79430571D01*
X113539715Y-79525810D01*
X113539715Y-79763905D01*
X113492096Y-79859143D01*
X113444477Y-79906762D01*
X113349239Y-79954381D01*
X113063524Y-79954381D01*
X112968286Y-79906762D01*
X112920667Y-79859143D01*
X114944762Y-74128381D02*
X115135239Y-74128381D01*
X115230477Y-74176000D01*
X115325715Y-74271238D01*
X115373334Y-74461714D01*
X115373334Y-74795048D01*
X115325715Y-74985524D01*
X115230477Y-75080762D01*
X115135239Y-75128381D01*
X114944762Y-75128381D01*
X114849524Y-75080762D01*
X114754286Y-74985524D01*
X114706667Y-74795048D01*
X114706667Y-74461714D01*
X114754286Y-74271238D01*
X114849524Y-74176000D01*
X114944762Y-74128381D01*
X112500000Y-74652190D02*
X112500000Y-75128381D01*
X112166667Y-74128381D02*
X112500000Y-74652190D01*
X112833334Y-74128381D01*
X110031429Y-74604571D02*
X110174286Y-74652190D01*
X110221905Y-74699810D01*
X110269524Y-74795048D01*
X110269524Y-74937905D01*
X110221905Y-75033143D01*
X110174286Y-75080762D01*
X110079048Y-75128381D01*
X109698095Y-75128381D01*
X109698095Y-74128381D01*
X110031429Y-74128381D01*
X110126667Y-74176000D01*
X110174286Y-74223619D01*
X110221905Y-74318857D01*
X110221905Y-74414095D01*
X110174286Y-74509333D01*
X110126667Y-74556952D01*
X110031429Y-74604571D01*
X109698095Y-74604571D01*
X114944762Y-77176381D02*
X115135239Y-77176381D01*
X115230477Y-77224000D01*
X115325715Y-77319238D01*
X115373334Y-77509714D01*
X115373334Y-77843048D01*
X115325715Y-78033524D01*
X115230477Y-78128762D01*
X115135239Y-78176381D01*
X114944762Y-78176381D01*
X114849524Y-78128762D01*
X114754286Y-78033524D01*
X114706667Y-77843048D01*
X114706667Y-77509714D01*
X114754286Y-77319238D01*
X114849524Y-77224000D01*
X114944762Y-77176381D01*
X112500000Y-77700190D02*
X112500000Y-78176381D01*
X112166667Y-77176381D02*
X112500000Y-77700190D01*
X112833334Y-77176381D01*
X110031429Y-77652571D02*
X110174286Y-77700190D01*
X110221905Y-77747810D01*
X110269524Y-77843048D01*
X110269524Y-77985905D01*
X110221905Y-78081143D01*
X110174286Y-78128762D01*
X110079048Y-78176381D01*
X109698095Y-78176381D01*
X109698095Y-77176381D01*
X110031429Y-77176381D01*
X110126667Y-77224000D01*
X110174286Y-77271619D01*
X110221905Y-77366857D01*
X110221905Y-77462095D01*
X110174286Y-77557333D01*
X110126667Y-77604952D01*
X110031429Y-77652571D01*
X109698095Y-77652571D01*
X84433334Y-78352381D02*
X84100000Y-77876190D01*
X83861905Y-78352381D02*
X83861905Y-77352381D01*
X84242858Y-77352381D01*
X84338096Y-77400000D01*
X84385715Y-77447619D01*
X84433334Y-77542857D01*
X84433334Y-77685714D01*
X84385715Y-77780952D01*
X84338096Y-77828571D01*
X84242858Y-77876190D01*
X83861905Y-77876190D01*
X85385715Y-78352381D02*
X84814286Y-78352381D01*
X85100000Y-78352381D02*
X85100000Y-77352381D01*
X85004762Y-77495238D01*
X84909524Y-77590476D01*
X84814286Y-77638095D01*
X84433334Y-74152381D02*
X84100000Y-73676190D01*
X83861905Y-74152381D02*
X83861905Y-73152381D01*
X84242858Y-73152381D01*
X84338096Y-73200000D01*
X84385715Y-73247619D01*
X84433334Y-73342857D01*
X84433334Y-73485714D01*
X84385715Y-73580952D01*
X84338096Y-73628571D01*
X84242858Y-73676190D01*
X83861905Y-73676190D01*
X84814286Y-73247619D02*
X84861905Y-73200000D01*
X84957143Y-73152381D01*
X85195239Y-73152381D01*
X85290477Y-73200000D01*
X85338096Y-73247619D01*
X85385715Y-73342857D01*
X85385715Y-73438095D01*
X85338096Y-73580952D01*
X84766667Y-74152381D01*
X85385715Y-74152381D01*
X76752381Y-90166666D02*
X76276190Y-90500000D01*
X76752381Y-90738095D02*
X75752381Y-90738095D01*
X75752381Y-90357142D01*
X75800000Y-90261904D01*
X75847619Y-90214285D01*
X75942857Y-90166666D01*
X76085714Y-90166666D01*
X76180952Y-90214285D01*
X76228571Y-90261904D01*
X76276190Y-90357142D01*
X76276190Y-90738095D01*
X75752381Y-89833333D02*
X75752381Y-89214285D01*
X76133333Y-89547619D01*
X76133333Y-89404761D01*
X76180952Y-89309523D01*
X76228571Y-89261904D01*
X76323810Y-89214285D01*
X76561905Y-89214285D01*
X76657143Y-89261904D01*
X76704762Y-89309523D01*
X76752381Y-89404761D01*
X76752381Y-89690476D01*
X76704762Y-89785714D01*
X76657143Y-89833333D01*
X76752381Y-84466666D02*
X76276190Y-84800000D01*
X76752381Y-85038095D02*
X75752381Y-85038095D01*
X75752381Y-84657142D01*
X75800000Y-84561904D01*
X75847619Y-84514285D01*
X75942857Y-84466666D01*
X76085714Y-84466666D01*
X76180952Y-84514285D01*
X76228571Y-84561904D01*
X76276190Y-84657142D01*
X76276190Y-85038095D01*
X76085714Y-83609523D02*
X76752381Y-83609523D01*
X75704762Y-83847619D02*
X76419048Y-84085714D01*
X76419048Y-83466666D01*
X102352381Y-107166666D02*
X101876190Y-107500000D01*
X102352381Y-107738095D02*
X101352381Y-107738095D01*
X101352381Y-107357142D01*
X101400000Y-107261904D01*
X101447619Y-107214285D01*
X101542857Y-107166666D01*
X101685714Y-107166666D01*
X101780952Y-107214285D01*
X101828571Y-107261904D01*
X101876190Y-107357142D01*
X101876190Y-107738095D01*
X101352381Y-106261904D02*
X101352381Y-106738095D01*
X101828571Y-106785714D01*
X101780952Y-106738095D01*
X101733333Y-106642857D01*
X101733333Y-106404761D01*
X101780952Y-106309523D01*
X101828571Y-106261904D01*
X101923810Y-106214285D01*
X102161905Y-106214285D01*
X102257143Y-106261904D01*
X102304762Y-106309523D01*
X102352381Y-106404761D01*
X102352381Y-106642857D01*
X102304762Y-106738095D01*
X102257143Y-106785714D01*
X98552381Y-107166666D02*
X98076190Y-107500000D01*
X98552381Y-107738095D02*
X97552381Y-107738095D01*
X97552381Y-107357142D01*
X97600000Y-107261904D01*
X97647619Y-107214285D01*
X97742857Y-107166666D01*
X97885714Y-107166666D01*
X97980952Y-107214285D01*
X98028571Y-107261904D01*
X98076190Y-107357142D01*
X98076190Y-107738095D01*
X97552381Y-106309523D02*
X97552381Y-106500000D01*
X97600000Y-106595238D01*
X97647619Y-106642857D01*
X97790476Y-106738095D01*
X97980952Y-106785714D01*
X98361905Y-106785714D01*
X98457143Y-106738095D01*
X98504762Y-106690476D01*
X98552381Y-106595238D01*
X98552381Y-106404761D01*
X98504762Y-106309523D01*
X98457143Y-106261904D01*
X98361905Y-106214285D01*
X98123810Y-106214285D01*
X98028571Y-106261904D01*
X97980952Y-106309523D01*
X97933333Y-106404761D01*
X97933333Y-106595238D01*
X97980952Y-106690476D01*
X98028571Y-106738095D01*
X98123810Y-106785714D01*
X120552381Y-84166666D02*
X120076190Y-84500000D01*
X120552381Y-84738095D02*
X119552381Y-84738095D01*
X119552381Y-84357142D01*
X119600000Y-84261904D01*
X119647619Y-84214285D01*
X119742857Y-84166666D01*
X119885714Y-84166666D01*
X119980952Y-84214285D01*
X120028571Y-84261904D01*
X120076190Y-84357142D01*
X120076190Y-84738095D01*
X119552381Y-83833333D02*
X119552381Y-83166666D01*
X120552381Y-83595238D01*
X106152381Y-107166666D02*
X105676190Y-107500000D01*
X106152381Y-107738095D02*
X105152381Y-107738095D01*
X105152381Y-107357142D01*
X105200000Y-107261904D01*
X105247619Y-107214285D01*
X105342857Y-107166666D01*
X105485714Y-107166666D01*
X105580952Y-107214285D01*
X105628571Y-107261904D01*
X105676190Y-107357142D01*
X105676190Y-107738095D01*
X105580952Y-106595238D02*
X105533333Y-106690476D01*
X105485714Y-106738095D01*
X105390476Y-106785714D01*
X105342857Y-106785714D01*
X105247619Y-106738095D01*
X105200000Y-106690476D01*
X105152381Y-106595238D01*
X105152381Y-106404761D01*
X105200000Y-106309523D01*
X105247619Y-106261904D01*
X105342857Y-106214285D01*
X105390476Y-106214285D01*
X105485714Y-106261904D01*
X105533333Y-106309523D01*
X105580952Y-106404761D01*
X105580952Y-106595238D01*
X105628571Y-106690476D01*
X105676190Y-106738095D01*
X105771429Y-106785714D01*
X105961905Y-106785714D01*
X106057143Y-106738095D01*
X106104762Y-106690476D01*
X106152381Y-106595238D01*
X106152381Y-106404761D01*
X106104762Y-106309523D01*
X106057143Y-106261904D01*
X105961905Y-106214285D01*
X105771429Y-106214285D01*
X105676190Y-106261904D01*
X105628571Y-106309523D01*
X105580952Y-106404761D01*
X116652381Y-84166666D02*
X116176190Y-84500000D01*
X116652381Y-84738095D02*
X115652381Y-84738095D01*
X115652381Y-84357142D01*
X115700000Y-84261904D01*
X115747619Y-84214285D01*
X115842857Y-84166666D01*
X115985714Y-84166666D01*
X116080952Y-84214285D01*
X116128571Y-84261904D01*
X116176190Y-84357142D01*
X116176190Y-84738095D01*
X116652381Y-83690476D02*
X116652381Y-83500000D01*
X116604762Y-83404761D01*
X116557143Y-83357142D01*
X116414286Y-83261904D01*
X116223810Y-83214285D01*
X115842857Y-83214285D01*
X115747619Y-83261904D01*
X115700000Y-83309523D01*
X115652381Y-83404761D01*
X115652381Y-83595238D01*
X115700000Y-83690476D01*
X115747619Y-83738095D01*
X115842857Y-83785714D01*
X116080952Y-83785714D01*
X116176190Y-83738095D01*
X116223810Y-83690476D01*
X116271429Y-83595238D01*
X116271429Y-83404761D01*
X116223810Y-83309523D01*
X116176190Y-83261904D01*
X116080952Y-83214285D01*
X112852381Y-84242857D02*
X112376190Y-84576191D01*
X112852381Y-84814286D02*
X111852381Y-84814286D01*
X111852381Y-84433333D01*
X111900000Y-84338095D01*
X111947619Y-84290476D01*
X112042857Y-84242857D01*
X112185714Y-84242857D01*
X112280952Y-84290476D01*
X112328571Y-84338095D01*
X112376190Y-84433333D01*
X112376190Y-84814286D01*
X112852381Y-83290476D02*
X112852381Y-83861905D01*
X112852381Y-83576191D02*
X111852381Y-83576191D01*
X111995238Y-83671429D01*
X112090476Y-83766667D01*
X112138095Y-83861905D01*
X111852381Y-82671429D02*
X111852381Y-82576190D01*
X111900000Y-82480952D01*
X111947619Y-82433333D01*
X112042857Y-82385714D01*
X112233333Y-82338095D01*
X112471429Y-82338095D01*
X112661905Y-82385714D01*
X112757143Y-82433333D01*
X112804762Y-82480952D01*
X112852381Y-82576190D01*
X112852381Y-82671429D01*
X112804762Y-82766667D01*
X112757143Y-82814286D01*
X112661905Y-82861905D01*
X112471429Y-82909524D01*
X112233333Y-82909524D01*
X112042857Y-82861905D01*
X111947619Y-82814286D01*
X111900000Y-82766667D01*
X111852381Y-82671429D01*
X108952381Y-84142857D02*
X108476190Y-84476191D01*
X108952381Y-84714286D02*
X107952381Y-84714286D01*
X107952381Y-84333333D01*
X108000000Y-84238095D01*
X108047619Y-84190476D01*
X108142857Y-84142857D01*
X108285714Y-84142857D01*
X108380952Y-84190476D01*
X108428571Y-84238095D01*
X108476190Y-84333333D01*
X108476190Y-84714286D01*
X108952381Y-83190476D02*
X108952381Y-83761905D01*
X108952381Y-83476191D02*
X107952381Y-83476191D01*
X108095238Y-83571429D01*
X108190476Y-83666667D01*
X108238095Y-83761905D01*
X108952381Y-82238095D02*
X108952381Y-82809524D01*
X108952381Y-82523810D02*
X107952381Y-82523810D01*
X108095238Y-82619048D01*
X108190476Y-82714286D01*
X108238095Y-82809524D01*
X87690667Y-110860762D02*
X87833524Y-110908381D01*
X88071620Y-110908381D01*
X88166858Y-110860762D01*
X88214477Y-110813143D01*
X88262096Y-110717905D01*
X88262096Y-110622667D01*
X88214477Y-110527429D01*
X88166858Y-110479810D01*
X88071620Y-110432190D01*
X87881143Y-110384571D01*
X87785905Y-110336952D01*
X87738286Y-110289333D01*
X87690667Y-110194095D01*
X87690667Y-110098857D01*
X87738286Y-110003619D01*
X87785905Y-109956000D01*
X87881143Y-109908381D01*
X88119239Y-109908381D01*
X88262096Y-109956000D01*
X88595429Y-109908381D02*
X88833524Y-110908381D01*
X89024001Y-110194095D01*
X89214477Y-110908381D01*
X89452572Y-109908381D01*
X90357334Y-110908381D02*
X89785905Y-110908381D01*
X90071619Y-110908381D02*
X90071619Y-109908381D01*
X89976381Y-110051238D01*
X89881143Y-110146476D01*
X89785905Y-110194095D01*
X82190667Y-103460762D02*
X82333524Y-103508381D01*
X82571620Y-103508381D01*
X82666858Y-103460762D01*
X82714477Y-103413143D01*
X82762096Y-103317905D01*
X82762096Y-103222667D01*
X82714477Y-103127429D01*
X82666858Y-103079810D01*
X82571620Y-103032190D01*
X82381143Y-102984571D01*
X82285905Y-102936952D01*
X82238286Y-102889333D01*
X82190667Y-102794095D01*
X82190667Y-102698857D01*
X82238286Y-102603619D01*
X82285905Y-102556000D01*
X82381143Y-102508381D01*
X82619239Y-102508381D01*
X82762096Y-102556000D01*
X83095429Y-102508381D02*
X83333524Y-103508381D01*
X83524001Y-102794095D01*
X83714477Y-103508381D01*
X83952572Y-102508381D01*
X84285905Y-102603619D02*
X84333524Y-102556000D01*
X84428762Y-102508381D01*
X84666858Y-102508381D01*
X84762096Y-102556000D01*
X84809715Y-102603619D01*
X84857334Y-102698857D01*
X84857334Y-102794095D01*
X84809715Y-102936952D01*
X84238286Y-103508381D01*
X84857334Y-103508381D01*
X91882525Y-101075701D02*
X91470131Y-101313797D01*
X92169490Y-100525122D02*
X91882525Y-101075701D01*
X92502823Y-101102473D01*
X92065370Y-102344780D02*
X91779655Y-101849908D01*
X91922512Y-102097344D02*
X92788537Y-101597344D01*
X92617201Y-101586294D01*
X92487103Y-101551434D01*
X92398245Y-101492765D01*
M02*
