G04 #@! TF.FileFunction,Copper,L1,Top,Signal*
%FSLAX46Y46*%
G04 Gerber Fmt 4.6, Leading zero omitted, Abs format (unit mm)*
G04 Created by KiCad (PCBNEW 4.0.2-4+6225~38~ubuntu14.04.1-stable) date Fri 13 May 2016 19:11:25 BST*
%MOMM*%
G01*
G04 APERTURE LIST*
%ADD10C,0.100000*%
%ADD11C,0.150000*%
%ADD12C,0.300000*%
%ADD13R,1.250000X1.500000*%
%ADD14R,1.500000X1.250000*%
%ADD15R,2.000000X1.600000*%
%ADD16R,1.600200X2.999740*%
%ADD17C,1.524000*%
%ADD18R,2.000000X1.900000*%
%ADD19C,1.900000*%
%ADD20R,2.700000X0.250000*%
%ADD21R,2.000000X0.650000*%
%ADD22R,2.400000X0.550000*%
%ADD23R,0.550000X2.400000*%
%ADD24R,2.000000X0.600000*%
%ADD25R,1.500000X1.300000*%
%ADD26R,1.300000X1.500000*%
%ADD27C,1.000760*%
%ADD28C,0.700000*%
%ADD29C,0.200000*%
%ADD30C,0.500000*%
%ADD31C,0.130000*%
G04 APERTURE END LIST*
D10*
D11*
X75192000Y-113481000D02*
X75319000Y-113481000D01*
X75192000Y-65602000D02*
X75192000Y-113481000D01*
X124341000Y-65602000D02*
X75192000Y-65602000D01*
X124341000Y-113481000D02*
X124341000Y-65602000D01*
X75319000Y-113481000D02*
X124341000Y-113481000D01*
D12*
X119114286Y-73078571D02*
X119971429Y-73078571D01*
X119542858Y-74578571D02*
X119542858Y-73078571D01*
X120685715Y-74578571D02*
X120542857Y-74507143D01*
X120471429Y-74435714D01*
X120400000Y-74292857D01*
X120400000Y-73864286D01*
X120471429Y-73721429D01*
X120542857Y-73650000D01*
X120685715Y-73578571D01*
X120900000Y-73578571D01*
X121042857Y-73650000D01*
X121114286Y-73721429D01*
X121185715Y-73864286D01*
X121185715Y-74292857D01*
X121114286Y-74435714D01*
X121042857Y-74507143D01*
X120900000Y-74578571D01*
X120685715Y-74578571D01*
X121828572Y-73578571D02*
X121828572Y-75078571D01*
X121828572Y-73650000D02*
X121971429Y-73578571D01*
X122257143Y-73578571D01*
X122400000Y-73650000D01*
X122471429Y-73721429D01*
X122542858Y-73864286D01*
X122542858Y-74292857D01*
X122471429Y-74435714D01*
X122400000Y-74507143D01*
X122257143Y-74578571D01*
X121971429Y-74578571D01*
X121828572Y-74507143D01*
D11*
X80406666Y-109474000D02*
G75*
G03X80406666Y-109474000I-1666666J0D01*
G01*
X76240000Y-109474000D02*
X81240000Y-109474000D01*
X78740000Y-106974000D02*
X78740000Y-111974000D01*
X122062666Y-69342000D02*
G75*
G03X122062666Y-69342000I-1666666J0D01*
G01*
X117896000Y-69342000D02*
X122896000Y-69342000D01*
X120396000Y-66842000D02*
X120396000Y-71842000D01*
D13*
X88900000Y-74950000D03*
X88900000Y-72450000D03*
D14*
X91650000Y-69200000D03*
X94150000Y-69200000D03*
X95850000Y-97300000D03*
X93350000Y-97300000D03*
X117250000Y-89800000D03*
X119750000Y-89800000D03*
D15*
X93700000Y-86500000D03*
X89700000Y-86500000D03*
D16*
X99900000Y-83999640D03*
X99900000Y-79600360D03*
D13*
X83800000Y-79750000D03*
X83800000Y-82250000D03*
D17*
X119000000Y-108200000D03*
X119000000Y-110740000D03*
X119000000Y-105660000D03*
X116460000Y-105660000D03*
X116460000Y-108200000D03*
X116460000Y-110740000D03*
D18*
X83800000Y-91800000D03*
D19*
X83800000Y-94340000D03*
D18*
X84400000Y-85700000D03*
D19*
X84400000Y-88240000D03*
D20*
X99250000Y-74800000D03*
X99250000Y-74300000D03*
X99250000Y-73800000D03*
X99250000Y-73300000D03*
X99250000Y-72800000D03*
X93350000Y-72800000D03*
X93350000Y-73300000D03*
X93350000Y-73800000D03*
X93350000Y-74300000D03*
X93350000Y-74800000D03*
D21*
X114900000Y-93395000D03*
X114900000Y-94665000D03*
X114900000Y-95935000D03*
X114900000Y-97205000D03*
X122500000Y-97205000D03*
X122500000Y-95935000D03*
X122500000Y-94665000D03*
X122500000Y-93395000D03*
D22*
X100600000Y-92500000D03*
X100600000Y-93300000D03*
X100600000Y-94100000D03*
X100600000Y-94900000D03*
X100600000Y-95700000D03*
X100600000Y-96500000D03*
X100600000Y-97300000D03*
X100600000Y-98100000D03*
D23*
X102450000Y-99950000D03*
X103250000Y-99950000D03*
X104050000Y-99950000D03*
X104850000Y-99950000D03*
X105650000Y-99950000D03*
X106450000Y-99950000D03*
X107250000Y-99950000D03*
X108050000Y-99950000D03*
D22*
X109900000Y-98100000D03*
X109900000Y-97300000D03*
X109900000Y-96500000D03*
X109900000Y-95700000D03*
X109900000Y-94900000D03*
X109900000Y-94100000D03*
X109900000Y-93300000D03*
X109900000Y-92500000D03*
D23*
X108050000Y-90650000D03*
X107250000Y-90650000D03*
X106450000Y-90650000D03*
X105650000Y-90650000D03*
X104850000Y-90650000D03*
X104050000Y-90650000D03*
X103250000Y-90650000D03*
X102450000Y-90650000D03*
D24*
X94125000Y-83105000D03*
X94125000Y-81835000D03*
X94125000Y-80565000D03*
X94125000Y-79295000D03*
X88275000Y-79295000D03*
X88275000Y-80565000D03*
X88275000Y-81835000D03*
X88275000Y-83105000D03*
D17*
X79600000Y-69860000D03*
X79600000Y-72400000D03*
X79600000Y-74940000D03*
X79600000Y-77480000D03*
X94840000Y-92000000D03*
X92300000Y-92000000D03*
X89760000Y-92000000D03*
X109960000Y-76200000D03*
X112500000Y-76200000D03*
X115040000Y-76200000D03*
D25*
X85950000Y-75800000D03*
X83250000Y-75800000D03*
X85950000Y-71600000D03*
X83250000Y-71600000D03*
D26*
X78400000Y-91350000D03*
X78400000Y-88650000D03*
X78400000Y-85650000D03*
X78400000Y-82950000D03*
X99800000Y-105650000D03*
X99800000Y-108350000D03*
X96000000Y-105650000D03*
X96000000Y-108350000D03*
X118000000Y-83150000D03*
X118000000Y-85850000D03*
X103600000Y-105650000D03*
X103600000Y-108350000D03*
X114200000Y-83150000D03*
X114200000Y-85850000D03*
X110400000Y-83150000D03*
X110400000Y-85850000D03*
X106600000Y-83100000D03*
X106600000Y-85800000D03*
D17*
X87500000Y-106900000D03*
X90040000Y-106900000D03*
X82000000Y-99500000D03*
X84540000Y-99500000D03*
D27*
X98574650Y-100748913D03*
X97825350Y-99451087D03*
D28*
X118400000Y-94100000D03*
X112200000Y-97300000D03*
X108900000Y-110700000D03*
X93800000Y-105400000D03*
X95800000Y-99100000D03*
X97100000Y-95800000D03*
X97100000Y-87300000D03*
X104700000Y-69300000D03*
X104700000Y-82000000D03*
X90932000Y-73533000D03*
X81700000Y-79400000D03*
X120500000Y-102700000D03*
X120500000Y-95900000D03*
X104900000Y-93600000D03*
X122500000Y-99700000D03*
X113300000Y-108100000D03*
X116600000Y-85800000D03*
X105900000Y-79800000D03*
X107300000Y-80720000D03*
X112900000Y-85900000D03*
X108600000Y-85800000D03*
X108600000Y-81580000D03*
X113200000Y-93400000D03*
X107000000Y-93400000D03*
X105600000Y-104700000D03*
X105600000Y-108300000D03*
X102400000Y-102000000D03*
X97800000Y-108300000D03*
X104000000Y-102100000D03*
X101700000Y-108300000D03*
X103900000Y-71700000D03*
X103900000Y-87300000D03*
X105600000Y-70800000D03*
X102800000Y-71700000D03*
X102800000Y-87800000D03*
D29*
X93350000Y-74800000D02*
X89050000Y-74800000D01*
X89050000Y-74800000D02*
X88900000Y-74950000D01*
D30*
X85950000Y-75800000D02*
X88050000Y-75800000D01*
X88050000Y-75800000D02*
X88900000Y-74950000D01*
D29*
X93350000Y-74300000D02*
X91700000Y-74300000D01*
X90200000Y-72450000D02*
X88900000Y-72450000D01*
X90200000Y-73200000D02*
X90200000Y-72450000D01*
X90200000Y-74300000D02*
X90200000Y-73200000D01*
X91700000Y-74300000D02*
X90200000Y-74300000D01*
D30*
X85950000Y-71600000D02*
X88050000Y-71600000D01*
X88050000Y-71600000D02*
X88900000Y-72450000D01*
D29*
X99250000Y-74800000D02*
X101700000Y-74800000D01*
X99250000Y-74300000D02*
X101700000Y-74300000D01*
X99250000Y-74300000D02*
X99250000Y-74800000D01*
D30*
X100600000Y-95700000D02*
X102600000Y-95700000D01*
X102600000Y-94100000D02*
X103400000Y-94900000D01*
X102600000Y-94100000D02*
X100600000Y-94100000D01*
X102600000Y-95700000D02*
X103400000Y-94900000D01*
X109900000Y-94900000D02*
X112110000Y-94900000D01*
X112110000Y-94900000D02*
X112141000Y-94869000D01*
X94125000Y-80565000D02*
X98935360Y-80565000D01*
X98935360Y-80565000D02*
X99900000Y-79600360D01*
D29*
X93350000Y-73300000D02*
X91700000Y-73300000D01*
X91100000Y-72700000D02*
X91100000Y-69800000D01*
X91700000Y-73300000D02*
X91100000Y-72700000D01*
X91100000Y-69800000D02*
X91650000Y-69200000D01*
D30*
X109900000Y-97300000D02*
X112200000Y-97300000D01*
X119105000Y-93395000D02*
X122500000Y-93395000D01*
X118400000Y-94100000D02*
X119105000Y-93395000D01*
X103600000Y-105650000D02*
X106650000Y-105650000D01*
X108900000Y-107900000D02*
X108900000Y-110700000D01*
X106650000Y-105650000D02*
X108900000Y-107900000D01*
X103600000Y-105650000D02*
X99800000Y-105650000D01*
X96000000Y-105650000D02*
X99800000Y-105650000D01*
X95850000Y-97300000D02*
X95850000Y-99050000D01*
X94050000Y-105650000D02*
X96000000Y-105650000D01*
X93800000Y-105400000D02*
X94050000Y-105650000D01*
X95850000Y-99050000D02*
X95800000Y-99100000D01*
X119750000Y-89800000D02*
X122500000Y-89800000D01*
X122500000Y-89800000D02*
X122500000Y-93395000D01*
X118000000Y-83150000D02*
X119750000Y-83150000D01*
X119750000Y-83150000D02*
X119750000Y-89800000D01*
X93700000Y-86500000D02*
X96300000Y-86500000D01*
X97600000Y-96300000D02*
X97600000Y-97300000D01*
X97100000Y-95800000D02*
X97600000Y-96300000D01*
X96300000Y-86500000D02*
X97100000Y-87300000D01*
X98800000Y-96500000D02*
X98800000Y-94800000D01*
X98900000Y-94900000D02*
X100600000Y-94900000D01*
X98800000Y-94800000D02*
X98900000Y-94900000D01*
X95850000Y-97300000D02*
X97600000Y-97300000D01*
X97600000Y-97300000D02*
X98000000Y-97300000D01*
X98000000Y-97300000D02*
X98800000Y-96500000D01*
X98800000Y-96500000D02*
X100600000Y-96500000D01*
X94150000Y-69200000D02*
X104600000Y-69200000D01*
X104800000Y-83000000D02*
X104800000Y-83100000D01*
X104700000Y-83100000D02*
X104800000Y-83000000D01*
X104600000Y-69200000D02*
X104700000Y-69300000D01*
X104700000Y-82000000D02*
X104700000Y-83100000D01*
X114200000Y-83150000D02*
X118000000Y-83150000D01*
X110400000Y-83150000D02*
X114200000Y-83150000D01*
X106600000Y-83100000D02*
X110350000Y-83100000D01*
X110350000Y-83100000D02*
X110400000Y-83150000D01*
X99900000Y-83999640D02*
X103400360Y-83999640D01*
X104300000Y-83100000D02*
X104800000Y-83100000D01*
X104800000Y-83100000D02*
X106600000Y-83100000D01*
X103400360Y-83999640D02*
X104300000Y-83100000D01*
X93700000Y-84600000D02*
X99299640Y-84600000D01*
X99299640Y-84600000D02*
X99900000Y-83999640D01*
X93700000Y-86500000D02*
X93700000Y-84600000D01*
X93700000Y-84600000D02*
X93700000Y-83530000D01*
X93700000Y-83530000D02*
X94125000Y-83105000D01*
D29*
X91500002Y-70500000D02*
X93900000Y-70500000D01*
X91800000Y-72800000D02*
X91500002Y-72500002D01*
X91500002Y-72500002D02*
X91500002Y-70500000D01*
X93350000Y-72800000D02*
X91800000Y-72800000D01*
X94150000Y-70250000D02*
X94150000Y-69200000D01*
X93900000Y-70500000D02*
X94150000Y-70250000D01*
X93350000Y-73800000D02*
X91199000Y-73800000D01*
X91199000Y-73800000D02*
X90932000Y-73533000D01*
D30*
X88270000Y-83100000D02*
X85800000Y-83100000D01*
X85800000Y-81300000D02*
X85800000Y-83100000D01*
X85800000Y-81300000D02*
X84250000Y-79750000D01*
X88270000Y-83100000D02*
X88275000Y-83105000D01*
X83800000Y-79750000D02*
X84250000Y-79750000D01*
X83800000Y-79750000D02*
X82050000Y-79750000D01*
X82050000Y-79750000D02*
X81700000Y-79400000D01*
X120500000Y-102800000D02*
X120500000Y-102700000D01*
X120535000Y-95935000D02*
X122500000Y-95935000D01*
X120500000Y-95900000D02*
X120535000Y-95935000D01*
X119000000Y-108200000D02*
X120500000Y-108200000D01*
X120500000Y-102800000D02*
X120500000Y-108200000D01*
X115300000Y-102700000D02*
X120500000Y-102700000D01*
X115300000Y-102700000D02*
X110700000Y-98100000D01*
X109900000Y-98100000D02*
X110700000Y-98100000D01*
X114900000Y-94665000D02*
X113735000Y-94665000D01*
X121160000Y-110740000D02*
X119000000Y-110740000D01*
X121300000Y-110600000D02*
X121160000Y-110740000D01*
X121300000Y-102200000D02*
X121300000Y-110600000D01*
X121000000Y-101900000D02*
X121300000Y-102200000D01*
X115600000Y-101900000D02*
X121000000Y-101900000D01*
X113200000Y-99500000D02*
X115600000Y-101900000D01*
X113200000Y-95200000D02*
X113200000Y-99500000D01*
X113735000Y-94665000D02*
X113200000Y-95200000D01*
X108050000Y-99950000D02*
X109550000Y-99950000D01*
X117040000Y-112700000D02*
X119000000Y-110740000D01*
X114700000Y-112700000D02*
X117040000Y-112700000D01*
X114500000Y-112500000D02*
X114700000Y-112700000D01*
X114500000Y-104900000D02*
X114500000Y-112500000D01*
X109550000Y-99950000D02*
X114500000Y-104900000D01*
X104850000Y-90650000D02*
X104850000Y-93550000D01*
X104850000Y-93550000D02*
X104900000Y-93600000D01*
X104850000Y-87550000D02*
X106600000Y-85800000D01*
X104850000Y-90650000D02*
X104850000Y-87550000D01*
X122500000Y-99700000D02*
X122500000Y-97205000D01*
X107250000Y-99950000D02*
X107250000Y-101950000D01*
X113300000Y-105700000D02*
X113300000Y-108100000D01*
X109700000Y-102100000D02*
X113300000Y-105700000D01*
X107400000Y-102100000D02*
X109700000Y-102100000D01*
X107250000Y-101950000D02*
X107400000Y-102100000D01*
X78400000Y-91350000D02*
X83350000Y-91350000D01*
X83350000Y-91350000D02*
X83800000Y-91800000D01*
X83800000Y-94340000D02*
X86360000Y-95758000D01*
X104850000Y-103650000D02*
X104850000Y-99950000D01*
X104800000Y-103700000D02*
X104850000Y-103650000D01*
X94700000Y-103700000D02*
X104800000Y-103700000D01*
X89400000Y-98400000D02*
X94700000Y-103700000D01*
X87757000Y-96774000D02*
X89400000Y-98400000D01*
X86360000Y-95758000D02*
X87757000Y-96774000D01*
X84400000Y-85700000D02*
X78450000Y-85700000D01*
X78450000Y-85700000D02*
X78400000Y-85650000D01*
X103250000Y-99950000D02*
X103250000Y-102950000D01*
X85400000Y-89600000D02*
X84400000Y-88600000D01*
X85725000Y-93091000D02*
X85400000Y-89600000D01*
X87503000Y-95123000D02*
X85725000Y-93091000D01*
X88773000Y-96393000D02*
X87503000Y-95123000D01*
X90100000Y-98000000D02*
X88773000Y-96393000D01*
X95100000Y-103000000D02*
X90100000Y-98000000D01*
X103200000Y-103000000D02*
X95100000Y-103000000D01*
X103250000Y-102950000D02*
X103200000Y-103000000D01*
X84400000Y-88600000D02*
X84400000Y-88240000D01*
D29*
X99250000Y-73800000D02*
X102600000Y-73800000D01*
X116650000Y-85850000D02*
X118000000Y-85850000D01*
X116600000Y-85800000D02*
X116650000Y-85850000D01*
X105900000Y-77100000D02*
X105900000Y-79800000D01*
X102600000Y-73800000D02*
X105900000Y-77100000D01*
D30*
X107250000Y-90650000D02*
X107250000Y-88950000D01*
X114950000Y-88900000D02*
X118000000Y-85850000D01*
X107300000Y-88900000D02*
X114950000Y-88900000D01*
X107250000Y-88950000D02*
X107300000Y-88900000D01*
D29*
X102800000Y-73300000D02*
X106500000Y-77000000D01*
X106500000Y-77000000D02*
X106500000Y-79700000D01*
X106500000Y-79700000D02*
X107300000Y-80720000D01*
X99250000Y-73300000D02*
X102800000Y-73300000D01*
X112950000Y-85850000D02*
X114200000Y-85850000D01*
X112900000Y-85900000D02*
X112950000Y-85850000D01*
D30*
X111850000Y-88200000D02*
X114200000Y-85850000D01*
X106800000Y-88200000D02*
X111850000Y-88200000D01*
X106450000Y-90650000D02*
X106450000Y-88550000D01*
X106450000Y-88550000D02*
X106800000Y-88200000D01*
X108750000Y-87500000D02*
X110400000Y-85850000D01*
D29*
X99250000Y-72800000D02*
X102900000Y-72800000D01*
X108600000Y-87500000D02*
X108750000Y-87500000D01*
X108600000Y-85800000D02*
X108600000Y-87500000D01*
X108600000Y-79190000D02*
X108600000Y-81580000D01*
X106900000Y-76800000D02*
X108600000Y-79190000D01*
X102900000Y-72800000D02*
X106900000Y-76800000D01*
X108750000Y-87500000D02*
X108600000Y-87350000D01*
X108600000Y-87350000D02*
X108600000Y-87300000D01*
X108600000Y-87300000D02*
X108600000Y-87650000D01*
D30*
X105650000Y-90650000D02*
X105650000Y-88250000D01*
X105650000Y-88250000D02*
X106400000Y-87500000D01*
D29*
X108750000Y-87500000D02*
X108600000Y-87650000D01*
D30*
X106400000Y-87500000D02*
X108750000Y-87500000D01*
X105650000Y-99950000D02*
X105650000Y-96150000D01*
X113205000Y-93395000D02*
X114900000Y-93395000D01*
X113200000Y-93400000D02*
X113205000Y-93395000D01*
X107000000Y-94800000D02*
X107000000Y-93400000D01*
X105650000Y-96150000D02*
X107000000Y-94800000D01*
X103600000Y-108350000D02*
X105550000Y-108350000D01*
X105650000Y-104650000D02*
X105650000Y-99950000D01*
X105600000Y-104700000D02*
X105650000Y-104650000D01*
X105550000Y-108350000D02*
X105600000Y-108300000D01*
X92300000Y-92000000D02*
X92300000Y-92700000D01*
X92300000Y-92700000D02*
X93100000Y-93500000D01*
X93100000Y-93500000D02*
X97700000Y-93500000D01*
X97700000Y-93500000D02*
X98700000Y-92500000D01*
X98700000Y-92500000D02*
X100600000Y-92500000D01*
X89760000Y-92000000D02*
X89760000Y-92060000D01*
X89760000Y-92060000D02*
X92300000Y-94600000D01*
X92300000Y-94600000D02*
X97700000Y-94600000D01*
X97700000Y-94600000D02*
X99000000Y-93300000D01*
X99000000Y-93300000D02*
X100600000Y-93300000D01*
X97825350Y-99451087D02*
X97825350Y-98574650D01*
X99100000Y-97300000D02*
X100600000Y-97300000D01*
X97825350Y-98574650D02*
X99100000Y-97300000D01*
X98574650Y-100748913D02*
X99530087Y-100748913D01*
X100600000Y-99679000D02*
X100600000Y-98100000D01*
X99530087Y-100748913D02*
X100600000Y-99679000D01*
X96000000Y-108350000D02*
X97750000Y-108350000D01*
X102450000Y-101950000D02*
X102450000Y-99950000D01*
X102400000Y-102000000D02*
X102450000Y-101950000D01*
X97750000Y-108350000D02*
X97800000Y-108300000D01*
X99800000Y-108350000D02*
X101650000Y-108350000D01*
X104050000Y-102050000D02*
X104050000Y-99950000D01*
X104000000Y-102100000D02*
X104050000Y-102050000D01*
X101650000Y-108350000D02*
X101700000Y-108300000D01*
X104050000Y-90650000D02*
X104050000Y-87450000D01*
X115040000Y-71740000D02*
X115040000Y-76200000D01*
X115000000Y-71700000D02*
X115040000Y-71740000D01*
X103900000Y-71700000D02*
X115000000Y-71700000D01*
X104050000Y-87450000D02*
X103900000Y-87300000D01*
X105600000Y-70800000D02*
X102700000Y-70800000D01*
X102700000Y-70800000D02*
X102800000Y-70900000D01*
X102800000Y-70900000D02*
X102800000Y-71700000D01*
X102800000Y-87800000D02*
X103250000Y-88250000D01*
X103250000Y-88250000D02*
X103250000Y-90650000D01*
X94840000Y-92000000D02*
X94840000Y-90260000D01*
X102450000Y-89150000D02*
X102450000Y-90650000D01*
X101900000Y-88600000D02*
X102450000Y-89150000D01*
X96500000Y-88600000D02*
X101900000Y-88600000D01*
X94840000Y-90260000D02*
X96500000Y-88600000D01*
X79600000Y-72400000D02*
X82450000Y-72400000D01*
X82450000Y-72400000D02*
X83250000Y-71600000D01*
X79600000Y-74940000D02*
X82390000Y-74940000D01*
X82390000Y-74940000D02*
X83250000Y-75800000D01*
D31*
G36*
X123835000Y-113035000D02*
X117324226Y-113035000D01*
X117354663Y-113014663D01*
X118712487Y-111656839D01*
X118808806Y-111696834D01*
X119189524Y-111697166D01*
X119541389Y-111551778D01*
X119810832Y-111282805D01*
X119851444Y-111185000D01*
X121159995Y-111185000D01*
X121160000Y-111185001D01*
X121330294Y-111151126D01*
X121474663Y-111054663D01*
X121614660Y-110914665D01*
X121614663Y-110914663D01*
X121711126Y-110770294D01*
X121725109Y-110700000D01*
X121745001Y-110600000D01*
X121745000Y-110599995D01*
X121745000Y-102200005D01*
X121745001Y-102200000D01*
X121711126Y-102029706D01*
X121685342Y-101991117D01*
X121614663Y-101885337D01*
X121614660Y-101885335D01*
X121314663Y-101585337D01*
X121170294Y-101488874D01*
X121000000Y-101454999D01*
X120999995Y-101455000D01*
X115784325Y-101455000D01*
X113645000Y-99315674D01*
X113645000Y-98044586D01*
X113786023Y-98103000D01*
X114567750Y-98103000D01*
X114711000Y-97959750D01*
X114711000Y-97367500D01*
X115089000Y-97367500D01*
X115089000Y-97959750D01*
X115232250Y-98103000D01*
X116013977Y-98103000D01*
X116224579Y-98015766D01*
X116385766Y-97854578D01*
X116473000Y-97643977D01*
X116473000Y-97510750D01*
X116329750Y-97367500D01*
X115089000Y-97367500D01*
X114711000Y-97367500D01*
X114691000Y-97367500D01*
X114691000Y-97042500D01*
X114711000Y-97042500D01*
X114711000Y-96996000D01*
X115089000Y-96996000D01*
X115089000Y-97042500D01*
X116329750Y-97042500D01*
X116473000Y-96899250D01*
X116473000Y-96880000D01*
X121301180Y-96880000D01*
X121301180Y-97530000D01*
X121314777Y-97602263D01*
X121357484Y-97668631D01*
X121422648Y-97713156D01*
X121500000Y-97728820D01*
X122055000Y-97728820D01*
X122055000Y-99374149D01*
X122038241Y-99390879D01*
X121955095Y-99591117D01*
X121954906Y-99807932D01*
X122037702Y-100008314D01*
X122190879Y-100161759D01*
X122391117Y-100244905D01*
X122607932Y-100245094D01*
X122808314Y-100162298D01*
X122961759Y-100009121D01*
X123044905Y-99808883D01*
X123045094Y-99592068D01*
X122962298Y-99391686D01*
X122945000Y-99374358D01*
X122945000Y-97728820D01*
X123500000Y-97728820D01*
X123572263Y-97715223D01*
X123638631Y-97672516D01*
X123683156Y-97607352D01*
X123698820Y-97530000D01*
X123698820Y-96880000D01*
X123685223Y-96807737D01*
X123642516Y-96741369D01*
X123577352Y-96696844D01*
X123500000Y-96681180D01*
X121500000Y-96681180D01*
X121427737Y-96694777D01*
X121361369Y-96737484D01*
X121316844Y-96802648D01*
X121301180Y-96880000D01*
X116473000Y-96880000D01*
X116473000Y-96766023D01*
X116385766Y-96555422D01*
X116224579Y-96394234D01*
X116083473Y-96335786D01*
X116098820Y-96260000D01*
X116098820Y-96007932D01*
X119954906Y-96007932D01*
X120037702Y-96208314D01*
X120190879Y-96361759D01*
X120391117Y-96444905D01*
X120607932Y-96445094D01*
X120765472Y-96380000D01*
X121345495Y-96380000D01*
X121357484Y-96398631D01*
X121422648Y-96443156D01*
X121500000Y-96458820D01*
X123500000Y-96458820D01*
X123572263Y-96445223D01*
X123638631Y-96402516D01*
X123683156Y-96337352D01*
X123698820Y-96260000D01*
X123698820Y-95610000D01*
X123685223Y-95537737D01*
X123642516Y-95471369D01*
X123577352Y-95426844D01*
X123500000Y-95411180D01*
X121500000Y-95411180D01*
X121427737Y-95424777D01*
X121361369Y-95467484D01*
X121345984Y-95490000D01*
X120860790Y-95490000D01*
X120809121Y-95438241D01*
X120608883Y-95355095D01*
X120392068Y-95354906D01*
X120191686Y-95437702D01*
X120038241Y-95590879D01*
X119955095Y-95791117D01*
X119954906Y-96007932D01*
X116098820Y-96007932D01*
X116098820Y-95610000D01*
X116085223Y-95537737D01*
X116042516Y-95471369D01*
X115977352Y-95426844D01*
X115900000Y-95411180D01*
X113900000Y-95411180D01*
X113827737Y-95424777D01*
X113761369Y-95467484D01*
X113716844Y-95532648D01*
X113701180Y-95610000D01*
X113701180Y-96260000D01*
X113714777Y-96332263D01*
X113716935Y-96335617D01*
X113645000Y-96365414D01*
X113645000Y-95384326D01*
X113850524Y-95178801D01*
X113900000Y-95188820D01*
X115900000Y-95188820D01*
X115972263Y-95175223D01*
X116038631Y-95132516D01*
X116083156Y-95067352D01*
X116098820Y-94990000D01*
X116098820Y-94340000D01*
X116085223Y-94267737D01*
X116042516Y-94201369D01*
X115977352Y-94156844D01*
X115900000Y-94141180D01*
X113900000Y-94141180D01*
X113827737Y-94154777D01*
X113761369Y-94197484D01*
X113745984Y-94220000D01*
X113735005Y-94220000D01*
X113735000Y-94219999D01*
X113564706Y-94253874D01*
X113420337Y-94350337D01*
X113420335Y-94350340D01*
X112885337Y-94885337D01*
X112788874Y-95029706D01*
X112754999Y-95200000D01*
X112755000Y-95200005D01*
X112755000Y-99499995D01*
X112754999Y-99500000D01*
X112761374Y-99532048D01*
X111298820Y-98069494D01*
X111298820Y-97825000D01*
X111285223Y-97752737D01*
X111280244Y-97745000D01*
X111874149Y-97745000D01*
X111890879Y-97761759D01*
X112091117Y-97844905D01*
X112307932Y-97845094D01*
X112508314Y-97762298D01*
X112661759Y-97609121D01*
X112744905Y-97408883D01*
X112745094Y-97192068D01*
X112662298Y-96991686D01*
X112509121Y-96838241D01*
X112308883Y-96755095D01*
X112092068Y-96754906D01*
X111891686Y-96837702D01*
X111874358Y-96855000D01*
X111281347Y-96855000D01*
X111283156Y-96852352D01*
X111298820Y-96775000D01*
X111298820Y-96225000D01*
X111285223Y-96152737D01*
X111250954Y-96099481D01*
X111283156Y-96052352D01*
X111298820Y-95975000D01*
X111298820Y-95712857D01*
X111424579Y-95660766D01*
X111585766Y-95499578D01*
X111673000Y-95288977D01*
X111673000Y-95180750D01*
X111529750Y-95037500D01*
X110089000Y-95037500D01*
X110089000Y-95109000D01*
X109711000Y-95109000D01*
X109711000Y-95037500D01*
X108270250Y-95037500D01*
X108127000Y-95180750D01*
X108127000Y-95288977D01*
X108214234Y-95499578D01*
X108375421Y-95660766D01*
X108501180Y-95712857D01*
X108501180Y-95975000D01*
X108514777Y-96047263D01*
X108549046Y-96100519D01*
X108516844Y-96147648D01*
X108501180Y-96225000D01*
X108501180Y-96775000D01*
X108514777Y-96847263D01*
X108549046Y-96900519D01*
X108516844Y-96947648D01*
X108501180Y-97025000D01*
X108501180Y-97575000D01*
X108514777Y-97647263D01*
X108549046Y-97700519D01*
X108516844Y-97747648D01*
X108501180Y-97825000D01*
X108501180Y-98375000D01*
X108514777Y-98447263D01*
X108557484Y-98513631D01*
X108622648Y-98558156D01*
X108700000Y-98573820D01*
X110544494Y-98573820D01*
X114985335Y-103014660D01*
X114985337Y-103014663D01*
X115129706Y-103111126D01*
X115300000Y-103145000D01*
X120055000Y-103145000D01*
X120055000Y-107755000D01*
X119851605Y-107755000D01*
X119811778Y-107658611D01*
X119542805Y-107389168D01*
X119191194Y-107243166D01*
X118810476Y-107242834D01*
X118458611Y-107388222D01*
X118189168Y-107657195D01*
X118043166Y-108008806D01*
X118042834Y-108389524D01*
X118188222Y-108741389D01*
X118457195Y-109010832D01*
X118808806Y-109156834D01*
X119189524Y-109157166D01*
X119541389Y-109011778D01*
X119810832Y-108742805D01*
X119851444Y-108645000D01*
X120500000Y-108645000D01*
X120670294Y-108611126D01*
X120814663Y-108514663D01*
X120855000Y-108454294D01*
X120855000Y-110295000D01*
X119851605Y-110295000D01*
X119811778Y-110198611D01*
X119542805Y-109929168D01*
X119191194Y-109783166D01*
X118810476Y-109782834D01*
X118458611Y-109928222D01*
X118189168Y-110197195D01*
X118043166Y-110548806D01*
X118042834Y-110929524D01*
X118083275Y-111027399D01*
X116855674Y-112255000D01*
X114945000Y-112255000D01*
X114945000Y-110929524D01*
X115502834Y-110929524D01*
X115648222Y-111281389D01*
X115917195Y-111550832D01*
X116268806Y-111696834D01*
X116649524Y-111697166D01*
X117001389Y-111551778D01*
X117270832Y-111282805D01*
X117416834Y-110931194D01*
X117417166Y-110550476D01*
X117271778Y-110198611D01*
X117002805Y-109929168D01*
X116651194Y-109783166D01*
X116270476Y-109782834D01*
X115918611Y-109928222D01*
X115649168Y-110197195D01*
X115503166Y-110548806D01*
X115502834Y-110929524D01*
X114945000Y-110929524D01*
X114945000Y-108389524D01*
X115502834Y-108389524D01*
X115648222Y-108741389D01*
X115917195Y-109010832D01*
X116268806Y-109156834D01*
X116649524Y-109157166D01*
X117001389Y-109011778D01*
X117270832Y-108742805D01*
X117416834Y-108391194D01*
X117417166Y-108010476D01*
X117271778Y-107658611D01*
X117002805Y-107389168D01*
X116651194Y-107243166D01*
X116270476Y-107242834D01*
X115918611Y-107388222D01*
X115649168Y-107657195D01*
X115503166Y-108008806D01*
X115502834Y-108389524D01*
X114945000Y-108389524D01*
X114945000Y-106644399D01*
X115742888Y-106644399D01*
X115820588Y-106861621D01*
X116329101Y-107014846D01*
X116857542Y-106961807D01*
X117099412Y-106861621D01*
X117177112Y-106644399D01*
X116460000Y-105927286D01*
X115742888Y-106644399D01*
X114945000Y-106644399D01*
X114945000Y-105529101D01*
X115105154Y-105529101D01*
X115158193Y-106057542D01*
X115258379Y-106299412D01*
X115475601Y-106377112D01*
X116192714Y-105660000D01*
X116727286Y-105660000D01*
X117444399Y-106377112D01*
X117661621Y-106299412D01*
X117797181Y-105849524D01*
X118042834Y-105849524D01*
X118188222Y-106201389D01*
X118457195Y-106470832D01*
X118808806Y-106616834D01*
X119189524Y-106617166D01*
X119541389Y-106471778D01*
X119810832Y-106202805D01*
X119956834Y-105851194D01*
X119957166Y-105470476D01*
X119811778Y-105118611D01*
X119542805Y-104849168D01*
X119191194Y-104703166D01*
X118810476Y-104702834D01*
X118458611Y-104848222D01*
X118189168Y-105117195D01*
X118043166Y-105468806D01*
X118042834Y-105849524D01*
X117797181Y-105849524D01*
X117814846Y-105790899D01*
X117761807Y-105262458D01*
X117661621Y-105020588D01*
X117444399Y-104942888D01*
X116727286Y-105660000D01*
X116192714Y-105660000D01*
X115475601Y-104942888D01*
X115258379Y-105020588D01*
X115105154Y-105529101D01*
X114945000Y-105529101D01*
X114945000Y-104900005D01*
X114945001Y-104900000D01*
X114911126Y-104729706D01*
X114891277Y-104700000D01*
X114874975Y-104675601D01*
X115742888Y-104675601D01*
X116460000Y-105392714D01*
X117177112Y-104675601D01*
X117099412Y-104458379D01*
X116590899Y-104305154D01*
X116062458Y-104358193D01*
X115820588Y-104458379D01*
X115742888Y-104675601D01*
X114874975Y-104675601D01*
X114814663Y-104585337D01*
X114814660Y-104585335D01*
X109864663Y-99635337D01*
X109720294Y-99538874D01*
X109550000Y-99504999D01*
X109549995Y-99505000D01*
X108523820Y-99505000D01*
X108523820Y-98750000D01*
X108510223Y-98677737D01*
X108467516Y-98611369D01*
X108402352Y-98566844D01*
X108325000Y-98551180D01*
X107775000Y-98551180D01*
X107702737Y-98564777D01*
X107649481Y-98599046D01*
X107602352Y-98566844D01*
X107525000Y-98551180D01*
X106975000Y-98551180D01*
X106902737Y-98564777D01*
X106849481Y-98599046D01*
X106802352Y-98566844D01*
X106725000Y-98551180D01*
X106175000Y-98551180D01*
X106102737Y-98564777D01*
X106095000Y-98569756D01*
X106095000Y-96334326D01*
X107314660Y-95114665D01*
X107314663Y-95114663D01*
X107411126Y-94970294D01*
X107445000Y-94800000D01*
X107445000Y-94511023D01*
X108127000Y-94511023D01*
X108127000Y-94619250D01*
X108270250Y-94762500D01*
X109711000Y-94762500D01*
X109711000Y-94691000D01*
X110089000Y-94691000D01*
X110089000Y-94762500D01*
X111529750Y-94762500D01*
X111673000Y-94619250D01*
X111673000Y-94511023D01*
X111585766Y-94300422D01*
X111424579Y-94139234D01*
X111298820Y-94087143D01*
X111298820Y-93825000D01*
X111285223Y-93752737D01*
X111250954Y-93699481D01*
X111283156Y-93652352D01*
X111298820Y-93575000D01*
X111298820Y-93507932D01*
X112654906Y-93507932D01*
X112737702Y-93708314D01*
X112890879Y-93861759D01*
X113091117Y-93944905D01*
X113307932Y-93945094D01*
X113508314Y-93862298D01*
X113530651Y-93840000D01*
X113745495Y-93840000D01*
X113757484Y-93858631D01*
X113822648Y-93903156D01*
X113900000Y-93918820D01*
X115900000Y-93918820D01*
X115972263Y-93905223D01*
X116038631Y-93862516D01*
X116083156Y-93797352D01*
X116098820Y-93720000D01*
X116098820Y-93070000D01*
X116085223Y-92997737D01*
X116042516Y-92931369D01*
X115977352Y-92886844D01*
X115900000Y-92871180D01*
X113900000Y-92871180D01*
X113827737Y-92884777D01*
X113761369Y-92927484D01*
X113745984Y-92950000D01*
X113520859Y-92950000D01*
X113509121Y-92938241D01*
X113308883Y-92855095D01*
X113092068Y-92854906D01*
X112891686Y-92937702D01*
X112738241Y-93090879D01*
X112655095Y-93291117D01*
X112654906Y-93507932D01*
X111298820Y-93507932D01*
X111298820Y-93025000D01*
X111285223Y-92952737D01*
X111250954Y-92899481D01*
X111283156Y-92852352D01*
X111298820Y-92775000D01*
X111298820Y-92225000D01*
X111285223Y-92152737D01*
X111242516Y-92086369D01*
X111177352Y-92041844D01*
X111100000Y-92026180D01*
X108700000Y-92026180D01*
X108627737Y-92039777D01*
X108561369Y-92082484D01*
X108516844Y-92147648D01*
X108501180Y-92225000D01*
X108501180Y-92775000D01*
X108514777Y-92847263D01*
X108549046Y-92900519D01*
X108516844Y-92947648D01*
X108501180Y-93025000D01*
X108501180Y-93575000D01*
X108514777Y-93647263D01*
X108549046Y-93700519D01*
X108516844Y-93747648D01*
X108501180Y-93825000D01*
X108501180Y-94087143D01*
X108375421Y-94139234D01*
X108214234Y-94300422D01*
X108127000Y-94511023D01*
X107445000Y-94511023D01*
X107445000Y-93725851D01*
X107461759Y-93709121D01*
X107544905Y-93508883D01*
X107545094Y-93292068D01*
X107462298Y-93091686D01*
X107309121Y-92938241D01*
X107108883Y-92855095D01*
X106892068Y-92854906D01*
X106691686Y-92937702D01*
X106538241Y-93090879D01*
X106455095Y-93291117D01*
X106454906Y-93507932D01*
X106537702Y-93708314D01*
X106555000Y-93725642D01*
X106555000Y-94615675D01*
X105335337Y-95835337D01*
X105238874Y-95979706D01*
X105204999Y-96150000D01*
X105205000Y-96150005D01*
X105205000Y-98568653D01*
X105202352Y-98566844D01*
X105125000Y-98551180D01*
X104575000Y-98551180D01*
X104502737Y-98564777D01*
X104449481Y-98599046D01*
X104402352Y-98566844D01*
X104325000Y-98551180D01*
X103775000Y-98551180D01*
X103702737Y-98564777D01*
X103649481Y-98599046D01*
X103602352Y-98566844D01*
X103525000Y-98551180D01*
X102975000Y-98551180D01*
X102902737Y-98564777D01*
X102849481Y-98599046D01*
X102802352Y-98566844D01*
X102725000Y-98551180D01*
X102175000Y-98551180D01*
X102102737Y-98564777D01*
X102036369Y-98607484D01*
X101991844Y-98672648D01*
X101976180Y-98750000D01*
X101976180Y-101150000D01*
X101989777Y-101222263D01*
X102005000Y-101245920D01*
X102005000Y-101624237D01*
X101938241Y-101690879D01*
X101855095Y-101891117D01*
X101854906Y-102107932D01*
X101937702Y-102308314D01*
X102090879Y-102461759D01*
X102291117Y-102544905D01*
X102507932Y-102545094D01*
X102708314Y-102462298D01*
X102805000Y-102365781D01*
X102805000Y-102555000D01*
X95284325Y-102555000D01*
X90429640Y-97700314D01*
X90373436Y-97632250D01*
X92027000Y-97632250D01*
X92027000Y-98038977D01*
X92114234Y-98249578D01*
X92275421Y-98410766D01*
X92486023Y-98498000D01*
X93017750Y-98498000D01*
X93161000Y-98354750D01*
X93161000Y-97489000D01*
X93539000Y-97489000D01*
X93539000Y-98354750D01*
X93682250Y-98498000D01*
X94213977Y-98498000D01*
X94424579Y-98410766D01*
X94585766Y-98249578D01*
X94673000Y-98038977D01*
X94673000Y-97632250D01*
X94529750Y-97489000D01*
X93539000Y-97489000D01*
X93161000Y-97489000D01*
X92170250Y-97489000D01*
X92027000Y-97632250D01*
X90373436Y-97632250D01*
X89488857Y-96561023D01*
X92027000Y-96561023D01*
X92027000Y-96967750D01*
X92170250Y-97111000D01*
X93161000Y-97111000D01*
X93161000Y-96245250D01*
X93539000Y-96245250D01*
X93539000Y-97111000D01*
X94529750Y-97111000D01*
X94673000Y-96967750D01*
X94673000Y-96561023D01*
X94585766Y-96350422D01*
X94424579Y-96189234D01*
X94213977Y-96102000D01*
X93682250Y-96102000D01*
X93539000Y-96245250D01*
X93161000Y-96245250D01*
X93017750Y-96102000D01*
X92486023Y-96102000D01*
X92275421Y-96189234D01*
X92114234Y-96350422D01*
X92027000Y-96561023D01*
X89488857Y-96561023D01*
X89116133Y-96109654D01*
X89099550Y-96096129D01*
X89087662Y-96078337D01*
X87828139Y-94818813D01*
X86154734Y-92906350D01*
X86088000Y-92189524D01*
X88802834Y-92189524D01*
X88948222Y-92541389D01*
X89217195Y-92810832D01*
X89568806Y-92956834D01*
X89949524Y-92957166D01*
X90004942Y-92934268D01*
X91985335Y-94914660D01*
X91985337Y-94914663D01*
X92129706Y-95011126D01*
X92300000Y-95045000D01*
X97699995Y-95045000D01*
X97700000Y-95045001D01*
X97870294Y-95011126D01*
X98014663Y-94914663D01*
X98827000Y-94102326D01*
X98827000Y-94289002D01*
X98918748Y-94289002D01*
X98843999Y-94363751D01*
X98800000Y-94354999D01*
X98629706Y-94388874D01*
X98485337Y-94485337D01*
X98388874Y-94629706D01*
X98354999Y-94800000D01*
X98355000Y-94800005D01*
X98355000Y-96315675D01*
X98045000Y-96625674D01*
X98045000Y-96300005D01*
X98045001Y-96300000D01*
X98011126Y-96129706D01*
X97997372Y-96109121D01*
X97914663Y-95985337D01*
X97914660Y-95985335D01*
X97645073Y-95715748D01*
X97645094Y-95692068D01*
X97562298Y-95491686D01*
X97409121Y-95338241D01*
X97208883Y-95255095D01*
X96992068Y-95254906D01*
X96791686Y-95337702D01*
X96638241Y-95490879D01*
X96555095Y-95691117D01*
X96554906Y-95907932D01*
X96637702Y-96108314D01*
X96790879Y-96261759D01*
X96991117Y-96344905D01*
X97015601Y-96344926D01*
X97155000Y-96484325D01*
X97155000Y-96855000D01*
X96798820Y-96855000D01*
X96798820Y-96675000D01*
X96785223Y-96602737D01*
X96742516Y-96536369D01*
X96677352Y-96491844D01*
X96600000Y-96476180D01*
X95100000Y-96476180D01*
X95027737Y-96489777D01*
X94961369Y-96532484D01*
X94916844Y-96597648D01*
X94901180Y-96675000D01*
X94901180Y-97925000D01*
X94914777Y-97997263D01*
X94957484Y-98063631D01*
X95022648Y-98108156D01*
X95100000Y-98123820D01*
X95405000Y-98123820D01*
X95405000Y-98724237D01*
X95338241Y-98790879D01*
X95255095Y-98991117D01*
X95254906Y-99207932D01*
X95337702Y-99408314D01*
X95490879Y-99561759D01*
X95691117Y-99644905D01*
X95907932Y-99645094D01*
X96108314Y-99562298D01*
X96261759Y-99409121D01*
X96344905Y-99208883D01*
X96345094Y-98992068D01*
X96295000Y-98870831D01*
X96295000Y-98123820D01*
X96600000Y-98123820D01*
X96672263Y-98110223D01*
X96738631Y-98067516D01*
X96783156Y-98002352D01*
X96798820Y-97925000D01*
X96798820Y-97745000D01*
X97999995Y-97745000D01*
X98000000Y-97745001D01*
X98032049Y-97738626D01*
X97510687Y-98259987D01*
X97414224Y-98404356D01*
X97380349Y-98574650D01*
X97380350Y-98574655D01*
X97380350Y-98912753D01*
X97236180Y-99056672D01*
X97130091Y-99312161D01*
X97129850Y-99588800D01*
X97235492Y-99844473D01*
X97430935Y-100040257D01*
X97686424Y-100146346D01*
X97963063Y-100146587D01*
X98218736Y-100040945D01*
X98414520Y-99845502D01*
X98520609Y-99590013D01*
X98520850Y-99313374D01*
X98415208Y-99057701D01*
X98270350Y-98912590D01*
X98270350Y-98758976D01*
X99201180Y-97828145D01*
X99201180Y-98375000D01*
X99214777Y-98447263D01*
X99257484Y-98513631D01*
X99322648Y-98558156D01*
X99400000Y-98573820D01*
X100155000Y-98573820D01*
X100155000Y-99494675D01*
X99345761Y-100303913D01*
X99112984Y-100303913D01*
X98969065Y-100159743D01*
X98713576Y-100053654D01*
X98436937Y-100053413D01*
X98181264Y-100159055D01*
X97985480Y-100354498D01*
X97879391Y-100609987D01*
X97879150Y-100886626D01*
X97984792Y-101142299D01*
X98180235Y-101338083D01*
X98435724Y-101444172D01*
X98712363Y-101444413D01*
X98968036Y-101338771D01*
X99113147Y-101193913D01*
X99530082Y-101193913D01*
X99530087Y-101193914D01*
X99700381Y-101160039D01*
X99844750Y-101063576D01*
X100914660Y-99993665D01*
X100914663Y-99993663D01*
X101011126Y-99849294D01*
X101045000Y-99679000D01*
X101045000Y-98573820D01*
X101800000Y-98573820D01*
X101872263Y-98560223D01*
X101938631Y-98517516D01*
X101983156Y-98452352D01*
X101998820Y-98375000D01*
X101998820Y-97825000D01*
X101985223Y-97752737D01*
X101950954Y-97699481D01*
X101983156Y-97652352D01*
X101998820Y-97575000D01*
X101998820Y-97025000D01*
X101985223Y-96952737D01*
X101950954Y-96899481D01*
X101983156Y-96852352D01*
X101998820Y-96775000D01*
X101998820Y-96512857D01*
X102124579Y-96460766D01*
X102285766Y-96299578D01*
X102373000Y-96088977D01*
X102373000Y-95980750D01*
X102229750Y-95837500D01*
X100789000Y-95837500D01*
X100789000Y-95909000D01*
X100411000Y-95909000D01*
X100411000Y-95837500D01*
X100391000Y-95837500D01*
X100391000Y-95562500D01*
X100411000Y-95562500D01*
X100411000Y-95491000D01*
X100789000Y-95491000D01*
X100789000Y-95562500D01*
X102229750Y-95562500D01*
X102373000Y-95419250D01*
X102373000Y-95311023D01*
X102285766Y-95100422D01*
X102124579Y-94939234D01*
X102029860Y-94900000D01*
X102124579Y-94860766D01*
X102285766Y-94699578D01*
X102373000Y-94488977D01*
X102373000Y-94380750D01*
X102229750Y-94237500D01*
X100789000Y-94237500D01*
X100789000Y-94309000D01*
X100411000Y-94309000D01*
X100411000Y-94237500D01*
X100391000Y-94237500D01*
X100391000Y-93962500D01*
X100411000Y-93962500D01*
X100411000Y-93891000D01*
X100789000Y-93891000D01*
X100789000Y-93962500D01*
X102229750Y-93962500D01*
X102373000Y-93819250D01*
X102373000Y-93711023D01*
X102285766Y-93500422D01*
X102124579Y-93339234D01*
X101998820Y-93287143D01*
X101998820Y-93025000D01*
X101985223Y-92952737D01*
X101950954Y-92899481D01*
X101983156Y-92852352D01*
X101998820Y-92775000D01*
X101998820Y-92225000D01*
X101985223Y-92152737D01*
X101942516Y-92086369D01*
X101877352Y-92041844D01*
X101800000Y-92026180D01*
X99400000Y-92026180D01*
X99327737Y-92039777D01*
X99304080Y-92055000D01*
X98700005Y-92055000D01*
X98700000Y-92054999D01*
X98542299Y-92086369D01*
X98529706Y-92088874D01*
X98385337Y-92185337D01*
X98385335Y-92185340D01*
X97515674Y-93055000D01*
X93284325Y-93055000D01*
X92941333Y-92712008D01*
X93110832Y-92542805D01*
X93256834Y-92191194D01*
X93256835Y-92189524D01*
X93882834Y-92189524D01*
X94028222Y-92541389D01*
X94297195Y-92810832D01*
X94648806Y-92956834D01*
X95029524Y-92957166D01*
X95381389Y-92811778D01*
X95650832Y-92542805D01*
X95796834Y-92191194D01*
X95797166Y-91810476D01*
X95651778Y-91458611D01*
X95382805Y-91189168D01*
X95285000Y-91148556D01*
X95285000Y-90444326D01*
X96684325Y-89045000D01*
X101715674Y-89045000D01*
X102005000Y-89334325D01*
X102005000Y-89353394D01*
X101991844Y-89372648D01*
X101976180Y-89450000D01*
X101976180Y-91850000D01*
X101989777Y-91922263D01*
X102032484Y-91988631D01*
X102097648Y-92033156D01*
X102175000Y-92048820D01*
X102725000Y-92048820D01*
X102797263Y-92035223D01*
X102850519Y-92000954D01*
X102897648Y-92033156D01*
X102975000Y-92048820D01*
X103525000Y-92048820D01*
X103597263Y-92035223D01*
X103650519Y-92000954D01*
X103697648Y-92033156D01*
X103775000Y-92048820D01*
X104325000Y-92048820D01*
X104397263Y-92035223D01*
X104405000Y-92030244D01*
X104405000Y-93370932D01*
X104355095Y-93491117D01*
X104354906Y-93707932D01*
X104437702Y-93908314D01*
X104590879Y-94061759D01*
X104791117Y-94144905D01*
X105007932Y-94145094D01*
X105208314Y-94062298D01*
X105361759Y-93909121D01*
X105444905Y-93708883D01*
X105445094Y-93492068D01*
X105362298Y-93291686D01*
X105295000Y-93224270D01*
X105295000Y-92031347D01*
X105297648Y-92033156D01*
X105375000Y-92048820D01*
X105925000Y-92048820D01*
X105997263Y-92035223D01*
X106050519Y-92000954D01*
X106097648Y-92033156D01*
X106175000Y-92048820D01*
X106725000Y-92048820D01*
X106797263Y-92035223D01*
X106850519Y-92000954D01*
X106897648Y-92033156D01*
X106975000Y-92048820D01*
X107525000Y-92048820D01*
X107597263Y-92035223D01*
X107650519Y-92000954D01*
X107697648Y-92033156D01*
X107775000Y-92048820D01*
X108325000Y-92048820D01*
X108397263Y-92035223D01*
X108463631Y-91992516D01*
X108508156Y-91927352D01*
X108523820Y-91850000D01*
X108523820Y-90132250D01*
X115927000Y-90132250D01*
X115927000Y-90538977D01*
X116014234Y-90749578D01*
X116175421Y-90910766D01*
X116386023Y-90998000D01*
X116917750Y-90998000D01*
X117061000Y-90854750D01*
X117061000Y-89989000D01*
X117439000Y-89989000D01*
X117439000Y-90854750D01*
X117582250Y-90998000D01*
X118113977Y-90998000D01*
X118324579Y-90910766D01*
X118485766Y-90749578D01*
X118573000Y-90538977D01*
X118573000Y-90132250D01*
X118429750Y-89989000D01*
X117439000Y-89989000D01*
X117061000Y-89989000D01*
X116070250Y-89989000D01*
X115927000Y-90132250D01*
X108523820Y-90132250D01*
X108523820Y-89450000D01*
X108510223Y-89377737D01*
X108489157Y-89345000D01*
X114949995Y-89345000D01*
X114950000Y-89345001D01*
X115120294Y-89311126D01*
X115264663Y-89214663D01*
X115418302Y-89061023D01*
X115927000Y-89061023D01*
X115927000Y-89467750D01*
X116070250Y-89611000D01*
X117061000Y-89611000D01*
X117061000Y-88745250D01*
X117439000Y-88745250D01*
X117439000Y-89611000D01*
X118429750Y-89611000D01*
X118573000Y-89467750D01*
X118573000Y-89061023D01*
X118485766Y-88850422D01*
X118324579Y-88689234D01*
X118113977Y-88602000D01*
X117582250Y-88602000D01*
X117439000Y-88745250D01*
X117061000Y-88745250D01*
X116917750Y-88602000D01*
X116386023Y-88602000D01*
X116175421Y-88689234D01*
X116014234Y-88850422D01*
X115927000Y-89061023D01*
X115418302Y-89061023D01*
X117680505Y-86798820D01*
X118650000Y-86798820D01*
X118722263Y-86785223D01*
X118788631Y-86742516D01*
X118833156Y-86677352D01*
X118848820Y-86600000D01*
X118848820Y-85100000D01*
X118835223Y-85027737D01*
X118792516Y-84961369D01*
X118727352Y-84916844D01*
X118650000Y-84901180D01*
X117350000Y-84901180D01*
X117277737Y-84914777D01*
X117211369Y-84957484D01*
X117166844Y-85022648D01*
X117151180Y-85100000D01*
X117151180Y-85555000D01*
X117088459Y-85555000D01*
X117062298Y-85491686D01*
X116909121Y-85338241D01*
X116708883Y-85255095D01*
X116492068Y-85254906D01*
X116291686Y-85337702D01*
X116138241Y-85490879D01*
X116055095Y-85691117D01*
X116054906Y-85907932D01*
X116137702Y-86108314D01*
X116290879Y-86261759D01*
X116491117Y-86344905D01*
X116707932Y-86345094D01*
X116908314Y-86262298D01*
X117025817Y-86145000D01*
X117075675Y-86145000D01*
X114765674Y-88455000D01*
X112224326Y-88455000D01*
X113880505Y-86798820D01*
X114850000Y-86798820D01*
X114922263Y-86785223D01*
X114988631Y-86742516D01*
X115033156Y-86677352D01*
X115048820Y-86600000D01*
X115048820Y-85100000D01*
X115035223Y-85027737D01*
X114992516Y-84961369D01*
X114927352Y-84916844D01*
X114850000Y-84901180D01*
X113550000Y-84901180D01*
X113477737Y-84914777D01*
X113411369Y-84957484D01*
X113366844Y-85022648D01*
X113351180Y-85100000D01*
X113351180Y-85555000D01*
X113325676Y-85555000D01*
X113209121Y-85438241D01*
X113008883Y-85355095D01*
X112792068Y-85354906D01*
X112591686Y-85437702D01*
X112438241Y-85590879D01*
X112355095Y-85791117D01*
X112354906Y-86007932D01*
X112437702Y-86208314D01*
X112590879Y-86361759D01*
X112791117Y-86444905D01*
X112975609Y-86445066D01*
X111665674Y-87755000D01*
X109124326Y-87755000D01*
X110080505Y-86798820D01*
X111050000Y-86798820D01*
X111122263Y-86785223D01*
X111188631Y-86742516D01*
X111233156Y-86677352D01*
X111248820Y-86600000D01*
X111248820Y-85100000D01*
X111235223Y-85027737D01*
X111192516Y-84961369D01*
X111127352Y-84916844D01*
X111050000Y-84901180D01*
X109750000Y-84901180D01*
X109677737Y-84914777D01*
X109611369Y-84957484D01*
X109566844Y-85022648D01*
X109551180Y-85100000D01*
X109551180Y-86069495D01*
X108895000Y-86725674D01*
X108895000Y-86267799D01*
X108908314Y-86262298D01*
X109061759Y-86109121D01*
X109144905Y-85908883D01*
X109145094Y-85692068D01*
X109062298Y-85491686D01*
X108909121Y-85338241D01*
X108708883Y-85255095D01*
X108492068Y-85254906D01*
X108291686Y-85337702D01*
X108138241Y-85490879D01*
X108055095Y-85691117D01*
X108054906Y-85907932D01*
X108137702Y-86108314D01*
X108290879Y-86261759D01*
X108305000Y-86267623D01*
X108305000Y-87055000D01*
X106400005Y-87055000D01*
X106400000Y-87054999D01*
X106229706Y-87088874D01*
X106085337Y-87185337D01*
X106085335Y-87185340D01*
X105335337Y-87935337D01*
X105295000Y-87995706D01*
X105295000Y-87734326D01*
X106280505Y-86748820D01*
X107250000Y-86748820D01*
X107322263Y-86735223D01*
X107388631Y-86692516D01*
X107433156Y-86627352D01*
X107448820Y-86550000D01*
X107448820Y-85050000D01*
X107435223Y-84977737D01*
X107392516Y-84911369D01*
X107327352Y-84866844D01*
X107250000Y-84851180D01*
X105950000Y-84851180D01*
X105877737Y-84864777D01*
X105811369Y-84907484D01*
X105766844Y-84972648D01*
X105751180Y-85050000D01*
X105751180Y-86019495D01*
X104535337Y-87235337D01*
X104471350Y-87331102D01*
X104461126Y-87279706D01*
X104454562Y-87269882D01*
X104445039Y-87255629D01*
X104445094Y-87192068D01*
X104362298Y-86991686D01*
X104209121Y-86838241D01*
X104008883Y-86755095D01*
X103792068Y-86754906D01*
X103591686Y-86837702D01*
X103438241Y-86990879D01*
X103355095Y-87191117D01*
X103354906Y-87407932D01*
X103437702Y-87608314D01*
X103590879Y-87761759D01*
X103605000Y-87767623D01*
X103605000Y-87995706D01*
X103564663Y-87935337D01*
X103564660Y-87935335D01*
X103345073Y-87715748D01*
X103345094Y-87692068D01*
X103262298Y-87491686D01*
X103109121Y-87338241D01*
X102908883Y-87255095D01*
X102692068Y-87254906D01*
X102491686Y-87337702D01*
X102338241Y-87490879D01*
X102255095Y-87691117D01*
X102254906Y-87907932D01*
X102337702Y-88108314D01*
X102490879Y-88261759D01*
X102691117Y-88344905D01*
X102715601Y-88344926D01*
X102805000Y-88434325D01*
X102805000Y-88895706D01*
X102764663Y-88835337D01*
X102764660Y-88835335D01*
X102214663Y-88285337D01*
X102070294Y-88188874D01*
X101900000Y-88154999D01*
X101899995Y-88155000D01*
X96500005Y-88155000D01*
X96500000Y-88154999D01*
X96329706Y-88188874D01*
X96185337Y-88285337D01*
X96185335Y-88285340D01*
X94525337Y-89945337D01*
X94428874Y-90089706D01*
X94394999Y-90260000D01*
X94395000Y-90260005D01*
X94395000Y-91148395D01*
X94298611Y-91188222D01*
X94029168Y-91457195D01*
X93883166Y-91808806D01*
X93882834Y-92189524D01*
X93256835Y-92189524D01*
X93257166Y-91810476D01*
X93111778Y-91458611D01*
X92842805Y-91189168D01*
X92491194Y-91043166D01*
X92110476Y-91042834D01*
X91758611Y-91188222D01*
X91489168Y-91457195D01*
X91343166Y-91808806D01*
X91342834Y-92189524D01*
X91488222Y-92541389D01*
X91757195Y-92810832D01*
X91887837Y-92865079D01*
X91888874Y-92870294D01*
X91985337Y-93014663D01*
X92785335Y-93814660D01*
X92785337Y-93814663D01*
X92926705Y-93909121D01*
X92929706Y-93911126D01*
X93100000Y-93945001D01*
X93100005Y-93945000D01*
X97699995Y-93945000D01*
X97700000Y-93945001D01*
X97732048Y-93938626D01*
X97515674Y-94155000D01*
X92484325Y-94155000D01*
X90659234Y-92329909D01*
X90716834Y-92191194D01*
X90717166Y-91810476D01*
X90571778Y-91458611D01*
X90302805Y-91189168D01*
X89951194Y-91043166D01*
X89570476Y-91042834D01*
X89218611Y-91188222D01*
X88949168Y-91457195D01*
X88803166Y-91808806D01*
X88802834Y-92189524D01*
X86088000Y-92189524D01*
X85843084Y-89558750D01*
X85824109Y-89494975D01*
X85811126Y-89429706D01*
X85799524Y-89412343D01*
X85793570Y-89392330D01*
X85751634Y-89340669D01*
X85714663Y-89285338D01*
X85344418Y-88915092D01*
X85370118Y-88889437D01*
X85544801Y-88468754D01*
X85545198Y-88013245D01*
X85371250Y-87592257D01*
X85049437Y-87269882D01*
X84628754Y-87095199D01*
X84173245Y-87094802D01*
X83752257Y-87268750D01*
X83429882Y-87590563D01*
X83255199Y-88011246D01*
X83254802Y-88466755D01*
X83428750Y-88887743D01*
X83750563Y-89210118D01*
X84171246Y-89384801D01*
X84555811Y-89385136D01*
X84971800Y-89801125D01*
X85281916Y-93132250D01*
X85296733Y-93182050D01*
X85303457Y-93233569D01*
X85321258Y-93264481D01*
X85331430Y-93298671D01*
X85364175Y-93339009D01*
X85390103Y-93384035D01*
X87168103Y-95416035D01*
X87179999Y-95425184D01*
X87188337Y-95437663D01*
X88443355Y-96692680D01*
X89050970Y-97428503D01*
X88070022Y-96457705D01*
X88041736Y-96439017D01*
X88018737Y-96414113D01*
X86621736Y-95398112D01*
X86596685Y-95386549D01*
X86575621Y-95368728D01*
X84944891Y-94465457D01*
X84945198Y-94113245D01*
X84771250Y-93692257D01*
X84449437Y-93369882D01*
X84028754Y-93195199D01*
X83573245Y-93194802D01*
X83152257Y-93368750D01*
X82829882Y-93690563D01*
X82655199Y-94111246D01*
X82654802Y-94566755D01*
X82828750Y-94987743D01*
X83150563Y-95310118D01*
X83571246Y-95484801D01*
X84026755Y-95485198D01*
X84447743Y-95311250D01*
X84514589Y-95244521D01*
X86120414Y-96133997D01*
X87467966Y-97114035D01*
X89086012Y-98715338D01*
X94385335Y-104014660D01*
X94385337Y-104014663D01*
X94529706Y-104111126D01*
X94700000Y-104145001D01*
X94700005Y-104145000D01*
X104799995Y-104145000D01*
X104800000Y-104145001D01*
X104970294Y-104111126D01*
X105114663Y-104014663D01*
X105164660Y-103964665D01*
X105164663Y-103964663D01*
X105205000Y-103904294D01*
X105205000Y-104324237D01*
X105138241Y-104390879D01*
X105055095Y-104591117D01*
X105054906Y-104807932D01*
X105137702Y-105008314D01*
X105290879Y-105161759D01*
X105395015Y-105205000D01*
X104448820Y-105205000D01*
X104448820Y-104900000D01*
X104435223Y-104827737D01*
X104392516Y-104761369D01*
X104327352Y-104716844D01*
X104250000Y-104701180D01*
X102950000Y-104701180D01*
X102877737Y-104714777D01*
X102811369Y-104757484D01*
X102766844Y-104822648D01*
X102751180Y-104900000D01*
X102751180Y-105205000D01*
X100648820Y-105205000D01*
X100648820Y-104900000D01*
X100635223Y-104827737D01*
X100592516Y-104761369D01*
X100527352Y-104716844D01*
X100450000Y-104701180D01*
X99150000Y-104701180D01*
X99077737Y-104714777D01*
X99011369Y-104757484D01*
X98966844Y-104822648D01*
X98951180Y-104900000D01*
X98951180Y-105205000D01*
X96848820Y-105205000D01*
X96848820Y-104900000D01*
X96835223Y-104827737D01*
X96792516Y-104761369D01*
X96727352Y-104716844D01*
X96650000Y-104701180D01*
X95350000Y-104701180D01*
X95277737Y-104714777D01*
X95211369Y-104757484D01*
X95166844Y-104822648D01*
X95151180Y-104900000D01*
X95151180Y-105205000D01*
X94309118Y-105205000D01*
X94262298Y-105091686D01*
X94109121Y-104938241D01*
X93908883Y-104855095D01*
X93692068Y-104854906D01*
X93491686Y-104937702D01*
X93338241Y-105090879D01*
X93255095Y-105291117D01*
X93254906Y-105507932D01*
X93337702Y-105708314D01*
X93490879Y-105861759D01*
X93691117Y-105944905D01*
X93715601Y-105944926D01*
X93735335Y-105964660D01*
X93735337Y-105964663D01*
X93874342Y-106057542D01*
X93879706Y-106061126D01*
X94050000Y-106095000D01*
X95151180Y-106095000D01*
X95151180Y-106400000D01*
X95164777Y-106472263D01*
X95207484Y-106538631D01*
X95272648Y-106583156D01*
X95350000Y-106598820D01*
X96650000Y-106598820D01*
X96722263Y-106585223D01*
X96788631Y-106542516D01*
X96833156Y-106477352D01*
X96848820Y-106400000D01*
X96848820Y-106095000D01*
X98951180Y-106095000D01*
X98951180Y-106400000D01*
X98964777Y-106472263D01*
X99007484Y-106538631D01*
X99072648Y-106583156D01*
X99150000Y-106598820D01*
X100450000Y-106598820D01*
X100522263Y-106585223D01*
X100588631Y-106542516D01*
X100633156Y-106477352D01*
X100648820Y-106400000D01*
X100648820Y-106095000D01*
X102751180Y-106095000D01*
X102751180Y-106400000D01*
X102764777Y-106472263D01*
X102807484Y-106538631D01*
X102872648Y-106583156D01*
X102950000Y-106598820D01*
X104250000Y-106598820D01*
X104322263Y-106585223D01*
X104388631Y-106542516D01*
X104433156Y-106477352D01*
X104448820Y-106400000D01*
X104448820Y-106095000D01*
X106465674Y-106095000D01*
X108455000Y-108084325D01*
X108455000Y-110374149D01*
X108438241Y-110390879D01*
X108355095Y-110591117D01*
X108354906Y-110807932D01*
X108437702Y-111008314D01*
X108590879Y-111161759D01*
X108791117Y-111244905D01*
X109007932Y-111245094D01*
X109208314Y-111162298D01*
X109361759Y-111009121D01*
X109444905Y-110808883D01*
X109445094Y-110592068D01*
X109362298Y-110391686D01*
X109345000Y-110374358D01*
X109345000Y-107900005D01*
X109345001Y-107900000D01*
X109311126Y-107729706D01*
X109262676Y-107657195D01*
X109214663Y-107585337D01*
X109214660Y-107585335D01*
X106964663Y-105335337D01*
X106820294Y-105238874D01*
X106650000Y-105204999D01*
X106649995Y-105205000D01*
X105804967Y-105205000D01*
X105908314Y-105162298D01*
X106061759Y-105009121D01*
X106144905Y-104808883D01*
X106145094Y-104592068D01*
X106095000Y-104470831D01*
X106095000Y-101331347D01*
X106097648Y-101333156D01*
X106175000Y-101348820D01*
X106725000Y-101348820D01*
X106797263Y-101335223D01*
X106805000Y-101330244D01*
X106805000Y-101949995D01*
X106804999Y-101950000D01*
X106838874Y-102120294D01*
X106935337Y-102264663D01*
X107085335Y-102414660D01*
X107085337Y-102414663D01*
X107220536Y-102504999D01*
X107229706Y-102511126D01*
X107400000Y-102545001D01*
X107400005Y-102545000D01*
X109515674Y-102545000D01*
X112855000Y-105884325D01*
X112855000Y-107774149D01*
X112838241Y-107790879D01*
X112755095Y-107991117D01*
X112754906Y-108207932D01*
X112837702Y-108408314D01*
X112990879Y-108561759D01*
X113191117Y-108644905D01*
X113407932Y-108645094D01*
X113608314Y-108562298D01*
X113761759Y-108409121D01*
X113844905Y-108208883D01*
X113845094Y-107992068D01*
X113762298Y-107791686D01*
X113745000Y-107774358D01*
X113745000Y-105700005D01*
X113745001Y-105700000D01*
X113711126Y-105529706D01*
X113696577Y-105507932D01*
X113614663Y-105385337D01*
X113614660Y-105385335D01*
X110014663Y-101785337D01*
X109870294Y-101688874D01*
X109700000Y-101654999D01*
X109699995Y-101655000D01*
X107695000Y-101655000D01*
X107695000Y-101331347D01*
X107697648Y-101333156D01*
X107775000Y-101348820D01*
X108325000Y-101348820D01*
X108397263Y-101335223D01*
X108463631Y-101292516D01*
X108508156Y-101227352D01*
X108523820Y-101150000D01*
X108523820Y-100395000D01*
X109365674Y-100395000D01*
X114055000Y-105084325D01*
X114055000Y-112499995D01*
X114054999Y-112500000D01*
X114088874Y-112670294D01*
X114185337Y-112814663D01*
X114385335Y-113014660D01*
X114385337Y-113014663D01*
X114415774Y-113035000D01*
X75765000Y-113035000D01*
X75765000Y-107884399D01*
X86782888Y-107884399D01*
X86860588Y-108101621D01*
X87369101Y-108254846D01*
X87897542Y-108201807D01*
X88139412Y-108101621D01*
X88217112Y-107884399D01*
X87500000Y-107167286D01*
X86782888Y-107884399D01*
X75765000Y-107884399D01*
X75765000Y-106769101D01*
X86145154Y-106769101D01*
X86198193Y-107297542D01*
X86298379Y-107539412D01*
X86515601Y-107617112D01*
X87232714Y-106900000D01*
X87767286Y-106900000D01*
X88484399Y-107617112D01*
X88701621Y-107539412D01*
X88837181Y-107089524D01*
X89082834Y-107089524D01*
X89228222Y-107441389D01*
X89497195Y-107710832D01*
X89848806Y-107856834D01*
X90229524Y-107857166D01*
X90581389Y-107711778D01*
X90693362Y-107600000D01*
X95151180Y-107600000D01*
X95151180Y-109100000D01*
X95164777Y-109172263D01*
X95207484Y-109238631D01*
X95272648Y-109283156D01*
X95350000Y-109298820D01*
X96650000Y-109298820D01*
X96722263Y-109285223D01*
X96788631Y-109242516D01*
X96833156Y-109177352D01*
X96848820Y-109100000D01*
X96848820Y-108795000D01*
X97570932Y-108795000D01*
X97691117Y-108844905D01*
X97907932Y-108845094D01*
X98108314Y-108762298D01*
X98261759Y-108609121D01*
X98344905Y-108408883D01*
X98345094Y-108192068D01*
X98262298Y-107991686D01*
X98109121Y-107838241D01*
X97908883Y-107755095D01*
X97692068Y-107754906D01*
X97491686Y-107837702D01*
X97424270Y-107905000D01*
X96848820Y-107905000D01*
X96848820Y-107600000D01*
X98951180Y-107600000D01*
X98951180Y-109100000D01*
X98964777Y-109172263D01*
X99007484Y-109238631D01*
X99072648Y-109283156D01*
X99150000Y-109298820D01*
X100450000Y-109298820D01*
X100522263Y-109285223D01*
X100588631Y-109242516D01*
X100633156Y-109177352D01*
X100648820Y-109100000D01*
X100648820Y-108795000D01*
X101470932Y-108795000D01*
X101591117Y-108844905D01*
X101807932Y-108845094D01*
X102008314Y-108762298D01*
X102161759Y-108609121D01*
X102244905Y-108408883D01*
X102245094Y-108192068D01*
X102162298Y-107991686D01*
X102009121Y-107838241D01*
X101808883Y-107755095D01*
X101592068Y-107754906D01*
X101391686Y-107837702D01*
X101324270Y-107905000D01*
X100648820Y-107905000D01*
X100648820Y-107600000D01*
X102751180Y-107600000D01*
X102751180Y-109100000D01*
X102764777Y-109172263D01*
X102807484Y-109238631D01*
X102872648Y-109283156D01*
X102950000Y-109298820D01*
X104250000Y-109298820D01*
X104322263Y-109285223D01*
X104388631Y-109242516D01*
X104433156Y-109177352D01*
X104448820Y-109100000D01*
X104448820Y-108795000D01*
X105370932Y-108795000D01*
X105491117Y-108844905D01*
X105707932Y-108845094D01*
X105908314Y-108762298D01*
X106061759Y-108609121D01*
X106144905Y-108408883D01*
X106145094Y-108192068D01*
X106062298Y-107991686D01*
X105909121Y-107838241D01*
X105708883Y-107755095D01*
X105492068Y-107754906D01*
X105291686Y-107837702D01*
X105224270Y-107905000D01*
X104448820Y-107905000D01*
X104448820Y-107600000D01*
X104435223Y-107527737D01*
X104392516Y-107461369D01*
X104327352Y-107416844D01*
X104250000Y-107401180D01*
X102950000Y-107401180D01*
X102877737Y-107414777D01*
X102811369Y-107457484D01*
X102766844Y-107522648D01*
X102751180Y-107600000D01*
X100648820Y-107600000D01*
X100635223Y-107527737D01*
X100592516Y-107461369D01*
X100527352Y-107416844D01*
X100450000Y-107401180D01*
X99150000Y-107401180D01*
X99077737Y-107414777D01*
X99011369Y-107457484D01*
X98966844Y-107522648D01*
X98951180Y-107600000D01*
X96848820Y-107600000D01*
X96835223Y-107527737D01*
X96792516Y-107461369D01*
X96727352Y-107416844D01*
X96650000Y-107401180D01*
X95350000Y-107401180D01*
X95277737Y-107414777D01*
X95211369Y-107457484D01*
X95166844Y-107522648D01*
X95151180Y-107600000D01*
X90693362Y-107600000D01*
X90850832Y-107442805D01*
X90996834Y-107091194D01*
X90997166Y-106710476D01*
X90851778Y-106358611D01*
X90582805Y-106089168D01*
X90231194Y-105943166D01*
X89850476Y-105942834D01*
X89498611Y-106088222D01*
X89229168Y-106357195D01*
X89083166Y-106708806D01*
X89082834Y-107089524D01*
X88837181Y-107089524D01*
X88854846Y-107030899D01*
X88801807Y-106502458D01*
X88701621Y-106260588D01*
X88484399Y-106182888D01*
X87767286Y-106900000D01*
X87232714Y-106900000D01*
X86515601Y-106182888D01*
X86298379Y-106260588D01*
X86145154Y-106769101D01*
X75765000Y-106769101D01*
X75765000Y-105915601D01*
X86782888Y-105915601D01*
X87500000Y-106632714D01*
X88217112Y-105915601D01*
X88139412Y-105698379D01*
X87630899Y-105545154D01*
X87102458Y-105598193D01*
X86860588Y-105698379D01*
X86782888Y-105915601D01*
X75765000Y-105915601D01*
X75765000Y-100484399D01*
X81282888Y-100484399D01*
X81360588Y-100701621D01*
X81869101Y-100854846D01*
X82397542Y-100801807D01*
X82639412Y-100701621D01*
X82717112Y-100484399D01*
X82000000Y-99767286D01*
X81282888Y-100484399D01*
X75765000Y-100484399D01*
X75765000Y-99369101D01*
X80645154Y-99369101D01*
X80698193Y-99897542D01*
X80798379Y-100139412D01*
X81015601Y-100217112D01*
X81732714Y-99500000D01*
X82267286Y-99500000D01*
X82984399Y-100217112D01*
X83201621Y-100139412D01*
X83337181Y-99689524D01*
X83582834Y-99689524D01*
X83728222Y-100041389D01*
X83997195Y-100310832D01*
X84348806Y-100456834D01*
X84729524Y-100457166D01*
X85081389Y-100311778D01*
X85350832Y-100042805D01*
X85496834Y-99691194D01*
X85497166Y-99310476D01*
X85351778Y-98958611D01*
X85082805Y-98689168D01*
X84731194Y-98543166D01*
X84350476Y-98542834D01*
X83998611Y-98688222D01*
X83729168Y-98957195D01*
X83583166Y-99308806D01*
X83582834Y-99689524D01*
X83337181Y-99689524D01*
X83354846Y-99630899D01*
X83301807Y-99102458D01*
X83201621Y-98860588D01*
X82984399Y-98782888D01*
X82267286Y-99500000D01*
X81732714Y-99500000D01*
X81015601Y-98782888D01*
X80798379Y-98860588D01*
X80645154Y-99369101D01*
X75765000Y-99369101D01*
X75765000Y-98515601D01*
X81282888Y-98515601D01*
X82000000Y-99232714D01*
X82717112Y-98515601D01*
X82639412Y-98298379D01*
X82130899Y-98145154D01*
X81602458Y-98198193D01*
X81360588Y-98298379D01*
X81282888Y-98515601D01*
X75765000Y-98515601D01*
X75765000Y-90600000D01*
X77551180Y-90600000D01*
X77551180Y-92100000D01*
X77564777Y-92172263D01*
X77607484Y-92238631D01*
X77672648Y-92283156D01*
X77750000Y-92298820D01*
X79050000Y-92298820D01*
X79122263Y-92285223D01*
X79188631Y-92242516D01*
X79233156Y-92177352D01*
X79248820Y-92100000D01*
X79248820Y-91795000D01*
X82601180Y-91795000D01*
X82601180Y-92750000D01*
X82614777Y-92822263D01*
X82657484Y-92888631D01*
X82722648Y-92933156D01*
X82800000Y-92948820D01*
X84800000Y-92948820D01*
X84872263Y-92935223D01*
X84938631Y-92892516D01*
X84983156Y-92827352D01*
X84998820Y-92750000D01*
X84998820Y-90850000D01*
X84985223Y-90777737D01*
X84942516Y-90711369D01*
X84877352Y-90666844D01*
X84800000Y-90651180D01*
X82800000Y-90651180D01*
X82727737Y-90664777D01*
X82661369Y-90707484D01*
X82616844Y-90772648D01*
X82601180Y-90850000D01*
X82601180Y-90905000D01*
X79248820Y-90905000D01*
X79248820Y-90600000D01*
X79235223Y-90527737D01*
X79192516Y-90461369D01*
X79127352Y-90416844D01*
X79050000Y-90401180D01*
X77750000Y-90401180D01*
X77677737Y-90414777D01*
X77611369Y-90457484D01*
X77566844Y-90522648D01*
X77551180Y-90600000D01*
X75765000Y-90600000D01*
X75765000Y-88982250D01*
X77177000Y-88982250D01*
X77177000Y-89513977D01*
X77264234Y-89724579D01*
X77425422Y-89885766D01*
X77636023Y-89973000D01*
X78067750Y-89973000D01*
X78211000Y-89829750D01*
X78211000Y-88839000D01*
X78589000Y-88839000D01*
X78589000Y-89829750D01*
X78732250Y-89973000D01*
X79163977Y-89973000D01*
X79374578Y-89885766D01*
X79535766Y-89724579D01*
X79623000Y-89513977D01*
X79623000Y-88982250D01*
X79479750Y-88839000D01*
X78589000Y-88839000D01*
X78211000Y-88839000D01*
X77320250Y-88839000D01*
X77177000Y-88982250D01*
X75765000Y-88982250D01*
X75765000Y-87786023D01*
X77177000Y-87786023D01*
X77177000Y-88317750D01*
X77320250Y-88461000D01*
X78211000Y-88461000D01*
X78211000Y-87470250D01*
X78589000Y-87470250D01*
X78589000Y-88461000D01*
X79479750Y-88461000D01*
X79623000Y-88317750D01*
X79623000Y-87786023D01*
X79535766Y-87575421D01*
X79374578Y-87414234D01*
X79163977Y-87327000D01*
X78732250Y-87327000D01*
X78589000Y-87470250D01*
X78211000Y-87470250D01*
X78067750Y-87327000D01*
X77636023Y-87327000D01*
X77425422Y-87414234D01*
X77264234Y-87575421D01*
X77177000Y-87786023D01*
X75765000Y-87786023D01*
X75765000Y-84900000D01*
X77551180Y-84900000D01*
X77551180Y-86400000D01*
X77564777Y-86472263D01*
X77607484Y-86538631D01*
X77672648Y-86583156D01*
X77750000Y-86598820D01*
X79050000Y-86598820D01*
X79122263Y-86585223D01*
X79188631Y-86542516D01*
X79233156Y-86477352D01*
X79248820Y-86400000D01*
X79248820Y-86145000D01*
X83201180Y-86145000D01*
X83201180Y-86650000D01*
X83214777Y-86722263D01*
X83257484Y-86788631D01*
X83322648Y-86833156D01*
X83400000Y-86848820D01*
X85400000Y-86848820D01*
X85472263Y-86835223D01*
X85476883Y-86832250D01*
X88127000Y-86832250D01*
X88127000Y-87413977D01*
X88214234Y-87624578D01*
X88375421Y-87785766D01*
X88586023Y-87873000D01*
X89367750Y-87873000D01*
X89511000Y-87729750D01*
X89511000Y-86689000D01*
X89889000Y-86689000D01*
X89889000Y-87729750D01*
X90032250Y-87873000D01*
X90813977Y-87873000D01*
X91024579Y-87785766D01*
X91185766Y-87624578D01*
X91273000Y-87413977D01*
X91273000Y-86832250D01*
X91129750Y-86689000D01*
X89889000Y-86689000D01*
X89511000Y-86689000D01*
X88270250Y-86689000D01*
X88127000Y-86832250D01*
X85476883Y-86832250D01*
X85538631Y-86792516D01*
X85583156Y-86727352D01*
X85598820Y-86650000D01*
X85598820Y-85586023D01*
X88127000Y-85586023D01*
X88127000Y-86167750D01*
X88270250Y-86311000D01*
X89511000Y-86311000D01*
X89511000Y-85270250D01*
X89889000Y-85270250D01*
X89889000Y-86311000D01*
X91129750Y-86311000D01*
X91273000Y-86167750D01*
X91273000Y-85700000D01*
X92501180Y-85700000D01*
X92501180Y-87300000D01*
X92514777Y-87372263D01*
X92557484Y-87438631D01*
X92622648Y-87483156D01*
X92700000Y-87498820D01*
X94700000Y-87498820D01*
X94772263Y-87485223D01*
X94838631Y-87442516D01*
X94883156Y-87377352D01*
X94898820Y-87300000D01*
X94898820Y-86945000D01*
X96115674Y-86945000D01*
X96554927Y-87384252D01*
X96554906Y-87407932D01*
X96637702Y-87608314D01*
X96790879Y-87761759D01*
X96991117Y-87844905D01*
X97207932Y-87845094D01*
X97408314Y-87762298D01*
X97561759Y-87609121D01*
X97644905Y-87408883D01*
X97645094Y-87192068D01*
X97562298Y-86991686D01*
X97409121Y-86838241D01*
X97208883Y-86755095D01*
X97184399Y-86755074D01*
X96614663Y-86185337D01*
X96470294Y-86088874D01*
X96300000Y-86054999D01*
X96299995Y-86055000D01*
X94898820Y-86055000D01*
X94898820Y-85700000D01*
X94885223Y-85627737D01*
X94842516Y-85561369D01*
X94777352Y-85516844D01*
X94700000Y-85501180D01*
X94145000Y-85501180D01*
X94145000Y-85045000D01*
X98901080Y-85045000D01*
X98901080Y-85499510D01*
X98914677Y-85571773D01*
X98957384Y-85638141D01*
X99022548Y-85682666D01*
X99099900Y-85698330D01*
X100700100Y-85698330D01*
X100772363Y-85684733D01*
X100838731Y-85642026D01*
X100883256Y-85576862D01*
X100898920Y-85499510D01*
X100898920Y-84444640D01*
X103400355Y-84444640D01*
X103400360Y-84444641D01*
X103570654Y-84410766D01*
X103715023Y-84314303D01*
X104484325Y-83545000D01*
X104699995Y-83545000D01*
X104700000Y-83545001D01*
X104700005Y-83545000D01*
X105751180Y-83545000D01*
X105751180Y-83850000D01*
X105764777Y-83922263D01*
X105807484Y-83988631D01*
X105872648Y-84033156D01*
X105950000Y-84048820D01*
X107250000Y-84048820D01*
X107322263Y-84035223D01*
X107388631Y-83992516D01*
X107433156Y-83927352D01*
X107448820Y-83850000D01*
X107448820Y-83545000D01*
X109551180Y-83545000D01*
X109551180Y-83900000D01*
X109564777Y-83972263D01*
X109607484Y-84038631D01*
X109672648Y-84083156D01*
X109750000Y-84098820D01*
X111050000Y-84098820D01*
X111122263Y-84085223D01*
X111188631Y-84042516D01*
X111233156Y-83977352D01*
X111248820Y-83900000D01*
X111248820Y-83595000D01*
X113351180Y-83595000D01*
X113351180Y-83900000D01*
X113364777Y-83972263D01*
X113407484Y-84038631D01*
X113472648Y-84083156D01*
X113550000Y-84098820D01*
X114850000Y-84098820D01*
X114922263Y-84085223D01*
X114988631Y-84042516D01*
X115033156Y-83977352D01*
X115048820Y-83900000D01*
X115048820Y-83595000D01*
X117151180Y-83595000D01*
X117151180Y-83900000D01*
X117164777Y-83972263D01*
X117207484Y-84038631D01*
X117272648Y-84083156D01*
X117350000Y-84098820D01*
X118650000Y-84098820D01*
X118722263Y-84085223D01*
X118788631Y-84042516D01*
X118833156Y-83977352D01*
X118848820Y-83900000D01*
X118848820Y-83595000D01*
X119305000Y-83595000D01*
X119305000Y-88976180D01*
X119000000Y-88976180D01*
X118927737Y-88989777D01*
X118861369Y-89032484D01*
X118816844Y-89097648D01*
X118801180Y-89175000D01*
X118801180Y-90425000D01*
X118814777Y-90497263D01*
X118857484Y-90563631D01*
X118922648Y-90608156D01*
X119000000Y-90623820D01*
X120500000Y-90623820D01*
X120572263Y-90610223D01*
X120638631Y-90567516D01*
X120683156Y-90502352D01*
X120698820Y-90425000D01*
X120698820Y-90245000D01*
X122055000Y-90245000D01*
X122055000Y-92871180D01*
X121500000Y-92871180D01*
X121427737Y-92884777D01*
X121361369Y-92927484D01*
X121345984Y-92950000D01*
X119105005Y-92950000D01*
X119105000Y-92949999D01*
X118934706Y-92983874D01*
X118790337Y-93080337D01*
X118790335Y-93080340D01*
X118315748Y-93554927D01*
X118292068Y-93554906D01*
X118091686Y-93637702D01*
X117938241Y-93790879D01*
X117855095Y-93991117D01*
X117854906Y-94207932D01*
X117937702Y-94408314D01*
X118090879Y-94561759D01*
X118291117Y-94644905D01*
X118507932Y-94645094D01*
X118708314Y-94562298D01*
X118861759Y-94409121D01*
X118890460Y-94340000D01*
X121301180Y-94340000D01*
X121301180Y-94990000D01*
X121314777Y-95062263D01*
X121357484Y-95128631D01*
X121422648Y-95173156D01*
X121500000Y-95188820D01*
X123500000Y-95188820D01*
X123572263Y-95175223D01*
X123638631Y-95132516D01*
X123683156Y-95067352D01*
X123698820Y-94990000D01*
X123698820Y-94340000D01*
X123685223Y-94267737D01*
X123642516Y-94201369D01*
X123577352Y-94156844D01*
X123500000Y-94141180D01*
X121500000Y-94141180D01*
X121427737Y-94154777D01*
X121361369Y-94197484D01*
X121316844Y-94262648D01*
X121301180Y-94340000D01*
X118890460Y-94340000D01*
X118944905Y-94208883D01*
X118944926Y-94184399D01*
X119289325Y-93840000D01*
X121345495Y-93840000D01*
X121357484Y-93858631D01*
X121422648Y-93903156D01*
X121500000Y-93918820D01*
X123500000Y-93918820D01*
X123572263Y-93905223D01*
X123638631Y-93862516D01*
X123683156Y-93797352D01*
X123698820Y-93720000D01*
X123698820Y-93070000D01*
X123685223Y-92997737D01*
X123642516Y-92931369D01*
X123577352Y-92886844D01*
X123500000Y-92871180D01*
X122945000Y-92871180D01*
X122945000Y-89800000D01*
X122911126Y-89629706D01*
X122814663Y-89485337D01*
X122670294Y-89388874D01*
X122500000Y-89355000D01*
X120698820Y-89355000D01*
X120698820Y-89175000D01*
X120685223Y-89102737D01*
X120642516Y-89036369D01*
X120577352Y-88991844D01*
X120500000Y-88976180D01*
X120195000Y-88976180D01*
X120195000Y-83150000D01*
X120161126Y-82979706D01*
X120064663Y-82835337D01*
X119920294Y-82738874D01*
X119750000Y-82705000D01*
X118848820Y-82705000D01*
X118848820Y-82400000D01*
X118835223Y-82327737D01*
X118792516Y-82261369D01*
X118727352Y-82216844D01*
X118650000Y-82201180D01*
X117350000Y-82201180D01*
X117277737Y-82214777D01*
X117211369Y-82257484D01*
X117166844Y-82322648D01*
X117151180Y-82400000D01*
X117151180Y-82705000D01*
X115048820Y-82705000D01*
X115048820Y-82400000D01*
X115035223Y-82327737D01*
X114992516Y-82261369D01*
X114927352Y-82216844D01*
X114850000Y-82201180D01*
X113550000Y-82201180D01*
X113477737Y-82214777D01*
X113411369Y-82257484D01*
X113366844Y-82322648D01*
X113351180Y-82400000D01*
X113351180Y-82705000D01*
X111248820Y-82705000D01*
X111248820Y-82400000D01*
X111235223Y-82327737D01*
X111192516Y-82261369D01*
X111127352Y-82216844D01*
X111050000Y-82201180D01*
X109750000Y-82201180D01*
X109677737Y-82214777D01*
X109611369Y-82257484D01*
X109566844Y-82322648D01*
X109551180Y-82400000D01*
X109551180Y-82655000D01*
X107448820Y-82655000D01*
X107448820Y-82350000D01*
X107435223Y-82277737D01*
X107392516Y-82211369D01*
X107327352Y-82166844D01*
X107250000Y-82151180D01*
X105950000Y-82151180D01*
X105877737Y-82164777D01*
X105811369Y-82207484D01*
X105766844Y-82272648D01*
X105751180Y-82350000D01*
X105751180Y-82655000D01*
X105145000Y-82655000D01*
X105145000Y-82325851D01*
X105161759Y-82309121D01*
X105244905Y-82108883D01*
X105245094Y-81892068D01*
X105162298Y-81691686D01*
X105009121Y-81538241D01*
X104808883Y-81455095D01*
X104592068Y-81454906D01*
X104391686Y-81537702D01*
X104238241Y-81690879D01*
X104155095Y-81891117D01*
X104154906Y-82107932D01*
X104237702Y-82308314D01*
X104255000Y-82325642D01*
X104255000Y-82663950D01*
X104147487Y-82685337D01*
X104129706Y-82688874D01*
X103985337Y-82785337D01*
X103985335Y-82785340D01*
X103216034Y-83554640D01*
X100898920Y-83554640D01*
X100898920Y-82499770D01*
X100885323Y-82427507D01*
X100842616Y-82361139D01*
X100777452Y-82316614D01*
X100700100Y-82300950D01*
X99099900Y-82300950D01*
X99027637Y-82314547D01*
X98961269Y-82357254D01*
X98916744Y-82422418D01*
X98901080Y-82499770D01*
X98901080Y-84155000D01*
X94145000Y-84155000D01*
X94145000Y-83714326D01*
X94255505Y-83603820D01*
X95125000Y-83603820D01*
X95197263Y-83590223D01*
X95263631Y-83547516D01*
X95308156Y-83482352D01*
X95323820Y-83405000D01*
X95323820Y-82805000D01*
X95310223Y-82732737D01*
X95282661Y-82689905D01*
X95449579Y-82620766D01*
X95610766Y-82459578D01*
X95698000Y-82248977D01*
X95698000Y-82128250D01*
X95554750Y-81985000D01*
X94314000Y-81985000D01*
X94314000Y-82044000D01*
X93936000Y-82044000D01*
X93936000Y-81985000D01*
X92695250Y-81985000D01*
X92552000Y-82128250D01*
X92552000Y-82248977D01*
X92639234Y-82459578D01*
X92800421Y-82620766D01*
X92967568Y-82690000D01*
X92941844Y-82727648D01*
X92926180Y-82805000D01*
X92926180Y-83405000D01*
X92939777Y-83477263D01*
X92982484Y-83543631D01*
X93047648Y-83588156D01*
X93125000Y-83603820D01*
X93255000Y-83603820D01*
X93255000Y-85501180D01*
X92700000Y-85501180D01*
X92627737Y-85514777D01*
X92561369Y-85557484D01*
X92516844Y-85622648D01*
X92501180Y-85700000D01*
X91273000Y-85700000D01*
X91273000Y-85586023D01*
X91185766Y-85375422D01*
X91024579Y-85214234D01*
X90813977Y-85127000D01*
X90032250Y-85127000D01*
X89889000Y-85270250D01*
X89511000Y-85270250D01*
X89367750Y-85127000D01*
X88586023Y-85127000D01*
X88375421Y-85214234D01*
X88214234Y-85375422D01*
X88127000Y-85586023D01*
X85598820Y-85586023D01*
X85598820Y-84750000D01*
X85585223Y-84677737D01*
X85542516Y-84611369D01*
X85477352Y-84566844D01*
X85400000Y-84551180D01*
X83400000Y-84551180D01*
X83327737Y-84564777D01*
X83261369Y-84607484D01*
X83216844Y-84672648D01*
X83201180Y-84750000D01*
X83201180Y-85255000D01*
X79248820Y-85255000D01*
X79248820Y-84900000D01*
X79235223Y-84827737D01*
X79192516Y-84761369D01*
X79127352Y-84716844D01*
X79050000Y-84701180D01*
X77750000Y-84701180D01*
X77677737Y-84714777D01*
X77611369Y-84757484D01*
X77566844Y-84822648D01*
X77551180Y-84900000D01*
X75765000Y-84900000D01*
X75765000Y-83282250D01*
X77177000Y-83282250D01*
X77177000Y-83813977D01*
X77264234Y-84024579D01*
X77425422Y-84185766D01*
X77636023Y-84273000D01*
X78067750Y-84273000D01*
X78211000Y-84129750D01*
X78211000Y-83139000D01*
X78589000Y-83139000D01*
X78589000Y-84129750D01*
X78732250Y-84273000D01*
X79163977Y-84273000D01*
X79374578Y-84185766D01*
X79535766Y-84024579D01*
X79623000Y-83813977D01*
X79623000Y-83282250D01*
X79479750Y-83139000D01*
X78589000Y-83139000D01*
X78211000Y-83139000D01*
X77320250Y-83139000D01*
X77177000Y-83282250D01*
X75765000Y-83282250D01*
X75765000Y-82086023D01*
X77177000Y-82086023D01*
X77177000Y-82617750D01*
X77320250Y-82761000D01*
X78211000Y-82761000D01*
X78211000Y-81770250D01*
X78589000Y-81770250D01*
X78589000Y-82761000D01*
X79479750Y-82761000D01*
X79623000Y-82617750D01*
X79623000Y-82582250D01*
X82602000Y-82582250D01*
X82602000Y-83113977D01*
X82689234Y-83324579D01*
X82850422Y-83485766D01*
X83061023Y-83573000D01*
X83467750Y-83573000D01*
X83611000Y-83429750D01*
X83611000Y-82439000D01*
X83989000Y-82439000D01*
X83989000Y-83429750D01*
X84132250Y-83573000D01*
X84538977Y-83573000D01*
X84749578Y-83485766D01*
X84910766Y-83324579D01*
X84998000Y-83113977D01*
X84998000Y-82582250D01*
X84854750Y-82439000D01*
X83989000Y-82439000D01*
X83611000Y-82439000D01*
X82745250Y-82439000D01*
X82602000Y-82582250D01*
X79623000Y-82582250D01*
X79623000Y-82086023D01*
X79535766Y-81875421D01*
X79374578Y-81714234D01*
X79163977Y-81627000D01*
X78732250Y-81627000D01*
X78589000Y-81770250D01*
X78211000Y-81770250D01*
X78067750Y-81627000D01*
X77636023Y-81627000D01*
X77425422Y-81714234D01*
X77264234Y-81875421D01*
X77177000Y-82086023D01*
X75765000Y-82086023D01*
X75765000Y-81386023D01*
X82602000Y-81386023D01*
X82602000Y-81917750D01*
X82745250Y-82061000D01*
X83611000Y-82061000D01*
X83611000Y-81070250D01*
X83989000Y-81070250D01*
X83989000Y-82061000D01*
X84854750Y-82061000D01*
X84998000Y-81917750D01*
X84998000Y-81386023D01*
X84910766Y-81175421D01*
X84749578Y-81014234D01*
X84538977Y-80927000D01*
X84132250Y-80927000D01*
X83989000Y-81070250D01*
X83611000Y-81070250D01*
X83467750Y-80927000D01*
X83061023Y-80927000D01*
X82850422Y-81014234D01*
X82689234Y-81175421D01*
X82602000Y-81386023D01*
X75765000Y-81386023D01*
X75765000Y-79507932D01*
X81154906Y-79507932D01*
X81237702Y-79708314D01*
X81390879Y-79861759D01*
X81591117Y-79944905D01*
X81615601Y-79944926D01*
X81735335Y-80064660D01*
X81735337Y-80064663D01*
X81864586Y-80151023D01*
X81879706Y-80161126D01*
X82050000Y-80195001D01*
X82050005Y-80195000D01*
X82976180Y-80195000D01*
X82976180Y-80500000D01*
X82989777Y-80572263D01*
X83032484Y-80638631D01*
X83097648Y-80683156D01*
X83175000Y-80698820D01*
X84425000Y-80698820D01*
X84497263Y-80685223D01*
X84532940Y-80662266D01*
X85355000Y-81484326D01*
X85355000Y-83100000D01*
X85388874Y-83270294D01*
X85485337Y-83414663D01*
X85629706Y-83511126D01*
X85800000Y-83545000D01*
X87134488Y-83545000D01*
X87197648Y-83588156D01*
X87275000Y-83603820D01*
X89275000Y-83603820D01*
X89347263Y-83590223D01*
X89413631Y-83547516D01*
X89458156Y-83482352D01*
X89473820Y-83405000D01*
X89473820Y-82805000D01*
X89460223Y-82732737D01*
X89432661Y-82689905D01*
X89599579Y-82620766D01*
X89760766Y-82459578D01*
X89848000Y-82248977D01*
X89848000Y-82128250D01*
X89704750Y-81985000D01*
X88464000Y-81985000D01*
X88464000Y-82044000D01*
X88086000Y-82044000D01*
X88086000Y-81985000D01*
X86845250Y-81985000D01*
X86702000Y-82128250D01*
X86702000Y-82248977D01*
X86789234Y-82459578D01*
X86950421Y-82620766D01*
X87033069Y-82655000D01*
X86245000Y-82655000D01*
X86245000Y-81300005D01*
X86245001Y-81300000D01*
X86211126Y-81129706D01*
X86114663Y-80985337D01*
X85987576Y-80858250D01*
X86702000Y-80858250D01*
X86702000Y-80978977D01*
X86789234Y-81189578D01*
X86799656Y-81200000D01*
X86789234Y-81210422D01*
X86702000Y-81421023D01*
X86702000Y-81541750D01*
X86845250Y-81685000D01*
X88086000Y-81685000D01*
X88086000Y-80715000D01*
X88464000Y-80715000D01*
X88464000Y-81685000D01*
X89704750Y-81685000D01*
X89848000Y-81541750D01*
X89848000Y-81421023D01*
X89760766Y-81210422D01*
X89750344Y-81200000D01*
X89760766Y-81189578D01*
X89848000Y-80978977D01*
X89848000Y-80858250D01*
X92552000Y-80858250D01*
X92552000Y-80978977D01*
X92639234Y-81189578D01*
X92649656Y-81200000D01*
X92639234Y-81210422D01*
X92552000Y-81421023D01*
X92552000Y-81541750D01*
X92695250Y-81685000D01*
X93936000Y-81685000D01*
X93936000Y-80715000D01*
X94314000Y-80715000D01*
X94314000Y-81685000D01*
X95554750Y-81685000D01*
X95698000Y-81541750D01*
X95698000Y-81421023D01*
X95610766Y-81210422D01*
X95600344Y-81200000D01*
X95610766Y-81189578D01*
X95698000Y-80978977D01*
X95698000Y-80858250D01*
X95554750Y-80715000D01*
X94314000Y-80715000D01*
X93936000Y-80715000D01*
X92695250Y-80715000D01*
X92552000Y-80858250D01*
X89848000Y-80858250D01*
X89704750Y-80715000D01*
X88464000Y-80715000D01*
X88086000Y-80715000D01*
X86845250Y-80715000D01*
X86702000Y-80858250D01*
X85987576Y-80858250D01*
X84717576Y-79588250D01*
X86702000Y-79588250D01*
X86702000Y-79708977D01*
X86789234Y-79919578D01*
X86799656Y-79930000D01*
X86789234Y-79940422D01*
X86702000Y-80151023D01*
X86702000Y-80271750D01*
X86845250Y-80415000D01*
X88086000Y-80415000D01*
X88086000Y-79445000D01*
X88464000Y-79445000D01*
X88464000Y-80415000D01*
X89704750Y-80415000D01*
X89848000Y-80271750D01*
X89848000Y-80151023D01*
X92552000Y-80151023D01*
X92552000Y-80271750D01*
X92695250Y-80415000D01*
X93936000Y-80415000D01*
X93936000Y-80356000D01*
X94314000Y-80356000D01*
X94314000Y-80415000D01*
X95554750Y-80415000D01*
X95698000Y-80271750D01*
X95698000Y-80151023D01*
X95610766Y-79940422D01*
X95602955Y-79932610D01*
X98526900Y-79932610D01*
X98526900Y-81214207D01*
X98614134Y-81424809D01*
X98775322Y-81585996D01*
X98985923Y-81673230D01*
X99567750Y-81673230D01*
X99711000Y-81529980D01*
X99711000Y-79789360D01*
X100089000Y-79789360D01*
X100089000Y-81529980D01*
X100232250Y-81673230D01*
X100814077Y-81673230D01*
X101024678Y-81585996D01*
X101185866Y-81424809D01*
X101273100Y-81214207D01*
X101273100Y-79932610D01*
X101129850Y-79789360D01*
X100089000Y-79789360D01*
X99711000Y-79789360D01*
X98670150Y-79789360D01*
X98526900Y-79932610D01*
X95602955Y-79932610D01*
X95449579Y-79779234D01*
X95282432Y-79710000D01*
X95308156Y-79672352D01*
X95323820Y-79595000D01*
X95323820Y-78995000D01*
X95310223Y-78922737D01*
X95267516Y-78856369D01*
X95202352Y-78811844D01*
X95125000Y-78796180D01*
X93125000Y-78796180D01*
X93052737Y-78809777D01*
X92986369Y-78852484D01*
X92941844Y-78917648D01*
X92926180Y-78995000D01*
X92926180Y-79595000D01*
X92939777Y-79667263D01*
X92967339Y-79710095D01*
X92800421Y-79779234D01*
X92639234Y-79940422D01*
X92552000Y-80151023D01*
X89848000Y-80151023D01*
X89760766Y-79940422D01*
X89750344Y-79930000D01*
X89760766Y-79919578D01*
X89848000Y-79708977D01*
X89848000Y-79588250D01*
X89704750Y-79445000D01*
X88464000Y-79445000D01*
X88086000Y-79445000D01*
X86845250Y-79445000D01*
X86702000Y-79588250D01*
X84717576Y-79588250D01*
X84623820Y-79494494D01*
X84623820Y-79000000D01*
X84610223Y-78927737D01*
X84580164Y-78881023D01*
X86702000Y-78881023D01*
X86702000Y-79001750D01*
X86845250Y-79145000D01*
X88086000Y-79145000D01*
X88086000Y-78565250D01*
X88464000Y-78565250D01*
X88464000Y-79145000D01*
X89704750Y-79145000D01*
X89848000Y-79001750D01*
X89848000Y-78881023D01*
X89760766Y-78670422D01*
X89599579Y-78509234D01*
X89388977Y-78422000D01*
X88607250Y-78422000D01*
X88464000Y-78565250D01*
X88086000Y-78565250D01*
X87942750Y-78422000D01*
X87161023Y-78422000D01*
X86950421Y-78509234D01*
X86789234Y-78670422D01*
X86702000Y-78881023D01*
X84580164Y-78881023D01*
X84567516Y-78861369D01*
X84502352Y-78816844D01*
X84425000Y-78801180D01*
X83175000Y-78801180D01*
X83102737Y-78814777D01*
X83036369Y-78857484D01*
X82991844Y-78922648D01*
X82976180Y-79000000D01*
X82976180Y-79305000D01*
X82245083Y-79305000D01*
X82245094Y-79292068D01*
X82162298Y-79091686D01*
X82009121Y-78938241D01*
X81808883Y-78855095D01*
X81592068Y-78854906D01*
X81391686Y-78937702D01*
X81238241Y-79090879D01*
X81155095Y-79291117D01*
X81154906Y-79507932D01*
X75765000Y-79507932D01*
X75765000Y-77669524D01*
X78642834Y-77669524D01*
X78788222Y-78021389D01*
X79057195Y-78290832D01*
X79408806Y-78436834D01*
X79789524Y-78437166D01*
X80141389Y-78291778D01*
X80410832Y-78022805D01*
X80425901Y-77986513D01*
X98526900Y-77986513D01*
X98526900Y-79268110D01*
X98670150Y-79411360D01*
X99711000Y-79411360D01*
X99711000Y-77670740D01*
X100089000Y-77670740D01*
X100089000Y-79411360D01*
X101129850Y-79411360D01*
X101273100Y-79268110D01*
X101273100Y-77986513D01*
X101185866Y-77775911D01*
X101024678Y-77614724D01*
X100814077Y-77527490D01*
X100232250Y-77527490D01*
X100089000Y-77670740D01*
X99711000Y-77670740D01*
X99567750Y-77527490D01*
X98985923Y-77527490D01*
X98775322Y-77614724D01*
X98614134Y-77775911D01*
X98526900Y-77986513D01*
X80425901Y-77986513D01*
X80556834Y-77671194D01*
X80557166Y-77290476D01*
X80411778Y-76938611D01*
X80142805Y-76669168D01*
X79791194Y-76523166D01*
X79410476Y-76522834D01*
X79058611Y-76668222D01*
X78789168Y-76937195D01*
X78643166Y-77288806D01*
X78642834Y-77669524D01*
X75765000Y-77669524D01*
X75765000Y-75129524D01*
X78642834Y-75129524D01*
X78788222Y-75481389D01*
X79057195Y-75750832D01*
X79408806Y-75896834D01*
X79789524Y-75897166D01*
X80141389Y-75751778D01*
X80410832Y-75482805D01*
X80451444Y-75385000D01*
X82205674Y-75385000D01*
X82301180Y-75480506D01*
X82301180Y-76450000D01*
X82314777Y-76522263D01*
X82357484Y-76588631D01*
X82422648Y-76633156D01*
X82500000Y-76648820D01*
X84000000Y-76648820D01*
X84072263Y-76635223D01*
X84138631Y-76592516D01*
X84183156Y-76527352D01*
X84198820Y-76450000D01*
X84198820Y-75150000D01*
X84185223Y-75077737D01*
X84142516Y-75011369D01*
X84077352Y-74966844D01*
X84000000Y-74951180D01*
X83030506Y-74951180D01*
X82704663Y-74625337D01*
X82560294Y-74528874D01*
X82390000Y-74494999D01*
X82389995Y-74495000D01*
X80451605Y-74495000D01*
X80411778Y-74398611D01*
X80142805Y-74129168D01*
X79791194Y-73983166D01*
X79410476Y-73982834D01*
X79058611Y-74128222D01*
X78789168Y-74397195D01*
X78643166Y-74748806D01*
X78642834Y-75129524D01*
X75765000Y-75129524D01*
X75765000Y-72589524D01*
X78642834Y-72589524D01*
X78788222Y-72941389D01*
X79057195Y-73210832D01*
X79408806Y-73356834D01*
X79789524Y-73357166D01*
X80141389Y-73211778D01*
X80410832Y-72942805D01*
X80451444Y-72845000D01*
X82449995Y-72845000D01*
X82450000Y-72845001D01*
X82620294Y-72811126D01*
X82764663Y-72714663D01*
X83030506Y-72448820D01*
X84000000Y-72448820D01*
X84072263Y-72435223D01*
X84138631Y-72392516D01*
X84183156Y-72327352D01*
X84198820Y-72250000D01*
X84198820Y-70950000D01*
X85001180Y-70950000D01*
X85001180Y-72250000D01*
X85014777Y-72322263D01*
X85057484Y-72388631D01*
X85122648Y-72433156D01*
X85200000Y-72448820D01*
X86700000Y-72448820D01*
X86772263Y-72435223D01*
X86838631Y-72392516D01*
X86883156Y-72327352D01*
X86898820Y-72250000D01*
X86898820Y-72045000D01*
X87865674Y-72045000D01*
X88076180Y-72255506D01*
X88076180Y-73200000D01*
X88089777Y-73272263D01*
X88132484Y-73338631D01*
X88197648Y-73383156D01*
X88275000Y-73398820D01*
X89525000Y-73398820D01*
X89597263Y-73385223D01*
X89663631Y-73342516D01*
X89708156Y-73277352D01*
X89723820Y-73200000D01*
X89723820Y-72745000D01*
X89905000Y-72745000D01*
X89905000Y-74300000D01*
X89927456Y-74412892D01*
X89989000Y-74505000D01*
X89723820Y-74505000D01*
X89723820Y-74200000D01*
X89710223Y-74127737D01*
X89667516Y-74061369D01*
X89602352Y-74016844D01*
X89525000Y-74001180D01*
X88275000Y-74001180D01*
X88202737Y-74014777D01*
X88136369Y-74057484D01*
X88091844Y-74122648D01*
X88076180Y-74200000D01*
X88076180Y-75144494D01*
X87865674Y-75355000D01*
X86898820Y-75355000D01*
X86898820Y-75150000D01*
X86885223Y-75077737D01*
X86842516Y-75011369D01*
X86777352Y-74966844D01*
X86700000Y-74951180D01*
X85200000Y-74951180D01*
X85127737Y-74964777D01*
X85061369Y-75007484D01*
X85016844Y-75072648D01*
X85001180Y-75150000D01*
X85001180Y-76450000D01*
X85014777Y-76522263D01*
X85057484Y-76588631D01*
X85122648Y-76633156D01*
X85200000Y-76648820D01*
X86700000Y-76648820D01*
X86772263Y-76635223D01*
X86838631Y-76592516D01*
X86883156Y-76527352D01*
X86898820Y-76450000D01*
X86898820Y-76245000D01*
X88049995Y-76245000D01*
X88050000Y-76245001D01*
X88220294Y-76211126D01*
X88364663Y-76114663D01*
X88580506Y-75898820D01*
X89525000Y-75898820D01*
X89597263Y-75885223D01*
X89663631Y-75842516D01*
X89708156Y-75777352D01*
X89723820Y-75700000D01*
X89723820Y-75095000D01*
X91903394Y-75095000D01*
X91922648Y-75108156D01*
X92000000Y-75123820D01*
X94700000Y-75123820D01*
X94772263Y-75110223D01*
X94838631Y-75067516D01*
X94883156Y-75002352D01*
X94898820Y-74925000D01*
X94898820Y-74675000D01*
X94885223Y-74602737D01*
X94850954Y-74549481D01*
X94883156Y-74502352D01*
X94898820Y-74425000D01*
X94898820Y-74175000D01*
X94885223Y-74102737D01*
X94858382Y-74061023D01*
X97327000Y-74061023D01*
X97327000Y-74094250D01*
X97470250Y-74237500D01*
X97527155Y-74237500D01*
X97414234Y-74350422D01*
X97366084Y-74466666D01*
X97327000Y-74505750D01*
X97327000Y-74538977D01*
X97331566Y-74550000D01*
X97327000Y-74561023D01*
X97327000Y-74594250D01*
X97366084Y-74633334D01*
X97414234Y-74749578D01*
X97527155Y-74862500D01*
X97470250Y-74862500D01*
X97327000Y-75005750D01*
X97327000Y-75038977D01*
X97414234Y-75249578D01*
X97575421Y-75410766D01*
X97786023Y-75498000D01*
X98917750Y-75498000D01*
X99061000Y-75354750D01*
X99061000Y-74862500D01*
X99053250Y-74862500D01*
X99061000Y-74854750D01*
X99061000Y-74675000D01*
X99439000Y-74675000D01*
X99439000Y-74854750D01*
X99446750Y-74862500D01*
X99439000Y-74862500D01*
X99439000Y-75354750D01*
X99582250Y-75498000D01*
X100713977Y-75498000D01*
X100924579Y-75410766D01*
X101085766Y-75249578D01*
X101173000Y-75038977D01*
X101173000Y-75005750D01*
X101029750Y-74862500D01*
X100972845Y-74862500D01*
X101085766Y-74749578D01*
X101133916Y-74633334D01*
X101173000Y-74594250D01*
X101173000Y-74561023D01*
X101168434Y-74550000D01*
X101173000Y-74538977D01*
X101173000Y-74505750D01*
X101133916Y-74466666D01*
X101085766Y-74350422D01*
X100972845Y-74237500D01*
X101029750Y-74237500D01*
X101172250Y-74095000D01*
X102477806Y-74095000D01*
X105605000Y-77222193D01*
X105605000Y-79332201D01*
X105591686Y-79337702D01*
X105438241Y-79490879D01*
X105355095Y-79691117D01*
X105354906Y-79907932D01*
X105437702Y-80108314D01*
X105590879Y-80261759D01*
X105791117Y-80344905D01*
X106007932Y-80345094D01*
X106208314Y-80262298D01*
X106361759Y-80109121D01*
X106390909Y-80038920D01*
X106784379Y-80540594D01*
X106755095Y-80611117D01*
X106754906Y-80827932D01*
X106837702Y-81028314D01*
X106990879Y-81181759D01*
X107191117Y-81264905D01*
X107407932Y-81265094D01*
X107608314Y-81182298D01*
X107761759Y-81029121D01*
X107844905Y-80828883D01*
X107845094Y-80612068D01*
X107762298Y-80411686D01*
X107609121Y-80258241D01*
X107408883Y-80175095D01*
X107247424Y-80174954D01*
X106795000Y-79598113D01*
X106795000Y-77161333D01*
X108305000Y-79284215D01*
X108305000Y-81112201D01*
X108291686Y-81117702D01*
X108138241Y-81270879D01*
X108055095Y-81471117D01*
X108054906Y-81687932D01*
X108137702Y-81888314D01*
X108290879Y-82041759D01*
X108491117Y-82124905D01*
X108707932Y-82125094D01*
X108908314Y-82042298D01*
X109061759Y-81889121D01*
X109144905Y-81688883D01*
X109145094Y-81472068D01*
X109062298Y-81271686D01*
X108909121Y-81118241D01*
X108895000Y-81112377D01*
X108895000Y-79190000D01*
X108888500Y-79157325D01*
X108887527Y-79124021D01*
X108877378Y-79101412D01*
X108872544Y-79077108D01*
X108854035Y-79049406D01*
X108840391Y-79019011D01*
X107535437Y-77184399D01*
X109242888Y-77184399D01*
X109320588Y-77401621D01*
X109829101Y-77554846D01*
X110357542Y-77501807D01*
X110599412Y-77401621D01*
X110677112Y-77184399D01*
X109960000Y-76467286D01*
X109242888Y-77184399D01*
X107535437Y-77184399D01*
X107140391Y-76629011D01*
X107122363Y-76612007D01*
X107108596Y-76591403D01*
X106586295Y-76069101D01*
X108605154Y-76069101D01*
X108658193Y-76597542D01*
X108758379Y-76839412D01*
X108975601Y-76917112D01*
X109692714Y-76200000D01*
X110227286Y-76200000D01*
X110944399Y-76917112D01*
X111161621Y-76839412D01*
X111297181Y-76389524D01*
X111542834Y-76389524D01*
X111688222Y-76741389D01*
X111957195Y-77010832D01*
X112308806Y-77156834D01*
X112689524Y-77157166D01*
X113041389Y-77011778D01*
X113310832Y-76742805D01*
X113456834Y-76391194D01*
X113457166Y-76010476D01*
X113311778Y-75658611D01*
X113042805Y-75389168D01*
X112691194Y-75243166D01*
X112310476Y-75242834D01*
X111958611Y-75388222D01*
X111689168Y-75657195D01*
X111543166Y-76008806D01*
X111542834Y-76389524D01*
X111297181Y-76389524D01*
X111314846Y-76330899D01*
X111261807Y-75802458D01*
X111161621Y-75560588D01*
X110944399Y-75482888D01*
X110227286Y-76200000D01*
X109692714Y-76200000D01*
X108975601Y-75482888D01*
X108758379Y-75560588D01*
X108605154Y-76069101D01*
X106586295Y-76069101D01*
X105732795Y-75215601D01*
X109242888Y-75215601D01*
X109960000Y-75932714D01*
X110677112Y-75215601D01*
X110599412Y-74998379D01*
X110090899Y-74845154D01*
X109562458Y-74898193D01*
X109320588Y-74998379D01*
X109242888Y-75215601D01*
X105732795Y-75215601D01*
X103108597Y-72591403D01*
X103105785Y-72589524D01*
X103012892Y-72527456D01*
X102994161Y-72523730D01*
X102900000Y-72504999D01*
X102899995Y-72505000D01*
X100696606Y-72505000D01*
X100677352Y-72491844D01*
X100600000Y-72476180D01*
X97900000Y-72476180D01*
X97827737Y-72489777D01*
X97761369Y-72532484D01*
X97716844Y-72597648D01*
X97701180Y-72675000D01*
X97701180Y-72925000D01*
X97714777Y-72997263D01*
X97749046Y-73050519D01*
X97716844Y-73097648D01*
X97701180Y-73175000D01*
X97701180Y-73425000D01*
X97714777Y-73497263D01*
X97749046Y-73550519D01*
X97716844Y-73597648D01*
X97709548Y-73633677D01*
X97575421Y-73689234D01*
X97414234Y-73850422D01*
X97327000Y-74061023D01*
X94858382Y-74061023D01*
X94850954Y-74049481D01*
X94883156Y-74002352D01*
X94890452Y-73966323D01*
X95024579Y-73910766D01*
X95185766Y-73749578D01*
X95273000Y-73538977D01*
X95273000Y-73505750D01*
X95129750Y-73362500D01*
X93539000Y-73362500D01*
X93539000Y-73425000D01*
X93161000Y-73425000D01*
X93161000Y-73362500D01*
X91570250Y-73362500D01*
X91477067Y-73455683D01*
X91477094Y-73425068D01*
X91394298Y-73224686D01*
X91241121Y-73071241D01*
X91040883Y-72988095D01*
X90824068Y-72987906D01*
X90623686Y-73070702D01*
X90495000Y-73199163D01*
X90495000Y-72450000D01*
X90472544Y-72337108D01*
X90408597Y-72241403D01*
X90312892Y-72177456D01*
X90200000Y-72155000D01*
X89723820Y-72155000D01*
X89723820Y-71700000D01*
X89710223Y-71627737D01*
X89667516Y-71561369D01*
X89602352Y-71516844D01*
X89525000Y-71501180D01*
X88580506Y-71501180D01*
X88364663Y-71285337D01*
X88220294Y-71188874D01*
X88050000Y-71154999D01*
X88049995Y-71155000D01*
X86898820Y-71155000D01*
X86898820Y-70950000D01*
X86885223Y-70877737D01*
X86842516Y-70811369D01*
X86777352Y-70766844D01*
X86700000Y-70751180D01*
X85200000Y-70751180D01*
X85127737Y-70764777D01*
X85061369Y-70807484D01*
X85016844Y-70872648D01*
X85001180Y-70950000D01*
X84198820Y-70950000D01*
X84185223Y-70877737D01*
X84142516Y-70811369D01*
X84077352Y-70766844D01*
X84000000Y-70751180D01*
X82500000Y-70751180D01*
X82427737Y-70764777D01*
X82361369Y-70807484D01*
X82316844Y-70872648D01*
X82301180Y-70950000D01*
X82301180Y-71919494D01*
X82265674Y-71955000D01*
X80451605Y-71955000D01*
X80411778Y-71858611D01*
X80142805Y-71589168D01*
X79791194Y-71443166D01*
X79410476Y-71442834D01*
X79058611Y-71588222D01*
X78789168Y-71857195D01*
X78643166Y-72208806D01*
X78642834Y-72589524D01*
X75765000Y-72589524D01*
X75765000Y-70844399D01*
X78882888Y-70844399D01*
X78960588Y-71061621D01*
X79469101Y-71214846D01*
X79997542Y-71161807D01*
X80239412Y-71061621D01*
X80317112Y-70844399D01*
X79600000Y-70127286D01*
X78882888Y-70844399D01*
X75765000Y-70844399D01*
X75765000Y-69729101D01*
X78245154Y-69729101D01*
X78298193Y-70257542D01*
X78398379Y-70499412D01*
X78615601Y-70577112D01*
X79332714Y-69860000D01*
X79867286Y-69860000D01*
X80584399Y-70577112D01*
X80801621Y-70499412D01*
X80954846Y-69990899D01*
X80908812Y-69532250D01*
X90327000Y-69532250D01*
X90327000Y-69938977D01*
X90414234Y-70149578D01*
X90575421Y-70310766D01*
X90786023Y-70398000D01*
X91225291Y-70398000D01*
X91205002Y-70500000D01*
X91205002Y-72499997D01*
X91205001Y-72500002D01*
X91223183Y-72591403D01*
X91227458Y-72612894D01*
X91277046Y-72687109D01*
X91291405Y-72708599D01*
X91490508Y-72907701D01*
X91427000Y-73061023D01*
X91427000Y-73094250D01*
X91570250Y-73237500D01*
X93161000Y-73237500D01*
X93161000Y-73175000D01*
X93539000Y-73175000D01*
X93539000Y-73237500D01*
X95129750Y-73237500D01*
X95273000Y-73094250D01*
X95273000Y-73061023D01*
X95185766Y-72850422D01*
X95024579Y-72689234D01*
X94891095Y-72633943D01*
X94885223Y-72602737D01*
X94842516Y-72536369D01*
X94777352Y-72491844D01*
X94700000Y-72476180D01*
X92000000Y-72476180D01*
X91927737Y-72489777D01*
X91915101Y-72497908D01*
X91795002Y-72377808D01*
X91795002Y-71807932D01*
X102254906Y-71807932D01*
X102337702Y-72008314D01*
X102490879Y-72161759D01*
X102691117Y-72244905D01*
X102907932Y-72245094D01*
X103108314Y-72162298D01*
X103261759Y-72009121D01*
X103344905Y-71808883D01*
X103345094Y-71592068D01*
X103262298Y-71391686D01*
X103245000Y-71374358D01*
X103245000Y-71245000D01*
X103584375Y-71245000D01*
X103438241Y-71390879D01*
X103355095Y-71591117D01*
X103354906Y-71807932D01*
X103437702Y-72008314D01*
X103590879Y-72161759D01*
X103791117Y-72244905D01*
X104007932Y-72245094D01*
X104208314Y-72162298D01*
X104225642Y-72145000D01*
X114595000Y-72145000D01*
X114595000Y-75348395D01*
X114498611Y-75388222D01*
X114229168Y-75657195D01*
X114083166Y-76008806D01*
X114082834Y-76389524D01*
X114228222Y-76741389D01*
X114497195Y-77010832D01*
X114848806Y-77156834D01*
X115229524Y-77157166D01*
X115581389Y-77011778D01*
X115850832Y-76742805D01*
X115996834Y-76391194D01*
X115997166Y-76010476D01*
X115851778Y-75658611D01*
X115582805Y-75389168D01*
X115485000Y-75348556D01*
X115485000Y-72100000D01*
X118235000Y-72100000D01*
X118235000Y-81300000D01*
X118239445Y-81323625D01*
X118253407Y-81345323D01*
X118274711Y-81359879D01*
X118300000Y-81365000D01*
X123300000Y-81365000D01*
X123323625Y-81360555D01*
X123345323Y-81346593D01*
X123359879Y-81325289D01*
X123365000Y-81300000D01*
X123365000Y-72100000D01*
X123360555Y-72076375D01*
X123346593Y-72054677D01*
X123325289Y-72040121D01*
X123300000Y-72035000D01*
X118300000Y-72035000D01*
X118276375Y-72039445D01*
X118254677Y-72053407D01*
X118240121Y-72074711D01*
X118235000Y-72100000D01*
X115485000Y-72100000D01*
X115485000Y-71740005D01*
X115485001Y-71740000D01*
X115451126Y-71569706D01*
X115405339Y-71501180D01*
X115354663Y-71425337D01*
X115354660Y-71425335D01*
X115314663Y-71385337D01*
X115170294Y-71288874D01*
X115000000Y-71254999D01*
X114999995Y-71255000D01*
X105915625Y-71255000D01*
X106061759Y-71109121D01*
X106144905Y-70908883D01*
X106145094Y-70692068D01*
X106062298Y-70491686D01*
X105909121Y-70338241D01*
X105708883Y-70255095D01*
X105492068Y-70254906D01*
X105291686Y-70337702D01*
X105274358Y-70355000D01*
X102700005Y-70355000D01*
X102700000Y-70354999D01*
X102529706Y-70388874D01*
X102385337Y-70485337D01*
X102288874Y-70629706D01*
X102254999Y-70800000D01*
X102288874Y-70970294D01*
X102355000Y-71069260D01*
X102355000Y-71374149D01*
X102338241Y-71390879D01*
X102255095Y-71591117D01*
X102254906Y-71807932D01*
X91795002Y-71807932D01*
X91795002Y-70795000D01*
X93899995Y-70795000D01*
X93900000Y-70795001D01*
X93994161Y-70776270D01*
X94012892Y-70772544D01*
X94108597Y-70708597D01*
X94358594Y-70458599D01*
X94358597Y-70458597D01*
X94422544Y-70362892D01*
X94445000Y-70250000D01*
X94445000Y-70023820D01*
X94900000Y-70023820D01*
X94972263Y-70010223D01*
X95038631Y-69967516D01*
X95083156Y-69902352D01*
X95098820Y-69825000D01*
X95098820Y-69645000D01*
X104274324Y-69645000D01*
X104390879Y-69761759D01*
X104591117Y-69844905D01*
X104807932Y-69845094D01*
X105008314Y-69762298D01*
X105161759Y-69609121D01*
X105244905Y-69408883D01*
X105245094Y-69192068D01*
X105162298Y-68991686D01*
X105009121Y-68838241D01*
X104808883Y-68755095D01*
X104592068Y-68754906D01*
X104591841Y-68755000D01*
X95098820Y-68755000D01*
X95098820Y-68575000D01*
X95085223Y-68502737D01*
X95042516Y-68436369D01*
X94977352Y-68391844D01*
X94900000Y-68376180D01*
X93400000Y-68376180D01*
X93327737Y-68389777D01*
X93261369Y-68432484D01*
X93216844Y-68497648D01*
X93201180Y-68575000D01*
X93201180Y-69825000D01*
X93214777Y-69897263D01*
X93257484Y-69963631D01*
X93322648Y-70008156D01*
X93400000Y-70023820D01*
X93855000Y-70023820D01*
X93855000Y-70127807D01*
X93777806Y-70205000D01*
X92830344Y-70205000D01*
X92885766Y-70149578D01*
X92973000Y-69938977D01*
X92973000Y-69532250D01*
X92829750Y-69389000D01*
X91839000Y-69389000D01*
X91839000Y-69409000D01*
X91461000Y-69409000D01*
X91461000Y-69389000D01*
X90470250Y-69389000D01*
X90327000Y-69532250D01*
X80908812Y-69532250D01*
X80901807Y-69462458D01*
X80801621Y-69220588D01*
X80584399Y-69142888D01*
X79867286Y-69860000D01*
X79332714Y-69860000D01*
X78615601Y-69142888D01*
X78398379Y-69220588D01*
X78245154Y-69729101D01*
X75765000Y-69729101D01*
X75765000Y-68875601D01*
X78882888Y-68875601D01*
X79600000Y-69592714D01*
X80317112Y-68875601D01*
X80239412Y-68658379D01*
X79730899Y-68505154D01*
X79202458Y-68558193D01*
X78960588Y-68658379D01*
X78882888Y-68875601D01*
X75765000Y-68875601D01*
X75765000Y-68461023D01*
X90327000Y-68461023D01*
X90327000Y-68867750D01*
X90470250Y-69011000D01*
X91461000Y-69011000D01*
X91461000Y-68145250D01*
X91839000Y-68145250D01*
X91839000Y-69011000D01*
X92829750Y-69011000D01*
X92973000Y-68867750D01*
X92973000Y-68461023D01*
X92885766Y-68250422D01*
X92724579Y-68089234D01*
X92513977Y-68002000D01*
X91982250Y-68002000D01*
X91839000Y-68145250D01*
X91461000Y-68145250D01*
X91317750Y-68002000D01*
X90786023Y-68002000D01*
X90575421Y-68089234D01*
X90414234Y-68250422D01*
X90327000Y-68461023D01*
X75765000Y-68461023D01*
X75765000Y-66165000D01*
X123835000Y-66165000D01*
X123835000Y-113035000D01*
X123835000Y-113035000D01*
G37*
X123835000Y-113035000D02*
X117324226Y-113035000D01*
X117354663Y-113014663D01*
X118712487Y-111656839D01*
X118808806Y-111696834D01*
X119189524Y-111697166D01*
X119541389Y-111551778D01*
X119810832Y-111282805D01*
X119851444Y-111185000D01*
X121159995Y-111185000D01*
X121160000Y-111185001D01*
X121330294Y-111151126D01*
X121474663Y-111054663D01*
X121614660Y-110914665D01*
X121614663Y-110914663D01*
X121711126Y-110770294D01*
X121725109Y-110700000D01*
X121745001Y-110600000D01*
X121745000Y-110599995D01*
X121745000Y-102200005D01*
X121745001Y-102200000D01*
X121711126Y-102029706D01*
X121685342Y-101991117D01*
X121614663Y-101885337D01*
X121614660Y-101885335D01*
X121314663Y-101585337D01*
X121170294Y-101488874D01*
X121000000Y-101454999D01*
X120999995Y-101455000D01*
X115784325Y-101455000D01*
X113645000Y-99315674D01*
X113645000Y-98044586D01*
X113786023Y-98103000D01*
X114567750Y-98103000D01*
X114711000Y-97959750D01*
X114711000Y-97367500D01*
X115089000Y-97367500D01*
X115089000Y-97959750D01*
X115232250Y-98103000D01*
X116013977Y-98103000D01*
X116224579Y-98015766D01*
X116385766Y-97854578D01*
X116473000Y-97643977D01*
X116473000Y-97510750D01*
X116329750Y-97367500D01*
X115089000Y-97367500D01*
X114711000Y-97367500D01*
X114691000Y-97367500D01*
X114691000Y-97042500D01*
X114711000Y-97042500D01*
X114711000Y-96996000D01*
X115089000Y-96996000D01*
X115089000Y-97042500D01*
X116329750Y-97042500D01*
X116473000Y-96899250D01*
X116473000Y-96880000D01*
X121301180Y-96880000D01*
X121301180Y-97530000D01*
X121314777Y-97602263D01*
X121357484Y-97668631D01*
X121422648Y-97713156D01*
X121500000Y-97728820D01*
X122055000Y-97728820D01*
X122055000Y-99374149D01*
X122038241Y-99390879D01*
X121955095Y-99591117D01*
X121954906Y-99807932D01*
X122037702Y-100008314D01*
X122190879Y-100161759D01*
X122391117Y-100244905D01*
X122607932Y-100245094D01*
X122808314Y-100162298D01*
X122961759Y-100009121D01*
X123044905Y-99808883D01*
X123045094Y-99592068D01*
X122962298Y-99391686D01*
X122945000Y-99374358D01*
X122945000Y-97728820D01*
X123500000Y-97728820D01*
X123572263Y-97715223D01*
X123638631Y-97672516D01*
X123683156Y-97607352D01*
X123698820Y-97530000D01*
X123698820Y-96880000D01*
X123685223Y-96807737D01*
X123642516Y-96741369D01*
X123577352Y-96696844D01*
X123500000Y-96681180D01*
X121500000Y-96681180D01*
X121427737Y-96694777D01*
X121361369Y-96737484D01*
X121316844Y-96802648D01*
X121301180Y-96880000D01*
X116473000Y-96880000D01*
X116473000Y-96766023D01*
X116385766Y-96555422D01*
X116224579Y-96394234D01*
X116083473Y-96335786D01*
X116098820Y-96260000D01*
X116098820Y-96007932D01*
X119954906Y-96007932D01*
X120037702Y-96208314D01*
X120190879Y-96361759D01*
X120391117Y-96444905D01*
X120607932Y-96445094D01*
X120765472Y-96380000D01*
X121345495Y-96380000D01*
X121357484Y-96398631D01*
X121422648Y-96443156D01*
X121500000Y-96458820D01*
X123500000Y-96458820D01*
X123572263Y-96445223D01*
X123638631Y-96402516D01*
X123683156Y-96337352D01*
X123698820Y-96260000D01*
X123698820Y-95610000D01*
X123685223Y-95537737D01*
X123642516Y-95471369D01*
X123577352Y-95426844D01*
X123500000Y-95411180D01*
X121500000Y-95411180D01*
X121427737Y-95424777D01*
X121361369Y-95467484D01*
X121345984Y-95490000D01*
X120860790Y-95490000D01*
X120809121Y-95438241D01*
X120608883Y-95355095D01*
X120392068Y-95354906D01*
X120191686Y-95437702D01*
X120038241Y-95590879D01*
X119955095Y-95791117D01*
X119954906Y-96007932D01*
X116098820Y-96007932D01*
X116098820Y-95610000D01*
X116085223Y-95537737D01*
X116042516Y-95471369D01*
X115977352Y-95426844D01*
X115900000Y-95411180D01*
X113900000Y-95411180D01*
X113827737Y-95424777D01*
X113761369Y-95467484D01*
X113716844Y-95532648D01*
X113701180Y-95610000D01*
X113701180Y-96260000D01*
X113714777Y-96332263D01*
X113716935Y-96335617D01*
X113645000Y-96365414D01*
X113645000Y-95384326D01*
X113850524Y-95178801D01*
X113900000Y-95188820D01*
X115900000Y-95188820D01*
X115972263Y-95175223D01*
X116038631Y-95132516D01*
X116083156Y-95067352D01*
X116098820Y-94990000D01*
X116098820Y-94340000D01*
X116085223Y-94267737D01*
X116042516Y-94201369D01*
X115977352Y-94156844D01*
X115900000Y-94141180D01*
X113900000Y-94141180D01*
X113827737Y-94154777D01*
X113761369Y-94197484D01*
X113745984Y-94220000D01*
X113735005Y-94220000D01*
X113735000Y-94219999D01*
X113564706Y-94253874D01*
X113420337Y-94350337D01*
X113420335Y-94350340D01*
X112885337Y-94885337D01*
X112788874Y-95029706D01*
X112754999Y-95200000D01*
X112755000Y-95200005D01*
X112755000Y-99499995D01*
X112754999Y-99500000D01*
X112761374Y-99532048D01*
X111298820Y-98069494D01*
X111298820Y-97825000D01*
X111285223Y-97752737D01*
X111280244Y-97745000D01*
X111874149Y-97745000D01*
X111890879Y-97761759D01*
X112091117Y-97844905D01*
X112307932Y-97845094D01*
X112508314Y-97762298D01*
X112661759Y-97609121D01*
X112744905Y-97408883D01*
X112745094Y-97192068D01*
X112662298Y-96991686D01*
X112509121Y-96838241D01*
X112308883Y-96755095D01*
X112092068Y-96754906D01*
X111891686Y-96837702D01*
X111874358Y-96855000D01*
X111281347Y-96855000D01*
X111283156Y-96852352D01*
X111298820Y-96775000D01*
X111298820Y-96225000D01*
X111285223Y-96152737D01*
X111250954Y-96099481D01*
X111283156Y-96052352D01*
X111298820Y-95975000D01*
X111298820Y-95712857D01*
X111424579Y-95660766D01*
X111585766Y-95499578D01*
X111673000Y-95288977D01*
X111673000Y-95180750D01*
X111529750Y-95037500D01*
X110089000Y-95037500D01*
X110089000Y-95109000D01*
X109711000Y-95109000D01*
X109711000Y-95037500D01*
X108270250Y-95037500D01*
X108127000Y-95180750D01*
X108127000Y-95288977D01*
X108214234Y-95499578D01*
X108375421Y-95660766D01*
X108501180Y-95712857D01*
X108501180Y-95975000D01*
X108514777Y-96047263D01*
X108549046Y-96100519D01*
X108516844Y-96147648D01*
X108501180Y-96225000D01*
X108501180Y-96775000D01*
X108514777Y-96847263D01*
X108549046Y-96900519D01*
X108516844Y-96947648D01*
X108501180Y-97025000D01*
X108501180Y-97575000D01*
X108514777Y-97647263D01*
X108549046Y-97700519D01*
X108516844Y-97747648D01*
X108501180Y-97825000D01*
X108501180Y-98375000D01*
X108514777Y-98447263D01*
X108557484Y-98513631D01*
X108622648Y-98558156D01*
X108700000Y-98573820D01*
X110544494Y-98573820D01*
X114985335Y-103014660D01*
X114985337Y-103014663D01*
X115129706Y-103111126D01*
X115300000Y-103145000D01*
X120055000Y-103145000D01*
X120055000Y-107755000D01*
X119851605Y-107755000D01*
X119811778Y-107658611D01*
X119542805Y-107389168D01*
X119191194Y-107243166D01*
X118810476Y-107242834D01*
X118458611Y-107388222D01*
X118189168Y-107657195D01*
X118043166Y-108008806D01*
X118042834Y-108389524D01*
X118188222Y-108741389D01*
X118457195Y-109010832D01*
X118808806Y-109156834D01*
X119189524Y-109157166D01*
X119541389Y-109011778D01*
X119810832Y-108742805D01*
X119851444Y-108645000D01*
X120500000Y-108645000D01*
X120670294Y-108611126D01*
X120814663Y-108514663D01*
X120855000Y-108454294D01*
X120855000Y-110295000D01*
X119851605Y-110295000D01*
X119811778Y-110198611D01*
X119542805Y-109929168D01*
X119191194Y-109783166D01*
X118810476Y-109782834D01*
X118458611Y-109928222D01*
X118189168Y-110197195D01*
X118043166Y-110548806D01*
X118042834Y-110929524D01*
X118083275Y-111027399D01*
X116855674Y-112255000D01*
X114945000Y-112255000D01*
X114945000Y-110929524D01*
X115502834Y-110929524D01*
X115648222Y-111281389D01*
X115917195Y-111550832D01*
X116268806Y-111696834D01*
X116649524Y-111697166D01*
X117001389Y-111551778D01*
X117270832Y-111282805D01*
X117416834Y-110931194D01*
X117417166Y-110550476D01*
X117271778Y-110198611D01*
X117002805Y-109929168D01*
X116651194Y-109783166D01*
X116270476Y-109782834D01*
X115918611Y-109928222D01*
X115649168Y-110197195D01*
X115503166Y-110548806D01*
X115502834Y-110929524D01*
X114945000Y-110929524D01*
X114945000Y-108389524D01*
X115502834Y-108389524D01*
X115648222Y-108741389D01*
X115917195Y-109010832D01*
X116268806Y-109156834D01*
X116649524Y-109157166D01*
X117001389Y-109011778D01*
X117270832Y-108742805D01*
X117416834Y-108391194D01*
X117417166Y-108010476D01*
X117271778Y-107658611D01*
X117002805Y-107389168D01*
X116651194Y-107243166D01*
X116270476Y-107242834D01*
X115918611Y-107388222D01*
X115649168Y-107657195D01*
X115503166Y-108008806D01*
X115502834Y-108389524D01*
X114945000Y-108389524D01*
X114945000Y-106644399D01*
X115742888Y-106644399D01*
X115820588Y-106861621D01*
X116329101Y-107014846D01*
X116857542Y-106961807D01*
X117099412Y-106861621D01*
X117177112Y-106644399D01*
X116460000Y-105927286D01*
X115742888Y-106644399D01*
X114945000Y-106644399D01*
X114945000Y-105529101D01*
X115105154Y-105529101D01*
X115158193Y-106057542D01*
X115258379Y-106299412D01*
X115475601Y-106377112D01*
X116192714Y-105660000D01*
X116727286Y-105660000D01*
X117444399Y-106377112D01*
X117661621Y-106299412D01*
X117797181Y-105849524D01*
X118042834Y-105849524D01*
X118188222Y-106201389D01*
X118457195Y-106470832D01*
X118808806Y-106616834D01*
X119189524Y-106617166D01*
X119541389Y-106471778D01*
X119810832Y-106202805D01*
X119956834Y-105851194D01*
X119957166Y-105470476D01*
X119811778Y-105118611D01*
X119542805Y-104849168D01*
X119191194Y-104703166D01*
X118810476Y-104702834D01*
X118458611Y-104848222D01*
X118189168Y-105117195D01*
X118043166Y-105468806D01*
X118042834Y-105849524D01*
X117797181Y-105849524D01*
X117814846Y-105790899D01*
X117761807Y-105262458D01*
X117661621Y-105020588D01*
X117444399Y-104942888D01*
X116727286Y-105660000D01*
X116192714Y-105660000D01*
X115475601Y-104942888D01*
X115258379Y-105020588D01*
X115105154Y-105529101D01*
X114945000Y-105529101D01*
X114945000Y-104900005D01*
X114945001Y-104900000D01*
X114911126Y-104729706D01*
X114891277Y-104700000D01*
X114874975Y-104675601D01*
X115742888Y-104675601D01*
X116460000Y-105392714D01*
X117177112Y-104675601D01*
X117099412Y-104458379D01*
X116590899Y-104305154D01*
X116062458Y-104358193D01*
X115820588Y-104458379D01*
X115742888Y-104675601D01*
X114874975Y-104675601D01*
X114814663Y-104585337D01*
X114814660Y-104585335D01*
X109864663Y-99635337D01*
X109720294Y-99538874D01*
X109550000Y-99504999D01*
X109549995Y-99505000D01*
X108523820Y-99505000D01*
X108523820Y-98750000D01*
X108510223Y-98677737D01*
X108467516Y-98611369D01*
X108402352Y-98566844D01*
X108325000Y-98551180D01*
X107775000Y-98551180D01*
X107702737Y-98564777D01*
X107649481Y-98599046D01*
X107602352Y-98566844D01*
X107525000Y-98551180D01*
X106975000Y-98551180D01*
X106902737Y-98564777D01*
X106849481Y-98599046D01*
X106802352Y-98566844D01*
X106725000Y-98551180D01*
X106175000Y-98551180D01*
X106102737Y-98564777D01*
X106095000Y-98569756D01*
X106095000Y-96334326D01*
X107314660Y-95114665D01*
X107314663Y-95114663D01*
X107411126Y-94970294D01*
X107445000Y-94800000D01*
X107445000Y-94511023D01*
X108127000Y-94511023D01*
X108127000Y-94619250D01*
X108270250Y-94762500D01*
X109711000Y-94762500D01*
X109711000Y-94691000D01*
X110089000Y-94691000D01*
X110089000Y-94762500D01*
X111529750Y-94762500D01*
X111673000Y-94619250D01*
X111673000Y-94511023D01*
X111585766Y-94300422D01*
X111424579Y-94139234D01*
X111298820Y-94087143D01*
X111298820Y-93825000D01*
X111285223Y-93752737D01*
X111250954Y-93699481D01*
X111283156Y-93652352D01*
X111298820Y-93575000D01*
X111298820Y-93507932D01*
X112654906Y-93507932D01*
X112737702Y-93708314D01*
X112890879Y-93861759D01*
X113091117Y-93944905D01*
X113307932Y-93945094D01*
X113508314Y-93862298D01*
X113530651Y-93840000D01*
X113745495Y-93840000D01*
X113757484Y-93858631D01*
X113822648Y-93903156D01*
X113900000Y-93918820D01*
X115900000Y-93918820D01*
X115972263Y-93905223D01*
X116038631Y-93862516D01*
X116083156Y-93797352D01*
X116098820Y-93720000D01*
X116098820Y-93070000D01*
X116085223Y-92997737D01*
X116042516Y-92931369D01*
X115977352Y-92886844D01*
X115900000Y-92871180D01*
X113900000Y-92871180D01*
X113827737Y-92884777D01*
X113761369Y-92927484D01*
X113745984Y-92950000D01*
X113520859Y-92950000D01*
X113509121Y-92938241D01*
X113308883Y-92855095D01*
X113092068Y-92854906D01*
X112891686Y-92937702D01*
X112738241Y-93090879D01*
X112655095Y-93291117D01*
X112654906Y-93507932D01*
X111298820Y-93507932D01*
X111298820Y-93025000D01*
X111285223Y-92952737D01*
X111250954Y-92899481D01*
X111283156Y-92852352D01*
X111298820Y-92775000D01*
X111298820Y-92225000D01*
X111285223Y-92152737D01*
X111242516Y-92086369D01*
X111177352Y-92041844D01*
X111100000Y-92026180D01*
X108700000Y-92026180D01*
X108627737Y-92039777D01*
X108561369Y-92082484D01*
X108516844Y-92147648D01*
X108501180Y-92225000D01*
X108501180Y-92775000D01*
X108514777Y-92847263D01*
X108549046Y-92900519D01*
X108516844Y-92947648D01*
X108501180Y-93025000D01*
X108501180Y-93575000D01*
X108514777Y-93647263D01*
X108549046Y-93700519D01*
X108516844Y-93747648D01*
X108501180Y-93825000D01*
X108501180Y-94087143D01*
X108375421Y-94139234D01*
X108214234Y-94300422D01*
X108127000Y-94511023D01*
X107445000Y-94511023D01*
X107445000Y-93725851D01*
X107461759Y-93709121D01*
X107544905Y-93508883D01*
X107545094Y-93292068D01*
X107462298Y-93091686D01*
X107309121Y-92938241D01*
X107108883Y-92855095D01*
X106892068Y-92854906D01*
X106691686Y-92937702D01*
X106538241Y-93090879D01*
X106455095Y-93291117D01*
X106454906Y-93507932D01*
X106537702Y-93708314D01*
X106555000Y-93725642D01*
X106555000Y-94615675D01*
X105335337Y-95835337D01*
X105238874Y-95979706D01*
X105204999Y-96150000D01*
X105205000Y-96150005D01*
X105205000Y-98568653D01*
X105202352Y-98566844D01*
X105125000Y-98551180D01*
X104575000Y-98551180D01*
X104502737Y-98564777D01*
X104449481Y-98599046D01*
X104402352Y-98566844D01*
X104325000Y-98551180D01*
X103775000Y-98551180D01*
X103702737Y-98564777D01*
X103649481Y-98599046D01*
X103602352Y-98566844D01*
X103525000Y-98551180D01*
X102975000Y-98551180D01*
X102902737Y-98564777D01*
X102849481Y-98599046D01*
X102802352Y-98566844D01*
X102725000Y-98551180D01*
X102175000Y-98551180D01*
X102102737Y-98564777D01*
X102036369Y-98607484D01*
X101991844Y-98672648D01*
X101976180Y-98750000D01*
X101976180Y-101150000D01*
X101989777Y-101222263D01*
X102005000Y-101245920D01*
X102005000Y-101624237D01*
X101938241Y-101690879D01*
X101855095Y-101891117D01*
X101854906Y-102107932D01*
X101937702Y-102308314D01*
X102090879Y-102461759D01*
X102291117Y-102544905D01*
X102507932Y-102545094D01*
X102708314Y-102462298D01*
X102805000Y-102365781D01*
X102805000Y-102555000D01*
X95284325Y-102555000D01*
X90429640Y-97700314D01*
X90373436Y-97632250D01*
X92027000Y-97632250D01*
X92027000Y-98038977D01*
X92114234Y-98249578D01*
X92275421Y-98410766D01*
X92486023Y-98498000D01*
X93017750Y-98498000D01*
X93161000Y-98354750D01*
X93161000Y-97489000D01*
X93539000Y-97489000D01*
X93539000Y-98354750D01*
X93682250Y-98498000D01*
X94213977Y-98498000D01*
X94424579Y-98410766D01*
X94585766Y-98249578D01*
X94673000Y-98038977D01*
X94673000Y-97632250D01*
X94529750Y-97489000D01*
X93539000Y-97489000D01*
X93161000Y-97489000D01*
X92170250Y-97489000D01*
X92027000Y-97632250D01*
X90373436Y-97632250D01*
X89488857Y-96561023D01*
X92027000Y-96561023D01*
X92027000Y-96967750D01*
X92170250Y-97111000D01*
X93161000Y-97111000D01*
X93161000Y-96245250D01*
X93539000Y-96245250D01*
X93539000Y-97111000D01*
X94529750Y-97111000D01*
X94673000Y-96967750D01*
X94673000Y-96561023D01*
X94585766Y-96350422D01*
X94424579Y-96189234D01*
X94213977Y-96102000D01*
X93682250Y-96102000D01*
X93539000Y-96245250D01*
X93161000Y-96245250D01*
X93017750Y-96102000D01*
X92486023Y-96102000D01*
X92275421Y-96189234D01*
X92114234Y-96350422D01*
X92027000Y-96561023D01*
X89488857Y-96561023D01*
X89116133Y-96109654D01*
X89099550Y-96096129D01*
X89087662Y-96078337D01*
X87828139Y-94818813D01*
X86154734Y-92906350D01*
X86088000Y-92189524D01*
X88802834Y-92189524D01*
X88948222Y-92541389D01*
X89217195Y-92810832D01*
X89568806Y-92956834D01*
X89949524Y-92957166D01*
X90004942Y-92934268D01*
X91985335Y-94914660D01*
X91985337Y-94914663D01*
X92129706Y-95011126D01*
X92300000Y-95045000D01*
X97699995Y-95045000D01*
X97700000Y-95045001D01*
X97870294Y-95011126D01*
X98014663Y-94914663D01*
X98827000Y-94102326D01*
X98827000Y-94289002D01*
X98918748Y-94289002D01*
X98843999Y-94363751D01*
X98800000Y-94354999D01*
X98629706Y-94388874D01*
X98485337Y-94485337D01*
X98388874Y-94629706D01*
X98354999Y-94800000D01*
X98355000Y-94800005D01*
X98355000Y-96315675D01*
X98045000Y-96625674D01*
X98045000Y-96300005D01*
X98045001Y-96300000D01*
X98011126Y-96129706D01*
X97997372Y-96109121D01*
X97914663Y-95985337D01*
X97914660Y-95985335D01*
X97645073Y-95715748D01*
X97645094Y-95692068D01*
X97562298Y-95491686D01*
X97409121Y-95338241D01*
X97208883Y-95255095D01*
X96992068Y-95254906D01*
X96791686Y-95337702D01*
X96638241Y-95490879D01*
X96555095Y-95691117D01*
X96554906Y-95907932D01*
X96637702Y-96108314D01*
X96790879Y-96261759D01*
X96991117Y-96344905D01*
X97015601Y-96344926D01*
X97155000Y-96484325D01*
X97155000Y-96855000D01*
X96798820Y-96855000D01*
X96798820Y-96675000D01*
X96785223Y-96602737D01*
X96742516Y-96536369D01*
X96677352Y-96491844D01*
X96600000Y-96476180D01*
X95100000Y-96476180D01*
X95027737Y-96489777D01*
X94961369Y-96532484D01*
X94916844Y-96597648D01*
X94901180Y-96675000D01*
X94901180Y-97925000D01*
X94914777Y-97997263D01*
X94957484Y-98063631D01*
X95022648Y-98108156D01*
X95100000Y-98123820D01*
X95405000Y-98123820D01*
X95405000Y-98724237D01*
X95338241Y-98790879D01*
X95255095Y-98991117D01*
X95254906Y-99207932D01*
X95337702Y-99408314D01*
X95490879Y-99561759D01*
X95691117Y-99644905D01*
X95907932Y-99645094D01*
X96108314Y-99562298D01*
X96261759Y-99409121D01*
X96344905Y-99208883D01*
X96345094Y-98992068D01*
X96295000Y-98870831D01*
X96295000Y-98123820D01*
X96600000Y-98123820D01*
X96672263Y-98110223D01*
X96738631Y-98067516D01*
X96783156Y-98002352D01*
X96798820Y-97925000D01*
X96798820Y-97745000D01*
X97999995Y-97745000D01*
X98000000Y-97745001D01*
X98032049Y-97738626D01*
X97510687Y-98259987D01*
X97414224Y-98404356D01*
X97380349Y-98574650D01*
X97380350Y-98574655D01*
X97380350Y-98912753D01*
X97236180Y-99056672D01*
X97130091Y-99312161D01*
X97129850Y-99588800D01*
X97235492Y-99844473D01*
X97430935Y-100040257D01*
X97686424Y-100146346D01*
X97963063Y-100146587D01*
X98218736Y-100040945D01*
X98414520Y-99845502D01*
X98520609Y-99590013D01*
X98520850Y-99313374D01*
X98415208Y-99057701D01*
X98270350Y-98912590D01*
X98270350Y-98758976D01*
X99201180Y-97828145D01*
X99201180Y-98375000D01*
X99214777Y-98447263D01*
X99257484Y-98513631D01*
X99322648Y-98558156D01*
X99400000Y-98573820D01*
X100155000Y-98573820D01*
X100155000Y-99494675D01*
X99345761Y-100303913D01*
X99112984Y-100303913D01*
X98969065Y-100159743D01*
X98713576Y-100053654D01*
X98436937Y-100053413D01*
X98181264Y-100159055D01*
X97985480Y-100354498D01*
X97879391Y-100609987D01*
X97879150Y-100886626D01*
X97984792Y-101142299D01*
X98180235Y-101338083D01*
X98435724Y-101444172D01*
X98712363Y-101444413D01*
X98968036Y-101338771D01*
X99113147Y-101193913D01*
X99530082Y-101193913D01*
X99530087Y-101193914D01*
X99700381Y-101160039D01*
X99844750Y-101063576D01*
X100914660Y-99993665D01*
X100914663Y-99993663D01*
X101011126Y-99849294D01*
X101045000Y-99679000D01*
X101045000Y-98573820D01*
X101800000Y-98573820D01*
X101872263Y-98560223D01*
X101938631Y-98517516D01*
X101983156Y-98452352D01*
X101998820Y-98375000D01*
X101998820Y-97825000D01*
X101985223Y-97752737D01*
X101950954Y-97699481D01*
X101983156Y-97652352D01*
X101998820Y-97575000D01*
X101998820Y-97025000D01*
X101985223Y-96952737D01*
X101950954Y-96899481D01*
X101983156Y-96852352D01*
X101998820Y-96775000D01*
X101998820Y-96512857D01*
X102124579Y-96460766D01*
X102285766Y-96299578D01*
X102373000Y-96088977D01*
X102373000Y-95980750D01*
X102229750Y-95837500D01*
X100789000Y-95837500D01*
X100789000Y-95909000D01*
X100411000Y-95909000D01*
X100411000Y-95837500D01*
X100391000Y-95837500D01*
X100391000Y-95562500D01*
X100411000Y-95562500D01*
X100411000Y-95491000D01*
X100789000Y-95491000D01*
X100789000Y-95562500D01*
X102229750Y-95562500D01*
X102373000Y-95419250D01*
X102373000Y-95311023D01*
X102285766Y-95100422D01*
X102124579Y-94939234D01*
X102029860Y-94900000D01*
X102124579Y-94860766D01*
X102285766Y-94699578D01*
X102373000Y-94488977D01*
X102373000Y-94380750D01*
X102229750Y-94237500D01*
X100789000Y-94237500D01*
X100789000Y-94309000D01*
X100411000Y-94309000D01*
X100411000Y-94237500D01*
X100391000Y-94237500D01*
X100391000Y-93962500D01*
X100411000Y-93962500D01*
X100411000Y-93891000D01*
X100789000Y-93891000D01*
X100789000Y-93962500D01*
X102229750Y-93962500D01*
X102373000Y-93819250D01*
X102373000Y-93711023D01*
X102285766Y-93500422D01*
X102124579Y-93339234D01*
X101998820Y-93287143D01*
X101998820Y-93025000D01*
X101985223Y-92952737D01*
X101950954Y-92899481D01*
X101983156Y-92852352D01*
X101998820Y-92775000D01*
X101998820Y-92225000D01*
X101985223Y-92152737D01*
X101942516Y-92086369D01*
X101877352Y-92041844D01*
X101800000Y-92026180D01*
X99400000Y-92026180D01*
X99327737Y-92039777D01*
X99304080Y-92055000D01*
X98700005Y-92055000D01*
X98700000Y-92054999D01*
X98542299Y-92086369D01*
X98529706Y-92088874D01*
X98385337Y-92185337D01*
X98385335Y-92185340D01*
X97515674Y-93055000D01*
X93284325Y-93055000D01*
X92941333Y-92712008D01*
X93110832Y-92542805D01*
X93256834Y-92191194D01*
X93256835Y-92189524D01*
X93882834Y-92189524D01*
X94028222Y-92541389D01*
X94297195Y-92810832D01*
X94648806Y-92956834D01*
X95029524Y-92957166D01*
X95381389Y-92811778D01*
X95650832Y-92542805D01*
X95796834Y-92191194D01*
X95797166Y-91810476D01*
X95651778Y-91458611D01*
X95382805Y-91189168D01*
X95285000Y-91148556D01*
X95285000Y-90444326D01*
X96684325Y-89045000D01*
X101715674Y-89045000D01*
X102005000Y-89334325D01*
X102005000Y-89353394D01*
X101991844Y-89372648D01*
X101976180Y-89450000D01*
X101976180Y-91850000D01*
X101989777Y-91922263D01*
X102032484Y-91988631D01*
X102097648Y-92033156D01*
X102175000Y-92048820D01*
X102725000Y-92048820D01*
X102797263Y-92035223D01*
X102850519Y-92000954D01*
X102897648Y-92033156D01*
X102975000Y-92048820D01*
X103525000Y-92048820D01*
X103597263Y-92035223D01*
X103650519Y-92000954D01*
X103697648Y-92033156D01*
X103775000Y-92048820D01*
X104325000Y-92048820D01*
X104397263Y-92035223D01*
X104405000Y-92030244D01*
X104405000Y-93370932D01*
X104355095Y-93491117D01*
X104354906Y-93707932D01*
X104437702Y-93908314D01*
X104590879Y-94061759D01*
X104791117Y-94144905D01*
X105007932Y-94145094D01*
X105208314Y-94062298D01*
X105361759Y-93909121D01*
X105444905Y-93708883D01*
X105445094Y-93492068D01*
X105362298Y-93291686D01*
X105295000Y-93224270D01*
X105295000Y-92031347D01*
X105297648Y-92033156D01*
X105375000Y-92048820D01*
X105925000Y-92048820D01*
X105997263Y-92035223D01*
X106050519Y-92000954D01*
X106097648Y-92033156D01*
X106175000Y-92048820D01*
X106725000Y-92048820D01*
X106797263Y-92035223D01*
X106850519Y-92000954D01*
X106897648Y-92033156D01*
X106975000Y-92048820D01*
X107525000Y-92048820D01*
X107597263Y-92035223D01*
X107650519Y-92000954D01*
X107697648Y-92033156D01*
X107775000Y-92048820D01*
X108325000Y-92048820D01*
X108397263Y-92035223D01*
X108463631Y-91992516D01*
X108508156Y-91927352D01*
X108523820Y-91850000D01*
X108523820Y-90132250D01*
X115927000Y-90132250D01*
X115927000Y-90538977D01*
X116014234Y-90749578D01*
X116175421Y-90910766D01*
X116386023Y-90998000D01*
X116917750Y-90998000D01*
X117061000Y-90854750D01*
X117061000Y-89989000D01*
X117439000Y-89989000D01*
X117439000Y-90854750D01*
X117582250Y-90998000D01*
X118113977Y-90998000D01*
X118324579Y-90910766D01*
X118485766Y-90749578D01*
X118573000Y-90538977D01*
X118573000Y-90132250D01*
X118429750Y-89989000D01*
X117439000Y-89989000D01*
X117061000Y-89989000D01*
X116070250Y-89989000D01*
X115927000Y-90132250D01*
X108523820Y-90132250D01*
X108523820Y-89450000D01*
X108510223Y-89377737D01*
X108489157Y-89345000D01*
X114949995Y-89345000D01*
X114950000Y-89345001D01*
X115120294Y-89311126D01*
X115264663Y-89214663D01*
X115418302Y-89061023D01*
X115927000Y-89061023D01*
X115927000Y-89467750D01*
X116070250Y-89611000D01*
X117061000Y-89611000D01*
X117061000Y-88745250D01*
X117439000Y-88745250D01*
X117439000Y-89611000D01*
X118429750Y-89611000D01*
X118573000Y-89467750D01*
X118573000Y-89061023D01*
X118485766Y-88850422D01*
X118324579Y-88689234D01*
X118113977Y-88602000D01*
X117582250Y-88602000D01*
X117439000Y-88745250D01*
X117061000Y-88745250D01*
X116917750Y-88602000D01*
X116386023Y-88602000D01*
X116175421Y-88689234D01*
X116014234Y-88850422D01*
X115927000Y-89061023D01*
X115418302Y-89061023D01*
X117680505Y-86798820D01*
X118650000Y-86798820D01*
X118722263Y-86785223D01*
X118788631Y-86742516D01*
X118833156Y-86677352D01*
X118848820Y-86600000D01*
X118848820Y-85100000D01*
X118835223Y-85027737D01*
X118792516Y-84961369D01*
X118727352Y-84916844D01*
X118650000Y-84901180D01*
X117350000Y-84901180D01*
X117277737Y-84914777D01*
X117211369Y-84957484D01*
X117166844Y-85022648D01*
X117151180Y-85100000D01*
X117151180Y-85555000D01*
X117088459Y-85555000D01*
X117062298Y-85491686D01*
X116909121Y-85338241D01*
X116708883Y-85255095D01*
X116492068Y-85254906D01*
X116291686Y-85337702D01*
X116138241Y-85490879D01*
X116055095Y-85691117D01*
X116054906Y-85907932D01*
X116137702Y-86108314D01*
X116290879Y-86261759D01*
X116491117Y-86344905D01*
X116707932Y-86345094D01*
X116908314Y-86262298D01*
X117025817Y-86145000D01*
X117075675Y-86145000D01*
X114765674Y-88455000D01*
X112224326Y-88455000D01*
X113880505Y-86798820D01*
X114850000Y-86798820D01*
X114922263Y-86785223D01*
X114988631Y-86742516D01*
X115033156Y-86677352D01*
X115048820Y-86600000D01*
X115048820Y-85100000D01*
X115035223Y-85027737D01*
X114992516Y-84961369D01*
X114927352Y-84916844D01*
X114850000Y-84901180D01*
X113550000Y-84901180D01*
X113477737Y-84914777D01*
X113411369Y-84957484D01*
X113366844Y-85022648D01*
X113351180Y-85100000D01*
X113351180Y-85555000D01*
X113325676Y-85555000D01*
X113209121Y-85438241D01*
X113008883Y-85355095D01*
X112792068Y-85354906D01*
X112591686Y-85437702D01*
X112438241Y-85590879D01*
X112355095Y-85791117D01*
X112354906Y-86007932D01*
X112437702Y-86208314D01*
X112590879Y-86361759D01*
X112791117Y-86444905D01*
X112975609Y-86445066D01*
X111665674Y-87755000D01*
X109124326Y-87755000D01*
X110080505Y-86798820D01*
X111050000Y-86798820D01*
X111122263Y-86785223D01*
X111188631Y-86742516D01*
X111233156Y-86677352D01*
X111248820Y-86600000D01*
X111248820Y-85100000D01*
X111235223Y-85027737D01*
X111192516Y-84961369D01*
X111127352Y-84916844D01*
X111050000Y-84901180D01*
X109750000Y-84901180D01*
X109677737Y-84914777D01*
X109611369Y-84957484D01*
X109566844Y-85022648D01*
X109551180Y-85100000D01*
X109551180Y-86069495D01*
X108895000Y-86725674D01*
X108895000Y-86267799D01*
X108908314Y-86262298D01*
X109061759Y-86109121D01*
X109144905Y-85908883D01*
X109145094Y-85692068D01*
X109062298Y-85491686D01*
X108909121Y-85338241D01*
X108708883Y-85255095D01*
X108492068Y-85254906D01*
X108291686Y-85337702D01*
X108138241Y-85490879D01*
X108055095Y-85691117D01*
X108054906Y-85907932D01*
X108137702Y-86108314D01*
X108290879Y-86261759D01*
X108305000Y-86267623D01*
X108305000Y-87055000D01*
X106400005Y-87055000D01*
X106400000Y-87054999D01*
X106229706Y-87088874D01*
X106085337Y-87185337D01*
X106085335Y-87185340D01*
X105335337Y-87935337D01*
X105295000Y-87995706D01*
X105295000Y-87734326D01*
X106280505Y-86748820D01*
X107250000Y-86748820D01*
X107322263Y-86735223D01*
X107388631Y-86692516D01*
X107433156Y-86627352D01*
X107448820Y-86550000D01*
X107448820Y-85050000D01*
X107435223Y-84977737D01*
X107392516Y-84911369D01*
X107327352Y-84866844D01*
X107250000Y-84851180D01*
X105950000Y-84851180D01*
X105877737Y-84864777D01*
X105811369Y-84907484D01*
X105766844Y-84972648D01*
X105751180Y-85050000D01*
X105751180Y-86019495D01*
X104535337Y-87235337D01*
X104471350Y-87331102D01*
X104461126Y-87279706D01*
X104454562Y-87269882D01*
X104445039Y-87255629D01*
X104445094Y-87192068D01*
X104362298Y-86991686D01*
X104209121Y-86838241D01*
X104008883Y-86755095D01*
X103792068Y-86754906D01*
X103591686Y-86837702D01*
X103438241Y-86990879D01*
X103355095Y-87191117D01*
X103354906Y-87407932D01*
X103437702Y-87608314D01*
X103590879Y-87761759D01*
X103605000Y-87767623D01*
X103605000Y-87995706D01*
X103564663Y-87935337D01*
X103564660Y-87935335D01*
X103345073Y-87715748D01*
X103345094Y-87692068D01*
X103262298Y-87491686D01*
X103109121Y-87338241D01*
X102908883Y-87255095D01*
X102692068Y-87254906D01*
X102491686Y-87337702D01*
X102338241Y-87490879D01*
X102255095Y-87691117D01*
X102254906Y-87907932D01*
X102337702Y-88108314D01*
X102490879Y-88261759D01*
X102691117Y-88344905D01*
X102715601Y-88344926D01*
X102805000Y-88434325D01*
X102805000Y-88895706D01*
X102764663Y-88835337D01*
X102764660Y-88835335D01*
X102214663Y-88285337D01*
X102070294Y-88188874D01*
X101900000Y-88154999D01*
X101899995Y-88155000D01*
X96500005Y-88155000D01*
X96500000Y-88154999D01*
X96329706Y-88188874D01*
X96185337Y-88285337D01*
X96185335Y-88285340D01*
X94525337Y-89945337D01*
X94428874Y-90089706D01*
X94394999Y-90260000D01*
X94395000Y-90260005D01*
X94395000Y-91148395D01*
X94298611Y-91188222D01*
X94029168Y-91457195D01*
X93883166Y-91808806D01*
X93882834Y-92189524D01*
X93256835Y-92189524D01*
X93257166Y-91810476D01*
X93111778Y-91458611D01*
X92842805Y-91189168D01*
X92491194Y-91043166D01*
X92110476Y-91042834D01*
X91758611Y-91188222D01*
X91489168Y-91457195D01*
X91343166Y-91808806D01*
X91342834Y-92189524D01*
X91488222Y-92541389D01*
X91757195Y-92810832D01*
X91887837Y-92865079D01*
X91888874Y-92870294D01*
X91985337Y-93014663D01*
X92785335Y-93814660D01*
X92785337Y-93814663D01*
X92926705Y-93909121D01*
X92929706Y-93911126D01*
X93100000Y-93945001D01*
X93100005Y-93945000D01*
X97699995Y-93945000D01*
X97700000Y-93945001D01*
X97732048Y-93938626D01*
X97515674Y-94155000D01*
X92484325Y-94155000D01*
X90659234Y-92329909D01*
X90716834Y-92191194D01*
X90717166Y-91810476D01*
X90571778Y-91458611D01*
X90302805Y-91189168D01*
X89951194Y-91043166D01*
X89570476Y-91042834D01*
X89218611Y-91188222D01*
X88949168Y-91457195D01*
X88803166Y-91808806D01*
X88802834Y-92189524D01*
X86088000Y-92189524D01*
X85843084Y-89558750D01*
X85824109Y-89494975D01*
X85811126Y-89429706D01*
X85799524Y-89412343D01*
X85793570Y-89392330D01*
X85751634Y-89340669D01*
X85714663Y-89285338D01*
X85344418Y-88915092D01*
X85370118Y-88889437D01*
X85544801Y-88468754D01*
X85545198Y-88013245D01*
X85371250Y-87592257D01*
X85049437Y-87269882D01*
X84628754Y-87095199D01*
X84173245Y-87094802D01*
X83752257Y-87268750D01*
X83429882Y-87590563D01*
X83255199Y-88011246D01*
X83254802Y-88466755D01*
X83428750Y-88887743D01*
X83750563Y-89210118D01*
X84171246Y-89384801D01*
X84555811Y-89385136D01*
X84971800Y-89801125D01*
X85281916Y-93132250D01*
X85296733Y-93182050D01*
X85303457Y-93233569D01*
X85321258Y-93264481D01*
X85331430Y-93298671D01*
X85364175Y-93339009D01*
X85390103Y-93384035D01*
X87168103Y-95416035D01*
X87179999Y-95425184D01*
X87188337Y-95437663D01*
X88443355Y-96692680D01*
X89050970Y-97428503D01*
X88070022Y-96457705D01*
X88041736Y-96439017D01*
X88018737Y-96414113D01*
X86621736Y-95398112D01*
X86596685Y-95386549D01*
X86575621Y-95368728D01*
X84944891Y-94465457D01*
X84945198Y-94113245D01*
X84771250Y-93692257D01*
X84449437Y-93369882D01*
X84028754Y-93195199D01*
X83573245Y-93194802D01*
X83152257Y-93368750D01*
X82829882Y-93690563D01*
X82655199Y-94111246D01*
X82654802Y-94566755D01*
X82828750Y-94987743D01*
X83150563Y-95310118D01*
X83571246Y-95484801D01*
X84026755Y-95485198D01*
X84447743Y-95311250D01*
X84514589Y-95244521D01*
X86120414Y-96133997D01*
X87467966Y-97114035D01*
X89086012Y-98715338D01*
X94385335Y-104014660D01*
X94385337Y-104014663D01*
X94529706Y-104111126D01*
X94700000Y-104145001D01*
X94700005Y-104145000D01*
X104799995Y-104145000D01*
X104800000Y-104145001D01*
X104970294Y-104111126D01*
X105114663Y-104014663D01*
X105164660Y-103964665D01*
X105164663Y-103964663D01*
X105205000Y-103904294D01*
X105205000Y-104324237D01*
X105138241Y-104390879D01*
X105055095Y-104591117D01*
X105054906Y-104807932D01*
X105137702Y-105008314D01*
X105290879Y-105161759D01*
X105395015Y-105205000D01*
X104448820Y-105205000D01*
X104448820Y-104900000D01*
X104435223Y-104827737D01*
X104392516Y-104761369D01*
X104327352Y-104716844D01*
X104250000Y-104701180D01*
X102950000Y-104701180D01*
X102877737Y-104714777D01*
X102811369Y-104757484D01*
X102766844Y-104822648D01*
X102751180Y-104900000D01*
X102751180Y-105205000D01*
X100648820Y-105205000D01*
X100648820Y-104900000D01*
X100635223Y-104827737D01*
X100592516Y-104761369D01*
X100527352Y-104716844D01*
X100450000Y-104701180D01*
X99150000Y-104701180D01*
X99077737Y-104714777D01*
X99011369Y-104757484D01*
X98966844Y-104822648D01*
X98951180Y-104900000D01*
X98951180Y-105205000D01*
X96848820Y-105205000D01*
X96848820Y-104900000D01*
X96835223Y-104827737D01*
X96792516Y-104761369D01*
X96727352Y-104716844D01*
X96650000Y-104701180D01*
X95350000Y-104701180D01*
X95277737Y-104714777D01*
X95211369Y-104757484D01*
X95166844Y-104822648D01*
X95151180Y-104900000D01*
X95151180Y-105205000D01*
X94309118Y-105205000D01*
X94262298Y-105091686D01*
X94109121Y-104938241D01*
X93908883Y-104855095D01*
X93692068Y-104854906D01*
X93491686Y-104937702D01*
X93338241Y-105090879D01*
X93255095Y-105291117D01*
X93254906Y-105507932D01*
X93337702Y-105708314D01*
X93490879Y-105861759D01*
X93691117Y-105944905D01*
X93715601Y-105944926D01*
X93735335Y-105964660D01*
X93735337Y-105964663D01*
X93874342Y-106057542D01*
X93879706Y-106061126D01*
X94050000Y-106095000D01*
X95151180Y-106095000D01*
X95151180Y-106400000D01*
X95164777Y-106472263D01*
X95207484Y-106538631D01*
X95272648Y-106583156D01*
X95350000Y-106598820D01*
X96650000Y-106598820D01*
X96722263Y-106585223D01*
X96788631Y-106542516D01*
X96833156Y-106477352D01*
X96848820Y-106400000D01*
X96848820Y-106095000D01*
X98951180Y-106095000D01*
X98951180Y-106400000D01*
X98964777Y-106472263D01*
X99007484Y-106538631D01*
X99072648Y-106583156D01*
X99150000Y-106598820D01*
X100450000Y-106598820D01*
X100522263Y-106585223D01*
X100588631Y-106542516D01*
X100633156Y-106477352D01*
X100648820Y-106400000D01*
X100648820Y-106095000D01*
X102751180Y-106095000D01*
X102751180Y-106400000D01*
X102764777Y-106472263D01*
X102807484Y-106538631D01*
X102872648Y-106583156D01*
X102950000Y-106598820D01*
X104250000Y-106598820D01*
X104322263Y-106585223D01*
X104388631Y-106542516D01*
X104433156Y-106477352D01*
X104448820Y-106400000D01*
X104448820Y-106095000D01*
X106465674Y-106095000D01*
X108455000Y-108084325D01*
X108455000Y-110374149D01*
X108438241Y-110390879D01*
X108355095Y-110591117D01*
X108354906Y-110807932D01*
X108437702Y-111008314D01*
X108590879Y-111161759D01*
X108791117Y-111244905D01*
X109007932Y-111245094D01*
X109208314Y-111162298D01*
X109361759Y-111009121D01*
X109444905Y-110808883D01*
X109445094Y-110592068D01*
X109362298Y-110391686D01*
X109345000Y-110374358D01*
X109345000Y-107900005D01*
X109345001Y-107900000D01*
X109311126Y-107729706D01*
X109262676Y-107657195D01*
X109214663Y-107585337D01*
X109214660Y-107585335D01*
X106964663Y-105335337D01*
X106820294Y-105238874D01*
X106650000Y-105204999D01*
X106649995Y-105205000D01*
X105804967Y-105205000D01*
X105908314Y-105162298D01*
X106061759Y-105009121D01*
X106144905Y-104808883D01*
X106145094Y-104592068D01*
X106095000Y-104470831D01*
X106095000Y-101331347D01*
X106097648Y-101333156D01*
X106175000Y-101348820D01*
X106725000Y-101348820D01*
X106797263Y-101335223D01*
X106805000Y-101330244D01*
X106805000Y-101949995D01*
X106804999Y-101950000D01*
X106838874Y-102120294D01*
X106935337Y-102264663D01*
X107085335Y-102414660D01*
X107085337Y-102414663D01*
X107220536Y-102504999D01*
X107229706Y-102511126D01*
X107400000Y-102545001D01*
X107400005Y-102545000D01*
X109515674Y-102545000D01*
X112855000Y-105884325D01*
X112855000Y-107774149D01*
X112838241Y-107790879D01*
X112755095Y-107991117D01*
X112754906Y-108207932D01*
X112837702Y-108408314D01*
X112990879Y-108561759D01*
X113191117Y-108644905D01*
X113407932Y-108645094D01*
X113608314Y-108562298D01*
X113761759Y-108409121D01*
X113844905Y-108208883D01*
X113845094Y-107992068D01*
X113762298Y-107791686D01*
X113745000Y-107774358D01*
X113745000Y-105700005D01*
X113745001Y-105700000D01*
X113711126Y-105529706D01*
X113696577Y-105507932D01*
X113614663Y-105385337D01*
X113614660Y-105385335D01*
X110014663Y-101785337D01*
X109870294Y-101688874D01*
X109700000Y-101654999D01*
X109699995Y-101655000D01*
X107695000Y-101655000D01*
X107695000Y-101331347D01*
X107697648Y-101333156D01*
X107775000Y-101348820D01*
X108325000Y-101348820D01*
X108397263Y-101335223D01*
X108463631Y-101292516D01*
X108508156Y-101227352D01*
X108523820Y-101150000D01*
X108523820Y-100395000D01*
X109365674Y-100395000D01*
X114055000Y-105084325D01*
X114055000Y-112499995D01*
X114054999Y-112500000D01*
X114088874Y-112670294D01*
X114185337Y-112814663D01*
X114385335Y-113014660D01*
X114385337Y-113014663D01*
X114415774Y-113035000D01*
X75765000Y-113035000D01*
X75765000Y-107884399D01*
X86782888Y-107884399D01*
X86860588Y-108101621D01*
X87369101Y-108254846D01*
X87897542Y-108201807D01*
X88139412Y-108101621D01*
X88217112Y-107884399D01*
X87500000Y-107167286D01*
X86782888Y-107884399D01*
X75765000Y-107884399D01*
X75765000Y-106769101D01*
X86145154Y-106769101D01*
X86198193Y-107297542D01*
X86298379Y-107539412D01*
X86515601Y-107617112D01*
X87232714Y-106900000D01*
X87767286Y-106900000D01*
X88484399Y-107617112D01*
X88701621Y-107539412D01*
X88837181Y-107089524D01*
X89082834Y-107089524D01*
X89228222Y-107441389D01*
X89497195Y-107710832D01*
X89848806Y-107856834D01*
X90229524Y-107857166D01*
X90581389Y-107711778D01*
X90693362Y-107600000D01*
X95151180Y-107600000D01*
X95151180Y-109100000D01*
X95164777Y-109172263D01*
X95207484Y-109238631D01*
X95272648Y-109283156D01*
X95350000Y-109298820D01*
X96650000Y-109298820D01*
X96722263Y-109285223D01*
X96788631Y-109242516D01*
X96833156Y-109177352D01*
X96848820Y-109100000D01*
X96848820Y-108795000D01*
X97570932Y-108795000D01*
X97691117Y-108844905D01*
X97907932Y-108845094D01*
X98108314Y-108762298D01*
X98261759Y-108609121D01*
X98344905Y-108408883D01*
X98345094Y-108192068D01*
X98262298Y-107991686D01*
X98109121Y-107838241D01*
X97908883Y-107755095D01*
X97692068Y-107754906D01*
X97491686Y-107837702D01*
X97424270Y-107905000D01*
X96848820Y-107905000D01*
X96848820Y-107600000D01*
X98951180Y-107600000D01*
X98951180Y-109100000D01*
X98964777Y-109172263D01*
X99007484Y-109238631D01*
X99072648Y-109283156D01*
X99150000Y-109298820D01*
X100450000Y-109298820D01*
X100522263Y-109285223D01*
X100588631Y-109242516D01*
X100633156Y-109177352D01*
X100648820Y-109100000D01*
X100648820Y-108795000D01*
X101470932Y-108795000D01*
X101591117Y-108844905D01*
X101807932Y-108845094D01*
X102008314Y-108762298D01*
X102161759Y-108609121D01*
X102244905Y-108408883D01*
X102245094Y-108192068D01*
X102162298Y-107991686D01*
X102009121Y-107838241D01*
X101808883Y-107755095D01*
X101592068Y-107754906D01*
X101391686Y-107837702D01*
X101324270Y-107905000D01*
X100648820Y-107905000D01*
X100648820Y-107600000D01*
X102751180Y-107600000D01*
X102751180Y-109100000D01*
X102764777Y-109172263D01*
X102807484Y-109238631D01*
X102872648Y-109283156D01*
X102950000Y-109298820D01*
X104250000Y-109298820D01*
X104322263Y-109285223D01*
X104388631Y-109242516D01*
X104433156Y-109177352D01*
X104448820Y-109100000D01*
X104448820Y-108795000D01*
X105370932Y-108795000D01*
X105491117Y-108844905D01*
X105707932Y-108845094D01*
X105908314Y-108762298D01*
X106061759Y-108609121D01*
X106144905Y-108408883D01*
X106145094Y-108192068D01*
X106062298Y-107991686D01*
X105909121Y-107838241D01*
X105708883Y-107755095D01*
X105492068Y-107754906D01*
X105291686Y-107837702D01*
X105224270Y-107905000D01*
X104448820Y-107905000D01*
X104448820Y-107600000D01*
X104435223Y-107527737D01*
X104392516Y-107461369D01*
X104327352Y-107416844D01*
X104250000Y-107401180D01*
X102950000Y-107401180D01*
X102877737Y-107414777D01*
X102811369Y-107457484D01*
X102766844Y-107522648D01*
X102751180Y-107600000D01*
X100648820Y-107600000D01*
X100635223Y-107527737D01*
X100592516Y-107461369D01*
X100527352Y-107416844D01*
X100450000Y-107401180D01*
X99150000Y-107401180D01*
X99077737Y-107414777D01*
X99011369Y-107457484D01*
X98966844Y-107522648D01*
X98951180Y-107600000D01*
X96848820Y-107600000D01*
X96835223Y-107527737D01*
X96792516Y-107461369D01*
X96727352Y-107416844D01*
X96650000Y-107401180D01*
X95350000Y-107401180D01*
X95277737Y-107414777D01*
X95211369Y-107457484D01*
X95166844Y-107522648D01*
X95151180Y-107600000D01*
X90693362Y-107600000D01*
X90850832Y-107442805D01*
X90996834Y-107091194D01*
X90997166Y-106710476D01*
X90851778Y-106358611D01*
X90582805Y-106089168D01*
X90231194Y-105943166D01*
X89850476Y-105942834D01*
X89498611Y-106088222D01*
X89229168Y-106357195D01*
X89083166Y-106708806D01*
X89082834Y-107089524D01*
X88837181Y-107089524D01*
X88854846Y-107030899D01*
X88801807Y-106502458D01*
X88701621Y-106260588D01*
X88484399Y-106182888D01*
X87767286Y-106900000D01*
X87232714Y-106900000D01*
X86515601Y-106182888D01*
X86298379Y-106260588D01*
X86145154Y-106769101D01*
X75765000Y-106769101D01*
X75765000Y-105915601D01*
X86782888Y-105915601D01*
X87500000Y-106632714D01*
X88217112Y-105915601D01*
X88139412Y-105698379D01*
X87630899Y-105545154D01*
X87102458Y-105598193D01*
X86860588Y-105698379D01*
X86782888Y-105915601D01*
X75765000Y-105915601D01*
X75765000Y-100484399D01*
X81282888Y-100484399D01*
X81360588Y-100701621D01*
X81869101Y-100854846D01*
X82397542Y-100801807D01*
X82639412Y-100701621D01*
X82717112Y-100484399D01*
X82000000Y-99767286D01*
X81282888Y-100484399D01*
X75765000Y-100484399D01*
X75765000Y-99369101D01*
X80645154Y-99369101D01*
X80698193Y-99897542D01*
X80798379Y-100139412D01*
X81015601Y-100217112D01*
X81732714Y-99500000D01*
X82267286Y-99500000D01*
X82984399Y-100217112D01*
X83201621Y-100139412D01*
X83337181Y-99689524D01*
X83582834Y-99689524D01*
X83728222Y-100041389D01*
X83997195Y-100310832D01*
X84348806Y-100456834D01*
X84729524Y-100457166D01*
X85081389Y-100311778D01*
X85350832Y-100042805D01*
X85496834Y-99691194D01*
X85497166Y-99310476D01*
X85351778Y-98958611D01*
X85082805Y-98689168D01*
X84731194Y-98543166D01*
X84350476Y-98542834D01*
X83998611Y-98688222D01*
X83729168Y-98957195D01*
X83583166Y-99308806D01*
X83582834Y-99689524D01*
X83337181Y-99689524D01*
X83354846Y-99630899D01*
X83301807Y-99102458D01*
X83201621Y-98860588D01*
X82984399Y-98782888D01*
X82267286Y-99500000D01*
X81732714Y-99500000D01*
X81015601Y-98782888D01*
X80798379Y-98860588D01*
X80645154Y-99369101D01*
X75765000Y-99369101D01*
X75765000Y-98515601D01*
X81282888Y-98515601D01*
X82000000Y-99232714D01*
X82717112Y-98515601D01*
X82639412Y-98298379D01*
X82130899Y-98145154D01*
X81602458Y-98198193D01*
X81360588Y-98298379D01*
X81282888Y-98515601D01*
X75765000Y-98515601D01*
X75765000Y-90600000D01*
X77551180Y-90600000D01*
X77551180Y-92100000D01*
X77564777Y-92172263D01*
X77607484Y-92238631D01*
X77672648Y-92283156D01*
X77750000Y-92298820D01*
X79050000Y-92298820D01*
X79122263Y-92285223D01*
X79188631Y-92242516D01*
X79233156Y-92177352D01*
X79248820Y-92100000D01*
X79248820Y-91795000D01*
X82601180Y-91795000D01*
X82601180Y-92750000D01*
X82614777Y-92822263D01*
X82657484Y-92888631D01*
X82722648Y-92933156D01*
X82800000Y-92948820D01*
X84800000Y-92948820D01*
X84872263Y-92935223D01*
X84938631Y-92892516D01*
X84983156Y-92827352D01*
X84998820Y-92750000D01*
X84998820Y-90850000D01*
X84985223Y-90777737D01*
X84942516Y-90711369D01*
X84877352Y-90666844D01*
X84800000Y-90651180D01*
X82800000Y-90651180D01*
X82727737Y-90664777D01*
X82661369Y-90707484D01*
X82616844Y-90772648D01*
X82601180Y-90850000D01*
X82601180Y-90905000D01*
X79248820Y-90905000D01*
X79248820Y-90600000D01*
X79235223Y-90527737D01*
X79192516Y-90461369D01*
X79127352Y-90416844D01*
X79050000Y-90401180D01*
X77750000Y-90401180D01*
X77677737Y-90414777D01*
X77611369Y-90457484D01*
X77566844Y-90522648D01*
X77551180Y-90600000D01*
X75765000Y-90600000D01*
X75765000Y-88982250D01*
X77177000Y-88982250D01*
X77177000Y-89513977D01*
X77264234Y-89724579D01*
X77425422Y-89885766D01*
X77636023Y-89973000D01*
X78067750Y-89973000D01*
X78211000Y-89829750D01*
X78211000Y-88839000D01*
X78589000Y-88839000D01*
X78589000Y-89829750D01*
X78732250Y-89973000D01*
X79163977Y-89973000D01*
X79374578Y-89885766D01*
X79535766Y-89724579D01*
X79623000Y-89513977D01*
X79623000Y-88982250D01*
X79479750Y-88839000D01*
X78589000Y-88839000D01*
X78211000Y-88839000D01*
X77320250Y-88839000D01*
X77177000Y-88982250D01*
X75765000Y-88982250D01*
X75765000Y-87786023D01*
X77177000Y-87786023D01*
X77177000Y-88317750D01*
X77320250Y-88461000D01*
X78211000Y-88461000D01*
X78211000Y-87470250D01*
X78589000Y-87470250D01*
X78589000Y-88461000D01*
X79479750Y-88461000D01*
X79623000Y-88317750D01*
X79623000Y-87786023D01*
X79535766Y-87575421D01*
X79374578Y-87414234D01*
X79163977Y-87327000D01*
X78732250Y-87327000D01*
X78589000Y-87470250D01*
X78211000Y-87470250D01*
X78067750Y-87327000D01*
X77636023Y-87327000D01*
X77425422Y-87414234D01*
X77264234Y-87575421D01*
X77177000Y-87786023D01*
X75765000Y-87786023D01*
X75765000Y-84900000D01*
X77551180Y-84900000D01*
X77551180Y-86400000D01*
X77564777Y-86472263D01*
X77607484Y-86538631D01*
X77672648Y-86583156D01*
X77750000Y-86598820D01*
X79050000Y-86598820D01*
X79122263Y-86585223D01*
X79188631Y-86542516D01*
X79233156Y-86477352D01*
X79248820Y-86400000D01*
X79248820Y-86145000D01*
X83201180Y-86145000D01*
X83201180Y-86650000D01*
X83214777Y-86722263D01*
X83257484Y-86788631D01*
X83322648Y-86833156D01*
X83400000Y-86848820D01*
X85400000Y-86848820D01*
X85472263Y-86835223D01*
X85476883Y-86832250D01*
X88127000Y-86832250D01*
X88127000Y-87413977D01*
X88214234Y-87624578D01*
X88375421Y-87785766D01*
X88586023Y-87873000D01*
X89367750Y-87873000D01*
X89511000Y-87729750D01*
X89511000Y-86689000D01*
X89889000Y-86689000D01*
X89889000Y-87729750D01*
X90032250Y-87873000D01*
X90813977Y-87873000D01*
X91024579Y-87785766D01*
X91185766Y-87624578D01*
X91273000Y-87413977D01*
X91273000Y-86832250D01*
X91129750Y-86689000D01*
X89889000Y-86689000D01*
X89511000Y-86689000D01*
X88270250Y-86689000D01*
X88127000Y-86832250D01*
X85476883Y-86832250D01*
X85538631Y-86792516D01*
X85583156Y-86727352D01*
X85598820Y-86650000D01*
X85598820Y-85586023D01*
X88127000Y-85586023D01*
X88127000Y-86167750D01*
X88270250Y-86311000D01*
X89511000Y-86311000D01*
X89511000Y-85270250D01*
X89889000Y-85270250D01*
X89889000Y-86311000D01*
X91129750Y-86311000D01*
X91273000Y-86167750D01*
X91273000Y-85700000D01*
X92501180Y-85700000D01*
X92501180Y-87300000D01*
X92514777Y-87372263D01*
X92557484Y-87438631D01*
X92622648Y-87483156D01*
X92700000Y-87498820D01*
X94700000Y-87498820D01*
X94772263Y-87485223D01*
X94838631Y-87442516D01*
X94883156Y-87377352D01*
X94898820Y-87300000D01*
X94898820Y-86945000D01*
X96115674Y-86945000D01*
X96554927Y-87384252D01*
X96554906Y-87407932D01*
X96637702Y-87608314D01*
X96790879Y-87761759D01*
X96991117Y-87844905D01*
X97207932Y-87845094D01*
X97408314Y-87762298D01*
X97561759Y-87609121D01*
X97644905Y-87408883D01*
X97645094Y-87192068D01*
X97562298Y-86991686D01*
X97409121Y-86838241D01*
X97208883Y-86755095D01*
X97184399Y-86755074D01*
X96614663Y-86185337D01*
X96470294Y-86088874D01*
X96300000Y-86054999D01*
X96299995Y-86055000D01*
X94898820Y-86055000D01*
X94898820Y-85700000D01*
X94885223Y-85627737D01*
X94842516Y-85561369D01*
X94777352Y-85516844D01*
X94700000Y-85501180D01*
X94145000Y-85501180D01*
X94145000Y-85045000D01*
X98901080Y-85045000D01*
X98901080Y-85499510D01*
X98914677Y-85571773D01*
X98957384Y-85638141D01*
X99022548Y-85682666D01*
X99099900Y-85698330D01*
X100700100Y-85698330D01*
X100772363Y-85684733D01*
X100838731Y-85642026D01*
X100883256Y-85576862D01*
X100898920Y-85499510D01*
X100898920Y-84444640D01*
X103400355Y-84444640D01*
X103400360Y-84444641D01*
X103570654Y-84410766D01*
X103715023Y-84314303D01*
X104484325Y-83545000D01*
X104699995Y-83545000D01*
X104700000Y-83545001D01*
X104700005Y-83545000D01*
X105751180Y-83545000D01*
X105751180Y-83850000D01*
X105764777Y-83922263D01*
X105807484Y-83988631D01*
X105872648Y-84033156D01*
X105950000Y-84048820D01*
X107250000Y-84048820D01*
X107322263Y-84035223D01*
X107388631Y-83992516D01*
X107433156Y-83927352D01*
X107448820Y-83850000D01*
X107448820Y-83545000D01*
X109551180Y-83545000D01*
X109551180Y-83900000D01*
X109564777Y-83972263D01*
X109607484Y-84038631D01*
X109672648Y-84083156D01*
X109750000Y-84098820D01*
X111050000Y-84098820D01*
X111122263Y-84085223D01*
X111188631Y-84042516D01*
X111233156Y-83977352D01*
X111248820Y-83900000D01*
X111248820Y-83595000D01*
X113351180Y-83595000D01*
X113351180Y-83900000D01*
X113364777Y-83972263D01*
X113407484Y-84038631D01*
X113472648Y-84083156D01*
X113550000Y-84098820D01*
X114850000Y-84098820D01*
X114922263Y-84085223D01*
X114988631Y-84042516D01*
X115033156Y-83977352D01*
X115048820Y-83900000D01*
X115048820Y-83595000D01*
X117151180Y-83595000D01*
X117151180Y-83900000D01*
X117164777Y-83972263D01*
X117207484Y-84038631D01*
X117272648Y-84083156D01*
X117350000Y-84098820D01*
X118650000Y-84098820D01*
X118722263Y-84085223D01*
X118788631Y-84042516D01*
X118833156Y-83977352D01*
X118848820Y-83900000D01*
X118848820Y-83595000D01*
X119305000Y-83595000D01*
X119305000Y-88976180D01*
X119000000Y-88976180D01*
X118927737Y-88989777D01*
X118861369Y-89032484D01*
X118816844Y-89097648D01*
X118801180Y-89175000D01*
X118801180Y-90425000D01*
X118814777Y-90497263D01*
X118857484Y-90563631D01*
X118922648Y-90608156D01*
X119000000Y-90623820D01*
X120500000Y-90623820D01*
X120572263Y-90610223D01*
X120638631Y-90567516D01*
X120683156Y-90502352D01*
X120698820Y-90425000D01*
X120698820Y-90245000D01*
X122055000Y-90245000D01*
X122055000Y-92871180D01*
X121500000Y-92871180D01*
X121427737Y-92884777D01*
X121361369Y-92927484D01*
X121345984Y-92950000D01*
X119105005Y-92950000D01*
X119105000Y-92949999D01*
X118934706Y-92983874D01*
X118790337Y-93080337D01*
X118790335Y-93080340D01*
X118315748Y-93554927D01*
X118292068Y-93554906D01*
X118091686Y-93637702D01*
X117938241Y-93790879D01*
X117855095Y-93991117D01*
X117854906Y-94207932D01*
X117937702Y-94408314D01*
X118090879Y-94561759D01*
X118291117Y-94644905D01*
X118507932Y-94645094D01*
X118708314Y-94562298D01*
X118861759Y-94409121D01*
X118890460Y-94340000D01*
X121301180Y-94340000D01*
X121301180Y-94990000D01*
X121314777Y-95062263D01*
X121357484Y-95128631D01*
X121422648Y-95173156D01*
X121500000Y-95188820D01*
X123500000Y-95188820D01*
X123572263Y-95175223D01*
X123638631Y-95132516D01*
X123683156Y-95067352D01*
X123698820Y-94990000D01*
X123698820Y-94340000D01*
X123685223Y-94267737D01*
X123642516Y-94201369D01*
X123577352Y-94156844D01*
X123500000Y-94141180D01*
X121500000Y-94141180D01*
X121427737Y-94154777D01*
X121361369Y-94197484D01*
X121316844Y-94262648D01*
X121301180Y-94340000D01*
X118890460Y-94340000D01*
X118944905Y-94208883D01*
X118944926Y-94184399D01*
X119289325Y-93840000D01*
X121345495Y-93840000D01*
X121357484Y-93858631D01*
X121422648Y-93903156D01*
X121500000Y-93918820D01*
X123500000Y-93918820D01*
X123572263Y-93905223D01*
X123638631Y-93862516D01*
X123683156Y-93797352D01*
X123698820Y-93720000D01*
X123698820Y-93070000D01*
X123685223Y-92997737D01*
X123642516Y-92931369D01*
X123577352Y-92886844D01*
X123500000Y-92871180D01*
X122945000Y-92871180D01*
X122945000Y-89800000D01*
X122911126Y-89629706D01*
X122814663Y-89485337D01*
X122670294Y-89388874D01*
X122500000Y-89355000D01*
X120698820Y-89355000D01*
X120698820Y-89175000D01*
X120685223Y-89102737D01*
X120642516Y-89036369D01*
X120577352Y-88991844D01*
X120500000Y-88976180D01*
X120195000Y-88976180D01*
X120195000Y-83150000D01*
X120161126Y-82979706D01*
X120064663Y-82835337D01*
X119920294Y-82738874D01*
X119750000Y-82705000D01*
X118848820Y-82705000D01*
X118848820Y-82400000D01*
X118835223Y-82327737D01*
X118792516Y-82261369D01*
X118727352Y-82216844D01*
X118650000Y-82201180D01*
X117350000Y-82201180D01*
X117277737Y-82214777D01*
X117211369Y-82257484D01*
X117166844Y-82322648D01*
X117151180Y-82400000D01*
X117151180Y-82705000D01*
X115048820Y-82705000D01*
X115048820Y-82400000D01*
X115035223Y-82327737D01*
X114992516Y-82261369D01*
X114927352Y-82216844D01*
X114850000Y-82201180D01*
X113550000Y-82201180D01*
X113477737Y-82214777D01*
X113411369Y-82257484D01*
X113366844Y-82322648D01*
X113351180Y-82400000D01*
X113351180Y-82705000D01*
X111248820Y-82705000D01*
X111248820Y-82400000D01*
X111235223Y-82327737D01*
X111192516Y-82261369D01*
X111127352Y-82216844D01*
X111050000Y-82201180D01*
X109750000Y-82201180D01*
X109677737Y-82214777D01*
X109611369Y-82257484D01*
X109566844Y-82322648D01*
X109551180Y-82400000D01*
X109551180Y-82655000D01*
X107448820Y-82655000D01*
X107448820Y-82350000D01*
X107435223Y-82277737D01*
X107392516Y-82211369D01*
X107327352Y-82166844D01*
X107250000Y-82151180D01*
X105950000Y-82151180D01*
X105877737Y-82164777D01*
X105811369Y-82207484D01*
X105766844Y-82272648D01*
X105751180Y-82350000D01*
X105751180Y-82655000D01*
X105145000Y-82655000D01*
X105145000Y-82325851D01*
X105161759Y-82309121D01*
X105244905Y-82108883D01*
X105245094Y-81892068D01*
X105162298Y-81691686D01*
X105009121Y-81538241D01*
X104808883Y-81455095D01*
X104592068Y-81454906D01*
X104391686Y-81537702D01*
X104238241Y-81690879D01*
X104155095Y-81891117D01*
X104154906Y-82107932D01*
X104237702Y-82308314D01*
X104255000Y-82325642D01*
X104255000Y-82663950D01*
X104147487Y-82685337D01*
X104129706Y-82688874D01*
X103985337Y-82785337D01*
X103985335Y-82785340D01*
X103216034Y-83554640D01*
X100898920Y-83554640D01*
X100898920Y-82499770D01*
X100885323Y-82427507D01*
X100842616Y-82361139D01*
X100777452Y-82316614D01*
X100700100Y-82300950D01*
X99099900Y-82300950D01*
X99027637Y-82314547D01*
X98961269Y-82357254D01*
X98916744Y-82422418D01*
X98901080Y-82499770D01*
X98901080Y-84155000D01*
X94145000Y-84155000D01*
X94145000Y-83714326D01*
X94255505Y-83603820D01*
X95125000Y-83603820D01*
X95197263Y-83590223D01*
X95263631Y-83547516D01*
X95308156Y-83482352D01*
X95323820Y-83405000D01*
X95323820Y-82805000D01*
X95310223Y-82732737D01*
X95282661Y-82689905D01*
X95449579Y-82620766D01*
X95610766Y-82459578D01*
X95698000Y-82248977D01*
X95698000Y-82128250D01*
X95554750Y-81985000D01*
X94314000Y-81985000D01*
X94314000Y-82044000D01*
X93936000Y-82044000D01*
X93936000Y-81985000D01*
X92695250Y-81985000D01*
X92552000Y-82128250D01*
X92552000Y-82248977D01*
X92639234Y-82459578D01*
X92800421Y-82620766D01*
X92967568Y-82690000D01*
X92941844Y-82727648D01*
X92926180Y-82805000D01*
X92926180Y-83405000D01*
X92939777Y-83477263D01*
X92982484Y-83543631D01*
X93047648Y-83588156D01*
X93125000Y-83603820D01*
X93255000Y-83603820D01*
X93255000Y-85501180D01*
X92700000Y-85501180D01*
X92627737Y-85514777D01*
X92561369Y-85557484D01*
X92516844Y-85622648D01*
X92501180Y-85700000D01*
X91273000Y-85700000D01*
X91273000Y-85586023D01*
X91185766Y-85375422D01*
X91024579Y-85214234D01*
X90813977Y-85127000D01*
X90032250Y-85127000D01*
X89889000Y-85270250D01*
X89511000Y-85270250D01*
X89367750Y-85127000D01*
X88586023Y-85127000D01*
X88375421Y-85214234D01*
X88214234Y-85375422D01*
X88127000Y-85586023D01*
X85598820Y-85586023D01*
X85598820Y-84750000D01*
X85585223Y-84677737D01*
X85542516Y-84611369D01*
X85477352Y-84566844D01*
X85400000Y-84551180D01*
X83400000Y-84551180D01*
X83327737Y-84564777D01*
X83261369Y-84607484D01*
X83216844Y-84672648D01*
X83201180Y-84750000D01*
X83201180Y-85255000D01*
X79248820Y-85255000D01*
X79248820Y-84900000D01*
X79235223Y-84827737D01*
X79192516Y-84761369D01*
X79127352Y-84716844D01*
X79050000Y-84701180D01*
X77750000Y-84701180D01*
X77677737Y-84714777D01*
X77611369Y-84757484D01*
X77566844Y-84822648D01*
X77551180Y-84900000D01*
X75765000Y-84900000D01*
X75765000Y-83282250D01*
X77177000Y-83282250D01*
X77177000Y-83813977D01*
X77264234Y-84024579D01*
X77425422Y-84185766D01*
X77636023Y-84273000D01*
X78067750Y-84273000D01*
X78211000Y-84129750D01*
X78211000Y-83139000D01*
X78589000Y-83139000D01*
X78589000Y-84129750D01*
X78732250Y-84273000D01*
X79163977Y-84273000D01*
X79374578Y-84185766D01*
X79535766Y-84024579D01*
X79623000Y-83813977D01*
X79623000Y-83282250D01*
X79479750Y-83139000D01*
X78589000Y-83139000D01*
X78211000Y-83139000D01*
X77320250Y-83139000D01*
X77177000Y-83282250D01*
X75765000Y-83282250D01*
X75765000Y-82086023D01*
X77177000Y-82086023D01*
X77177000Y-82617750D01*
X77320250Y-82761000D01*
X78211000Y-82761000D01*
X78211000Y-81770250D01*
X78589000Y-81770250D01*
X78589000Y-82761000D01*
X79479750Y-82761000D01*
X79623000Y-82617750D01*
X79623000Y-82582250D01*
X82602000Y-82582250D01*
X82602000Y-83113977D01*
X82689234Y-83324579D01*
X82850422Y-83485766D01*
X83061023Y-83573000D01*
X83467750Y-83573000D01*
X83611000Y-83429750D01*
X83611000Y-82439000D01*
X83989000Y-82439000D01*
X83989000Y-83429750D01*
X84132250Y-83573000D01*
X84538977Y-83573000D01*
X84749578Y-83485766D01*
X84910766Y-83324579D01*
X84998000Y-83113977D01*
X84998000Y-82582250D01*
X84854750Y-82439000D01*
X83989000Y-82439000D01*
X83611000Y-82439000D01*
X82745250Y-82439000D01*
X82602000Y-82582250D01*
X79623000Y-82582250D01*
X79623000Y-82086023D01*
X79535766Y-81875421D01*
X79374578Y-81714234D01*
X79163977Y-81627000D01*
X78732250Y-81627000D01*
X78589000Y-81770250D01*
X78211000Y-81770250D01*
X78067750Y-81627000D01*
X77636023Y-81627000D01*
X77425422Y-81714234D01*
X77264234Y-81875421D01*
X77177000Y-82086023D01*
X75765000Y-82086023D01*
X75765000Y-81386023D01*
X82602000Y-81386023D01*
X82602000Y-81917750D01*
X82745250Y-82061000D01*
X83611000Y-82061000D01*
X83611000Y-81070250D01*
X83989000Y-81070250D01*
X83989000Y-82061000D01*
X84854750Y-82061000D01*
X84998000Y-81917750D01*
X84998000Y-81386023D01*
X84910766Y-81175421D01*
X84749578Y-81014234D01*
X84538977Y-80927000D01*
X84132250Y-80927000D01*
X83989000Y-81070250D01*
X83611000Y-81070250D01*
X83467750Y-80927000D01*
X83061023Y-80927000D01*
X82850422Y-81014234D01*
X82689234Y-81175421D01*
X82602000Y-81386023D01*
X75765000Y-81386023D01*
X75765000Y-79507932D01*
X81154906Y-79507932D01*
X81237702Y-79708314D01*
X81390879Y-79861759D01*
X81591117Y-79944905D01*
X81615601Y-79944926D01*
X81735335Y-80064660D01*
X81735337Y-80064663D01*
X81864586Y-80151023D01*
X81879706Y-80161126D01*
X82050000Y-80195001D01*
X82050005Y-80195000D01*
X82976180Y-80195000D01*
X82976180Y-80500000D01*
X82989777Y-80572263D01*
X83032484Y-80638631D01*
X83097648Y-80683156D01*
X83175000Y-80698820D01*
X84425000Y-80698820D01*
X84497263Y-80685223D01*
X84532940Y-80662266D01*
X85355000Y-81484326D01*
X85355000Y-83100000D01*
X85388874Y-83270294D01*
X85485337Y-83414663D01*
X85629706Y-83511126D01*
X85800000Y-83545000D01*
X87134488Y-83545000D01*
X87197648Y-83588156D01*
X87275000Y-83603820D01*
X89275000Y-83603820D01*
X89347263Y-83590223D01*
X89413631Y-83547516D01*
X89458156Y-83482352D01*
X89473820Y-83405000D01*
X89473820Y-82805000D01*
X89460223Y-82732737D01*
X89432661Y-82689905D01*
X89599579Y-82620766D01*
X89760766Y-82459578D01*
X89848000Y-82248977D01*
X89848000Y-82128250D01*
X89704750Y-81985000D01*
X88464000Y-81985000D01*
X88464000Y-82044000D01*
X88086000Y-82044000D01*
X88086000Y-81985000D01*
X86845250Y-81985000D01*
X86702000Y-82128250D01*
X86702000Y-82248977D01*
X86789234Y-82459578D01*
X86950421Y-82620766D01*
X87033069Y-82655000D01*
X86245000Y-82655000D01*
X86245000Y-81300005D01*
X86245001Y-81300000D01*
X86211126Y-81129706D01*
X86114663Y-80985337D01*
X85987576Y-80858250D01*
X86702000Y-80858250D01*
X86702000Y-80978977D01*
X86789234Y-81189578D01*
X86799656Y-81200000D01*
X86789234Y-81210422D01*
X86702000Y-81421023D01*
X86702000Y-81541750D01*
X86845250Y-81685000D01*
X88086000Y-81685000D01*
X88086000Y-80715000D01*
X88464000Y-80715000D01*
X88464000Y-81685000D01*
X89704750Y-81685000D01*
X89848000Y-81541750D01*
X89848000Y-81421023D01*
X89760766Y-81210422D01*
X89750344Y-81200000D01*
X89760766Y-81189578D01*
X89848000Y-80978977D01*
X89848000Y-80858250D01*
X92552000Y-80858250D01*
X92552000Y-80978977D01*
X92639234Y-81189578D01*
X92649656Y-81200000D01*
X92639234Y-81210422D01*
X92552000Y-81421023D01*
X92552000Y-81541750D01*
X92695250Y-81685000D01*
X93936000Y-81685000D01*
X93936000Y-80715000D01*
X94314000Y-80715000D01*
X94314000Y-81685000D01*
X95554750Y-81685000D01*
X95698000Y-81541750D01*
X95698000Y-81421023D01*
X95610766Y-81210422D01*
X95600344Y-81200000D01*
X95610766Y-81189578D01*
X95698000Y-80978977D01*
X95698000Y-80858250D01*
X95554750Y-80715000D01*
X94314000Y-80715000D01*
X93936000Y-80715000D01*
X92695250Y-80715000D01*
X92552000Y-80858250D01*
X89848000Y-80858250D01*
X89704750Y-80715000D01*
X88464000Y-80715000D01*
X88086000Y-80715000D01*
X86845250Y-80715000D01*
X86702000Y-80858250D01*
X85987576Y-80858250D01*
X84717576Y-79588250D01*
X86702000Y-79588250D01*
X86702000Y-79708977D01*
X86789234Y-79919578D01*
X86799656Y-79930000D01*
X86789234Y-79940422D01*
X86702000Y-80151023D01*
X86702000Y-80271750D01*
X86845250Y-80415000D01*
X88086000Y-80415000D01*
X88086000Y-79445000D01*
X88464000Y-79445000D01*
X88464000Y-80415000D01*
X89704750Y-80415000D01*
X89848000Y-80271750D01*
X89848000Y-80151023D01*
X92552000Y-80151023D01*
X92552000Y-80271750D01*
X92695250Y-80415000D01*
X93936000Y-80415000D01*
X93936000Y-80356000D01*
X94314000Y-80356000D01*
X94314000Y-80415000D01*
X95554750Y-80415000D01*
X95698000Y-80271750D01*
X95698000Y-80151023D01*
X95610766Y-79940422D01*
X95602955Y-79932610D01*
X98526900Y-79932610D01*
X98526900Y-81214207D01*
X98614134Y-81424809D01*
X98775322Y-81585996D01*
X98985923Y-81673230D01*
X99567750Y-81673230D01*
X99711000Y-81529980D01*
X99711000Y-79789360D01*
X100089000Y-79789360D01*
X100089000Y-81529980D01*
X100232250Y-81673230D01*
X100814077Y-81673230D01*
X101024678Y-81585996D01*
X101185866Y-81424809D01*
X101273100Y-81214207D01*
X101273100Y-79932610D01*
X101129850Y-79789360D01*
X100089000Y-79789360D01*
X99711000Y-79789360D01*
X98670150Y-79789360D01*
X98526900Y-79932610D01*
X95602955Y-79932610D01*
X95449579Y-79779234D01*
X95282432Y-79710000D01*
X95308156Y-79672352D01*
X95323820Y-79595000D01*
X95323820Y-78995000D01*
X95310223Y-78922737D01*
X95267516Y-78856369D01*
X95202352Y-78811844D01*
X95125000Y-78796180D01*
X93125000Y-78796180D01*
X93052737Y-78809777D01*
X92986369Y-78852484D01*
X92941844Y-78917648D01*
X92926180Y-78995000D01*
X92926180Y-79595000D01*
X92939777Y-79667263D01*
X92967339Y-79710095D01*
X92800421Y-79779234D01*
X92639234Y-79940422D01*
X92552000Y-80151023D01*
X89848000Y-80151023D01*
X89760766Y-79940422D01*
X89750344Y-79930000D01*
X89760766Y-79919578D01*
X89848000Y-79708977D01*
X89848000Y-79588250D01*
X89704750Y-79445000D01*
X88464000Y-79445000D01*
X88086000Y-79445000D01*
X86845250Y-79445000D01*
X86702000Y-79588250D01*
X84717576Y-79588250D01*
X84623820Y-79494494D01*
X84623820Y-79000000D01*
X84610223Y-78927737D01*
X84580164Y-78881023D01*
X86702000Y-78881023D01*
X86702000Y-79001750D01*
X86845250Y-79145000D01*
X88086000Y-79145000D01*
X88086000Y-78565250D01*
X88464000Y-78565250D01*
X88464000Y-79145000D01*
X89704750Y-79145000D01*
X89848000Y-79001750D01*
X89848000Y-78881023D01*
X89760766Y-78670422D01*
X89599579Y-78509234D01*
X89388977Y-78422000D01*
X88607250Y-78422000D01*
X88464000Y-78565250D01*
X88086000Y-78565250D01*
X87942750Y-78422000D01*
X87161023Y-78422000D01*
X86950421Y-78509234D01*
X86789234Y-78670422D01*
X86702000Y-78881023D01*
X84580164Y-78881023D01*
X84567516Y-78861369D01*
X84502352Y-78816844D01*
X84425000Y-78801180D01*
X83175000Y-78801180D01*
X83102737Y-78814777D01*
X83036369Y-78857484D01*
X82991844Y-78922648D01*
X82976180Y-79000000D01*
X82976180Y-79305000D01*
X82245083Y-79305000D01*
X82245094Y-79292068D01*
X82162298Y-79091686D01*
X82009121Y-78938241D01*
X81808883Y-78855095D01*
X81592068Y-78854906D01*
X81391686Y-78937702D01*
X81238241Y-79090879D01*
X81155095Y-79291117D01*
X81154906Y-79507932D01*
X75765000Y-79507932D01*
X75765000Y-77669524D01*
X78642834Y-77669524D01*
X78788222Y-78021389D01*
X79057195Y-78290832D01*
X79408806Y-78436834D01*
X79789524Y-78437166D01*
X80141389Y-78291778D01*
X80410832Y-78022805D01*
X80425901Y-77986513D01*
X98526900Y-77986513D01*
X98526900Y-79268110D01*
X98670150Y-79411360D01*
X99711000Y-79411360D01*
X99711000Y-77670740D01*
X100089000Y-77670740D01*
X100089000Y-79411360D01*
X101129850Y-79411360D01*
X101273100Y-79268110D01*
X101273100Y-77986513D01*
X101185866Y-77775911D01*
X101024678Y-77614724D01*
X100814077Y-77527490D01*
X100232250Y-77527490D01*
X100089000Y-77670740D01*
X99711000Y-77670740D01*
X99567750Y-77527490D01*
X98985923Y-77527490D01*
X98775322Y-77614724D01*
X98614134Y-77775911D01*
X98526900Y-77986513D01*
X80425901Y-77986513D01*
X80556834Y-77671194D01*
X80557166Y-77290476D01*
X80411778Y-76938611D01*
X80142805Y-76669168D01*
X79791194Y-76523166D01*
X79410476Y-76522834D01*
X79058611Y-76668222D01*
X78789168Y-76937195D01*
X78643166Y-77288806D01*
X78642834Y-77669524D01*
X75765000Y-77669524D01*
X75765000Y-75129524D01*
X78642834Y-75129524D01*
X78788222Y-75481389D01*
X79057195Y-75750832D01*
X79408806Y-75896834D01*
X79789524Y-75897166D01*
X80141389Y-75751778D01*
X80410832Y-75482805D01*
X80451444Y-75385000D01*
X82205674Y-75385000D01*
X82301180Y-75480506D01*
X82301180Y-76450000D01*
X82314777Y-76522263D01*
X82357484Y-76588631D01*
X82422648Y-76633156D01*
X82500000Y-76648820D01*
X84000000Y-76648820D01*
X84072263Y-76635223D01*
X84138631Y-76592516D01*
X84183156Y-76527352D01*
X84198820Y-76450000D01*
X84198820Y-75150000D01*
X84185223Y-75077737D01*
X84142516Y-75011369D01*
X84077352Y-74966844D01*
X84000000Y-74951180D01*
X83030506Y-74951180D01*
X82704663Y-74625337D01*
X82560294Y-74528874D01*
X82390000Y-74494999D01*
X82389995Y-74495000D01*
X80451605Y-74495000D01*
X80411778Y-74398611D01*
X80142805Y-74129168D01*
X79791194Y-73983166D01*
X79410476Y-73982834D01*
X79058611Y-74128222D01*
X78789168Y-74397195D01*
X78643166Y-74748806D01*
X78642834Y-75129524D01*
X75765000Y-75129524D01*
X75765000Y-72589524D01*
X78642834Y-72589524D01*
X78788222Y-72941389D01*
X79057195Y-73210832D01*
X79408806Y-73356834D01*
X79789524Y-73357166D01*
X80141389Y-73211778D01*
X80410832Y-72942805D01*
X80451444Y-72845000D01*
X82449995Y-72845000D01*
X82450000Y-72845001D01*
X82620294Y-72811126D01*
X82764663Y-72714663D01*
X83030506Y-72448820D01*
X84000000Y-72448820D01*
X84072263Y-72435223D01*
X84138631Y-72392516D01*
X84183156Y-72327352D01*
X84198820Y-72250000D01*
X84198820Y-70950000D01*
X85001180Y-70950000D01*
X85001180Y-72250000D01*
X85014777Y-72322263D01*
X85057484Y-72388631D01*
X85122648Y-72433156D01*
X85200000Y-72448820D01*
X86700000Y-72448820D01*
X86772263Y-72435223D01*
X86838631Y-72392516D01*
X86883156Y-72327352D01*
X86898820Y-72250000D01*
X86898820Y-72045000D01*
X87865674Y-72045000D01*
X88076180Y-72255506D01*
X88076180Y-73200000D01*
X88089777Y-73272263D01*
X88132484Y-73338631D01*
X88197648Y-73383156D01*
X88275000Y-73398820D01*
X89525000Y-73398820D01*
X89597263Y-73385223D01*
X89663631Y-73342516D01*
X89708156Y-73277352D01*
X89723820Y-73200000D01*
X89723820Y-72745000D01*
X89905000Y-72745000D01*
X89905000Y-74300000D01*
X89927456Y-74412892D01*
X89989000Y-74505000D01*
X89723820Y-74505000D01*
X89723820Y-74200000D01*
X89710223Y-74127737D01*
X89667516Y-74061369D01*
X89602352Y-74016844D01*
X89525000Y-74001180D01*
X88275000Y-74001180D01*
X88202737Y-74014777D01*
X88136369Y-74057484D01*
X88091844Y-74122648D01*
X88076180Y-74200000D01*
X88076180Y-75144494D01*
X87865674Y-75355000D01*
X86898820Y-75355000D01*
X86898820Y-75150000D01*
X86885223Y-75077737D01*
X86842516Y-75011369D01*
X86777352Y-74966844D01*
X86700000Y-74951180D01*
X85200000Y-74951180D01*
X85127737Y-74964777D01*
X85061369Y-75007484D01*
X85016844Y-75072648D01*
X85001180Y-75150000D01*
X85001180Y-76450000D01*
X85014777Y-76522263D01*
X85057484Y-76588631D01*
X85122648Y-76633156D01*
X85200000Y-76648820D01*
X86700000Y-76648820D01*
X86772263Y-76635223D01*
X86838631Y-76592516D01*
X86883156Y-76527352D01*
X86898820Y-76450000D01*
X86898820Y-76245000D01*
X88049995Y-76245000D01*
X88050000Y-76245001D01*
X88220294Y-76211126D01*
X88364663Y-76114663D01*
X88580506Y-75898820D01*
X89525000Y-75898820D01*
X89597263Y-75885223D01*
X89663631Y-75842516D01*
X89708156Y-75777352D01*
X89723820Y-75700000D01*
X89723820Y-75095000D01*
X91903394Y-75095000D01*
X91922648Y-75108156D01*
X92000000Y-75123820D01*
X94700000Y-75123820D01*
X94772263Y-75110223D01*
X94838631Y-75067516D01*
X94883156Y-75002352D01*
X94898820Y-74925000D01*
X94898820Y-74675000D01*
X94885223Y-74602737D01*
X94850954Y-74549481D01*
X94883156Y-74502352D01*
X94898820Y-74425000D01*
X94898820Y-74175000D01*
X94885223Y-74102737D01*
X94858382Y-74061023D01*
X97327000Y-74061023D01*
X97327000Y-74094250D01*
X97470250Y-74237500D01*
X97527155Y-74237500D01*
X97414234Y-74350422D01*
X97366084Y-74466666D01*
X97327000Y-74505750D01*
X97327000Y-74538977D01*
X97331566Y-74550000D01*
X97327000Y-74561023D01*
X97327000Y-74594250D01*
X97366084Y-74633334D01*
X97414234Y-74749578D01*
X97527155Y-74862500D01*
X97470250Y-74862500D01*
X97327000Y-75005750D01*
X97327000Y-75038977D01*
X97414234Y-75249578D01*
X97575421Y-75410766D01*
X97786023Y-75498000D01*
X98917750Y-75498000D01*
X99061000Y-75354750D01*
X99061000Y-74862500D01*
X99053250Y-74862500D01*
X99061000Y-74854750D01*
X99061000Y-74675000D01*
X99439000Y-74675000D01*
X99439000Y-74854750D01*
X99446750Y-74862500D01*
X99439000Y-74862500D01*
X99439000Y-75354750D01*
X99582250Y-75498000D01*
X100713977Y-75498000D01*
X100924579Y-75410766D01*
X101085766Y-75249578D01*
X101173000Y-75038977D01*
X101173000Y-75005750D01*
X101029750Y-74862500D01*
X100972845Y-74862500D01*
X101085766Y-74749578D01*
X101133916Y-74633334D01*
X101173000Y-74594250D01*
X101173000Y-74561023D01*
X101168434Y-74550000D01*
X101173000Y-74538977D01*
X101173000Y-74505750D01*
X101133916Y-74466666D01*
X101085766Y-74350422D01*
X100972845Y-74237500D01*
X101029750Y-74237500D01*
X101172250Y-74095000D01*
X102477806Y-74095000D01*
X105605000Y-77222193D01*
X105605000Y-79332201D01*
X105591686Y-79337702D01*
X105438241Y-79490879D01*
X105355095Y-79691117D01*
X105354906Y-79907932D01*
X105437702Y-80108314D01*
X105590879Y-80261759D01*
X105791117Y-80344905D01*
X106007932Y-80345094D01*
X106208314Y-80262298D01*
X106361759Y-80109121D01*
X106390909Y-80038920D01*
X106784379Y-80540594D01*
X106755095Y-80611117D01*
X106754906Y-80827932D01*
X106837702Y-81028314D01*
X106990879Y-81181759D01*
X107191117Y-81264905D01*
X107407932Y-81265094D01*
X107608314Y-81182298D01*
X107761759Y-81029121D01*
X107844905Y-80828883D01*
X107845094Y-80612068D01*
X107762298Y-80411686D01*
X107609121Y-80258241D01*
X107408883Y-80175095D01*
X107247424Y-80174954D01*
X106795000Y-79598113D01*
X106795000Y-77161333D01*
X108305000Y-79284215D01*
X108305000Y-81112201D01*
X108291686Y-81117702D01*
X108138241Y-81270879D01*
X108055095Y-81471117D01*
X108054906Y-81687932D01*
X108137702Y-81888314D01*
X108290879Y-82041759D01*
X108491117Y-82124905D01*
X108707932Y-82125094D01*
X108908314Y-82042298D01*
X109061759Y-81889121D01*
X109144905Y-81688883D01*
X109145094Y-81472068D01*
X109062298Y-81271686D01*
X108909121Y-81118241D01*
X108895000Y-81112377D01*
X108895000Y-79190000D01*
X108888500Y-79157325D01*
X108887527Y-79124021D01*
X108877378Y-79101412D01*
X108872544Y-79077108D01*
X108854035Y-79049406D01*
X108840391Y-79019011D01*
X107535437Y-77184399D01*
X109242888Y-77184399D01*
X109320588Y-77401621D01*
X109829101Y-77554846D01*
X110357542Y-77501807D01*
X110599412Y-77401621D01*
X110677112Y-77184399D01*
X109960000Y-76467286D01*
X109242888Y-77184399D01*
X107535437Y-77184399D01*
X107140391Y-76629011D01*
X107122363Y-76612007D01*
X107108596Y-76591403D01*
X106586295Y-76069101D01*
X108605154Y-76069101D01*
X108658193Y-76597542D01*
X108758379Y-76839412D01*
X108975601Y-76917112D01*
X109692714Y-76200000D01*
X110227286Y-76200000D01*
X110944399Y-76917112D01*
X111161621Y-76839412D01*
X111297181Y-76389524D01*
X111542834Y-76389524D01*
X111688222Y-76741389D01*
X111957195Y-77010832D01*
X112308806Y-77156834D01*
X112689524Y-77157166D01*
X113041389Y-77011778D01*
X113310832Y-76742805D01*
X113456834Y-76391194D01*
X113457166Y-76010476D01*
X113311778Y-75658611D01*
X113042805Y-75389168D01*
X112691194Y-75243166D01*
X112310476Y-75242834D01*
X111958611Y-75388222D01*
X111689168Y-75657195D01*
X111543166Y-76008806D01*
X111542834Y-76389524D01*
X111297181Y-76389524D01*
X111314846Y-76330899D01*
X111261807Y-75802458D01*
X111161621Y-75560588D01*
X110944399Y-75482888D01*
X110227286Y-76200000D01*
X109692714Y-76200000D01*
X108975601Y-75482888D01*
X108758379Y-75560588D01*
X108605154Y-76069101D01*
X106586295Y-76069101D01*
X105732795Y-75215601D01*
X109242888Y-75215601D01*
X109960000Y-75932714D01*
X110677112Y-75215601D01*
X110599412Y-74998379D01*
X110090899Y-74845154D01*
X109562458Y-74898193D01*
X109320588Y-74998379D01*
X109242888Y-75215601D01*
X105732795Y-75215601D01*
X103108597Y-72591403D01*
X103105785Y-72589524D01*
X103012892Y-72527456D01*
X102994161Y-72523730D01*
X102900000Y-72504999D01*
X102899995Y-72505000D01*
X100696606Y-72505000D01*
X100677352Y-72491844D01*
X100600000Y-72476180D01*
X97900000Y-72476180D01*
X97827737Y-72489777D01*
X97761369Y-72532484D01*
X97716844Y-72597648D01*
X97701180Y-72675000D01*
X97701180Y-72925000D01*
X97714777Y-72997263D01*
X97749046Y-73050519D01*
X97716844Y-73097648D01*
X97701180Y-73175000D01*
X97701180Y-73425000D01*
X97714777Y-73497263D01*
X97749046Y-73550519D01*
X97716844Y-73597648D01*
X97709548Y-73633677D01*
X97575421Y-73689234D01*
X97414234Y-73850422D01*
X97327000Y-74061023D01*
X94858382Y-74061023D01*
X94850954Y-74049481D01*
X94883156Y-74002352D01*
X94890452Y-73966323D01*
X95024579Y-73910766D01*
X95185766Y-73749578D01*
X95273000Y-73538977D01*
X95273000Y-73505750D01*
X95129750Y-73362500D01*
X93539000Y-73362500D01*
X93539000Y-73425000D01*
X93161000Y-73425000D01*
X93161000Y-73362500D01*
X91570250Y-73362500D01*
X91477067Y-73455683D01*
X91477094Y-73425068D01*
X91394298Y-73224686D01*
X91241121Y-73071241D01*
X91040883Y-72988095D01*
X90824068Y-72987906D01*
X90623686Y-73070702D01*
X90495000Y-73199163D01*
X90495000Y-72450000D01*
X90472544Y-72337108D01*
X90408597Y-72241403D01*
X90312892Y-72177456D01*
X90200000Y-72155000D01*
X89723820Y-72155000D01*
X89723820Y-71700000D01*
X89710223Y-71627737D01*
X89667516Y-71561369D01*
X89602352Y-71516844D01*
X89525000Y-71501180D01*
X88580506Y-71501180D01*
X88364663Y-71285337D01*
X88220294Y-71188874D01*
X88050000Y-71154999D01*
X88049995Y-71155000D01*
X86898820Y-71155000D01*
X86898820Y-70950000D01*
X86885223Y-70877737D01*
X86842516Y-70811369D01*
X86777352Y-70766844D01*
X86700000Y-70751180D01*
X85200000Y-70751180D01*
X85127737Y-70764777D01*
X85061369Y-70807484D01*
X85016844Y-70872648D01*
X85001180Y-70950000D01*
X84198820Y-70950000D01*
X84185223Y-70877737D01*
X84142516Y-70811369D01*
X84077352Y-70766844D01*
X84000000Y-70751180D01*
X82500000Y-70751180D01*
X82427737Y-70764777D01*
X82361369Y-70807484D01*
X82316844Y-70872648D01*
X82301180Y-70950000D01*
X82301180Y-71919494D01*
X82265674Y-71955000D01*
X80451605Y-71955000D01*
X80411778Y-71858611D01*
X80142805Y-71589168D01*
X79791194Y-71443166D01*
X79410476Y-71442834D01*
X79058611Y-71588222D01*
X78789168Y-71857195D01*
X78643166Y-72208806D01*
X78642834Y-72589524D01*
X75765000Y-72589524D01*
X75765000Y-70844399D01*
X78882888Y-70844399D01*
X78960588Y-71061621D01*
X79469101Y-71214846D01*
X79997542Y-71161807D01*
X80239412Y-71061621D01*
X80317112Y-70844399D01*
X79600000Y-70127286D01*
X78882888Y-70844399D01*
X75765000Y-70844399D01*
X75765000Y-69729101D01*
X78245154Y-69729101D01*
X78298193Y-70257542D01*
X78398379Y-70499412D01*
X78615601Y-70577112D01*
X79332714Y-69860000D01*
X79867286Y-69860000D01*
X80584399Y-70577112D01*
X80801621Y-70499412D01*
X80954846Y-69990899D01*
X80908812Y-69532250D01*
X90327000Y-69532250D01*
X90327000Y-69938977D01*
X90414234Y-70149578D01*
X90575421Y-70310766D01*
X90786023Y-70398000D01*
X91225291Y-70398000D01*
X91205002Y-70500000D01*
X91205002Y-72499997D01*
X91205001Y-72500002D01*
X91223183Y-72591403D01*
X91227458Y-72612894D01*
X91277046Y-72687109D01*
X91291405Y-72708599D01*
X91490508Y-72907701D01*
X91427000Y-73061023D01*
X91427000Y-73094250D01*
X91570250Y-73237500D01*
X93161000Y-73237500D01*
X93161000Y-73175000D01*
X93539000Y-73175000D01*
X93539000Y-73237500D01*
X95129750Y-73237500D01*
X95273000Y-73094250D01*
X95273000Y-73061023D01*
X95185766Y-72850422D01*
X95024579Y-72689234D01*
X94891095Y-72633943D01*
X94885223Y-72602737D01*
X94842516Y-72536369D01*
X94777352Y-72491844D01*
X94700000Y-72476180D01*
X92000000Y-72476180D01*
X91927737Y-72489777D01*
X91915101Y-72497908D01*
X91795002Y-72377808D01*
X91795002Y-71807932D01*
X102254906Y-71807932D01*
X102337702Y-72008314D01*
X102490879Y-72161759D01*
X102691117Y-72244905D01*
X102907932Y-72245094D01*
X103108314Y-72162298D01*
X103261759Y-72009121D01*
X103344905Y-71808883D01*
X103345094Y-71592068D01*
X103262298Y-71391686D01*
X103245000Y-71374358D01*
X103245000Y-71245000D01*
X103584375Y-71245000D01*
X103438241Y-71390879D01*
X103355095Y-71591117D01*
X103354906Y-71807932D01*
X103437702Y-72008314D01*
X103590879Y-72161759D01*
X103791117Y-72244905D01*
X104007932Y-72245094D01*
X104208314Y-72162298D01*
X104225642Y-72145000D01*
X114595000Y-72145000D01*
X114595000Y-75348395D01*
X114498611Y-75388222D01*
X114229168Y-75657195D01*
X114083166Y-76008806D01*
X114082834Y-76389524D01*
X114228222Y-76741389D01*
X114497195Y-77010832D01*
X114848806Y-77156834D01*
X115229524Y-77157166D01*
X115581389Y-77011778D01*
X115850832Y-76742805D01*
X115996834Y-76391194D01*
X115997166Y-76010476D01*
X115851778Y-75658611D01*
X115582805Y-75389168D01*
X115485000Y-75348556D01*
X115485000Y-72100000D01*
X118235000Y-72100000D01*
X118235000Y-81300000D01*
X118239445Y-81323625D01*
X118253407Y-81345323D01*
X118274711Y-81359879D01*
X118300000Y-81365000D01*
X123300000Y-81365000D01*
X123323625Y-81360555D01*
X123345323Y-81346593D01*
X123359879Y-81325289D01*
X123365000Y-81300000D01*
X123365000Y-72100000D01*
X123360555Y-72076375D01*
X123346593Y-72054677D01*
X123325289Y-72040121D01*
X123300000Y-72035000D01*
X118300000Y-72035000D01*
X118276375Y-72039445D01*
X118254677Y-72053407D01*
X118240121Y-72074711D01*
X118235000Y-72100000D01*
X115485000Y-72100000D01*
X115485000Y-71740005D01*
X115485001Y-71740000D01*
X115451126Y-71569706D01*
X115405339Y-71501180D01*
X115354663Y-71425337D01*
X115354660Y-71425335D01*
X115314663Y-71385337D01*
X115170294Y-71288874D01*
X115000000Y-71254999D01*
X114999995Y-71255000D01*
X105915625Y-71255000D01*
X106061759Y-71109121D01*
X106144905Y-70908883D01*
X106145094Y-70692068D01*
X106062298Y-70491686D01*
X105909121Y-70338241D01*
X105708883Y-70255095D01*
X105492068Y-70254906D01*
X105291686Y-70337702D01*
X105274358Y-70355000D01*
X102700005Y-70355000D01*
X102700000Y-70354999D01*
X102529706Y-70388874D01*
X102385337Y-70485337D01*
X102288874Y-70629706D01*
X102254999Y-70800000D01*
X102288874Y-70970294D01*
X102355000Y-71069260D01*
X102355000Y-71374149D01*
X102338241Y-71390879D01*
X102255095Y-71591117D01*
X102254906Y-71807932D01*
X91795002Y-71807932D01*
X91795002Y-70795000D01*
X93899995Y-70795000D01*
X93900000Y-70795001D01*
X93994161Y-70776270D01*
X94012892Y-70772544D01*
X94108597Y-70708597D01*
X94358594Y-70458599D01*
X94358597Y-70458597D01*
X94422544Y-70362892D01*
X94445000Y-70250000D01*
X94445000Y-70023820D01*
X94900000Y-70023820D01*
X94972263Y-70010223D01*
X95038631Y-69967516D01*
X95083156Y-69902352D01*
X95098820Y-69825000D01*
X95098820Y-69645000D01*
X104274324Y-69645000D01*
X104390879Y-69761759D01*
X104591117Y-69844905D01*
X104807932Y-69845094D01*
X105008314Y-69762298D01*
X105161759Y-69609121D01*
X105244905Y-69408883D01*
X105245094Y-69192068D01*
X105162298Y-68991686D01*
X105009121Y-68838241D01*
X104808883Y-68755095D01*
X104592068Y-68754906D01*
X104591841Y-68755000D01*
X95098820Y-68755000D01*
X95098820Y-68575000D01*
X95085223Y-68502737D01*
X95042516Y-68436369D01*
X94977352Y-68391844D01*
X94900000Y-68376180D01*
X93400000Y-68376180D01*
X93327737Y-68389777D01*
X93261369Y-68432484D01*
X93216844Y-68497648D01*
X93201180Y-68575000D01*
X93201180Y-69825000D01*
X93214777Y-69897263D01*
X93257484Y-69963631D01*
X93322648Y-70008156D01*
X93400000Y-70023820D01*
X93855000Y-70023820D01*
X93855000Y-70127807D01*
X93777806Y-70205000D01*
X92830344Y-70205000D01*
X92885766Y-70149578D01*
X92973000Y-69938977D01*
X92973000Y-69532250D01*
X92829750Y-69389000D01*
X91839000Y-69389000D01*
X91839000Y-69409000D01*
X91461000Y-69409000D01*
X91461000Y-69389000D01*
X90470250Y-69389000D01*
X90327000Y-69532250D01*
X80908812Y-69532250D01*
X80901807Y-69462458D01*
X80801621Y-69220588D01*
X80584399Y-69142888D01*
X79867286Y-69860000D01*
X79332714Y-69860000D01*
X78615601Y-69142888D01*
X78398379Y-69220588D01*
X78245154Y-69729101D01*
X75765000Y-69729101D01*
X75765000Y-68875601D01*
X78882888Y-68875601D01*
X79600000Y-69592714D01*
X80317112Y-68875601D01*
X80239412Y-68658379D01*
X79730899Y-68505154D01*
X79202458Y-68558193D01*
X78960588Y-68658379D01*
X78882888Y-68875601D01*
X75765000Y-68875601D01*
X75765000Y-68461023D01*
X90327000Y-68461023D01*
X90327000Y-68867750D01*
X90470250Y-69011000D01*
X91461000Y-69011000D01*
X91461000Y-68145250D01*
X91839000Y-68145250D01*
X91839000Y-69011000D01*
X92829750Y-69011000D01*
X92973000Y-68867750D01*
X92973000Y-68461023D01*
X92885766Y-68250422D01*
X92724579Y-68089234D01*
X92513977Y-68002000D01*
X91982250Y-68002000D01*
X91839000Y-68145250D01*
X91461000Y-68145250D01*
X91317750Y-68002000D01*
X90786023Y-68002000D01*
X90575421Y-68089234D01*
X90414234Y-68250422D01*
X90327000Y-68461023D01*
X75765000Y-68461023D01*
X75765000Y-66165000D01*
X123835000Y-66165000D01*
X123835000Y-113035000D01*
M02*
