G04 #@! TF.FileFunction,Soldermask,Bot*
%FSLAX46Y46*%
G04 Gerber Fmt 4.6, Leading zero omitted, Abs format (unit mm)*
G04 Created by KiCad (PCBNEW 4.0.2-4+6225~38~ubuntu14.04.1-stable) date Sun 15 May 2016 11:37:15 BST*
%MOMM*%
G01*
G04 APERTURE LIST*
%ADD10C,0.100000*%
%ADD11C,0.150000*%
%ADD12C,1.524000*%
%ADD13R,2.000000X1.900000*%
%ADD14C,1.900000*%
%ADD15C,1.000760*%
G04 APERTURE END LIST*
D10*
D11*
X75192000Y-113481000D02*
X75319000Y-113481000D01*
X75192000Y-65602000D02*
X75192000Y-113481000D01*
X124341000Y-65602000D02*
X75192000Y-65602000D01*
X124341000Y-113481000D02*
X124341000Y-65602000D01*
X75319000Y-113481000D02*
X124341000Y-113481000D01*
X80406666Y-109474000D02*
G75*
G03X80406666Y-109474000I-1666666J0D01*
G01*
X76240000Y-109474000D02*
X81240000Y-109474000D01*
X78740000Y-106974000D02*
X78740000Y-111974000D01*
X122062666Y-69342000D02*
G75*
G03X122062666Y-69342000I-1666666J0D01*
G01*
X117896000Y-69342000D02*
X122896000Y-69342000D01*
X120396000Y-66842000D02*
X120396000Y-71842000D01*
D12*
X119000000Y-108200000D03*
X119000000Y-110740000D03*
X119000000Y-105660000D03*
X116460000Y-105660000D03*
X116460000Y-108200000D03*
X116460000Y-110740000D03*
D13*
X83800000Y-91800000D03*
D14*
X83800000Y-94340000D03*
D13*
X84400000Y-85700000D03*
D14*
X84400000Y-88240000D03*
D12*
X79600000Y-69860000D03*
X79600000Y-72400000D03*
X79600000Y-74940000D03*
X79600000Y-77480000D03*
X94840000Y-92000000D03*
X92300000Y-92000000D03*
X89760000Y-92000000D03*
X109960000Y-76200000D03*
X112500000Y-76200000D03*
X115040000Y-76200000D03*
X87500000Y-106900000D03*
X90040000Y-106900000D03*
X82000000Y-99500000D03*
X84540000Y-99500000D03*
D15*
X98574650Y-100748913D03*
X97825350Y-99451087D03*
M02*
